<svg width="428" height="267" viewBox="0 0 428 267" fill="none" xmlns="http://www.w3.org/2000/svg">
<g clip-path="url(#clip0_2544_36097)">
<path d="M364.802 178.822C364.802 178.822 357.538 193.795 354.948 194.464C352.358 195.132 358.655 180.45 358.655 180.45C353.491 180.616 341.3 188.538 341.3 188.538C341.3 188.538 344.207 204.538 341.532 204.549C338.857 204.56 339.682 190.251 339.682 190.251C334.937 192.367 331.074 198.714 331.074 198.714C326.527 208.825 339.76 214.135 339.76 214.135L342.702 218.768C345.643 223.401 357.267 222.736 363.514 220.593C369.762 218.45 366.731 217.003 362.895 214.515C359.061 212.027 351.921 213.735 349.633 212.86C347.345 211.986 350.322 210.432 354.643 210.208C358.963 209.984 361.655 213.982 368.65 213.747C375.647 213.512 379.232 199.85 379.232 199.85C374.652 201.945 365.756 200.42 365.214 198.818C364.672 197.217 377.363 195.746 379.274 194.998C381.184 194.25 384.13 189.86 380.97 182.247C377.81 174.634 364.801 178.82 364.801 178.82L364.802 178.822Z" fill="#B2C4D0"/>
<path d="M339.76 214.135C339.76 214.135 340.647 219.702 338.021 226.557L338.341 229.023C338.341 229.023 340.877 220.174 342.702 218.768C342.702 218.768 333.566 208.919 375.202 185.5C375.202 185.5 342.094 201.135 339.76 214.135Z" fill="#99B1DA"/>
<path d="M296.602 28.8705C263.919 29.7995 238.42 70.8175 202.112 47.2219C126.571 -1.86841 81.3746 38.9204 64.3131 61.6409C34.2461 101.683 55.7623 197.79 108.423 206.849C129.836 210.533 313.501 209.651 321.843 206.686C379.669 186.135 392.618 142.052 364.844 77.8074C356.533 58.5817 327.708 27.9853 296.601 28.8696L296.602 28.8705Z" fill="#F5F5F7"/>
<path d="M95.299 196.98L62.6055 227.632H354.637L321.942 196.98H95.299Z" fill="#CEDBEA"/>
<path d="M354.637 227.633H62.6055V234.116H354.637V227.633Z" fill="#A9BBCE"/>
<path d="M309.823 39.9336H215.05C208.074 39.9336 202.418 45.5827 202.418 52.5512V191.278C202.418 198.246 208.074 203.895 215.05 203.895H309.823C316.8 203.895 322.455 198.246 322.455 191.278V52.5512C322.455 45.5827 316.8 39.9336 309.823 39.9336Z" fill="#D1DBED"/>
<path d="M217.727 44.3594H307.147C312.774 44.3594 317.341 48.9221 317.341 54.5408V189.197C317.341 194.817 312.773 199.378 307.147 199.378H217.727C212.1 199.378 207.533 194.816 207.533 189.197V54.5417C207.533 48.9221 212.101 44.3603 217.727 44.3603V44.3594Z" fill="white"/>
<path d="M274.406 35.8516H250.468C250.163 35.8516 249.916 36.3923 249.916 37.0601V48.1093H256.916C257.519 48.1093 258.069 48.4555 258.329 48.9999L258.93 50.2605C259.019 50.4487 259.316 50.7912 259.524 50.7912H265.351C265.559 50.7912 265.855 50.4487 265.945 50.2605L266.546 48.9999C266.806 48.4555 267.355 48.1093 267.959 48.1093H274.96V37.0601C274.96 36.3923 274.712 35.8516 274.407 35.8516H274.406Z" fill="#7A8DB0"/>
<g opacity="0.15">
<path d="M255.279 46.8711H249.914V48.1079H256.122L255.833 47.3086C255.737 47.0428 255.519 46.8711 255.279 46.8711Z" fill="#010101"/>
<path d="M269.039 47.3086L268.75 48.1079H274.958V46.8711H269.593C269.353 46.8711 269.135 47.0428 269.039 47.3086Z" fill="#010101"/>
<path d="M264.755 50.1033L264.233 48.6856C264.097 48.3147 263.807 48.0781 263.49 48.0781H261.381C261.064 48.0781 260.775 48.3147 260.638 48.6856L260.117 50.1033C260.027 50.3472 259.731 50.7911 259.523 50.7911H265.35C265.141 50.7911 264.845 50.3472 264.755 50.1033H264.755Z" fill="#010101"/>
</g>
<path d="M266.712 40.5116C265.848 36.5883 265.172 32.0475 265.172 30.1749C265.172 29.4322 266.051 28.3653 266.827 27.4235C267.669 26.4014 268.396 25.5181 268.396 24.717C268.396 23.0901 265.792 21.1992 262.437 21.1992C259.082 21.1992 256.478 23.0901 256.478 24.717C256.478 25.519 257.205 26.4014 258.047 27.4235C258.823 28.3653 259.702 29.4322 259.702 30.1749C259.702 32.0475 259.025 36.5883 258.162 40.5116C256.874 46.3596 255.835 48.1025 255.479 48.2057H253.867V49.1941H255.479C255.959 49.1941 257.235 49.1941 259.072 40.9738C259.981 36.9126 260.691 32.1699 260.691 30.1758C260.691 29.0787 259.735 27.9186 258.811 26.7969C258.181 26.0323 257.467 25.1655 257.467 24.7179C257.467 23.7231 259.601 22.1885 262.437 22.1885C265.273 22.1885 267.407 23.7231 267.407 24.7179C267.407 25.1655 266.693 26.0323 266.063 26.7969C265.139 27.9186 264.183 29.0797 264.183 30.1758C264.183 32.1699 264.893 36.9135 265.802 40.9738C267.639 49.1941 268.916 49.1941 269.395 49.1941H271.007V48.2057L269.409 48.2075C269.04 48.1034 268 46.3605 266.712 40.5125V40.5116Z" fill="#D1DBED"/>
<path d="M255.833 47.9056C255.737 47.6855 255.52 47.543 255.279 47.543H249.914C249.782 47.543 249.762 48.2701 249.762 49.1671C249.762 50.0641 249.782 50.7912 249.914 50.7912H255.555C255.746 50.7912 255.927 50.7008 256.041 50.5464L256.468 49.97C256.57 49.8312 256.591 49.6476 256.523 49.4896L255.832 47.9074L255.833 47.9056Z" fill="#7A8DB0"/>
<path d="M274.958 47.5448H269.594C269.353 47.5448 269.136 47.6873 269.04 47.9074L268.349 49.4896C268.28 49.6476 268.301 49.8312 268.404 49.97L268.831 50.5464C268.945 50.7008 269.126 50.7912 269.317 50.7912H274.957C275.09 50.7912 275.11 50.0641 275.11 49.1671C275.11 48.2701 275.09 47.543 274.957 47.543L274.958 47.5448Z" fill="#7A8DB0"/>
<path d="M264.755 50.2612L264.233 49.1678C264.097 48.8819 263.807 48.6992 263.49 48.6992H261.381C261.064 48.6992 260.775 48.8819 260.638 49.1678L260.117 50.2612C260.027 50.4494 259.731 50.792 259.523 50.792H265.35C265.141 50.792 264.845 50.4494 264.755 50.2612H264.755Z" fill="#7A8DB0"/>
<path d="M233.865 166.66H220.279V168.034H233.865V166.66Z" fill="#D1DBED"/>
<path d="M250.597 166.66H237.011V168.034H250.597V166.66Z" fill="#D1DBED"/>
<path d="M239.121 169.707H220.279V171.081H239.121V169.707Z" fill="#D1DBED"/>
<path d="M283.692 75.793H227.189V76.521H283.692V75.793Z" fill="#99B1DA"/>
<path d="M233.396 62.187C232.839 61.9842 232.261 61.8828 231.661 61.8828C231.061 61.8828 230.476 61.9888 229.893 62.1998C229.082 62.4884 228.441 62.9607 227.97 63.6166C227.37 64.4442 227.07 65.5348 227.07 66.8886C227.07 68.2423 227.375 69.3504 227.983 70.1999C228.453 70.842 229.094 71.3143 229.906 71.6167C230.463 71.8194 231.048 71.9208 231.661 71.9208C232.275 71.9208 232.823 71.8149 233.396 71.6039C234.207 71.3024 234.848 70.8256 235.319 70.1743C235.919 69.3339 236.219 68.2387 236.219 66.8886C236.219 65.5385 235.919 64.4314 235.319 63.6029C234.849 62.9561 234.208 62.4839 233.396 62.187ZM233.344 69.5595C232.89 70.0035 232.33 70.2255 231.66 70.2255C230.991 70.2255 230.397 70.0035 229.945 69.5595C229.353 68.9777 229.058 68.087 229.058 66.8886C229.058 65.6901 229.358 64.8187 229.957 64.2368C230.419 63.7974 230.987 63.5773 231.66 63.5773C232.333 63.5773 232.89 63.7974 233.344 64.2368C233.936 64.8105 234.231 65.6938 234.231 66.8886C234.231 68.0834 233.936 68.9777 233.344 69.5595Z" fill="#99B1DA"/>
<path d="M245.131 70.8756C245.107 70.619 245.096 70.1631 245.096 69.5082C245.096 68.6888 244.99 68.1069 244.778 67.7617C244.627 67.5159 244.327 67.294 243.878 67.0957C244.345 66.9405 244.708 66.6573 244.969 66.2453C245.231 65.8333 245.361 65.3583 245.361 64.8194C245.361 64.2028 245.175 63.6511 244.804 63.1642C244.282 62.4873 243.468 62.1484 242.363 62.1484H237.539V71.6557H239.501V67.9179H241.54C242.24 67.9179 242.686 68.0558 242.881 68.3317C243.031 68.5427 243.107 69.0067 243.107 69.722C243.107 70.218 243.126 70.6025 243.162 70.8766C243.199 71.1506 243.252 71.41 243.32 71.6557H245.522V71.3908C245.284 71.305 245.154 71.1332 245.13 70.8766L245.131 70.8756ZM243.001 66.0252C242.753 66.2298 242.366 66.3321 241.839 66.3321H239.501V63.7835H241.968C242.49 63.7835 242.87 63.9306 243.107 64.2229C243.284 64.4339 243.373 64.7034 243.373 65.0313C243.373 65.4881 243.248 65.8196 243 66.0243L243.001 66.0252Z" fill="#99B1DA"/>
<path d="M251.752 62.1484H247.537V71.6557H251.674C253.082 71.6557 254.133 71.0784 254.828 69.9229C255.359 69.0387 255.624 67.9571 255.624 66.6765C255.624 65.4954 255.383 64.5143 254.899 63.7342C254.234 62.6782 253.185 62.1494 251.752 62.1494V62.1484ZM253.118 69.004C252.747 69.6763 252.186 70.0124 251.435 70.0124H249.499V63.7845H251.409C252.009 63.7845 252.477 63.9397 252.814 64.2503C253.328 64.729 253.585 65.5803 253.585 66.8053C253.585 67.7151 253.429 68.4477 253.118 69.004Z" fill="#99B1DA"/>
<path d="M259.497 67.4968H264.139V65.8288H259.497V63.8173H264.534V62.1484H257.535V71.6557H264.774V69.9613H259.497V67.4968Z" fill="#99B1DA"/>
<path d="M274.378 70.8756C274.354 70.619 274.342 70.1631 274.342 69.5082C274.342 68.6888 274.236 68.1069 274.025 67.7617C273.874 67.5159 273.574 67.294 273.125 67.0957C273.591 66.9405 273.954 66.6573 274.216 66.2453C274.477 65.8333 274.607 65.3583 274.607 64.8194C274.607 64.2028 274.421 63.6511 274.05 63.1642C273.528 62.4873 272.714 62.1484 271.609 62.1484H266.785V71.6557H268.747V67.9179H270.786C271.486 67.9179 271.932 68.0558 272.127 68.3317C272.278 68.5427 272.354 69.0067 272.354 69.722C272.354 70.218 272.372 70.6025 272.409 70.8766C272.445 71.1506 272.498 71.41 272.567 71.6557H274.768V71.3908C274.53 71.305 274.4 71.1332 274.377 70.8766L274.378 70.8756ZM272.248 66.0252C272 66.2298 271.612 66.3321 271.085 66.3321H268.748V63.7835H271.214C271.736 63.7835 272.116 63.9306 272.354 64.2229C272.53 64.4339 272.619 64.7034 272.619 65.0313C272.619 65.4881 272.495 65.8196 272.247 66.0243L272.248 66.0252Z" fill="#99B1DA"/>
<path d="M283.375 66.9781C283.004 66.6675 282.423 66.4154 281.633 66.2218L279.302 65.6655C278.991 65.5878 278.768 65.4992 278.635 65.4005C278.406 65.2325 278.292 64.9867 278.292 64.6634C278.292 64.2752 278.473 63.9783 278.836 63.7709C279.138 63.6074 279.514 63.5252 279.963 63.5252C280.714 63.5252 281.249 63.7106 281.569 64.0815C281.745 64.2843 281.856 64.5757 281.899 64.9548H283.809C283.809 64.2048 283.552 63.5471 283.038 62.9826C282.378 62.25 281.398 61.8828 280.099 61.8828C278.735 61.8828 277.74 62.2381 277.114 62.9497C276.66 63.4631 276.435 64.0861 276.435 64.8187C276.435 65.7541 276.749 66.4401 277.38 66.8749C277.751 67.1297 278.444 67.3709 279.459 67.5993L280.495 67.8386C281.104 67.9811 281.52 68.119 281.744 68.2524C282.059 68.4378 282.217 68.6963 282.217 69.0288C282.217 69.4901 282.001 69.8226 281.57 70.0245C281.25 70.1752 280.803 70.251 280.229 70.251C279.461 70.251 278.904 70.061 278.558 69.6819C278.329 69.4234 278.215 69.1001 278.215 68.7118H276.305C276.305 69.5358 276.549 70.2209 277.036 70.768C277.722 71.5354 278.832 71.919 280.364 71.919C281.529 71.919 282.467 71.624 283.175 71.033C283.809 70.5022 284.127 69.7568 284.127 68.795C284.127 68.0057 283.876 67.4001 283.376 66.9781H283.375Z" fill="#99B1DA"/>
<path d="M280.818 101.966H300.678V82.1289H280.818V101.966ZM281.754 83.0634H299.743V101.031H281.754V83.0634Z" fill="#EBEBEB"/>
<path d="M301.772 78.9239C301.106 78.5284 300.245 78.7458 299.849 79.4108L291.056 94.1504L286.196 88.2778C285.702 87.6813 284.817 87.5973 284.22 88.0905C283.623 88.5838 283.539 89.4671 284.033 90.0636L290.161 97.4681C290.429 97.7915 290.826 97.9769 291.242 97.9769C291.278 97.9769 291.313 97.976 291.35 97.9724C291.804 97.9376 292.214 97.6837 292.447 97.2927L302.258 80.845C302.655 80.18 302.437 79.3195 301.771 78.9239H301.772Z" fill="#99B1DA"/>
<path d="M271.17 85.0547H227.051V86.9903H271.17V85.0547Z" fill="#D1DBED"/>
<path d="M267.711 93.6992H227.051V95.6348H267.711V93.6992Z" fill="#D1DBED"/>
<path d="M255.811 89.3789H227.051V91.3145H255.811V89.3789Z" fill="#D1DBED"/>
<path d="M214.793 85.7672L215.2 87.3319L217.174 86.7838V95.8591H219.086V84.8281H217.738L214.793 85.7672Z" fill="#D1DBED"/>
<path d="M221.045 94.4648C220.66 94.4648 220.348 94.7772 220.348 95.1618C220.348 95.5464 220.66 95.8588 221.045 95.8588C221.431 95.8588 221.743 95.5473 221.743 95.1618C221.743 94.7763 221.43 94.4648 221.045 94.4648Z" fill="#D1DBED"/>
<path d="M280.975 131.598H300.835V111.762H280.975V131.598ZM281.91 112.696H299.899V130.664H281.91V112.696Z" fill="#EBEBEB"/>
<path d="M301.928 108.557C301.262 108.161 300.401 108.379 300.005 109.044L291.213 123.783L286.352 117.911C285.858 117.314 284.974 117.23 284.376 117.723C283.779 118.217 283.695 119.1 284.189 119.696L290.317 127.101C290.585 127.424 290.982 127.61 291.398 127.61C291.434 127.61 291.469 127.609 291.506 127.605C291.961 127.57 292.37 127.317 292.603 126.926L302.415 110.478C302.811 109.813 302.593 108.952 301.927 108.557H301.928Z" fill="#99B1DA"/>
<path d="M219.64 121.95C221.553 120.366 222.472 119.448 222.472 117.739C222.472 115.766 221.009 114.461 218.878 114.461C216.934 114.461 215.907 115.285 214.865 116.745L216.219 117.801C217.059 116.714 217.744 116.17 218.739 116.17C219.735 116.17 220.497 116.791 220.497 117.864C220.497 118.843 219.953 119.542 218.46 120.8L214.711 123.986V125.493H222.582V123.815H217.402L219.642 121.95H219.64Z" fill="#D1DBED"/>
<path d="M224.567 124.109C224.185 124.109 223.875 124.419 223.875 124.801C223.875 125.183 224.185 125.492 224.567 125.492C224.95 125.492 225.26 125.183 225.26 124.801C225.26 124.419 224.95 124.109 224.567 124.109Z" fill="#D1DBED"/>
<path d="M273.778 114.688H227.416V116.623H273.778V114.688Z" fill="#D1DBED"/>
<path d="M273.779 119.012H261.141V120.947H273.779V119.012Z" fill="#D1DBED"/>
<path d="M257.638 119.012H227.416V120.947H257.638V119.012Z" fill="#D1DBED"/>
<path d="M280.972 161.45H300.832V141.613H280.972V161.45ZM281.908 142.548H299.897V160.516H281.908V142.548Z" fill="#EBEBEB"/>
<path d="M301.926 138.408C301.26 138.013 300.399 138.23 300.003 138.895L291.21 153.635L286.35 147.762C285.856 147.166 284.971 147.082 284.374 147.575C283.777 148.068 283.693 148.951 284.187 149.548L290.315 156.953C290.583 157.276 290.98 157.461 291.396 157.461C291.432 157.461 291.467 157.46 291.504 157.458C291.958 157.423 292.368 157.169 292.601 156.778L302.412 140.33C302.809 139.665 302.591 138.805 301.925 138.409L301.926 138.408Z" fill="#99B1DA"/>
<path d="M273.776 144.539H227.414V146.475H273.776V144.539Z" fill="#D1DBED"/>
<path d="M257.636 148.859H227.414V150.795H257.636V148.859Z" fill="#D1DBED"/>
<path d="M219.243 148.857L222.211 145.816V144.418H215.164V146.045H219.776L216.899 149.101L217.203 150.272H218.071C219.563 150.272 220.522 150.865 220.522 151.915C220.522 152.964 219.731 153.557 218.68 153.557C217.493 153.557 216.641 153.056 215.879 152.159L214.57 153.375C215.468 154.47 216.793 155.245 218.65 155.245C220.857 155.245 222.379 153.847 222.379 151.886C222.379 149.924 220.934 149.103 219.244 148.86L219.243 148.857Z" fill="#D1DBED"/>
<path d="M223.594 153.891C223.22 153.891 222.916 154.194 222.916 154.568C222.916 154.941 223.22 155.244 223.594 155.244C223.968 155.244 224.271 154.941 224.271 154.568C224.271 154.194 223.968 153.891 223.594 153.891Z" fill="#D1DBED"/>
<path d="M278.312 174.501C278.001 174.436 277.694 174.632 277.627 174.944C276.913 178.263 273.924 180.672 270.519 180.672C267.115 180.672 264.086 178.234 263.398 174.875C263.334 174.564 263.029 174.363 262.718 174.426C262.406 174.49 262.204 174.794 262.268 175.105C263.065 178.998 266.536 181.824 270.519 181.824C274.503 181.824 277.927 179.032 278.755 175.185C278.822 174.873 278.623 174.567 278.312 174.501V174.501Z" fill="#D1DBED"/>
<path d="M270.518 164.996C266.49 164.996 263.012 167.858 262.249 171.801C262.189 172.114 262.392 172.416 262.705 172.476C262.743 172.484 262.779 172.487 262.816 172.487C263.087 172.487 263.328 172.296 263.382 172.021C264.041 168.618 267.043 166.149 270.519 166.149C273.995 166.149 276.758 168.405 277.57 171.636C277.648 171.945 277.961 172.132 278.271 172.054C278.58 171.977 278.767 171.663 278.689 171.355C277.748 167.61 274.388 164.996 270.519 164.996H270.518Z" fill="#D1DBED"/>
<path d="M270.519 161.449C263.916 161.449 258.545 166.815 258.545 173.409C258.545 180.003 263.916 185.369 270.519 185.369C277.122 185.369 282.493 180.003 282.493 173.409C282.493 166.815 277.122 161.449 270.519 161.449ZM270.519 183.731C264.82 183.731 260.185 179.101 260.185 173.409C260.185 167.717 264.82 163.087 270.519 163.087C276.217 163.087 280.853 167.717 280.853 173.409C280.853 179.101 276.217 183.731 270.519 183.731Z" fill="#D1DBED"/>
<path d="M272.891 171.91H268.148V172.668H272.891V171.91Z" fill="#D1DBED"/>
<path d="M272.891 175.012H268.148V175.77H272.891V175.012Z" fill="#D1DBED"/>
<path d="M274.01 173.41H267.029V174.168H274.01V173.41Z" fill="#D1DBED"/>
<path d="M345.564 188.533C348.804 186.089 353 187.781 358.314 183.923C363.626 180.066 359.218 167.565 359.218 167.565C356.762 171.6 349.046 175.087 347.782 174.128C346.518 173.169 355.606 165.358 356.696 163.773C357.787 162.188 357.763 157.229 351.299 152.973C344.835 148.718 336.93 158.804 336.93 158.804C336.93 158.804 339.171 174.256 337.51 176.136C335.849 178.016 333.012 163.299 333.012 163.299C329.086 166.141 323.785 178.702 323.785 178.702C323.785 178.702 334.468 189.609 332.396 191.023C330.323 192.437 323.429 180.883 323.429 180.883C320.856 185.02 321.197 191.982 321.197 191.982C322.987 202.228 336.067 199.402 336.067 199.402L340.792 201.457C345.518 203.512 354.201 196.889 357.927 191.942C361.653 186.994 358.536 187.463 354.245 187.543C349.955 187.625 345.305 192.703 343.068 193.225C340.829 193.748 342.325 190.976 345.564 188.533Z" fill="#D1DBED"/>
<path d="M336.067 199.402C336.067 199.402 339.687 203.262 341.257 209.969L342.802 211.718C342.802 211.718 340.113 203.509 340.791 201.458C340.791 201.458 328.505 198.604 348.527 158.531C348.527 158.531 331.033 188.074 336.066 199.402H336.067Z" fill="#99B1DA"/>
<path d="M158.723 52.0629C158.793 52.5453 159.394 52.7279 159.72 52.3653L175.963 34.2852L157.736 45.1946L158.723 52.0639V52.0629Z" fill="#C8674D"/>
<path d="M157.737 45.1946L175.963 34.2852L151.135 40.7716L157.737 45.1946Z" fill="#F19A6D"/>
<path d="M169.623 53.3601L175.964 34.2852L161.768 48.0693L169.623 53.3601Z" fill="#F19A6D"/>
<path d="M159.081 54.0579L159.274 54.1191C159.345 53.8925 159.417 53.6669 159.485 53.4422L159.291 53.3828C159.223 53.6075 159.152 53.8322 159.08 54.0579H159.081Z" fill="#C8674D"/>
<path d="M103.441 83.2361C103.912 83.2882 104.385 83.3412 104.858 83.3951L104.881 83.1941C104.408 83.1402 103.935 83.0872 103.463 83.0352L103.441 83.2361Z" fill="#C8674D"/>
<path d="M127.004 78.1426L127.205 78.1645C127.259 77.6767 127.233 77.1798 127.113 76.7148L126.916 76.766C127.031 77.2072 127.054 77.6785 127.003 78.1426H127.004Z" fill="#C8674D"/>
<path d="M126.716 76.2103L126.899 76.1226C126.687 75.676 126.344 75.2549 125.964 75L125.85 75.1672C126.201 75.4019 126.519 75.7956 126.716 76.2103Z" fill="#C8674D"/>
<path d="M125.33 74.911L125.392 74.7183C124.926 74.5684 124.412 74.5794 123.928 74.7484L123.994 74.9393C124.438 74.784 124.906 74.774 125.33 74.911Z" fill="#C8674D"/>
<path d="M97.3574 82.7145C97.8129 82.7373 98.2911 82.7666 98.7786 82.8004L98.7932 82.5985C98.3049 82.5638 97.8247 82.5346 97.3684 82.5117L97.3583 82.7136L97.3574 82.7145Z" fill="#C8674D"/>
<path d="M101.414 83.0252C101.886 83.0718 102.358 83.1202 102.832 83.1713L102.854 82.9704C102.38 82.9192 101.907 82.8708 101.434 82.8242L101.414 83.0261V83.0252Z" fill="#C8674D"/>
<path d="M99.3867 82.8473C99.8412 82.8829 100.306 82.9222 100.806 82.9688L100.824 82.7669C100.323 82.7203 99.8586 82.6802 99.4023 82.6445L99.3867 82.8464V82.8473Z" fill="#C8674D"/>
<path d="M105.465 83.4666C105.937 83.5205 106.409 83.5744 106.881 83.6274L106.904 83.4264C106.432 83.3734 105.96 83.3195 105.488 83.2656L105.465 83.4666Z" fill="#C8674D"/>
<path d="M111.545 84.0964C112.033 84.1366 112.512 84.1722 112.968 84.2024L112.982 84.0005C112.527 83.9704 112.05 83.9347 111.561 83.8945L111.545 84.0964Z" fill="#C8674D"/>
<path d="M122.403 78.1397C122.308 77.6893 122.284 77.2171 122.386 76.7713L122.189 76.7266C122.08 77.2016 122.103 77.703 122.205 78.1826L122.404 78.1406L122.403 78.1397Z" fill="#C8674D"/>
<path d="M115.621 84.125L115.615 84.3278C116.091 84.3397 116.57 84.3488 117.046 84.3397L117.042 84.1369C116.57 84.1469 116.094 84.1369 115.621 84.125Z" fill="#C8674D"/>
<path d="M113.579 84.2409C114.066 84.2693 114.546 84.2912 115.005 84.3085L115.012 84.1058C114.554 84.0893 114.076 84.0665 113.59 84.0391L113.578 84.2409H113.579Z" fill="#C8674D"/>
<path d="M95.3242 82.6511C95.7833 82.6575 96.2616 82.6703 96.7463 82.6895L96.7545 82.4876C96.268 82.4684 95.7879 82.4556 95.327 82.4492L95.3242 82.652V82.6511Z" fill="#C8674D"/>
<path d="M109.516 83.9089C109.988 83.9564 110.462 84.0012 110.936 84.0432L110.954 83.8413C110.481 83.7993 110.009 83.7545 109.536 83.707L109.516 83.9089Z" fill="#C8674D"/>
<path d="M107.488 83.6971C107.96 83.7491 108.433 83.8003 108.907 83.8496L108.928 83.6486C108.455 83.5993 107.983 83.5482 107.511 83.4961L107.488 83.6971Z" fill="#C8674D"/>
<path d="M76.3594 88.6415L76.4892 88.7968C76.8916 88.4616 77.2245 88.1958 77.5995 87.9117L77.4769 87.75C77.0992 88.0359 76.7645 88.3045 76.3594 88.6415Z" fill="#C8674D"/>
<path d="M73.2861 91.3113L73.4178 91.4648C73.7955 91.1405 74.1704 90.8107 74.4923 90.5266L74.3579 90.375C74.0369 90.6582 73.6619 90.9879 73.2852 91.3113H73.2861Z" fill="#C8674D"/>
<path d="M71.7148 92.5995L71.8392 92.7603C72.1877 92.4917 72.5516 92.1976 72.9522 91.8623L72.8214 91.707C72.4236 92.0404 72.0624 92.3328 71.7148 92.5995Z" fill="#C8674D"/>
<path d="M74.8164 89.9715L74.9508 90.1231C75.2929 89.8216 75.6596 89.4992 76.0236 89.1886L75.8919 89.0352C75.527 89.3466 75.1594 89.6691 74.8164 89.9715Z" fill="#C8674D"/>
<path d="M66.3691 95.3584L66.414 95.5558C66.8703 95.4516 67.3331 95.3109 67.7894 95.1383L67.7172 94.9492C67.27 95.1191 66.8163 95.2561 66.3691 95.3594V95.3584Z" fill="#C8674D"/>
<path d="M70.0566 93.7632L70.1646 93.9349C70.5505 93.6929 70.9382 93.4289 71.348 93.1283L71.2282 92.9648C70.8221 93.2626 70.4389 93.5239 70.0566 93.7641V93.7632Z" fill="#C8674D"/>
<path d="M117.65 84.1148L117.66 84.3167C117.66 84.3167 117.787 84.3103 117.79 84.3103C118.23 84.2866 118.667 84.2482 119.088 84.1971L119.063 83.9961C118.606 84.0518 118.125 84.092 117.65 84.1148Z" fill="#C8674D"/>
<path d="M68.2773 94.7194L68.3596 94.9048C68.7794 94.7194 69.2102 94.5001 69.6391 94.2535L69.5376 94.0781C69.1151 94.3211 68.6916 94.5367 68.2773 94.7194Z" fill="#C8674D"/>
<path d="M85.2422 83.737L85.3025 83.9307C85.7497 83.7918 86.2098 83.6631 86.6679 83.548L86.6186 83.3516C86.1558 83.4676 85.6931 83.5973 85.2422 83.737Z" fill="#C8674D"/>
<path d="M77.9688 87.3838L78.0876 87.5482C78.4727 87.2705 78.8668 87.0011 79.2592 86.748L79.1494 86.5781C78.7534 86.833 78.3565 87.1043 77.9688 87.3847V87.3838Z" fill="#C8674D"/>
<path d="M91.247 82.5881L91.2644 82.79C91.7262 82.7498 92.21 82.7169 92.6828 82.6941L92.6728 82.4922C92.1954 82.5141 91.7107 82.547 91.2461 82.589L91.247 82.5881Z" fill="#C8674D"/>
<path d="M87.2148 83.2062L87.2597 83.4035C87.7142 83.3003 88.1824 83.2071 88.6516 83.1249L88.6168 82.9258C88.1449 83.008 87.673 83.1021 87.2148 83.2062Z" fill="#C8674D"/>
<path d="M89.2207 82.8272L89.2509 83.0273C89.7091 82.9569 90.1828 82.8967 90.6593 82.8455L90.6382 82.6445C90.159 82.6957 89.6816 82.7569 89.2207 82.8272Z" fill="#C8674D"/>
<path d="M79.6699 86.2527L79.776 86.4254C80.1802 86.1787 80.5945 85.9421 81.0079 85.7211L80.9119 85.543C80.4948 85.7659 80.0778 86.0043 79.6699 86.2527Z" fill="#C8674D"/>
<path d="M93.2935 82.667C93.7535 82.6515 94.2318 82.6442 94.7156 82.6442V82.4414C94.23 82.4414 93.7489 82.4487 93.2871 82.4642L93.2935 82.667Z" fill="#C8674D"/>
<path d="M81.4551 85.261L81.5465 85.4418C81.9681 85.2299 82.4007 85.028 82.8314 84.8417L82.751 84.6562C82.3156 84.8444 81.8803 85.0481 81.4551 85.2619V85.261Z" fill="#C8674D"/>
<path d="M83.3164 84.4218L83.3923 84.61C83.8276 84.4346 84.2748 84.2693 84.723 84.1176L84.658 83.9258C84.2062 84.0783 83.7545 84.2446 83.3164 84.4218Z" fill="#C8674D"/>
<path d="M149.918 72.0647L150.076 72.1908C150.37 71.8236 150.663 71.4426 150.949 71.0581L150.786 70.9375C150.501 71.3202 150.21 71.6993 149.918 72.0647Z" fill="#C8674D"/>
<path d="M148.605 73.6188L148.756 73.7531C149.069 73.4023 149.383 73.0369 149.688 72.6679L149.532 72.5391C149.228 72.9072 148.916 73.2698 148.605 73.6188Z" fill="#C8674D"/>
<path d="M151.145 70.4427L151.309 70.5605C151.584 70.1796 151.858 69.785 152.125 69.3867L151.957 69.2734C151.691 69.669 151.417 70.0618 151.145 70.4418V70.4427Z" fill="#C8674D"/>
<path d="M145.721 76.4778L145.854 76.6303C146.209 76.3215 146.564 75.9964 146.911 75.6657L146.771 75.5195C146.427 75.8484 146.074 76.1717 145.722 76.4787L145.721 76.4778Z" fill="#C8674D"/>
<path d="M142.482 78.9156L142.592 79.0855C142.989 78.8306 143.387 78.5602 143.775 78.2816L143.656 78.1172C143.272 78.394 142.877 78.6625 142.482 78.9156Z" fill="#C8674D"/>
<path d="M152.295 68.7685L152.465 68.8791C152.723 68.4844 152.979 68.0779 153.228 67.6715L153.055 67.5664C152.808 67.9711 152.552 68.3757 152.296 68.7694L152.295 68.7685Z" fill="#C8674D"/>
<path d="M147.207 75.0934L147.35 75.2368C147.683 74.9061 148.016 74.559 148.343 74.2073L148.194 74.0703C147.87 74.4211 147.537 74.7655 147.207 75.0943V75.0934Z" fill="#C8674D"/>
<path d="M144.146 77.7583L144.269 77.92C144.645 77.6359 145.022 77.3372 145.388 77.0303L145.259 76.875C144.894 77.1801 144.521 77.477 144.146 77.7583Z" fill="#C8674D"/>
<path d="M157.742 57.8932L157.932 57.9653C158.099 57.5269 158.265 57.0765 158.427 56.6271L158.236 56.5586C158.075 57.0062 157.91 57.4547 157.742 57.8922V57.8932Z" fill="#C8674D"/>
<path d="M158.438 55.985L158.63 56.0517C158.785 55.605 158.939 55.1501 159.086 54.6997L158.893 54.6367C158.746 55.0861 158.593 55.5392 158.438 55.9841L158.438 55.985Z" fill="#C8674D"/>
<path d="M153.369 67.0418L153.544 67.145C153.783 66.7412 154.023 66.3247 154.255 65.9072L154.078 65.8086C153.847 66.2242 153.608 66.6389 153.369 67.0409V67.0418Z" fill="#C8674D"/>
<path d="M156.988 59.78L157.175 59.8576C157.356 59.4228 157.536 58.978 157.71 58.5349L157.521 58.4609C157.349 58.9021 157.169 59.3461 156.988 59.78Z" fill="#C8674D"/>
<path d="M154.371 65.2735L154.549 65.3703C154.773 64.9565 154.997 64.5317 155.213 64.1079L155.033 64.0156C154.817 64.4386 154.595 64.8615 154.372 65.2735H154.371Z" fill="#C8674D"/>
<path d="M155.307 63.4721L155.489 63.5616C155.698 63.1405 155.906 62.7084 156.107 62.2773L155.923 62.1914C155.723 62.6207 155.515 63.051 155.307 63.4712V63.4721Z" fill="#C8674D"/>
<path d="M156.178 61.6418L156.362 61.7258C156.557 61.2983 156.75 60.8599 156.938 60.4232L156.751 60.3438C156.565 60.7795 156.372 61.2161 156.178 61.6427V61.6418Z" fill="#C8674D"/>
<path d="M138.912 80.8152L138.992 81.0016C139.426 80.8161 139.862 80.6134 140.288 80.3996L140.198 80.2188C139.775 80.4307 139.342 80.6316 138.912 80.8152Z" fill="#C8674D"/>
<path d="M123.507 82.7226L123.6 82.9026C124.042 82.6733 124.451 82.4139 124.817 82.1334L124.694 81.9727C124.337 82.2467 123.938 82.4988 123.506 82.7235L123.507 82.7226Z" fill="#C8674D"/>
<path d="M126.243 80.6503L126.075 80.5352C125.816 80.9115 125.507 81.2659 125.156 81.5875L125.211 81.6478C125.202 81.6432 125.194 81.6377 125.185 81.6331L125.086 81.8094C125.505 82.0415 125.938 82.226 126.408 82.384L126.472 82.1922C126.067 82.057 125.684 81.8962 125.324 81.708C125.673 81.3838 125.982 81.0284 126.243 80.6503Z" fill="#C8674D"/>
<path d="M124.56 81.4786L124.676 81.3123C124.29 81.0437 123.936 80.7341 123.623 80.3906L123.473 80.5267C123.796 80.8812 124.162 81.2009 124.56 81.4776V81.4786Z" fill="#C8674D"/>
<path d="M122.396 76.1311L122.579 76.2187C122.78 75.8031 123.088 75.4514 123.471 75.2002L123.359 75.0312C122.946 75.3025 122.613 75.6825 122.396 76.1301V76.1311Z" fill="#C8674D"/>
<path d="M121.637 83.4712L121.695 83.6649C122.171 83.5224 122.624 83.3552 123.044 83.1698L122.962 82.9844C122.549 83.1671 122.104 83.3306 121.637 83.4712Z" fill="#C8674D"/>
<path d="M122.38 78.7813C122.543 79.217 122.777 79.6445 123.078 80.0501L123.24 79.9295C122.951 79.5385 122.726 79.1293 122.569 78.7109L122.379 78.7813H122.38Z" fill="#C8674D"/>
<path d="M126.902 78.7305C126.793 79.1808 126.613 79.6193 126.391 80.0258L126.568 80.1226C126.798 79.7006 126.986 79.2457 127.098 78.778L126.902 78.7305Z" fill="#C8674D"/>
<path d="M135.065 82.0793L135.112 82.2766C135.578 82.1661 136.038 82.0455 136.495 81.9085L136.436 81.7148C135.984 81.85 135.526 81.9706 135.064 82.0802L135.065 82.0793Z" fill="#C8674D"/>
<path d="M137.018 81.531L137.081 81.7228C137.532 81.5748 137.983 81.4113 138.425 81.235L138.35 81.0469C137.912 81.2204 137.464 81.383 137.018 81.5301V81.531Z" fill="#C8674D"/>
<path d="M127 82.5597C127.444 82.6757 127.92 82.7652 128.413 82.8246L128.438 82.6236C127.954 82.5642 127.487 82.4766 127.051 82.3633L127 82.5588V82.5597Z" fill="#C8674D"/>
<path d="M140.736 79.9389L140.831 80.1179C141.248 79.896 141.665 79.6585 142.072 79.4109L141.967 79.2383C141.563 79.484 141.149 79.7197 140.736 79.9398V79.9389Z" fill="#C8674D"/>
<path d="M119.665 83.9132L119.696 84.1133C120.182 84.0375 120.655 83.9416 121.102 83.8292L121.052 83.6328C120.612 83.7443 120.144 83.8383 119.664 83.9132H119.665Z" fill="#C8674D"/>
<path d="M133.076 82.4713L133.107 82.6713C133.565 82.5992 134.038 82.5115 134.514 82.4092L134.472 82.2109C133.999 82.3123 133.53 82.4 133.076 82.4713Z" fill="#C8674D"/>
<path d="M129.042 82.6836L129.027 82.8855C129.486 82.9193 129.967 82.9302 130.461 82.9193L130.457 82.7165C129.969 82.7274 129.493 82.7165 129.042 82.6836Z" fill="#C8674D"/>
<path d="M131.063 82.6929L131.075 82.8948C131.535 82.8683 132.015 82.8226 132.501 82.7596L132.475 82.5586C131.993 82.6207 131.518 82.6664 131.062 82.692L131.063 82.6929Z" fill="#C8674D"/>
<path d="M65.0771 95.5594L65.0945 95.7613C65.3322 95.7403 65.5718 95.7102 65.806 95.6727L65.773 95.4727C65.5435 95.5101 65.3094 95.5393 65.0762 95.5594H65.0771Z" fill="#C8674D"/>
<path d="M303.193 215.023L302.028 217.239L301.152 218.325L307.207 222.654L310.491 217.243L310.315 215.27L303.193 215.023Z" fill="#F19A6D"/>
<path d="M310.42 217.218C309.755 217.766 307.592 219.882 306.137 218.856C303.687 217.128 301.598 217.164 301.598 217.164L290.396 221.991C290.216 222.064 290.098 222.27 290.104 222.503L290.138 224.002C290.145 224.3 290.35 224.541 290.595 224.541H311.656L310.766 217.406C310.741 217.208 310.555 217.107 310.42 217.219V217.218Z" fill="#303359"/>
<path d="M337.646 215.047L336.431 217.257L335.533 218.34L341.447 222.658L344.85 217.261L344.163 214.133L337.646 215.047Z" fill="#F19A6D"/>
<path d="M344.779 217.234C344.104 217.78 341.899 219.891 340.478 218.867C338.085 217.143 336.005 217.18 336.005 217.18L324.741 221.993C324.56 222.066 324.437 222.272 324.437 222.503L324.434 223.999C324.434 224.296 324.63 224.536 324.874 224.536H345.824L345.118 217.419C345.099 217.222 344.916 217.121 344.779 217.233V217.234Z" fill="#303359"/>
<path d="M299.608 167.538C299.483 176.546 301.896 215.343 301.896 215.343L313.23 215.54C313.23 215.54 321.13 149.307 332.82 126.635L302.128 124.395C302.128 124.395 299.735 158.415 299.608 167.539V167.538Z" fill="#2F4171"/>
<g style="mix-blend-mode:multiply" opacity="0.65">
<path d="M299.862 160.648C299.723 163.511 299.629 165.92 299.606 167.541C299.575 169.753 299.698 173.759 299.9 178.546C301.822 177.864 306.406 175.595 306.026 169.561C305.613 162.989 301.095 161.056 299.862 160.648Z" fill="#143556"/>
</g>
<path d="M333.568 165.852C333.058 156.704 335.169 137.868 336.112 125.532L303.484 124.387C303.484 124.387 304.5 132.665 306.459 141.702C308.613 151.641 311.49 162.497 314.973 172.543C320.299 187.9 332.566 216.225 332.566 216.225L345.21 215.937L334.644 172.948C334.061 170.632 333.701 168.258 333.568 165.853V165.852Z" fill="#34509C"/>
<path d="M313.406 124.734L316.306 138.833L320.615 141.086L317.289 124.87L313.406 124.734Z" fill="#3C5EAA"/>
<path d="M312.311 164.337C313.154 167.108 314.042 169.854 314.974 172.542C315.99 175.471 317.258 178.872 318.645 182.459C321.479 182.048 324.994 175.708 321.026 169.366C317.705 164.059 313.713 164.121 312.311 164.337Z" fill="#3C5EAA"/>
<path d="M272.532 56.4981C271.772 57.6747 272.014 61.809 271.618 61.3002C271.039 60.5575 267.581 53.5961 266.791 53.7057C266 53.8153 268.782 58.3735 268.469 58.3552C268.157 58.3369 264.739 52.3501 264.158 52.5849C263.235 52.9585 267.111 59.0266 266.825 59.1033C266.538 59.18 263.579 54.272 263.202 54.5022C262.457 54.9562 264.866 59.0604 265.253 59.9775C265.253 59.9775 262.825 56.4534 262.214 56.8133C261.585 57.1841 268.227 68.4407 268.227 68.4407C268.227 68.4407 272.493 77.4063 274.746 81.59L282.058 76.0791C282.058 76.0791 275.002 65.5798 274.378 63.9392C274.378 63.9392 273.293 55.3207 272.533 56.4981H272.532Z" fill="#F19A6D"/>
<path d="M271.148 64.6407C271.148 64.6407 272.032 61.1723 272.353 61.0343L271.129 60.7539L271.148 64.6398V64.6407Z" fill="#EF7C59"/>
<path d="M286.748 81.3577L278.085 68.3291L270.062 75.1663C270.062 75.1663 277.881 99.363 288.011 98.265C298.141 97.167 313.302 87.1701 313.302 87.1701L319.4 66.3633C319.4 66.3633 314.87 67.9436 308.572 70.0445C302.275 72.1446 286.748 81.3587 286.748 81.3587V81.3577Z" fill="#6EB77A"/>
<path d="M269.461 75.3601L272.055 81.7315L282.316 74.0173L278.44 67.8633L269.461 75.3601Z" fill="#57935E"/>
<path d="M316.59 67.332C315.563 67.6846 314.288 68.1194 312.826 68.6136C311.255 69.9299 308.043 73.9172 306.898 75.9113C305.425 78.4781 301.275 88.8112 301.277 91.79L302.808 94.4116C307.97 91.7352 313.302 87.1688 313.302 87.1688L318.35 69.9427L316.73 70.098L316.59 67.332Z" fill="#57935E"/>
<path d="M331.45 67.8513L327.173 64.8359L327.207 65.0734L321.85 70.6958L318.226 70.8648L318.221 67.7243L315.109 68.7967C314.127 68.9191 310.92 73.0352 309.445 75.3362C307.847 77.8281 305.797 83.7208 305.653 86.6969L302.127 124.399L336.113 125.537C336.113 125.537 344.364 93.9863 343.899 82.2894C343.596 74.6894 331.45 67.8522 331.45 67.8522V67.8513Z" fill="white"/>
<path d="M331.45 67.8513L327.173 64.8359L327.206 65.0743L321.849 70.6967L318.808 70.8383C319.373 74.4291 319.987 79.3545 319.456 81.2097C318.581 84.268 315.082 96.0663 312.894 96.0663C310.707 96.0663 305.57 93.3003 305.06 93.029L305.055 93.093C305.527 94.264 310.722 107.23 311.038 112.246C311.368 117.503 306.332 124.468 306.332 124.468L306.364 124.542L336.112 125.537C336.112 125.537 344.364 93.9863 343.898 82.2894C343.596 74.6894 331.45 67.8522 331.45 67.8522V67.8513Z" fill="#D1DBED"/>
<path d="M303.028 93.8321C303.028 102.28 300.111 128.205 300.111 128.205L303.319 127.913C303.319 127.913 305.361 104.173 306.819 91.3557C308.277 78.5389 314.548 70.2365 314.548 70.2365L314.694 67.9062C308.861 71.9839 303.028 85.3844 303.028 93.8312V93.8321Z" fill="#6EB77A"/>
<path d="M333.177 68.3164C329.742 71.4359 322.454 74.1397 322.454 74.1397C322.454 74.1397 317.665 88.619 316.832 94.7538C315.998 100.889 315.082 129.273 315.082 129.273L339.484 130.099C339.484 130.099 345.358 87.8645 345.669 82.1462C345.982 76.427 342.338 69.9807 333.177 68.3164Z" fill="#6EB77A"/>
<path d="M333.723 84.8017C331.397 89.7809 323.77 103.71 319.374 111.46C319.138 114.786 318.917 117.967 318.732 120.668C320.517 122.935 323.439 125.059 327.817 123.908C335.035 122.011 341.921 102.983 344.47 92.8556C344.797 90.2578 345.077 87.9394 345.287 86.086C344.123 80.4983 336.377 79.1218 333.723 84.8017Z" fill="#57935E"/>
<path d="M339.253 71.9419C335.547 71.1737 331.427 76.29 331.427 76.29L314.459 104.662L313.473 116.13C322.839 121.407 326.835 115.128 330.644 110.681C337.004 103.258 340.959 96.7013 343.052 91.1511C343.656 86.7162 344.007 82.8212 343.899 80.1941C343.776 77.1879 341.686 74.3041 339.253 71.9428V71.9419Z" fill="#57935E"/>
<path d="M298.172 75.9437C297.931 74.6603 297.353 73.7212 296.596 73.3796C296.596 73.3796 283.481 69.8335 278.948 68.9319C277.556 68.6552 276.758 69.7833 277.218 71.8806L281.783 95.0624C282.092 96.5925 282.763 97.7261 283.636 98.1947L301.797 104.116C303.62 104.444 303.298 102.927 303.18 102.323L298.171 75.9428L298.172 75.9437Z" fill="#E6ECF7"/>
<path d="M296.486 73.9075L277.235 68.9374C275.676 68.8086 275.816 70.324 276.115 71.5398L281.035 95.4159C281.404 97.0199 281.662 97.7489 282.61 98.2997C285.922 100.223 303.274 105.571 303.181 105.096L297.693 75.8788C297.503 74.9014 297.063 74.1825 296.486 73.9084V73.9075Z" fill="#293555"/>
<path d="M304.308 95.9742C303.624 93.9919 301.102 91.3164 301.102 91.3164C301.284 92.3185 301.822 94.3537 300.92 94.2532C300.51 94.2075 299.644 94.3674 297.752 93.0465C296.712 92.3203 293.274 88.0142 292.477 88.1394C291.681 88.2645 296.241 94.3911 296.042 94.5519C295.844 94.7127 293.893 93.0465 293.193 92.5222C292.312 91.8636 289.455 89.8467 289.341 90.5866C289.225 91.3274 296.323 97.1936 294.897 96.0335C294.803 95.9568 289.44 91.1547 289.036 92.1349C288.767 92.7871 293.652 97.0064 293.75 97.2768C293.848 97.5471 289.975 93.4603 289.622 94.2596C289.468 94.6094 291.369 96.6803 292.066 97.2968C293.284 98.3738 299.681 104.472 311.038 112.242L314.459 104.659L304.889 98.3428C304.889 98.3428 304.668 97.0164 304.309 95.9742H304.308Z" fill="#F19A6D"/>
<path d="M339.854 71.846C335.597 69.2472 330.966 76.5229 330.966 76.5229L317.76 103.654L307.759 96.9552L300.727 109.065L317.058 119.097C326.906 123.605 330.259 116.782 333.608 111.857C348.368 90.15 347.058 76.2443 339.854 71.8469V71.846Z" fill="#6EB77A"/>
<path d="M300.301 109.246L306.524 113.276L312.405 99.3409L307.823 96.4727L300.301 109.246Z" fill="#57935E"/>
<path d="M318.058 66.4083L317.135 67.8671C319.498 71.6644 327.811 68.0389 328.207 63.8351C324.672 62.3133 318.058 66.4083 318.058 66.4083Z" fill="#57935E"/>
<path d="M326.43 65.0704L319.361 71.9662C320.596 75.2793 320.431 82.7121 320.431 82.7121C329.079 79.4958 333.384 69.6898 334.047 68.7453C332.935 68.0922 326.391 64.832 326.391 64.832L326.429 65.0695L326.43 65.0704Z" fill="#57935E"/>
<path d="M312.538 74.4092L317.73 70.3909L318.318 66.3945C316.733 66.6823 314.145 67.276 312.027 67.6524C312.469 68.9751 311.685 72.0827 312.539 74.4092H312.538Z" fill="#57935E"/>
<path d="M312.977 72.9082L317.929 69.7541L318.317 65.5859L311.994 67.1699C311.994 67.1699 312.166 69.3668 312.978 72.9082H312.977Z" fill="#6EB77A"/>
<path d="M317.379 62.1933C317.379 62.1933 317.374 62.1988 317.359 62.2134C317.698 62.1632 317.981 62.112 318.169 62.0873C318.239 61.5977 318.349 65.8974 317.693 69.4882C317.006 73.2507 321.456 73.1758 323.813 70.039L327.379 65.7549C327.379 65.7549 326.58 59.7534 326.383 57.4141L317.38 62.1933H317.379Z" fill="#F19A6D"/>
<path d="M318.094 66.7352C318.866 67.0769 321.64 67.0376 324.562 60.7109C320.936 61.6564 319.334 63.412 318.197 63.8112C318.224 64.6069 318.209 65.6318 318.094 66.7352Z" fill="#EF7C59"/>
<path d="M323.926 42.6232C318.95 41.8038 315.825 43.3211 314.282 48.4346C314.203 48.6941 314.143 48.9562 314.079 49.2193C313.774 50.4561 313.53 51.9725 313.856 52.6722C313.856 52.6722 311.588 60.5554 315.418 64.5171C316.018 65.1373 319.891 65.3647 320.683 65.2003C325.949 64.1078 326.552 56.1196 326.552 56.1196C326.702 55.6757 329.184 55.5048 329.326 55.0454C330.691 50.6288 330.006 43.6244 323.925 42.6232H323.926Z" fill="#F19A6D"/>
<path d="M313.823 52.5978C313.833 52.6243 313.844 52.6499 313.855 52.6745C313.855 52.6745 312.792 56.3741 313.352 59.9786C314.144 59.1839 314.715 58.0895 314.903 56.8271C315.142 55.2112 314.701 53.6757 313.821 52.5859C313.821 52.5896 313.822 52.5942 313.823 52.5978Z" fill="#EF7C59"/>
<path d="M326.217 54.1172C324.555 54.1172 323.207 55.8381 323.207 57.9601C323.207 59.6683 324.081 61.1143 325.289 61.6149C326.821 59.1038 326.552 56.1222 326.552 56.1222C326.649 55.8354 327.714 55.6628 328.496 55.4536C327.944 54.6369 327.129 54.1172 326.217 54.1172Z" fill="#EF7C59"/>
<path d="M316.255 59.6582L316.144 59.9268C316.18 59.9414 316.557 60.0903 317.153 60.114C317.994 60.1478 319.274 59.9341 320.656 58.7475L320.466 58.5273C318.245 60.4347 316.274 59.6655 316.254 59.6582H316.255Z" fill="#2B2B2B"/>
<path d="M323.26 51.0964C323.172 51.0516 321.037 50.2697 320.647 50.7228C320.492 50.9027 320.493 51.2526 320.646 51.4764C320.906 51.8573 321.443 51.6472 322.735 51.8956C323.342 52.0126 323.589 52.1295 323.64 52.0418C323.726 51.8911 323.931 51.4398 323.261 51.0964H323.26Z" fill="#2F2F2F"/>
<path d="M314.991 50.207C314.406 50.3723 314.309 50.8564 314.331 51.0035C314.343 51.0894 314.557 51.0373 315.034 51.0547C316.05 51.093 316.386 51.3789 316.681 51.1012C316.855 50.9368 316.952 50.6354 316.888 50.4499C316.727 49.9823 315.069 50.185 314.992 50.207H314.991Z" fill="#2F2F2F"/>
<path d="M321.451 53.1099C321.241 53.0551 321.001 53.277 320.915 53.6059C320.829 53.9347 320.93 54.2462 321.139 54.301C321.35 54.3558 321.589 54.1339 321.675 53.805C321.761 53.4762 321.661 53.1647 321.451 53.1099Z" fill="#2B2B2B"/>
<path d="M315.258 52.3234C315.067 52.2732 314.842 52.4988 314.756 52.8267C314.67 53.1547 314.756 53.4607 314.947 53.5109C315.138 53.5611 315.363 53.3355 315.449 53.0076C315.535 52.6797 315.449 52.3736 315.258 52.3234Z" fill="#2B2B2B"/>
<path d="M324.957 39.8602C320.597 39.5596 320.495 41.7556 315.007 42.268C311.288 42.6152 314.282 48.4357 314.282 48.4357C314.575 47.1815 315.373 46.2589 315.373 46.2589C317.418 48.876 325.993 47.8347 325.993 47.8347L326.252 55.5836L326.638 57.6553L326.439 58.1358C326.853 59.168 327.842 59.3525 328.386 58.3815C330.088 55.3388 331.502 51.1606 331.778 49.6452C332.805 44.01 329.419 40.168 324.957 39.8602Z" fill="#52261F"/>
<path d="M326.804 47.3783C317.901 47.15 315.275 44.6133 315.275 44.6133C315.275 44.6133 315.332 48.5183 326.804 47.3783Z" fill="#73504A"/>
<path d="M326.219 54.9488L326.306 47.5406L325.609 46.0508C325.609 46.0508 323.506 54.461 326.219 54.9488Z" fill="#52261F"/>
<path d="M328.821 53.4924C327.485 53.0667 326.019 53.919 325.547 55.396C325.075 56.874 325.776 58.4169 327.112 58.8425C328.448 59.2682 329.914 58.4159 330.386 56.9389C330.858 55.4609 330.157 53.9181 328.821 53.4924Z" fill="#EF7C59"/>
<path d="M328.01 55.0231C327.557 55.1693 327.192 55.5648 326.924 56.1988L326.851 56.3696L327.035 56.3979C327.299 56.439 328.013 56.6308 328.154 57.0218L328.426 56.9231C328.253 56.4436 327.591 56.228 327.264 56.1494C327.486 55.6927 327.766 55.4068 328.096 55.299C328.541 55.1538 328.942 55.3885 328.946 55.3904L329.097 55.1428C329.076 55.13 328.586 54.8368 328.011 55.0222L328.01 55.0231Z" fill="#2B2B2B"/>
<path d="M317.813 54.2537L317.76 53.9688C317.455 54.0254 315.923 54.335 315.688 54.8429C315.635 54.9553 315.641 55.0722 315.703 55.1818C316.043 55.7811 316.863 56.2716 316.897 56.2926L317.045 56.0432C317.037 56.0387 316.256 55.5701 315.955 55.0384C315.937 55.0074 315.94 54.9882 315.95 54.9644C316.077 54.6904 317.115 54.3835 317.812 54.2537H317.813Z" fill="#2B2B2B"/>
<path d="M326.395 53.1406C325.936 52.9415 325.574 52.6154 325.345 52.2116C324.938 51.4945 324.061 50.3792 322.511 50.2495C320.459 50.0778 319.195 51.2607 318.716 51.8225C318.589 51.9714 318.395 52.0289 318.221 51.9778C318.117 51.9467 317.974 51.9166 317.779 51.8928C317.585 51.87 317.441 51.8663 317.333 51.8718C317.156 51.8809 316.997 51.7832 316.931 51.616C316.684 50.9967 315.969 49.7014 314.317 49.5626C313.197 49.4685 312.344 50.2376 311.917 50.7336C311.682 51.0068 311.391 51.1949 311.082 51.268C311.019 51.2835 310.968 51.3447 310.957 51.4196L310.879 51.9431C310.868 52.0189 310.899 52.091 310.957 52.1212C311.17 52.2335 311.303 52.4829 311.303 52.7652C311.299 53.6147 311.522 55.4042 313.489 55.7997C316.329 56.3706 316.442 52.7104 317.609 52.8693C318.825 53.0346 317.644 56.6346 320.952 57.2996C323.719 57.8559 324.893 55.8874 325.3 54.8753C325.437 54.5355 325.769 54.2879 326.165 54.2377C326.272 54.224 326.36 54.1472 326.38 54.0495L326.521 53.3717C326.541 53.274 326.49 53.1799 326.394 53.1388L326.395 53.1406ZM316.638 52.7149C316.503 53.5042 315.541 55.9303 313.539 55.5384C311.667 55.1712 311.421 53.2091 311.583 52.1285C311.744 51.0643 312.778 49.7042 314.282 49.8375C316.421 50.0275 316.761 51.9942 316.639 52.7149H316.638ZM325.182 54.0011C324.908 55.3539 323.621 57.5143 320.999 57C318.595 56.5286 318.478 53.8001 318.623 52.9844C318.756 52.2399 319.834 50.3317 322.442 50.5637C324.555 50.7519 325.453 52.6656 325.182 54.0011Z" fill="#1F1322"/>
<path opacity="0.3" d="M317.755 52.0293C317.411 51.9873 317.202 52.0805 317.066 51.9453C317.066 51.9453 317.151 52.1061 317.243 52.118C317.335 52.1298 317.568 52.1262 317.735 52.1463C317.903 52.1673 318.129 52.2276 318.225 52.2394C318.321 52.2513 318.461 52.1143 318.461 52.1143C318.278 52.213 318.103 52.0705 317.755 52.0284V52.0293Z" fill="white"/>
<path d="M324.402 66.9518C322.346 69.103 319.361 71.9685 319.361 71.9685C320.596 75.2816 321.571 79.1529 321.571 79.1529C330.937 75.6689 334.047 68.7476 334.047 68.7476L328.205 63.8359C328.205 63.8359 326.457 64.7996 324.401 66.9508L324.402 66.9518Z" fill="#6EB77A"/>
<path d="M285.301 70.8721C285.017 70.7022 284.732 70.6757 284.519 70.8C284.319 70.9169 284.212 71.1453 284.219 71.4431L284.3 74.9297C284.314 75.5618 284.802 76.1008 285.364 76.1081C285.368 76.1081 285.371 76.1081 285.374 76.1081C285.594 76.1081 285.799 76.0222 285.953 75.8642C286.135 75.6788 286.233 75.4075 286.224 75.1188L286.125 72.2268C286.108 71.7253 285.754 71.1425 285.301 70.8721ZM285.732 75.6477C285.634 75.7482 285.508 75.8039 285.368 75.7984C284.975 75.7939 284.62 75.3846 284.609 74.9224L284.528 71.4357C284.525 71.2558 284.576 71.1243 284.675 71.0667C284.715 71.0439 284.763 71.032 284.817 71.032C284.912 71.032 285.026 71.0676 285.142 71.137C285.506 71.3544 285.801 71.8377 285.815 72.2369L285.914 75.128C285.921 75.3326 285.854 75.5217 285.732 75.6468V75.6477Z" fill="#34509C"/>
<path d="M282.799 72.5807L288.132 73.8787L288.383 71.3969L281.818 69.7344L282.799 72.5807Z" fill="#34509C"/>
<path d="M287.996 71.1172L289.597 71.5365L289.592 71.2149L287.996 71.1172Z" fill="#293555"/>
<path d="M281.809 69.7344L288.383 71.395L289.591 71.2133L283.244 69.6211L281.809 69.7344Z" fill="#2F4171"/>
<path d="M365.939 113.484C366.185 113.697 366.568 113.526 366.574 113.201L366.651 108.569L353.664 102.867L365.938 113.484H365.939Z" fill="#C8674D"/>
<path d="M366.653 108.569L370.655 105.088L353.666 102.867L366.653 108.569Z" fill="#F19A6D"/>
<path d="M359.465 114.971L364.225 110.811L353.666 102.867L359.465 114.971Z" fill="#F19A6D"/>
<path d="M254.452 175.57H218.012V215.247H254.452V175.57Z" fill="#A9BBCE"/>
<path d="M218.004 175.57H197.828V215.247H218.004V175.57Z" fill="#7A8DB0"/>
<path d="M238.631 175.57H233.832V179.554H238.631V175.57Z" fill="#E6E6E6"/>
<path d="M99.7477 176.452C99.7477 176.452 98.268 191.961 95.3964 191.508C92.5238 191.055 98.2927 174.345 98.2927 174.345C98.2927 174.345 86.5053 163.822 80.9843 162.793C80.9843 162.793 85.3228 179.605 82.6506 178.459C79.9783 177.314 74.6503 160.029 74.6503 160.029C74.6503 160.029 61.3667 153.386 56.7127 161.043C52.0596 168.701 54.4977 173.903 56.4264 175.022C58.3552 176.141 71.7466 179.815 70.8998 181.446C70.0529 183.076 60.2428 183.247 55.6683 180.241C55.6683 180.241 57.2614 195.511 64.7386 196.918C72.2158 198.324 75.7688 194.474 80.3734 195.427C84.9781 196.38 87.9201 198.541 85.3174 199.103C82.7146 199.665 75.327 196.652 70.7955 198.693C66.264 200.733 62.7687 201.787 69.1256 205.121C75.4825 208.454 87.8616 211.086 91.7877 206.593L95.7137 202.101C95.7137 202.101 110.809 198.579 107.596 186.967C107.596 186.967 104.496 179.511 99.7477 176.454V176.452Z" fill="#D1DBED"/>
<path d="M62.372 165.488C103.231 197.519 91.786 206.592 91.786 206.592C93.5154 208.404 95.7121 202.1 95.7121 202.1C95.3554 187.748 62.3711 165.488 62.3711 165.488H62.372Z" fill="#99B1DA"/>
<path d="M130.636 167.91H90.8359V207.664H130.636V167.91Z" fill="#99B1DA"/>
<path d="M125.441 128.156H85.6406V167.91H125.441V128.156Z" fill="#B2C4D0"/>
<path d="M108.759 128.156H102.324V132.501H108.759V128.156Z" fill="#7A8DB0"/>
<path d="M90.8359 175.154L125.441 167.91H90.8359V175.154Z" fill="#7A8DB0"/>
<path d="M140.656 128.156H125.441V167.91H140.656V128.156Z" fill="#8FACBC"/>
<path d="M145.703 167.91H130.488V207.664H145.703V167.91Z" fill="#7A8DB0"/>
<path d="M176.715 64.6875H129.465V116.135H176.715V64.6875Z" fill="#D1DBED"/>
<path d="M202.885 64.6875H176.725V116.135H202.885V64.6875Z" fill="#99B1DA"/>
<path d="M157.601 64.6875H148.578V87.2948H157.601V64.6875Z" fill="white"/>
<path d="M193.735 64.6875H187.514V69.8531H193.735V64.6875Z" fill="#383838"/>
<path d="M181.668 66.8049C181.668 75.8336 188.976 82.6644 197.964 82.0643C199.68 81.9501 201.332 81.5719 202.883 80.9736V64.6875H181.803C181.715 65.3836 181.668 66.0906 181.668 66.8049Z" fill="#7A8DB0"/>
<path d="M186.688 116.133H139.438V167.58H186.688V116.133Z" fill="#E6ECF7"/>
<path d="M212.857 116.133H186.697V167.58H212.857V116.133Z" fill="#D1DBED"/>
<path d="M203.708 116.133H197.486V167.577H203.708V116.133Z" fill="#7A8DB0"/>
<path d="M139.438 125.737L176.723 116.133H139.438V125.737Z" fill="#99B1DA"/>
<path d="M167.086 116.133H159.039V167.601H167.086V116.133Z" fill="#7A8DB0"/>
<path d="M181.477 167.578H134.227V219.025H181.477V167.578Z" fill="#F19A6D"/>
<path d="M207.647 167.578H181.487V219.025H207.647V167.578Z" fill="#F3CE90"/>
<path d="M163.448 167.578H152.256V174.107H163.448V167.578Z" fill="#F3CE90"/>
<path d="M200.517 167.578H190.258V174.167H200.517V167.578Z" fill="#F19A6D"/>
<g style="mix-blend-mode:multiply" opacity="0.44">
<path d="M134.227 177.182L171.512 167.578H134.227V177.182Z" fill="#636363"/>
</g>
<path d="M198.661 45.2928C189.674 45.8372 182.365 53.5989 182.365 62.6267C182.365 71.6544 189.673 78.4862 198.661 77.886C207.618 77.2877 214.857 69.5306 214.857 60.5577C214.857 51.5848 207.618 44.7493 198.661 45.2919V45.2928Z" fill="#34509C"/>
<path d="M206.246 51.7924C205.26 51.3485 204.052 51.818 203.549 52.841L197.944 64.241L193.697 57.423C193.124 56.5031 191.886 56.2711 190.932 56.905C189.977 57.5399 189.668 58.8005 190.241 59.7212L196.365 69.5437C196.73 70.1283 197.385 70.4562 198.09 70.4097C198.114 70.4078 198.137 70.406 198.16 70.4042C198.891 70.3311 199.55 69.8661 199.881 69.1911L207.123 54.4469C207.626 53.4247 207.233 52.2363 206.246 51.7924Z" fill="white"/>
<path d="M134.863 49.5189C134.552 48.2967 133.308 47.5577 132.084 47.8674L87.1792 59.2564C85.9555 59.567 85.2157 60.8093 85.5257 62.0315L89.2981 76.8698C89.6091 78.092 90.8528 78.831 92.0765 78.5213L136.982 67.1323C138.205 66.8217 138.945 65.5794 138.635 64.3572L134.863 49.5189Z" fill="#8B919E"/>
<path d="M133.693 48.351C133.382 47.1288 132.138 46.3898 130.914 46.6994L86.0092 58.0885C84.7856 58.399 84.0457 59.6413 84.3558 60.8636L88.1282 75.7018C88.4391 76.924 89.6829 77.663 90.9065 77.3534L135.812 65.9643C137.035 65.6538 137.775 64.4114 137.465 63.1892L133.693 48.351Z" fill="white"/>
<path d="M130.167 50.2931L88.3906 60.8906L89.005 63.3068L130.781 52.7093L130.167 50.2931Z" fill="#EBEBEB"/>
<path d="M131.495 55.5158L89.7185 66.1133L90.3328 68.5294L132.109 57.9319L131.495 55.5158Z" fill="#EBEBEB"/>
<path d="M118.78 64.3008L91.0469 71.3359L91.6612 73.7521L119.395 66.7169L118.78 64.3008Z" fill="#EBEBEB"/>
<path d="M384.34 120.152C384.171 119.529 383.527 119.161 382.903 119.33L347.761 128.862C347.137 129.031 346.768 129.674 346.938 130.297L350.265 142.535C350.434 143.158 351.078 143.526 351.701 143.357L386.844 133.825C387.468 133.656 387.836 133.013 387.667 132.39L384.34 120.152Z" fill="#8B919E"/>
<path d="M382.841 119.28C382.586 118.342 381.617 117.788 380.678 118.042L346.198 127.394C345.258 127.649 344.703 128.617 344.959 129.555L348.056 140.948C348.311 141.887 349.28 142.441 350.219 142.186L384.699 132.834C385.639 132.579 386.194 131.612 385.939 130.674L382.841 119.28Z" fill="white"/>
<path d="M380.144 120.84L348.064 129.539L348.569 131.395L380.648 122.695L380.144 120.84Z" fill="#EBEBEB"/>
<path d="M381.235 124.847L349.156 133.547L349.661 135.403L381.74 126.703L381.235 124.847Z" fill="#EBEBEB"/>
<path d="M371.542 131.787L350.246 137.562L350.751 139.418L372.046 133.643L371.542 131.787Z" fill="#EBEBEB"/>
<path d="M100.327 139.668L69.2397 132.073C68.3929 131.866 67.5378 132.384 67.3302 133.23L64.8152 143.503C64.6076 144.349 65.1271 145.203 65.9739 145.41L97.0616 153.005C97.9084 153.212 98.7635 152.693 98.9711 151.848L101.486 141.575C101.694 140.729 101.174 139.875 100.327 139.668Z" fill="#8B919E"/>
<path d="M99.6262 138.734L68.5385 131.139C67.6917 130.932 66.8366 131.451 66.629 132.297L64.1141 142.57C63.9065 143.415 64.4259 144.269 65.2728 144.477L96.3604 152.071C97.2072 152.279 98.0623 151.76 98.2699 150.914L100.785 140.641C100.992 139.795 100.473 138.941 99.6262 138.734Z" fill="white"/>
<path d="M69.0755 133.609L68.666 135.281L97.5892 142.345L97.9987 140.673L69.0755 133.609Z" fill="#EBEBEB"/>
<path d="M68.1887 137.226L67.7793 138.898L96.7025 145.962L97.1119 144.29L68.1887 137.226Z" fill="#EBEBEB"/>
<path d="M67.304 140.843L66.8945 142.516L86.0946 147.205L86.5041 145.532L67.304 140.843Z" fill="#EBEBEB"/>
<path d="M71.3298 86.3688C71.533 82.3072 68.4012 78.8501 64.3348 78.6472C60.2684 78.4443 56.8073 81.5724 56.6042 85.634C56.401 89.6957 59.5328 93.1528 63.5992 93.3557C67.6656 93.5586 71.1267 90.4305 71.3298 86.3688Z" fill="#99B1DA"/>
<path d="M65.5436 88.5556L64.8796 89.2188L63.4694 87.8102C63.2335 87.5746 62.8521 87.5746 62.6171 87.8102L61.7611 88.6652L61.0587 83.2868C61.0158 82.9561 60.7103 82.7232 60.3829 82.767C60.0527 82.81 59.8195 83.1123 59.8625 83.4421L60.7231 90.0336C60.7533 90.2611 60.9097 90.452 61.1273 90.526C61.3441 90.6 61.5855 90.5442 61.7483 90.3816L63.0433 89.0882L64.4535 90.4967C64.5714 90.6146 64.726 90.673 64.8796 90.673C65.0333 90.673 65.1878 90.6146 65.3058 90.4967L66.3959 89.4079C66.6319 89.1722 66.6319 88.7913 66.3959 88.5565C66.16 88.3209 65.7786 88.3209 65.5436 88.5565V88.5556Z" fill="white"/>
<path d="M66.2477 85.8847L67.5427 84.5913C67.7055 84.4287 67.7613 84.1884 67.6872 83.9719C67.6131 83.7545 67.422 83.5983 67.1943 83.5682L60.595 82.7086C60.2676 82.6639 59.9622 82.8977 59.9192 83.2275C59.8762 83.5572 60.1094 83.8596 60.4395 83.9025L65.8243 84.604L64.9683 85.459C64.7323 85.6947 64.7323 86.0756 64.9683 86.3104L66.3785 87.719L65.7145 88.3821C65.4786 88.6178 65.4786 88.9987 65.7145 89.2335C65.8325 89.3513 65.9871 89.4098 66.1407 89.4098C66.2944 89.4098 66.4498 89.3513 66.5669 89.2335L67.657 88.1446C67.893 87.909 67.893 87.528 67.657 87.2933L66.2468 85.8847H66.2477Z" fill="white"/>
<path d="M377.944 66.8294C381.963 66.1778 384.692 62.3955 384.039 58.3813C383.387 54.3672 379.6 51.6413 375.581 52.2928C371.563 52.9444 368.834 56.7268 369.486 60.7409C370.138 64.7551 373.925 67.481 377.944 66.8294Z" fill="#F5F5F7"/>
<path d="M42.1108 97.3617C40.1181 98.8361 39.6992 101.644 41.1753 103.634C42.6513 105.625 45.4626 106.043 47.4554 104.569C49.4481 103.095 49.867 100.287 48.3909 98.2962C46.9149 96.3058 44.1036 95.8874 42.1108 97.3617Z" fill="#F5F5F7"/>
<path d="M364.75 56.4538C367.392 56.0254 369.186 53.5385 368.757 50.8993C368.329 48.26 365.839 46.4678 363.196 46.8962C360.554 47.3246 358.76 49.8114 359.189 52.4507C359.618 55.0899 362.107 56.8822 364.75 56.4538Z" fill="#F5F5F7"/>
<path d="M344.173 56.3008C342.654 56.3008 341.422 57.5312 341.422 59.0485C341.422 60.5657 342.654 61.7962 344.173 61.7962C345.692 61.7962 346.924 60.5657 346.924 59.0485C346.924 57.5312 345.692 56.3008 344.173 56.3008Z" fill="#D1DBED"/>
<path d="M58.1884 97.293C56.6694 97.293 55.4375 98.5234 55.4375 100.041C55.4375 101.558 56.6694 102.788 58.1884 102.788C59.7074 102.788 60.9393 101.558 60.9393 100.041C60.9393 98.5234 59.7074 97.293 58.1884 97.293Z" fill="white"/>
<path d="M110.683 96.6875C107.835 96.6875 105.525 98.994 105.525 101.84C105.525 104.687 107.835 106.992 110.683 106.992C113.532 106.992 115.841 104.686 115.841 101.84C115.841 98.9949 113.532 96.6875 110.683 96.6875Z" fill="white"/>
<path d="M154.284 16.1602C152.33 16.1602 150.746 17.7423 150.746 19.6934C150.746 21.6446 152.33 23.2267 154.284 23.2267C156.237 23.2267 157.821 21.6446 157.821 19.6934C157.821 17.7423 156.237 16.1602 154.284 16.1602Z" fill="#F5F5F7"/>
<path d="M136.539 42.5169C144.073 40.7407 148.739 33.2001 146.961 25.6745C145.183 18.149 137.634 13.4882 130.099 15.2644C122.565 17.0406 117.899 24.5811 119.677 32.1067C121.455 39.6323 129.005 44.2931 136.539 42.5169Z" fill="#D1DBED"/>
<path d="M135.573 26.52L133.321 21.9609L131.068 26.52L126.031 27.2508L129.676 30.7996L128.816 35.8099L133.321 33.4441L137.826 35.8099L136.965 30.7996L140.61 27.2508L135.573 26.52Z" fill="white"/>
<path d="M88.5436 114.687C97.3673 113.393 103.47 105.2 102.175 96.3868C100.88 87.5734 92.6773 81.4774 83.8536 82.771C75.03 84.0646 68.9268 92.2579 70.2219 101.071C71.517 109.885 79.7199 115.981 88.5436 114.687Z" fill="#D1DBED"/>
<path d="M79.2339 95.2812C76.3476 95.2812 74 97.6261 74 100.509C74 103.392 76.3476 105.736 79.2339 105.736C82.1201 105.736 84.4668 103.391 84.4668 100.509C84.4668 97.627 82.1192 95.2812 79.2339 95.2812ZM79.2339 104.122C77.2393 104.122 75.616 102.501 75.616 100.509C75.616 98.5167 77.2384 96.8953 79.2339 96.8953C81.2294 96.8953 82.8508 98.5158 82.8508 100.509C82.8508 102.502 81.2284 104.122 79.2339 104.122Z" fill="white"/>
<path d="M91.4956 95.5195C88.6102 95.5195 86.2617 97.8644 86.2617 100.746C86.2617 103.628 88.6093 105.974 91.4956 105.974C94.3818 105.974 96.7294 103.629 96.7294 100.746C96.7294 97.8635 94.3818 95.5195 91.4956 95.5195ZM91.4956 104.36C89.501 104.36 87.8786 102.74 87.8786 100.747C87.8786 98.755 89.501 97.1345 91.4956 97.1345C93.4902 97.1345 95.1125 98.755 95.1125 100.747C95.1125 102.74 93.4902 104.36 91.4956 104.36Z" fill="white"/>
<path d="M83.4792 93.9599C83.3155 93.7398 83.054 93.6119 82.7769 93.6356C82.5025 93.6539 82.2565 93.8101 82.123 94.0503L78.902 99.8581C78.7639 100.107 78.7676 100.409 78.9102 100.655C79.0538 100.9 79.3154 101.053 79.5998 101.057L87.2041 101.146H87.2132C87.5169 101.146 87.7949 100.976 87.933 100.706C88.0729 100.433 88.0455 100.104 87.8616 99.8572L83.4783 93.9599H83.4792ZM80.9725 99.458L82.9296 95.9284L85.5936 99.5119L80.9725 99.458Z" fill="white"/>
<path d="M85.1369 90.8152L81.8272 89.7428C81.4019 89.6049 80.9465 89.8378 80.8093 90.2617C80.6712 90.6855 80.9044 91.1413 81.3287 91.2784L84.6384 92.3508C84.7217 92.3773 84.8049 92.391 84.8881 92.391C85.2292 92.391 85.5456 92.1736 85.6572 91.8319C85.7953 91.4081 85.5621 90.9523 85.1378 90.8152H85.1369Z" fill="white"/>
<path d="M92.6696 89.7074C92.2342 89.6626 91.8273 89.9777 91.7779 90.4217L90.6924 100.251C90.6439 100.694 90.964 101.094 91.4075 101.142C91.4377 101.146 91.467 101.147 91.4971 101.147C91.9032 101.147 92.2535 100.841 92.2992 100.428L93.3847 90.598C93.4341 90.155 93.114 89.7558 92.6696 89.7074Z" fill="white"/>
<path d="M96.0199 91.5118L90.7714 87.9374C90.4029 87.6853 89.899 87.7822 89.6484 88.1494C89.3969 88.5175 89.492 89.0199 89.8606 89.2711L95.109 92.8455C95.248 92.9405 95.4072 92.9861 95.5636 92.9861C95.8224 92.9861 96.0757 92.8628 96.2321 92.6336C96.4836 92.2645 96.3885 91.763 96.0199 91.5118Z" fill="white"/>
<path d="M91.4967 99.5352H87.2148V101.149H91.4967V99.5352Z" fill="white"/>
<path d="M82.9198 90.5078C82.4735 90.5078 82.1113 90.8695 82.1113 91.3153V94.6211C82.1113 95.0669 82.4735 95.4286 82.9198 95.4286C83.3661 95.4286 83.7282 95.0669 83.7282 94.6211V91.3153C83.7282 90.8695 83.3661 90.5078 82.9198 90.5078Z" fill="white"/>
<path d="M358.268 76.0754C363.195 75.8295 366.989 71.6408 366.743 66.7196C366.497 61.7983 362.303 58.0082 357.376 58.2541C352.449 58.4999 348.655 62.6887 348.901 67.6099C349.147 72.5311 353.341 76.3212 358.268 76.0754Z" fill="#D1DBED"/>
<path d="M360.703 63.2848L353.674 70.1321C353.375 70.4235 353.368 70.9031 353.66 71.2018C353.808 71.3534 354.005 71.4301 354.202 71.4301C354.4 71.4301 354.584 71.3589 354.731 71.2155L361.759 64.3682C362.059 64.0759 362.065 63.5972 361.773 63.2985C361.481 62.9998 361.001 62.9934 360.702 63.2848H360.703Z" fill="white"/>
<path d="M356.893 64.6521C356.918 63.7428 356.201 62.9853 355.291 62.9601C354.38 62.9348 353.622 63.6514 353.597 64.5607C353.571 65.4699 354.289 66.2275 355.199 66.2527C356.109 66.278 356.868 65.5613 356.893 64.6521Z" fill="white"/>
<path d="M360.538 68.0742C359.627 68.0742 358.889 68.8114 358.889 69.7212C358.889 70.631 359.627 71.3682 360.538 71.3682C361.448 71.3682 362.186 70.631 362.186 69.7212C362.186 68.8114 361.448 68.0742 360.538 68.0742Z" fill="white"/>
<path d="M235.796 60.0606C241.101 59.5363 244.976 54.8156 244.451 49.5166C243.926 44.2176 239.2 40.3468 233.895 40.8711C228.59 41.3953 224.715 46.116 225.239 51.4151C225.764 56.7141 230.49 60.5848 235.796 60.0606Z" fill="#D1DBED"/>
<path d="M240.699 46.3671C239.879 46.094 236.377 47.0979 233.953 50.1917C232.313 52.2863 228.302 53.0143 228.392 53.8337C228.484 54.6531 230.306 54.5617 233.224 54.5617C236.141 54.5617 236.961 49.8273 238.237 50.1908C239.513 50.5553 238.875 54.5617 238.875 54.5617H240.243C240.243 54.5617 240.789 50.8284 241.154 49.1897C241.519 47.5509 241.188 46.5297 240.699 46.3671Z" fill="white"/>
<path d="M61.108 106.035C56.0076 106.035 51.873 110.165 51.873 115.259C51.873 120.354 56.0076 124.483 61.108 124.483C66.2083 124.483 70.3429 120.354 70.3429 115.259C70.3429 110.165 66.2083 106.035 61.108 106.035Z" fill="#99B1DA"/>
<path d="M66.5369 111H55.6805C55.2425 111 54.8867 111.355 54.8867 111.793V118.726C54.8867 119.164 55.2425 119.519 55.6805 119.519H66.5369C66.9759 119.519 67.3307 119.164 67.3307 118.726V111.793C67.3307 111.354 66.975 111 66.5369 111ZM65.7431 117.933H56.4753V112.587H65.7431V117.933Z" fill="white"/>
<path d="M61.2482 114.973L56.1561 111.156L55.2031 112.425L60.7854 116.609C60.9263 116.715 61.0945 116.768 61.2619 116.768C61.4292 116.768 61.6112 116.71 61.7557 116.596L67.0298 112.412L66.0421 111.17L61.2482 114.973Z" fill="white"/>
</g>
<defs>
<clipPath id="clip0_2544_36097">
<rect width="428" height="285" fill="white" transform="translate(0 -18)"/>
</clipPath>
</defs>
</svg>
