<svg width="205" height="158" viewBox="0 0 205 158" fill="none" xmlns="http://www.w3.org/2000/svg">
<path d="M55.6939 5.72727V13H54.522L51.0952 8.04616H51.0348V13H49.7173V5.72727H50.8963L54.3196 10.6847H54.3835V5.72727H55.6939ZM59.4519 13.1065C58.9192 13.1065 58.4576 12.9893 58.0669 12.755C57.6763 12.5206 57.3733 12.1927 57.1578 11.7713C56.9448 11.3499 56.8382 10.8575 56.8382 10.294C56.8382 9.73059 56.9448 9.23698 57.1578 8.81321C57.3733 8.38944 57.6763 8.06037 58.0669 7.82599C58.4576 7.59162 58.9192 7.47443 59.4519 7.47443C59.9846 7.47443 60.4462 7.59162 60.8368 7.82599C61.2275 8.06037 61.5293 8.38944 61.7424 8.81321C61.9578 9.23698 62.0655 9.73059 62.0655 10.294C62.0655 10.8575 61.9578 11.3499 61.7424 11.7713C61.5293 12.1927 61.2275 12.5206 60.8368 12.755C60.4462 12.9893 59.9846 13.1065 59.4519 13.1065ZM59.459 12.0767C59.7478 12.0767 59.9893 11.9974 60.1834 11.8388C60.3775 11.6778 60.522 11.4624 60.6167 11.1925C60.7137 10.9226 60.7623 10.6219 60.7623 10.2905C60.7623 9.95668 60.7137 9.65483 60.6167 9.38494C60.522 9.11269 60.3775 8.89607 60.1834 8.73509C59.9893 8.5741 59.7478 8.49361 59.459 8.49361C59.1631 8.49361 58.9168 8.5741 58.7203 8.73509C58.5262 8.89607 58.3806 9.11269 58.2836 9.38494C58.1889 9.65483 58.1415 9.95668 58.1415 10.2905C58.1415 10.6219 58.1889 10.9226 58.2836 11.1925C58.3806 11.4624 58.5262 11.6778 58.7203 11.8388C58.9168 11.9974 59.1631 12.0767 59.459 12.0767ZM69.6463 7.72656C69.6132 7.41643 69.4735 7.17495 69.2273 7.00213C68.9834 6.82931 68.6662 6.7429 68.2756 6.7429C68.0009 6.7429 67.7654 6.78433 67.5689 6.86719C67.3724 6.95005 67.2221 7.0625 67.1179 7.20455C67.0137 7.34659 66.9605 7.50876 66.9581 7.69105C66.9581 7.84257 66.9924 7.97396 67.0611 8.08523C67.1321 8.1965 67.228 8.29119 67.3487 8.36932C67.4695 8.44508 67.6032 8.509 67.75 8.56108C67.8968 8.61316 68.0447 8.65696 68.1939 8.69247L68.8757 8.86293C69.1503 8.92685 69.4143 9.01326 69.6676 9.12216C69.9233 9.23106 70.1518 9.36837 70.353 9.53409C70.5566 9.69981 70.7176 9.89986 70.8359 10.1342C70.9543 10.3686 71.0135 10.6432 71.0135 10.9581C71.0135 11.3842 70.9046 11.7595 70.6868 12.0838C70.469 12.4058 70.1541 12.6579 69.7422 12.8402C69.3326 13.0201 68.8366 13.1101 68.2543 13.1101C67.6884 13.1101 67.1972 13.0225 66.7805 12.8473C66.3662 12.6721 66.0419 12.4164 65.8075 12.0803C65.5755 11.7441 65.45 11.3345 65.4311 10.8516H66.7273C66.7462 11.1049 66.8243 11.3156 66.9616 11.4837C67.099 11.6518 67.2777 11.7772 67.4979 11.8601C67.7204 11.9429 67.969 11.9844 68.2436 11.9844C68.5301 11.9844 68.781 11.9418 68.9964 11.8565C69.2143 11.7689 69.3847 11.6482 69.5078 11.4943C69.6309 11.3381 69.6937 11.1558 69.696 10.9474C69.6937 10.758 69.638 10.6018 69.5291 10.4787C69.4202 10.3532 69.2675 10.2491 69.071 10.1662C68.8769 10.081 68.6496 10.0052 68.3892 9.93892L67.5618 9.72585C66.9628 9.57197 66.4893 9.33878 66.1413 9.02628C65.7957 8.71141 65.6229 8.29356 65.6229 7.77273C65.6229 7.34422 65.7389 6.96899 65.9709 6.64702C66.2053 6.32505 66.5237 6.07528 66.9261 5.89773C67.3286 5.7178 67.7843 5.62784 68.2933 5.62784C68.8094 5.62784 69.2616 5.7178 69.6499 5.89773C70.0405 6.07528 70.3471 6.32268 70.5696 6.63991C70.7921 6.95478 70.907 7.317 70.9141 7.72656H69.6463ZM74.546 13.1065C73.9991 13.1065 73.5268 12.9929 73.1291 12.7656C72.7337 12.536 72.4295 12.2116 72.2164 11.7926C72.0034 11.3712 71.8968 10.8752 71.8968 10.3047C71.8968 9.74361 72.0034 9.25118 72.2164 8.82741C72.4319 8.40128 72.7325 8.06984 73.1184 7.8331C73.5043 7.59399 73.9577 7.47443 74.4785 7.47443C74.8147 7.47443 75.1319 7.52888 75.4302 7.63778C75.7309 7.74432 75.996 7.91004 76.2257 8.13494C76.4577 8.35985 76.64 8.64631 76.7725 8.99432C76.9051 9.33996 76.9714 9.75189 76.9714 10.2301V10.6243H72.5005V9.75781H75.7392C75.7368 9.5116 75.6835 9.29261 75.5794 9.10085C75.4752 8.90672 75.3296 8.75402 75.1426 8.64276C74.9579 8.53149 74.7425 8.47585 74.4963 8.47585C74.2335 8.47585 74.0027 8.53977 73.8038 8.66761C73.6049 8.79309 73.4499 8.95881 73.3386 9.16477C73.2297 9.36837 73.1741 9.59209 73.1717 9.83594V10.5923C73.1717 10.9096 73.2297 11.1818 73.3457 11.4091C73.4617 11.634 73.6239 11.8068 73.8322 11.9276C74.0405 12.0459 74.2844 12.1051 74.5637 12.1051C74.7508 12.1051 74.92 12.0791 75.0716 12.027C75.2231 11.9725 75.3545 11.8932 75.4657 11.7891C75.577 11.6849 75.661 11.5559 75.7179 11.402L76.9181 11.5369C76.8424 11.8542 76.698 12.1312 76.4849 12.3679C76.2742 12.6023 76.0043 12.7846 75.6752 12.9148C75.3462 13.0426 74.9698 13.1065 74.546 13.1065ZM79.6286 13.1101C79.2829 13.1101 78.9716 13.0485 78.6946 12.9254C78.42 12.8 78.2022 12.6153 78.0412 12.3714C77.8826 12.1276 77.8033 11.8269 77.8033 11.4695C77.8033 11.1617 77.8601 10.9072 77.9737 10.706C78.0874 10.5047 78.2424 10.3438 78.4389 10.223C78.6354 10.1023 78.8568 10.0111 79.103 9.94957C79.3516 9.88565 79.6084 9.83949 79.8736 9.81108C80.1932 9.77794 80.4524 9.74834 80.6513 9.7223C80.8501 9.69389 80.9946 9.65128 81.0845 9.59446C81.1768 9.53527 81.223 9.44413 81.223 9.32102V9.29972C81.223 9.0322 81.1437 8.82505 80.9851 8.67827C80.8265 8.53149 80.598 8.4581 80.2997 8.4581C79.9848 8.4581 79.7351 8.52675 79.5504 8.66406C79.3681 8.80137 79.245 8.96354 79.1811 9.15057L77.9808 8.98011C78.0755 8.64867 78.2318 8.37169 78.4496 8.14915C78.6674 7.92424 78.9337 7.75616 79.2486 7.64489C79.5634 7.53125 79.9115 7.47443 80.2926 7.47443C80.5554 7.47443 80.817 7.50521 81.0774 7.56676C81.3378 7.62831 81.5758 7.73011 81.7912 7.87216C82.0066 8.01184 82.1795 8.20241 82.3097 8.44389C82.4422 8.68537 82.5085 8.98722 82.5085 9.34943V13H81.2727V12.2507H81.2301C81.152 12.4022 81.0419 12.5443 80.8999 12.6768C80.7602 12.8071 80.5838 12.9124 80.3707 12.9929C80.16 13.071 79.9126 13.1101 79.6286 13.1101ZM79.9624 12.1655C80.2204 12.1655 80.4441 12.1146 80.6335 12.0128C80.8229 11.9086 80.9685 11.7713 81.0703 11.6009C81.1745 11.4304 81.2266 11.2446 81.2266 11.0433V10.4006C81.1863 10.4337 81.1177 10.4645 81.0206 10.4929C80.9259 10.5213 80.8194 10.5462 80.701 10.5675C80.5826 10.5888 80.4654 10.6077 80.3494 10.6243C80.2334 10.6409 80.1328 10.6551 80.0476 10.6669C79.8558 10.6929 79.6842 10.7356 79.5327 10.7947C79.3812 10.8539 79.2616 10.9368 79.174 11.0433C79.0864 11.1475 79.0426 11.2824 79.0426 11.4482C79.0426 11.6849 79.129 11.8636 79.3018 11.9844C79.4747 12.1051 79.6948 12.1655 79.9624 12.1655ZM83.8011 13V7.54545H85.0476V8.45455H85.1044C85.2038 8.13968 85.3743 7.89702 85.6158 7.72656C85.8596 7.55374 86.1378 7.46733 86.4503 7.46733C86.5213 7.46733 86.6006 7.47088 86.6882 7.47798C86.7782 7.48272 86.8527 7.491 86.9119 7.50284V8.68537C86.8575 8.66643 86.7711 8.64986 86.6527 8.63565C86.5367 8.61908 86.4242 8.6108 86.3153 8.6108C86.081 8.6108 85.8703 8.66169 85.6832 8.76349C85.4986 8.86293 85.353 9.00142 85.2464 9.17898C85.1399 9.35653 85.0866 9.56132 85.0866 9.79332V13H83.8011ZM89.9206 13.1065C89.3761 13.1065 88.9086 12.987 88.5179 12.7479C88.1297 12.5088 87.8302 12.1785 87.6195 11.7571C87.4112 11.3333 87.307 10.8456 87.307 10.294C87.307 9.74006 87.4135 9.25118 87.6266 8.82741C87.8397 8.40128 88.1403 8.06984 88.5286 7.8331C88.9192 7.59399 89.3809 7.47443 89.9135 7.47443C90.3562 7.47443 90.748 7.55611 91.089 7.71946C91.4322 7.88045 91.7057 8.1089 91.9093 8.40483C92.1129 8.69839 92.2289 9.04167 92.2573 9.43466H91.0286C90.9789 9.17187 90.8605 8.95289 90.6735 8.7777C90.4888 8.60014 90.2414 8.51136 89.9313 8.51136C89.6685 8.51136 89.4377 8.58239 89.2388 8.72443C89.04 8.86411 88.8849 9.06534 88.7736 9.32812C88.6647 9.59091 88.6103 9.90578 88.6103 10.2727C88.6103 10.6444 88.6647 10.964 88.7736 11.2315C88.8825 11.4967 89.0352 11.7015 89.2317 11.8459C89.4306 11.9879 89.6638 12.0589 89.9313 12.0589C90.1207 12.0589 90.29 12.0234 90.4391 11.9524C90.5906 11.879 90.7173 11.7737 90.8191 11.6364C90.9209 11.4991 90.9907 11.3321 91.0286 11.1357H92.2573C92.2265 11.5215 92.1129 11.8636 91.9164 12.1619C91.7199 12.4579 91.4524 12.6899 91.1138 12.858C90.7753 13.0237 90.3775 13.1065 89.9206 13.1065ZM94.5984 9.80398V13H93.3129V5.72727H94.57V8.4723H94.6339C94.7617 8.16454 94.9594 7.92187 95.2269 7.74432C95.4968 7.56439 95.8401 7.47443 96.2567 7.47443C96.6355 7.47443 96.9658 7.55374 97.2475 7.71236C97.5292 7.87098 97.747 8.10298 97.9009 8.40838C98.0572 8.71378 98.1353 9.08665 98.1353 9.52699V13H96.8498V9.72585C96.8498 9.3589 96.7551 9.07363 96.5657 8.87003C96.3787 8.66406 96.1159 8.56108 95.7773 8.56108C95.5501 8.56108 95.3465 8.6108 95.1665 8.71023C94.989 8.80729 94.8493 8.94815 94.7475 9.13281C94.6481 9.31747 94.5984 9.54119 94.5984 9.80398ZM101.983 13V5.72727H104.71C105.269 5.72727 105.738 5.82434 106.116 6.01847C106.498 6.21259 106.785 6.48485 106.979 6.83523C107.176 7.18324 107.274 7.58925 107.274 8.05327C107.274 8.51965 107.175 8.92448 106.976 9.26776C106.779 9.60866 106.489 9.87263 106.106 10.0597C105.722 10.2443 105.251 10.3366 104.692 10.3366H102.75V9.2429H104.515C104.842 9.2429 105.109 9.19792 105.317 9.10795C105.526 9.01562 105.68 8.88187 105.779 8.70668C105.881 8.52912 105.932 8.31132 105.932 8.05327C105.932 7.79522 105.881 7.57505 105.779 7.39276C105.677 7.2081 105.522 7.06842 105.314 6.97372C105.106 6.87666 104.837 6.82812 104.508 6.82812H103.3V13H101.983ZM105.74 9.70455L107.54 13H106.07L104.302 9.70455H105.74ZM110.767 13.1065C110.22 13.1065 109.748 12.9929 109.35 12.7656C108.954 12.536 108.65 12.2116 108.437 11.7926C108.224 11.3712 108.118 10.8752 108.118 10.3047C108.118 9.74361 108.224 9.25118 108.437 8.82741C108.653 8.40128 108.953 8.06984 109.339 7.8331C109.725 7.59399 110.178 7.47443 110.699 7.47443C111.035 7.47443 111.353 7.52888 111.651 7.63778C111.952 7.74432 112.217 7.91004 112.446 8.13494C112.678 8.35985 112.861 8.64631 112.993 8.99432C113.126 9.33996 113.192 9.75189 113.192 10.2301V10.6243H108.721V9.75781H111.96C111.958 9.5116 111.904 9.29261 111.8 9.10085C111.696 8.90672 111.55 8.75402 111.363 8.64276C111.179 8.53149 110.963 8.47585 110.717 8.47585C110.454 8.47585 110.223 8.53977 110.025 8.66761C109.826 8.79309 109.671 8.95881 109.559 9.16477C109.45 9.36837 109.395 9.59209 109.392 9.83594V10.5923C109.392 10.9096 109.45 11.1818 109.566 11.4091C109.682 11.634 109.845 11.8068 110.053 11.9276C110.261 12.0459 110.505 12.1051 110.784 12.1051C110.971 12.1051 111.141 12.0791 111.292 12.027C111.444 11.9725 111.575 11.8932 111.686 11.7891C111.798 11.6849 111.882 11.5559 111.939 11.402L113.139 11.5369C113.063 11.8542 112.919 12.1312 112.706 12.3679C112.495 12.6023 112.225 12.7846 111.896 12.9148C111.567 13.0426 111.19 13.1065 110.767 13.1065ZM118.591 8.98722L117.419 9.11506C117.386 8.99669 117.328 8.88542 117.245 8.78125C117.164 8.67708 117.055 8.59304 116.918 8.52912C116.781 8.4652 116.613 8.43324 116.414 8.43324C116.146 8.43324 115.921 8.49124 115.739 8.60724C115.559 8.72325 115.47 8.87358 115.473 9.05824C115.47 9.21686 115.528 9.34588 115.647 9.44531C115.768 9.54474 115.966 9.62642 116.243 9.69034L117.174 9.8892C117.69 10.0005 118.073 10.1768 118.324 10.4183C118.578 10.6598 118.706 10.9759 118.708 11.3665C118.706 11.7098 118.605 12.0128 118.406 12.2756C118.21 12.536 117.936 12.7396 117.586 12.8864C117.235 13.0331 116.833 13.1065 116.378 13.1065C115.711 13.1065 115.173 12.9669 114.766 12.6875C114.359 12.4058 114.116 12.014 114.038 11.5121L115.292 11.3913C115.349 11.6375 115.469 11.8234 115.654 11.9489C115.839 12.0743 116.079 12.1371 116.375 12.1371C116.68 12.1371 116.925 12.0743 117.11 11.9489C117.297 11.8234 117.39 11.6683 117.39 11.4837C117.39 11.3274 117.33 11.1984 117.209 11.0966C117.091 10.9948 116.906 10.9167 116.655 10.8622L115.725 10.6669C115.202 10.558 114.815 10.3745 114.564 10.1165C114.313 9.85606 114.189 9.52699 114.191 9.12926C114.189 8.79309 114.28 8.50189 114.464 8.25568C114.651 8.0071 114.911 7.81534 115.242 7.6804C115.576 7.54309 115.961 7.47443 116.396 7.47443C117.035 7.47443 117.538 7.61056 117.905 7.88281C118.275 8.15507 118.503 8.5232 118.591 8.98722ZM123.244 10.706V7.54545H124.53V13H123.284V12.0305H123.227C123.104 12.3359 122.901 12.5857 122.619 12.7798C122.34 12.974 121.996 13.071 121.586 13.071C121.229 13.071 120.913 12.9917 120.638 12.8331C120.366 12.6721 120.153 12.4389 119.999 12.1335C119.845 11.8258 119.768 11.4541 119.768 11.0185V7.54545H121.053V10.8196C121.053 11.1652 121.148 11.4399 121.338 11.6435C121.527 11.8471 121.776 11.9489 122.083 11.9489C122.273 11.9489 122.456 11.9027 122.634 11.8104C122.811 11.718 122.957 11.5807 123.07 11.3984C123.186 11.2138 123.244 10.983 123.244 10.706ZM127.137 5.72727V13H125.852V5.72727H127.137ZM131.183 7.54545V8.53977H128.047V7.54545H131.183ZM128.822 6.23864H130.107V11.3594C130.107 11.5322 130.133 11.6648 130.185 11.7571C130.24 11.8471 130.311 11.9086 130.398 11.9418C130.486 11.9749 130.583 11.9915 130.689 11.9915C130.77 11.9915 130.843 11.9856 130.91 11.9737C130.978 11.9619 131.03 11.9512 131.066 11.9418L131.282 12.9467C131.214 12.9704 131.116 12.9964 130.988 13.0249C130.862 13.0533 130.708 13.0698 130.526 13.0746C130.204 13.084 129.914 13.0355 129.656 12.929C129.398 12.8201 129.193 12.652 129.042 12.4247C128.893 12.1974 128.819 11.9134 128.822 11.5724V6.23864ZM134.795 13V5.72727H139.455V6.83168H136.113V8.80611H139.135V9.91051H136.113V13H134.795ZM142.577 13.1065C142.044 13.1065 141.583 12.9893 141.192 12.755C140.801 12.5206 140.498 12.1927 140.283 11.7713C140.07 11.3499 139.963 10.8575 139.963 10.294C139.963 9.73059 140.07 9.23698 140.283 8.81321C140.498 8.38944 140.801 8.06037 141.192 7.82599C141.583 7.59162 142.044 7.47443 142.577 7.47443C143.11 7.47443 143.571 7.59162 143.962 7.82599C144.352 8.06037 144.654 8.38944 144.867 8.81321C145.083 9.23698 145.191 9.73059 145.191 10.294C145.191 10.8575 145.083 11.3499 144.867 11.7713C144.654 12.1927 144.352 12.5206 143.962 12.755C143.571 12.9893 143.11 13.1065 142.577 13.1065ZM142.584 12.0767C142.873 12.0767 143.114 11.9974 143.308 11.8388C143.503 11.6778 143.647 11.4624 143.742 11.1925C143.839 10.9226 143.887 10.6219 143.887 10.2905C143.887 9.95668 143.839 9.65483 143.742 9.38494C143.647 9.11269 143.503 8.89607 143.308 8.73509C143.114 8.5741 142.873 8.49361 142.584 8.49361C142.288 8.49361 142.042 8.5741 141.845 8.73509C141.651 8.89607 141.506 9.11269 141.409 9.38494C141.314 9.65483 141.267 9.95668 141.267 10.2905C141.267 10.6219 141.314 10.9226 141.409 11.1925C141.506 11.4624 141.651 11.6778 141.845 11.8388C142.042 11.9974 142.288 12.0767 142.584 12.0767ZM149.758 10.706V7.54545H151.044V13H149.797V12.0305H149.74C149.617 12.3359 149.415 12.5857 149.133 12.7798C148.854 12.974 148.509 13.071 148.1 13.071C147.742 13.071 147.426 12.9917 147.152 12.8331C146.879 12.6721 146.666 12.4389 146.512 12.1335C146.359 11.8258 146.282 11.4541 146.282 11.0185V7.54545H147.567V10.8196C147.567 11.1652 147.662 11.4399 147.851 11.6435C148.041 11.8471 148.289 11.9489 148.597 11.9489C148.786 11.9489 148.97 11.9027 149.147 11.8104C149.325 11.718 149.471 11.5807 149.584 11.3984C149.7 11.2138 149.758 10.983 149.758 10.706ZM153.651 9.80398V13H152.366V7.54545H153.594V8.4723H153.658C153.784 8.1669 153.984 7.92424 154.258 7.74432C154.535 7.56439 154.877 7.47443 155.285 7.47443C155.661 7.47443 155.989 7.55492 156.268 7.71591C156.55 7.87689 156.768 8.11009 156.922 8.41548C157.078 8.72088 157.155 9.09138 157.153 9.52699V13H155.867V9.72585C155.867 9.36127 155.772 9.07599 155.583 8.87003C155.396 8.66406 155.137 8.56108 154.805 8.56108C154.58 8.56108 154.38 8.6108 154.205 8.71023C154.032 8.80729 153.896 8.94815 153.797 9.13281C153.7 9.31747 153.651 9.54119 153.651 9.80398ZM160.483 13.0959C160.055 13.0959 159.671 12.9858 159.333 12.7656C158.994 12.5455 158.727 12.2259 158.53 11.8068C158.334 11.3878 158.236 10.8788 158.236 10.2798C158.236 9.67377 158.335 9.16241 158.534 8.74574C158.735 8.3267 159.006 8.01065 159.347 7.79759C159.688 7.58215 160.068 7.47443 160.487 7.47443C160.807 7.47443 161.069 7.52888 161.275 7.63778C161.481 7.74432 161.645 7.87334 161.765 8.02486C161.886 8.17401 161.98 8.31487 162.046 8.44744H162.099V5.72727H163.388V13H162.124V12.1406H162.046C161.98 12.2732 161.884 12.4141 161.758 12.5632C161.633 12.71 161.467 12.8355 161.261 12.9396C161.055 13.0438 160.796 13.0959 160.483 13.0959ZM160.842 12.0412C161.114 12.0412 161.346 11.9678 161.538 11.821C161.73 11.6719 161.876 11.4647 161.975 11.1996C162.074 10.9344 162.124 10.6255 162.124 10.2727C162.124 9.91998 162.074 9.6134 161.975 9.35298C161.878 9.09257 161.733 8.89015 161.542 8.74574C161.352 8.60133 161.119 8.52912 160.842 8.52912C160.556 8.52912 160.317 8.60369 160.125 8.75284C159.933 8.90199 159.789 9.10795 159.692 9.37074C159.595 9.63352 159.546 9.93419 159.546 10.2727C159.546 10.6136 159.595 10.9179 159.692 11.1854C159.791 11.4505 159.937 11.66 160.128 11.8139C160.323 11.9654 160.56 12.0412 160.842 12.0412ZM168.812 5.72727L168.695 10.8622H167.551L167.438 5.72727H168.812ZM168.123 13.0781C167.907 13.0781 167.723 13.0024 167.569 12.8509C167.417 12.6993 167.342 12.5147 167.342 12.2969C167.342 12.0838 167.417 11.9015 167.569 11.75C167.723 11.5985 167.907 11.5227 168.123 11.5227C168.334 11.5227 168.516 11.5985 168.67 11.75C168.826 11.9015 168.904 12.0838 168.904 12.2969C168.904 12.4413 168.867 12.5727 168.794 12.6911C168.723 12.8094 168.628 12.9041 168.51 12.9751C168.394 13.0438 168.265 13.0781 168.123 13.0781Z" fill="#AFAFAF"/>
<g clip-path="url(#clip0_201_51)">
<path d="M168.723 69.2295C168.602 68.4535 167.874 67.9221 167.095 68.0433C166.319 68.1645 165.787 68.894 165.908 69.67C166.113 70.9961 166.372 75.149 164.938 76.8199C164.628 77.1812 164.252 77.3979 163.781 77.4841L163.912 69.5745C163.931 68.4255 163.005 67.484 161.853 67.484C160.7 67.484 159.765 68.4372 159.793 69.5931L160.166 84.6038C159.672 84.5245 159.282 84.3078 158.961 83.9326C157.526 82.2616 157.788 78.1087 157.99 76.7826C158.112 76.0066 157.58 75.2772 156.803 75.156C156.024 75.0348 155.297 75.5661 155.176 76.3422C155.073 76.9947 154.25 82.8116 156.794 85.7806C157.669 86.8014 158.853 87.3817 160.236 87.4703L160.397 94.0049H163.506L163.732 80.3529C165.085 80.2481 166.242 79.6724 167.102 78.668C169.647 75.6966 168.823 69.8821 168.721 69.2295H168.723Z" fill="#BDBDBD"/>
<path d="M36.011 81.9564C35.9341 81.4623 35.47 81.1221 34.9732 81.2013C34.4788 81.2782 34.1383 81.742 34.2176 82.2384C34.3482 83.0843 34.5138 85.7318 33.5996 86.7968C33.4013 87.0275 33.1635 87.165 32.8626 87.2209L32.9466 82.1778C32.9582 81.446 32.3682 80.8447 31.6336 80.8447C30.8989 80.8447 30.3042 81.453 30.3206 82.1894L30.5584 91.7584C30.2436 91.7071 29.994 91.5696 29.7911 91.3319C28.8769 90.2669 29.0425 87.6194 29.1731 86.7735C29.2501 86.2794 28.9119 85.8133 28.4175 85.7364C27.9207 85.6595 27.4566 85.9974 27.3797 86.4915C27.3144 86.9087 26.7896 90.6141 28.4105 92.5088C28.9679 93.159 29.7235 93.5296 30.6051 93.5855L30.7077 97.7501H32.69L32.8346 89.048C33.6952 88.9804 34.4345 88.6146 34.9826 87.9737C36.6034 86.0813 36.0787 82.3735 36.0134 81.9564H36.011Z" fill="#BDBDBD"/>
<path d="M102.499 158C159.107 158 204.998 141.766 204.998 121.74C204.998 101.714 159.107 85.48 102.499 85.48C45.8903 85.48 0 101.714 0 121.74C0 141.766 45.8903 158 102.499 158Z" fill="url(#paint0_linear_201_51)"/>
<path d="M145.677 107.834C145.677 108.347 126.756 108.762 103.415 108.762C80.0751 108.762 61.1542 108.347 61.1542 107.834C61.1542 107.321 80.0751 106.906 103.415 106.906C126.756 106.906 145.677 107.321 145.677 107.834Z" fill="#D0DFF3"/>
<path d="M67.0499 107.834C67.0499 108.347 64.2466 108.761 60.788 108.761C57.3294 108.761 54.5261 108.347 54.5261 107.834C54.5261 107.321 57.3294 106.906 60.788 106.906C64.2466 106.906 67.0499 107.321 67.0499 107.834Z" fill="#D0DFF3"/>
<path d="M52.3129 79.9031C52.0937 80.9984 53.409 81.2175 53.6282 82.7486C53.8474 84.2821 53.1898 84.7202 53.409 85.5941C53.6282 86.4681 54.9436 86.6895 55.1628 88.8778C55.382 91.0661 54.5051 90.8494 54.7243 92.1614C54.9436 93.4735 56.2589 93.4758 56.4781 94.5688C56.6974 95.6618 56.6974 97.1953 57.1358 98.5097C57.5743 99.8241 58.8896 101.793 59.5449 101.793C60.2003 101.793 61.9541 98.0715 61.5179 96.9762C61.0818 95.8809 60.4218 95.6618 60.4218 94.7879C60.4218 93.914 61.2987 91.7233 61.0795 90.1898C60.8603 88.6564 58.8896 87.9992 58.6704 86.9062C58.4511 85.8132 59.1088 82.9653 57.5743 81.6509C56.0397 80.3366 52.5344 78.8054 52.3152 79.8984L52.3129 79.9031Z" fill="#3FB790"/>
<path d="M59.4423 101.423C59.3817 101.423 59.3327 101.374 59.3327 101.313C59.3327 101.285 59.314 98.4397 58.4791 97.6054C57.6325 96.7595 57.1498 94.1703 56.9142 89.2134C56.6997 84.7085 53.4673 80.9984 53.4346 80.9611C53.395 80.9168 53.3996 80.8469 53.444 80.8073C53.4906 80.7677 53.5582 80.7723 53.5979 80.8166C53.6305 80.8539 56.9119 84.62 57.1311 89.204C57.362 94.0375 57.8378 96.6593 58.633 97.4516C59.5309 98.3489 59.5496 101.192 59.5496 101.313C59.5496 101.374 59.5006 101.423 59.44 101.423H59.4423Z" fill="#34916F"/>
<path d="M72.3672 83.217C73.1415 83.9908 70.6134 84.3124 70.3942 85.8435C70.175 87.377 70.175 88.0318 69.2981 88.9081C68.4212 89.7844 67.1082 90.0034 67.3251 91.3155C67.5443 92.6299 67.9827 93.9419 67.3251 94.5991C66.6674 95.2563 65.1352 95.2563 64.6967 96.3517C64.2583 97.447 64.4775 98.7591 63.6006 99.8544C62.7237 100.95 61.4107 103.138 60.3146 102.7C59.2185 102.262 59.8761 97.2256 60.3146 96.3493C60.753 95.4731 61.1915 94.8159 61.1915 94.161C61.1915 93.5061 60.9723 92.4085 61.4107 91.3155C61.8491 90.2202 64.2583 89.782 64.4775 89.1248C64.6967 88.4676 64.9159 84.9649 66.2313 84.0886C67.5466 83.2124 71.0519 81.9003 72.3672 83.2124V83.217Z" fill="#4FC7A0"/>
<path d="M60.6574 102.327C60.6388 102.327 60.6178 102.322 60.6015 102.311C60.5502 102.28 60.5338 102.213 60.5642 102.162C60.5735 102.148 61.4504 100.682 61.637 99.9407C61.6836 99.7496 61.7419 99.4606 61.8095 99.125C62.0521 97.9085 62.4182 96.072 62.9803 95.5104C63.7989 94.6924 65.1049 92.1918 66.0191 88.9897C67.1479 85.0442 70.8747 83.8906 70.9143 83.8789C70.9726 83.8626 71.0333 83.8953 71.0496 83.9535C71.0659 84.0118 71.0333 84.0724 70.9773 84.0887C70.94 84.1003 67.3251 85.2236 66.2313 89.0503C65.3055 92.2873 63.9738 94.8299 63.1365 95.6665C62.6211 96.1816 62.248 98.053 62.0241 99.1693C61.9565 99.5072 61.8982 99.7985 61.8492 99.9943C61.6556 100.768 60.7904 102.215 60.7531 102.276C60.7321 102.311 60.6971 102.329 60.6598 102.329L60.6574 102.327Z" fill="#3FB690"/>
<path d="M60.3776 85.7247C57.7492 85.9437 58.6238 93.8254 58.6238 93.8254C59.2814 100.612 60.1583 103.679 60.8137 103.898C61.4713 104.117 62.7867 94.2636 62.7867 91.8562C62.7867 91.8562 63.0059 85.5056 60.3776 85.7247V85.7247Z" fill="#90DAD8"/>
<path d="M60.7064 102.802C60.7064 102.802 60.6971 102.802 60.6924 102.802C60.6318 102.795 60.5898 102.74 60.5968 102.681C61.462 95.5523 60.3893 86.5963 60.3776 86.5054C60.3706 86.4448 60.4126 86.3912 60.4732 86.3842C60.5315 86.3749 60.5875 86.4191 60.5945 86.4797C60.6061 86.5706 61.6813 95.5523 60.8137 102.709C60.8067 102.765 60.7601 102.805 60.7041 102.805L60.7064 102.802Z" fill="white"/>
<path d="M63.9714 107.785H57.3037C57.0798 107.785 56.8933 107.65 56.8676 107.47L55.8998 100.563C55.8555 100.253 56.098 99.9733 56.4128 99.9733H64.8646C65.1795 99.9733 65.4197 100.251 65.3777 100.563L64.4099 107.47C64.3842 107.65 64.1976 107.785 63.9737 107.785H63.9714Z" fill="#D0DAED"/>
<path d="M128.701 106.464H131.387V80.7072H132.696V90.8797H134.727V80.7072H136.035V92.1871H132.696V106.464H135.382C135.744 106.464 136.038 106.757 136.038 107.119C136.038 107.48 135.744 107.773 135.382 107.773H128.701C128.339 107.773 128.045 107.48 128.045 107.119C128.045 106.757 128.339 106.464 128.701 106.464Z" fill="#3FB790"/>
<path d="M133.547 75.121C139.251 75.121 143.876 76.1953 143.876 77.5214V78.8195C143.876 80.1455 139.251 81.2199 133.547 81.2199C127.842 81.2199 123.218 80.1455 123.218 78.8195V77.5214C123.218 76.1953 127.842 75.121 133.547 75.121Z" fill="#50C6A1"/>
<path opacity="0.1" d="M120.284 43.3243C122.04 40.0024 120.769 35.8867 117.445 34.1316C114.121 32.3765 110.002 33.6465 108.246 36.9684C106.489 40.2903 107.76 44.406 111.085 46.1611C114.409 47.9162 118.528 46.6461 120.284 43.3243Z" fill="white"/>
<path opacity="0.17" d="M118.542 38.0617C118.297 38.0617 118.068 37.9032 117.991 37.6562C117.749 36.8825 117.222 36.2486 116.501 35.8734C115.783 35.4982 114.96 35.4236 114.185 35.666C113.882 35.7615 113.558 35.5914 113.462 35.2884C113.367 34.9855 113.537 34.6615 113.84 34.566C114.908 34.2327 116.044 34.3353 117.035 34.8549C118.026 35.3746 118.756 36.2486 119.09 37.3159C119.185 37.6189 119.015 37.9428 118.712 38.0384C118.654 38.057 118.598 38.064 118.539 38.064L118.542 38.0617Z" fill="#50C6A1"/>
<path d="M111.832 32.3729C107.536 33.713 105.141 38.2807 106.484 42.5735C107.825 46.8662 112.396 49.2596 116.692 47.9173C120.988 46.5772 123.383 42.0095 122.04 37.7167C120.699 33.424 116.128 31.0306 111.832 32.3729V32.3729ZM116.291 46.6402C112.702 47.7611 108.884 45.7616 107.762 42.175C106.641 38.5883 108.642 34.7733 112.231 33.6524C115.82 32.5314 119.638 34.531 120.76 38.1176C121.881 41.7042 119.88 45.5192 116.291 46.6402V46.6402Z" fill="#D0DAED"/>
<path d="M117.29 47.4493L115.936 47.8718L117.863 54.0336L119.216 53.611L117.29 47.4493Z" fill="#D0DAED"/>
<path d="M121.996 64.8878C121.13 65.1582 120.212 64.6757 119.941 63.8135L116.979 54.3424C116.837 53.8833 117.091 53.3962 117.551 53.254L119.02 52.7949C119.479 52.6528 119.967 52.9068 120.109 53.3659L123.071 62.837C123.341 63.7016 122.859 64.6198 121.996 64.8902V64.8878Z" fill="url(#paint1_linear_201_51)"/>
<path d="M122.567 60.7256C122.567 60.7256 119.517 58.8473 118.595 57.8731C117.674 56.9013 117.287 56.4585 117.523 56.2534C117.758 56.0484 120.335 57.181 120.582 56.9899C120.83 56.7988 120.613 56.3234 120.893 56.109C121.172 55.8945 122.833 57.6051 123.227 57.4769C123.621 57.3464 123.022 60.4227 122.562 60.7256H122.567Z" fill="#FFAA9D"/>
<path d="M110.403 95.7295L108.166 97.8922L102.499 92.651L104.365 89.6213L110.403 95.7295Z" fill="#FFAA9D"/>
<path d="M108.495 97.5753C108.495 97.5753 106.935 99.5282 106.641 99.5329C106.347 99.5375 99.8051 92.4622 99.8471 92.2361C99.8891 92.0077 102.746 92.2524 102.746 92.2524L108.495 97.5776V97.5753Z" fill="url(#paint2_linear_201_51)"/>
<path d="M104.017 89.3043C104.017 89.3043 110.568 96.149 110.82 96.149C111.072 96.149 142.337 72.1613 142.337 72.1613L129.083 66.2861C129.083 66.2861 112.254 70.9098 104.015 89.3043H104.017Z" fill="url(#paint3_linear_201_51)"/>
<path d="M133.696 91.3551L134.804 94.2612L127.752 97.405L125.699 94.4989L133.696 91.3551Z" fill="#FFAA9D"/>
<path d="M128.052 66.2861C128.052 66.2861 116.986 68.5933 116.028 72.3361C115.069 76.0788 115.941 80.1712 118.99 84.9603C122.04 89.7495 125.14 94.9581 125.779 95.1259C125.779 95.1259 133.971 91.8469 134.158 91.4367C134.342 91.0289 129.571 79.7563 129.571 79.7563C129.571 79.7563 139.298 79.1108 141.567 73.3801L128.052 66.2838V66.2861Z" fill="url(#paint4_linear_201_51)"/>
<path d="M127.28 66.2535C127.18 66.9061 139.265 74.4708 141.406 74.1049C143.545 73.7391 146.313 64.9158 145.548 58.3276C144.783 51.7393 138.878 46.7963 136.185 47.027C133.491 47.2578 132.05 49.7793 131.684 53.7924C131.147 59.6769 127.395 65.5264 127.283 66.2535H127.28Z" fill="url(#paint5_linear_201_51)"/>
<path d="M137.388 48.0408C138.813 47.9173 143.715 50.7908 144.86 59.2644C146.005 67.7404 141.322 68.4512 137.388 67.9035C133.451 67.3558 123.549 62.4991 122.096 60.7652C122.096 60.7652 121.784 58.0339 122.835 57.0668C122.835 57.0668 132.388 58.0386 134.869 58.782C137.351 59.5254 131.984 48.5092 137.386 48.0408H137.388Z" fill="url(#paint6_linear_201_51)"/>
<path d="M134.641 93.8348C134.641 93.8348 135.823 96.0372 135.711 96.3075C135.599 96.5778 126.515 99.8032 126.324 99.675C126.133 99.5469 127.481 97.0183 127.481 97.0183L134.643 93.8348H134.641Z" fill="url(#paint7_linear_201_51)"/>
<path d="M129.386 42.5338L129.342 45.5634L129.794 45.5494C129.794 45.5494 130.158 48.057 131.928 47.6608C132.437 47.5466 133.088 47.1178 133.274 47.2017C133.496 47.3043 133.591 47.9894 133.643 48.1875C133.836 48.9473 136.492 48.1805 136.063 47.4022C135.655 46.6634 135.044 45.6566 135.172 45.3746C135.623 44.3982 135.751 41.9745 133.309 41.1634C131.364 40.5179 129.41 41.4967 129.389 42.5338H129.386Z" fill="#FFAA9D"/>
<path d="M136.061 47.4022C135.653 46.6634 135.042 45.6566 135.17 45.3746C135.17 45.3746 134.144 46.9524 133.197 47.1901C133.197 47.1901 133.195 47.1901 133.193 47.1901C133.223 47.1901 133.251 47.1901 133.272 47.1994C133.493 47.3019 133.589 47.9871 133.64 48.1852C133.834 48.9449 136.49 48.1782 136.061 47.3998V47.4022Z" fill="#FF9F91"/>
<path d="M133.486 44.0207C134.627 43.8249 133.918 46.3675 135.177 46.2836C136.437 46.1997 137.311 43.452 136.388 41.3336C135.464 39.2152 133.708 39.3317 132.036 39.6207C130.364 39.9097 128.311 40.6648 128.314 41.9302C128.316 44.9738 131.919 42.4196 132.157 43.3355C132.341 44.044 132.623 46.0901 131.891 46.1368C131.157 46.1834 130.41 45.5798 129.83 45.7336C129.496 45.8221 128.577 49.8143 130.977 49.9471C133.353 50.0799 133.953 47.9848 133.454 46.2719C132.978 44.6452 132.929 44.1162 133.486 44.0207Z" fill="#14336A"/>
</g>
<path d="M140.778 33.7244V33.5398C140.783 32.6828 140.864 32.0009 141.02 31.4943C141.181 30.9877 141.408 30.5805 141.702 30.2727C141.995 29.9602 142.353 29.6738 142.774 29.4134C143.063 29.2334 143.321 29.0369 143.548 28.8239C143.78 28.6061 143.963 28.3646 144.095 28.0994C144.228 27.8295 144.294 27.5289 144.294 27.1974C144.294 26.8234 144.206 26.4991 144.031 26.2244C143.856 25.9498 143.619 25.7367 143.321 25.5852C143.027 25.4337 142.698 25.358 142.334 25.358C141.998 25.358 141.678 25.4313 141.375 25.5781C141.077 25.7202 140.828 25.938 140.629 26.2315C140.435 26.5204 140.326 26.8873 140.303 27.3324H137.774C137.798 26.4328 138.016 25.6799 138.428 25.0739C138.844 24.4678 139.393 24.0133 140.075 23.7102C140.762 23.4072 141.519 23.2557 142.348 23.2557C143.252 23.2557 144.048 23.4143 144.734 23.7315C145.426 24.0488 145.963 24.5009 146.347 25.0881C146.735 25.6705 146.929 26.3617 146.929 27.1619C146.929 27.7017 146.841 28.1847 146.666 28.6108C146.496 29.0369 146.252 29.4157 145.935 29.7472C145.617 30.0786 145.241 30.3745 144.805 30.6349C144.422 30.8717 144.107 31.1179 143.861 31.3736C143.619 31.6293 143.439 31.9299 143.321 32.2756C143.207 32.6165 143.148 33.0379 143.143 33.5398V33.7244H140.778ZM142.014 38.1562C141.588 38.1562 141.221 38.0047 140.913 37.7017C140.606 37.3987 140.452 37.0294 140.452 36.5938C140.452 36.1676 140.606 35.803 140.913 35.5C141.221 35.197 141.588 35.0455 142.014 35.0455C142.436 35.0455 142.8 35.197 143.108 35.5C143.42 35.803 143.577 36.1676 143.577 36.5938C143.577 36.8826 143.503 37.1454 143.357 37.3821C143.214 37.6188 143.025 37.8082 142.788 37.9503C142.556 38.0876 142.298 38.1562 142.014 38.1562Z" fill="black"/>
<defs>
<linearGradient id="paint0_linear_201_51" x1="102.499" y1="69.0454" x2="102.499" y2="125.984" gradientUnits="userSpaceOnUse">
<stop stop-color="#E5E5E5"/>
<stop offset="0.48" stop-color="#F3F3F3"/>
<stop offset="1" stop-color="white"/>
</linearGradient>
<linearGradient id="paint1_linear_201_51" x1="118.049" y1="52.2518" x2="119.863" y2="58.0628" gradientUnits="userSpaceOnUse">
<stop stop-color="#90DAD8"/>
<stop offset="1" stop-color="#3FB790"/>
</linearGradient>
<linearGradient id="paint2_linear_201_51" x1="104.819" y1="94.0833" x2="103.415" y2="95.8369" gradientUnits="userSpaceOnUse">
<stop stop-color="#14336D"/>
<stop offset="0.97" stop-color="#0E2253"/>
</linearGradient>
<linearGradient id="paint3_linear_201_51" x1="110.902" y1="87.5728" x2="120.712" y2="79.6655" gradientUnits="userSpaceOnUse">
<stop stop-color="#14336D"/>
<stop offset="0.97" stop-color="#0E2253"/>
</linearGradient>
<linearGradient id="paint4_linear_201_51" x1="124.967" y1="80.001" x2="142.192" y2="86.2524" gradientUnits="userSpaceOnUse">
<stop stop-color="#14336D"/>
<stop offset="0.97" stop-color="#0E2253"/>
</linearGradient>
<linearGradient id="paint5_linear_201_51" x1="130.972" y1="51.152" x2="139.629" y2="67.3727" gradientUnits="userSpaceOnUse">
<stop stop-color="#3162DF"/>
<stop offset="0.96" stop-color="#173DB8"/>
</linearGradient>
<linearGradient id="paint6_linear_201_51" x1="133.542" y1="58.9941" x2="143.379" y2="79.7502" gradientUnits="userSpaceOnUse">
<stop stop-color="#3162DF"/>
<stop offset="0.96" stop-color="#173DB8"/>
</linearGradient>
<linearGradient id="paint7_linear_201_51" x1="130.011" y1="95.8787" x2="131.069" y2="97.8602" gradientUnits="userSpaceOnUse">
<stop stop-color="#14336D"/>
<stop offset="0.97" stop-color="#0E2253"/>
</linearGradient>
<clipPath id="clip0_201_51">
<rect width="205" height="126" fill="white" transform="translate(0 32)"/>
</clipPath>
</defs>
</svg>
