<?xml version="1.0" encoding="UTF-8"?>
<svg id="Layer_2" data-name="Layer 2" xmlns="http://www.w3.org/2000/svg" xmlns:xlink="http://www.w3.org/1999/xlink" viewBox="0 0 726.58 143.45">
  <defs>
    <style>
      .cls-1 {
        fill: url(#linear-gradient-2);
      }

      .cls-2 {
        fill: rgba(47, 47, 47, .2);
      }

      .cls-3 {
        fill: url(#linear-gradient-14);
      }

      .cls-4 {
        fill: url(#linear-gradient-6);
      }

      .cls-5 {
        fill: #b2b2b2;
      }

      .cls-6 {
        fill: #909090;
      }

      .cls-7 {
        fill: url(#linear-gradient-11);
      }

      .cls-8 {
        fill: url(#linear-gradient-10);
      }

      .cls-9 {
        opacity: .6;
      }

      .cls-10 {
        fill: #2b2b2b;
      }

      .cls-11 {
        fill: url(#linear-gradient-5);
      }

      .cls-12 {
        fill: #121212;
      }

      .cls-13 {
        fill: #2e2e2e;
      }

      .cls-14 {
        fill: url(#linear-gradient-7);
      }

      .cls-15 {
        fill: url(#linear-gradient-9);
      }

      .cls-16 {
        fill: #7b7b7b;
      }

      .cls-17 {
        fill: url(#linear-gradient-3);
      }

      .cls-18 {
        fill: url(#linear-gradient);
      }

      .cls-19 {
        fill: url(#linear-gradient-4);
      }

      .cls-20 {
        fill: #c4c4c4;
      }

      .cls-21 {
        fill: url(#linear-gradient-8);
      }

      .cls-22 {
        fill: url(#linear-gradient-12);
      }

      .cls-23 {
        fill: url(#linear-gradient-13);
      }
    </style>
    <linearGradient id="linear-gradient" x1="363.29" y1="1.09" x2="363.29" y2="51.48" gradientTransform="translate(0 146) scale(1 -1)" gradientUnits="userSpaceOnUse">
      <stop offset="0" stop-color="#fff"/>
      <stop offset="1" stop-color="#e7e7e7"/>
    </linearGradient>
    <linearGradient id="linear-gradient-2" x1="135.05" y1="28.63" x2="150.79" y2="23.7" gradientTransform="translate(0 146) scale(1 -1)" gradientUnits="userSpaceOnUse">
      <stop offset="0" stop-color="#999"/>
      <stop offset="1" stop-color="#c4c4c4"/>
    </linearGradient>
    <linearGradient id="linear-gradient-3" x1="136.33" y1="24.04" x2="154.28" y2="21.01" gradientTransform="translate(0 146) scale(1 -1)" gradientUnits="userSpaceOnUse">
      <stop offset="0" stop-color="#c4c4c4"/>
      <stop offset="1" stop-color="#f0f0f0"/>
    </linearGradient>
    <linearGradient id="linear-gradient-4" x1="623.13" y1="33.83" x2="630.52" y2="33.83" gradientTransform="translate(0 146) scale(1 -1)" gradientUnits="userSpaceOnUse">
      <stop offset="0" stop-color="#8f8f8f"/>
      <stop offset=".19" stop-color="#838383"/>
      <stop offset=".71" stop-color="#676767"/>
      <stop offset="1" stop-color="#5d5d5d"/>
    </linearGradient>
    <linearGradient id="linear-gradient-5" x1="629.64" y1="33.83" x2="634.01" y2="33.83" xlink:href="#linear-gradient-4"/>
    <linearGradient id="linear-gradient-6" x1="490.21" y1="124.76" x2="577.89" y2="124.76" xlink:href="#linear-gradient-4"/>
    <linearGradient id="linear-gradient-7" x1="519.34" y1="111.33" x2="519.34" y2="118.27" gradientTransform="translate(0 146) scale(1 -1)" gradientUnits="userSpaceOnUse">
      <stop offset="0" stop-color="#e5e5e5"/>
      <stop offset=".48" stop-color="#f4f4f4"/>
      <stop offset="1" stop-color="#fff"/>
    </linearGradient>
    <linearGradient id="linear-gradient-8" x1="490.21" y1="97.23" x2="577.89" y2="97.23" xlink:href="#linear-gradient-4"/>
    <linearGradient id="linear-gradient-9" y1="83.79" y2="90.74" xlink:href="#linear-gradient-7"/>
    <linearGradient id="linear-gradient-10" x1="490.21" y1="69.68" x2="577.89" y2="69.68" xlink:href="#linear-gradient-4"/>
    <linearGradient id="linear-gradient-11" y1="56.25" y2="63.2" xlink:href="#linear-gradient-7"/>
    <linearGradient id="linear-gradient-12" x1="490.21" y1="42.15" x2="577.89" y2="42.15" xlink:href="#linear-gradient-4"/>
    <linearGradient id="linear-gradient-13" y1="28.71" y2="35.66" xlink:href="#linear-gradient-7"/>
    <linearGradient id="linear-gradient-14" x1="616.67" y1="82.45" x2="630.6" y2="71.21" xlink:href="#linear-gradient-4"/>
  </defs>
  <g id="Layer_1-2" data-name="Layer 1">
    <g>
      <path class="cls-2" d="m239.62,42.79c10.93,0,19.64,3.07,26.11,9.21,6.47,6.14,9.71,14.55,9.71,25.23,0,12.64-3.9,22.36-11.69,29.17-7.79,6.81-18.94,10.21-33.43,10.21-12.59,0-22.76-2.03-30.5-6.11v-20.64c4.07,2.16,8.82,3.93,14.24,5.29s10.55,2.05,15.4,2.05c14.6,0,21.9-5.98,21.9-17.92s-7.55-17.07-22.67-17.07c-2.74,0-5.75.27-9.05.81-3.3.54-5.98,1.12-8.04,1.74l-9.52-5.11,4.26-57.81h61.38v20.33h-40.39l-2.09,22.26,2.71-.54c3.14-.72,7.04-1.09,11.68-1.09Z"/>
      <path class="cls-2" d="m367.49,58.43c0,19.79-3.24,34.43-9.72,43.93-6.48,9.51-16.45,14.26-29.91,14.26s-22.9-4.91-29.53-14.72c-6.63-9.81-9.95-24.3-9.95-43.47s3.23-34.72,9.67-44.2c6.45-9.48,16.38-14.22,29.8-14.22s22.92,4.96,29.61,14.88c6.68,9.92,10.02,24.43,10.02,43.55Zm-55.32.03c0,13.9,1.2,23.85,3.59,29.87,2.4,6.02,6.43,9.03,12.1,9.03s9.58-3.05,12.06-9.14c2.47-6.09,3.71-16.02,3.71-29.76s-1.25-23.87-3.75-29.94c-2.5-6.07-6.51-9.11-12.02-9.11s-9.64,3.03-12.06,9.11c-2.42,6.07-3.63,16.05-3.63,29.94Z"/>
      <path class="cls-2" d="m458.07,58.43c0,19.79-3.24,34.43-9.71,43.93-6.48,9.51-16.45,14.26-29.91,14.26s-22.9-4.91-29.53-14.72c-6.63-9.81-9.95-24.3-9.95-43.47s3.23-34.72,9.67-44.2c6.45-9.48,16.38-14.22,29.8-14.22s22.92,4.96,29.61,14.88c6.68,9.92,10.02,24.43,10.02,43.55Zm-55.32.03c0,13.9,1.2,23.85,3.59,29.87,2.4,6.02,6.43,9.03,12.1,9.03s9.58-3.05,12.06-9.14,3.71-16.02,3.71-29.76-1.25-23.87-3.75-29.94c-2.5-6.07-6.51-9.11-12.02-9.11s-9.64,3.03-12.06,9.11c-2.42,6.07-3.63,16.05-3.63,29.94Z"/>
      <path class="cls-18" d="m363.29,143.45c200.64,0,363.29-5.3,363.29-11.85s-162.65-11.85-363.29-11.85S0,125.05,0,131.6s162.65,11.85,363.29,11.85Z"/>
      <path class="cls-1" d="m171.33,128.57c-.7-1.38-5.29-2.56-7.91-3.2-2.62-.65-10.22-1.77-12-1.77s-5.7-4.6-6.37-5.93c-.68-1.33-2.23-4.02-2.52-4.11-.29-.08-.65.99-.65.99,0,0-.1,11.2,1.6,11.62,1.7.42,12.27.7,13.66,1.32,1.39.63,3.48,1.84,5.33,1.87,1.86.02,2.32-.57,2.78-.57s1.01.83,3.12.72,3.49.12,2.95-.95Z"/>
      <path class="cls-17" d="m142.15,121.53c1.69-1.27,6.06,1.02,10.44,0,1.49-.35,3.2-2.83,4.89-1.02,1.7,1.81.48,5.12-.51,6.27-.99,1.14-5.42,2.42-7.53,2.17-2.11-.26-7.58-.08-9.27-1.14-1.7-1.07-.27-3.04.59-4.74.87-1.7.92-1.17,1.4-1.54Z"/>
      <path class="cls-20" d="m139.12,116.48c-1.49,2.53-3.4,7.88-5.02,8.01-1.61.14-3.87.51-4.22,2.39-.35,1.88,5.53,4.89,10.19,4.54,4.65-.35,5.53-1.88,6.72-1.75,1.18.14,1.42-.59,1.42-.59,0,0-3.79-1.8-5.81-1.86-2.02-.05-2.34-.21-1.88-1.26.46-1.05,1.58-2.5,2.02-3.92.43-1.42.1-8.25,0-8.49-.11-.25-.33-.04-.53,0-.2.03-.12-.28-.46-.27-.33.02-.11.2-.39.2s-.6-.44-.9-.02c-.3.42-.92,1.11-.95,1.89-.04.78-.19,1.12-.19,1.12Z"/>
      <g class="cls-9">
        <path class="cls-13" d="m624.83,113.05h-32.78c-4.55,0-8.36-3.72-8.29-8.27.08-4.42,3.69-7.99,8.13-7.99h18.3c4.75,0,8.75-3.74,8.87-8.5.12-4.9-3.83-8.92-8.7-8.92h-35.42c-.73-.64-.28-1.45.35-1.45h34.89c5.68,0,10.43,4.65,10.33,10.33-.1,5.52-4.61,9.98-10.15,9.98h-18.33c-3.63,0-6.71,2.85-6.82,6.48-.11,3.77,2.92,6.88,6.67,6.88h32.9c.39,0,.74.29.76.69.02.42-.31.77-.72.77Z"/>
        <path class="cls-19" d="m626.82,115.86h3.7v-7.39h-3.7c-2.04,0-3.7,1.65-3.7,3.69s1.65,3.69,3.7,3.69Z"/>
        <path class="cls-10" d="m634.17,111.17h-1.72c-.39,0-.7-.31-.7-.7s.31-.7.7-.7h1.72c.39,0,.7.31.7.7,0,.39-.32.7-.7.7Z"/>
        <path class="cls-10" d="m634.17,114.56h-1.72c-.39,0-.7-.31-.7-.7s.31-.7.7-.7h1.72c.39,0,.7.31.7.7,0,.39-.32.7-.7.7Z"/>
        <path class="cls-11" d="m630.93,116.58c-.72,0-1.3-.58-1.3-1.3v-6.23c0-.72.58-1.3,1.3-1.3s1.3.58,1.3,1.3v6.23c0,.72-.58,1.3-1.3,1.3Z"/>
        <path class="cls-4" d="m572.45,32.96h-76.79c-3.01,0-5.45-2.44-5.45-5.45v-12.53c0-3.01,2.44-5.45,5.45-5.45h76.79c3.01,0,5.45,2.44,5.45,5.45v12.53c0,3.01-2.44,5.45-5.45,5.45Z"/>
        <path class="cls-14" d="m540.66,32.95h-42.64v-2.15c0-1.59,1.29-2.87,2.87-2.87h36.9c1.59,0,2.87,1.28,2.87,2.87v2.15h0Z"/>
        <path class="cls-6" d="m499.73,20.42c.95,0,1.71-.77,1.71-1.71s-.77-1.71-1.71-1.71-1.71.77-1.71,1.71.77,1.71,1.71,1.71Z"/>
        <path class="cls-5" d="m504.81,20.42c.95,0,1.71-.77,1.71-1.71s-.77-1.71-1.71-1.71-1.71.77-1.71,1.71.77,1.71,1.71,1.71Z"/>
        <path class="cls-16" d="m509.89,20.42c.95,0,1.71-.77,1.71-1.71s-.77-1.71-1.71-1.71-1.71.77-1.71,1.71.77,1.71,1.71,1.71Z"/>
        <path class="cls-5" d="m573.92,19.31c.34-2.09-1.08-4.05-3.16-4.39-2.09-.34-4.05,1.08-4.39,3.16-.34,2.09,1.08,4.05,3.16,4.39,2.09.34,4.05-1.08,4.39-3.16Z"/>
        <path class="cls-5" d="m563.8,20.08h-15.85c-.47,0-.85-.38-.85-.85v-1.06c0-.47.38-.85.85-.85h15.85c.47,0,.85.38.85.85v1.06c0,.47-.38.85-.85.85Z"/>
        <path class="cls-13" d="m570.09,32.96h-72.07v4.12h72.07v-4.12Z"/>
        <path class="cls-21" d="m572.45,60.49h-76.79c-3.01,0-5.45-2.44-5.45-5.45v-12.53c0-3.01,2.44-5.45,5.45-5.45h76.79c3.01,0,5.45,2.44,5.45,5.45v12.53c0,3.01-2.44,5.45-5.45,5.45Z"/>
        <path class="cls-15" d="m540.66,60.49h-42.64v-2.15c0-1.59,1.29-2.87,2.87-2.87h36.9c1.59,0,2.87,1.28,2.87,2.87v2.15h0Z"/>
        <path class="cls-6" d="m501.45,46.23c0,.95-.77,1.71-1.71,1.71s-1.71-.77-1.71-1.71.77-1.71,1.71-1.71,1.71.77,1.71,1.71Z"/>
        <path class="cls-5" d="m506.53,46.23c0,.95-.77,1.71-1.71,1.71s-1.71-.77-1.71-1.71.77-1.71,1.71-1.71,1.71.77,1.71,1.71Z"/>
        <path class="cls-16" d="m511.61,46.23c0,.95-.77,1.71-1.71,1.71s-1.71-.77-1.71-1.71.77-1.71,1.71-1.71,1.71.77,1.71,1.71Z"/>
        <path class="cls-5" d="m571.61,49.77c1.95-.81,2.88-3.05,2.07-5-.81-1.95-3.05-2.88-5-2.07s-2.88,3.05-2.07,5c.81,1.95,3.05,2.88,5,2.07Z"/>
        <path class="cls-5" d="m563.8,47.61h-15.85c-.47,0-.85-.38-.85-.85v-1.06c0-.47.38-.85.85-.85h15.85c.47,0,.85.38.85.85v1.06c0,.47-.38.85-.85.85Z"/>
        <path class="cls-13" d="m570.09,60.49h-72.07v4.12h72.07v-4.12Z"/>
        <path class="cls-8" d="m572.45,88.03h-76.79c-3.01,0-5.45-2.44-5.45-5.45v-12.53c0-3.01,2.44-5.45,5.45-5.45h76.79c3.01,0,5.45,2.44,5.45,5.45v12.53c0,3.01-2.44,5.45-5.45,5.45Z"/>
        <path class="cls-7" d="m540.66,88.03h-42.64v-2.15c0-1.59,1.29-2.87,2.87-2.87h36.9c1.59,0,2.87,1.28,2.87,2.87v2.15h0Z"/>
        <path class="cls-6" d="m499.73,75.49c.95,0,1.71-.77,1.71-1.71s-.77-1.71-1.71-1.71-1.71.77-1.71,1.71.77,1.71,1.71,1.71Z"/>
        <path class="cls-5" d="m504.81,75.49c.95,0,1.71-.77,1.71-1.71s-.77-1.71-1.71-1.71-1.71.77-1.71,1.71.77,1.71,1.71,1.71Z"/>
        <path class="cls-16" d="m509.89,75.49c.95,0,1.71-.77,1.71-1.71s-.77-1.71-1.71-1.71-1.71.77-1.71,1.71.77,1.71,1.71,1.71Z"/>
        <path class="cls-5" d="m570.13,77.6c2.11,0,3.83-1.71,3.83-3.83s-1.71-3.83-3.83-3.83-3.83,1.71-3.83,3.83,1.71,3.83,3.83,3.83Z"/>
        <path class="cls-5" d="m563.8,75.15h-15.85c-.47,0-.85-.38-.85-.85v-1.06c0-.47.38-.85.85-.85h15.85c.47,0,.85.38.85.85v1.06c0,.47-.38.85-.85.85Z"/>
        <path class="cls-13" d="m570.09,88.03h-72.07v4.12h72.07v-4.12Z"/>
        <path class="cls-22" d="m572.45,115.56h-76.79c-3.01,0-5.45-2.44-5.45-5.44v-12.53c0-3.01,2.44-5.45,5.45-5.45h76.79c3.01,0,5.45,2.44,5.45,5.45v12.53c0,3.01-2.44,5.44-5.45,5.44Z"/>
        <path class="cls-23" d="m540.66,115.56h-42.64v-2.15c0-1.58,1.29-2.87,2.87-2.87h36.9c1.59,0,2.87,1.28,2.87,2.87v2.15h0Z"/>
        <path class="cls-6" d="m501.45,101.31c0,.95-.77,1.71-1.71,1.71s-1.71-.77-1.71-1.71.77-1.71,1.71-1.71,1.71.77,1.71,1.71Z"/>
        <path class="cls-5" d="m506.53,101.31c0,.95-.77,1.71-1.71,1.71s-1.71-.77-1.71-1.71.77-1.71,1.71-1.71,1.71.77,1.71,1.71Z"/>
        <path class="cls-16" d="m511.61,101.31c0,.95-.77,1.71-1.71,1.71s-1.71-.77-1.71-1.71.77-1.71,1.71-1.71,1.71.77,1.71,1.71Z"/>
        <path class="cls-5" d="m571.61,104.85c1.95-.81,2.88-3.05,2.07-5-.81-1.95-3.05-2.88-5-2.07-1.95.81-2.88,3.05-2.07,5,.81,1.95,3.05,2.88,5,2.07Z"/>
        <path class="cls-5" d="m563.8,102.69h-15.85c-.47,0-.85-.38-.85-.85v-1.06c0-.47.38-.85.85-.85h15.85c.47,0,.85.38.85.85v1.06c0,.47-.38.85-.85.85Z"/>
        <path class="cls-13" d="m570.09,115.57h-72.07v4.11h72.07v-4.11Z"/>
        <path class="cls-3" d="m626.72,76.05h-10.84c-1.85,0-3.35-1.5-3.35-3.35v-10.84c0-1.85,1.5-3.35,3.35-3.35h10.84c1.85,0,3.35,1.5,3.35,3.35v10.84c0,1.85-1.5,3.35-3.34,3.35Z"/>
        <path class="cls-13" d="m625.84,71.83c2.51-2.51,2.51-6.59,0-9.1-2.51-2.51-6.58-2.51-9.1,0-2.51,2.51-2.51,6.59,0,9.1,2.51,2.51,6.59,2.51,9.1,0Z"/>
        <path class="cls-12" d="m620.35,67.28c0,.63-.52,1.15-1.15,1.15s-1.15-.52-1.15-1.15.52-1.15,1.15-1.15,1.15.52,1.15,1.15Z"/>
        <path class="cls-12" d="m624.54,67.28c0,.63-.52,1.15-1.15,1.15s-1.15-.52-1.15-1.15.52-1.15,1.15-1.15,1.15.52,1.15,1.15Z"/>
      </g>
    </g>
  </g>
</svg>