<svg width="190" height="160" viewBox="0 0 190 160" fill="none" xmlns="http://www.w3.org/2000/svg">
<g id="Asset 2 1" clip-path="url(#clip0_3352_17499)">
<g id="Layer 1">
<g id="Group">
<g id="Group_2">
<path id="Vector" fill-rule="evenodd" clip-rule="evenodd" d="M87.735 10.5391C108.894 10.5391 106.479 48.2975 121.754 59.8073C141.971 75.0407 176.753 67.499 176.753 93.6422C176.753 139.539 131.638 156.166 82.474 156.166C33.3097 156.166 -8.63663 130.712 6.00089 84.9358C20.6384 39.1616 38.5725 10.5391 87.735 10.5391Z" fill="#F8F8F8"/>
<path id="Vector_2" fill-rule="evenodd" clip-rule="evenodd" d="M11.6897 114.305C13.0659 114.305 14.18 115.432 14.18 116.821C14.18 118.21 13.0659 119.337 11.6897 119.337C10.3136 119.337 9.19946 118.21 9.19946 116.821C9.19946 115.432 10.3154 114.305 11.6897 114.305Z" fill="#E1E1E1"/>
<path id="Vector_3" fill-rule="evenodd" clip-rule="evenodd" d="M10.823 114.648C11.578 114.648 12.2614 114.958 12.7544 115.458C13.2491 115.958 13.5533 116.646 13.5533 117.409C13.5533 118.172 13.2473 118.863 12.7544 119.361C12.2596 119.861 11.5761 120.17 10.823 120.17C10.0699 120.17 9.38635 119.861 8.8916 119.361C8.39684 118.863 8.09082 118.172 8.09082 117.409C8.09082 116.646 8.39684 115.958 8.8916 115.458C9.38635 114.958 10.068 114.648 10.823 114.648ZM12.4135 115.802C12.0067 115.389 11.4442 115.135 10.823 115.135C10.2018 115.135 9.63923 115.389 9.23243 115.802C8.82563 116.211 8.57458 116.782 8.57458 117.409C8.57458 118.037 8.82746 118.605 9.23426 119.016C9.64106 119.428 10.2036 119.681 10.8248 119.681C11.446 119.681 12.0086 119.428 12.4154 119.016C12.8222 118.604 13.0732 118.037 13.0732 117.409C13.0732 116.782 12.8222 116.213 12.4154 115.802H12.4135Z" fill="#E1E1E1"/>
<path id="Vector_4" fill-rule="evenodd" clip-rule="evenodd" d="M17.9369 114.305H52.515C53.9186 114.305 55.0676 115.466 55.0676 116.886C55.0676 118.304 53.9186 119.465 52.515 119.465H17.9369C16.5332 119.465 15.3843 118.304 15.3843 116.886C15.3843 115.466 16.5332 114.305 17.9369 114.305Z" fill="#E1E1E1"/>
<path id="Vector_5" fill-rule="evenodd" clip-rule="evenodd" d="M17.0702 114.648H51.6483C52.4161 114.648 53.1143 114.967 53.62 115.476C54.1258 115.989 54.4391 116.695 54.4391 117.47C54.4391 118.246 54.1258 118.952 53.62 119.463C53.1143 119.976 52.4161 120.294 51.6483 120.294H17.0702C16.3024 120.294 15.6043 119.976 15.0985 119.465C14.5928 118.952 14.2776 118.246 14.2776 117.47C14.2776 116.695 14.5928 115.989 15.0985 115.478C15.6043 114.967 16.3043 114.648 17.0702 114.648ZM51.6483 115.135H17.0702C16.4344 115.135 15.8553 115.398 15.4375 115.822C15.0197 116.245 14.7595 116.83 14.7595 117.472C14.7595 118.115 15.0197 118.7 15.4375 119.124C15.8571 119.546 16.4362 119.809 17.0702 119.809H51.6483C52.2842 119.809 52.8632 119.546 53.281 119.124C53.6988 118.7 53.959 118.115 53.959 117.472C53.959 116.83 53.6988 116.246 53.281 115.822C52.8632 115.398 52.2842 115.135 51.6483 115.135Z" fill="#E1E1E1"/>
<path id="Vector_6" fill-rule="evenodd" clip-rule="evenodd" d="M48.8354 53.2629C45.0587 55.0071 41.2088 55.7922 37.1701 55.7922C23.3059 55.7922 12.0583 45.8952 12.0583 33.693C12.0583 21.4907 23.3059 11.5938 37.1719 11.5938C51.038 11.5938 62.2836 21.4907 62.2836 33.6911C62.2836 39.0905 60.1159 43.9844 56.4583 47.8432C62.5842 50.7743 68.7118 53.7036 74.8395 56.6347C48.8372 53.261 57.5047 54.385 48.8372 53.261L48.8354 53.2629Z" fill="#C8C8C8"/>
<path id="Vector_7" fill-rule="evenodd" clip-rule="evenodd" d="M49.8449 53.3827C47.9593 54.2474 46.0572 54.8751 44.124 55.288C42.1651 55.7065 40.1733 55.9065 38.1375 55.9065C31.1375 55.9065 24.7955 53.4049 20.2034 49.3647C15.6003 45.3152 12.7527 39.7158 12.7527 33.5314C12.7527 27.3469 15.6003 21.7494 20.2034 17.6981C24.7955 13.6578 31.1375 11.1562 38.1375 11.1562C45.1374 11.1562 51.4794 13.656 56.0715 17.6981C60.6746 21.7476 63.5222 27.3469 63.5222 33.5314C63.5222 36.2199 62.9926 38.7845 62.0141 41.1619C61.0484 43.5098 59.6429 45.6762 57.8801 47.5964L75.9223 56.225L75.7721 56.7471L49.8449 53.3827ZM44.0141 54.7492C45.9345 54.3382 47.8219 53.7123 49.691 52.8494L49.8376 52.8272L74.1394 55.9806L57.3103 47.9315L56.9694 47.7686L57.2315 47.4927C59.0676 45.554 60.5262 43.3487 61.5139 40.9509C62.4649 38.64 62.9817 36.1459 62.9817 33.5314C62.9817 27.5136 60.2055 22.0624 55.7197 18.1147C51.2229 14.1577 45.0073 11.708 38.1429 11.708C31.2786 11.708 25.063 14.1559 20.5662 18.1147C16.0804 22.0624 13.3042 27.5136 13.3042 33.5314C13.3042 39.5492 16.0804 45.0004 20.5662 48.9481C25.063 52.905 31.2786 55.3547 38.1429 55.3547C40.1458 55.3547 42.0992 55.1603 44.0196 54.7511L44.0141 54.7492Z" fill="#999999"/>
<g id="Group_3">
<path id="Vector_8" fill-rule="evenodd" clip-rule="evenodd" d="M38.3622 40.9681C38.3622 38.1684 38.3622 36.6871 40.6033 33.8467C42.3954 31.584 44.4312 29.1546 44.4312 25.7384C44.4312 22.1166 42.0271 18.5781 36.1633 18.5781C33.3523 18.5781 30.8675 19.4428 29.4419 20.3057L30.7044 24.7515C31.8039 23.9682 33.4329 23.5164 34.8183 23.5164C37.14 23.5164 38.3219 24.7922 38.3219 26.6864C38.3219 28.4566 37.2627 30.0619 35.7143 32.1191C33.8819 34.5466 33.0261 36.8111 33.0261 39.1164C33.0261 39.4868 33.0665 39.6515 33.1471 40.9681H38.3604H38.3622ZM35.674 51.2576C37.8729 51.2576 39.2583 49.6522 39.2583 47.5117C39.2583 45.2472 37.7923 43.6844 35.674 43.6844C33.5557 43.6844 32.0898 45.2472 32.0898 47.5117C32.0898 49.5689 33.4348 51.2576 35.674 51.2576Z" fill="white"/>
<path id="Vector_9" fill-rule="evenodd" clip-rule="evenodd" d="M37.6952 40.3058C37.6952 37.5062 37.6952 36.0249 39.9344 33.1845C41.7266 30.9218 43.7624 28.4924 43.7624 25.0762C43.7624 21.4544 41.3601 17.9141 35.4945 17.9141C32.6835 17.9141 30.1987 18.7788 28.7749 19.6416L30.0375 24.0874C31.1369 23.306 32.766 22.8524 34.1513 22.8524C36.473 22.8524 37.6549 24.1281 37.6549 26.0224C37.6549 27.7925 36.5957 29.3979 35.0492 31.455C33.2167 33.8825 32.361 36.1471 32.361 38.4524C32.361 38.8227 32.4013 38.9875 32.4838 40.304H37.697L37.6952 40.3058ZM35.007 50.5954C37.2059 50.5954 38.5913 48.99 38.5913 46.8495C38.5913 44.585 37.1253 43.0222 35.007 43.0222C32.8887 43.0222 31.4228 44.5868 31.4228 46.8495C31.4228 48.9067 32.766 50.5954 35.007 50.5954Z" fill="#999999"/>
</g>
<path id="Vector_10" fill-rule="evenodd" clip-rule="evenodd" d="M125.693 82.8828C127.07 82.8828 128.184 84.0086 128.184 85.3992C128.184 86.7898 127.068 87.9155 125.693 87.9155C124.319 87.9155 123.203 86.7879 123.203 85.3992C123.203 84.0105 124.317 82.8828 125.693 82.8828Z" fill="#C8C8C8"/>
<path id="Vector_11" fill-rule="evenodd" clip-rule="evenodd" d="M124.828 83.2266C125.583 83.2266 126.267 83.5358 126.76 84.0357C127.255 84.5357 127.561 85.2245 127.561 85.9873C127.561 86.7502 127.255 87.4409 126.76 87.939C126.265 88.4389 125.583 88.7481 124.828 88.7481C124.073 88.7481 123.392 88.4389 122.897 87.939C122.402 87.439 122.096 86.7502 122.096 85.9873C122.096 85.2245 122.402 84.5357 122.897 84.0357C123.392 83.5358 124.075 83.2266 124.828 83.2266ZM126.419 84.3783C126.012 83.9672 125.45 83.7117 124.828 83.7117C124.207 83.7117 123.645 83.9672 123.238 84.3783C122.831 84.7893 122.58 85.3578 122.58 85.9855C122.58 86.6132 122.831 87.1816 123.24 87.5927C123.646 88.0038 124.209 88.2593 124.83 88.2593C125.451 88.2593 126.014 88.0056 126.421 87.5927C126.828 87.1816 127.08 86.6132 127.08 85.9855C127.08 85.3578 126.828 84.7893 126.421 84.3783H126.419Z" fill="#C8C8C8"/>
<path id="Vector_12" fill-rule="evenodd" clip-rule="evenodd" d="M131.942 82.8828H166.521C167.924 82.8828 169.073 84.0438 169.073 85.4621C169.073 86.8805 167.924 88.0415 166.521 88.0415H131.942C130.539 88.0415 129.39 86.8805 129.39 85.4621C129.39 84.0438 130.539 82.8828 131.942 82.8828Z" fill="#E1E1E1"/>
<path id="Vector_13" fill-rule="evenodd" clip-rule="evenodd" d="M131.076 83.2266H165.654C166.422 83.2266 167.122 83.5432 167.627 84.0561C168.133 84.569 168.448 85.2745 168.448 86.0503C168.448 86.8261 168.133 87.5316 167.627 88.0427C167.122 88.5556 166.422 88.8722 165.654 88.8722H131.076C130.308 88.8722 129.608 88.5537 129.102 88.0427C128.596 87.5298 128.281 86.8243 128.281 86.0484C128.281 85.2726 128.596 84.5671 129.102 84.0561C129.608 83.5432 130.308 83.2266 131.076 83.2266ZM165.654 83.7135H131.076C130.44 83.7135 129.861 83.9765 129.443 84.3986C129.025 84.8227 128.765 85.4059 128.765 86.0484C128.765 86.691 129.025 87.2761 129.443 87.6983C129.861 88.1204 130.44 88.3852 131.076 88.3852H165.654C166.29 88.3852 166.869 88.1223 167.288 87.6983C167.706 87.2742 167.966 86.691 167.966 86.0484C167.966 85.4059 167.706 84.8208 167.288 84.3986C166.869 83.9765 166.29 83.7135 165.654 83.7135Z" fill="#E1E1E1"/>
<path id="Vector_14" fill-rule="evenodd" clip-rule="evenodd" d="M135.752 93.4922H170.33C171.736 93.4922 172.883 94.6532 172.883 96.0734C172.883 97.4917 171.734 98.6527 170.33 98.6527H135.752C134.347 98.6527 133.2 97.4917 133.2 96.0734C133.2 94.6532 134.349 93.4922 135.752 93.4922Z" fill="#E1E1E1"/>
<path id="Vector_15" fill-rule="evenodd" clip-rule="evenodd" d="M134.886 93.8359H169.464C170.231 93.8359 170.93 94.1544 171.435 94.6636C171.941 95.1765 172.256 95.882 172.256 96.6578C172.256 97.4337 171.941 98.1391 171.435 98.6502C170.93 99.1631 170.23 99.4816 169.464 99.4816H134.886C134.118 99.4816 133.418 99.1631 132.914 98.652C132.408 98.1391 132.095 97.4337 132.095 96.6578C132.095 95.882 132.41 95.1765 132.914 94.6655C133.42 94.1544 134.118 93.8359 134.886 93.8359ZM169.464 94.3229H134.886C134.25 94.3229 133.671 94.5858 133.253 95.0099C132.835 95.432 132.575 96.0172 132.575 96.6597C132.575 97.3022 132.835 97.8873 133.253 98.3113C133.671 98.7335 134.25 98.9964 134.886 98.9964H169.464C170.099 98.9964 170.677 98.7335 171.096 98.3113C171.516 97.8873 171.776 97.3022 171.776 96.6597C171.776 96.0172 171.516 95.432 171.096 95.0099C170.679 94.5858 170.099 94.3229 169.464 94.3229Z" fill="#E1E1E1"/>
<path id="Vector_16" fill-rule="evenodd" clip-rule="evenodd" d="M148.66 23.8594H114.082C112.679 23.8594 111.53 25.0203 111.53 26.4387C111.53 27.857 112.679 29.018 114.082 29.018H148.66C150.064 29.018 151.213 27.857 151.213 26.4387C151.213 25.0203 150.064 23.8594 148.66 23.8594Z" fill="#E1E1E1"/>
<path id="Vector_17" fill-rule="evenodd" clip-rule="evenodd" d="M149.529 24.2031H114.951C114.183 24.2031 113.485 24.5216 112.979 25.0327C112.473 25.5456 112.16 26.251 112.16 27.0269C112.16 27.8027 112.475 28.5082 112.979 29.0192C113.485 29.5321 114.183 29.8488 114.951 29.8488H149.529C150.297 29.8488 150.995 29.5303 151.501 29.0192C152.007 28.5063 152.32 27.8008 152.32 27.025C152.32 26.2492 152.005 25.5437 151.501 25.0327C150.995 24.5198 150.295 24.2031 149.529 24.2031ZM114.951 24.6901H149.529C150.165 24.6901 150.744 24.953 151.162 25.3752C151.58 25.7992 151.84 26.3825 151.84 27.025C151.84 27.6675 151.58 28.2508 151.162 28.6748C150.742 29.097 150.165 29.3599 149.529 29.3599H114.951C114.315 29.3599 113.738 29.097 113.318 28.6748C112.9 28.2508 112.64 27.6675 112.64 27.025C112.64 26.3825 112.9 25.7974 113.318 25.3752C113.738 24.953 114.317 24.6901 114.951 24.6901Z" fill="#E1E1E1"/>
<path id="Vector_18" fill-rule="evenodd" clip-rule="evenodd" d="M37.1307 87.4609H2.55259C1.14711 87.4609 0 88.6201 0 90.0403C0 91.4605 1.14894 92.6196 2.55259 92.6196H37.1307C38.5362 92.6196 39.6833 91.4605 39.6833 90.0403C39.6833 88.6201 38.5343 87.4609 37.1307 87.4609Z" fill="#E1E1E1"/>
<path id="Vector_19" fill-rule="evenodd" clip-rule="evenodd" d="M37.9976 87.7987H3.41947C2.65167 87.7987 1.95351 88.1172 1.44776 88.6264C0.942009 89.1393 0.628662 89.8448 0.628662 90.6206C0.628662 91.3964 0.943842 92.1019 1.44776 92.613C1.95351 93.1259 2.65167 93.4425 3.41947 93.4425H37.9976C38.7654 93.4425 39.4635 93.124 39.9693 92.613C40.475 92.1019 40.7902 91.3946 40.7902 90.6206C40.7902 89.8466 40.475 89.1375 39.9693 88.6264C39.4635 88.1135 38.7654 87.7969 37.9976 87.7969V87.7987ZM3.41947 88.2857H37.9976C38.6334 88.2857 39.2106 88.5486 39.6303 88.9708C40.0481 89.3948 40.3083 89.9799 40.3083 90.6225C40.3083 91.265 40.0481 91.8482 39.6303 92.2723C39.2106 92.6944 38.6316 92.9574 37.9976 92.9574H3.41947C2.78361 92.9574 2.20456 92.6944 1.78676 92.2723C1.36897 91.8482 1.10876 91.265 1.10876 90.6225C1.10876 89.9799 1.36897 89.3948 1.78676 88.9708C2.20456 88.5486 2.78361 88.2857 3.41947 88.2857Z" fill="#E1E1E1"/>
<path id="Vector_20" fill-rule="evenodd" clip-rule="evenodd" d="M89.1387 139.727H54.5606C53.1552 139.727 52.0081 140.888 52.0081 142.306C52.0081 143.726 53.157 144.885 54.5606 144.885H89.1387C90.5442 144.885 91.6913 143.724 91.6913 142.306C91.6913 140.888 90.5424 139.727 89.1387 139.727Z" fill="#E1E1E1"/>
<path id="Vector_21" fill-rule="evenodd" clip-rule="evenodd" d="M90.0073 140.062H55.4292C54.6614 140.062 53.9633 140.381 53.4575 140.892C52.9518 141.405 52.6384 142.11 52.6384 142.886C52.6384 143.662 52.9536 144.368 53.4575 144.879C53.9633 145.39 54.6614 145.708 55.4292 145.708H90.0073C90.7751 145.708 91.4733 145.39 91.979 144.88C92.4848 144.368 92.7981 143.662 92.7981 142.886C92.7981 142.11 92.483 141.403 91.979 140.892C91.4733 140.379 90.7751 140.062 90.0073 140.062ZM55.4292 140.549H90.0073C90.6432 140.549 91.2204 140.812 91.64 141.235C92.0578 141.659 92.318 142.244 92.318 142.886C92.318 143.529 92.0578 144.112 91.64 144.536C91.2204 144.958 90.6432 145.223 90.0073 145.223H55.4292C54.7934 145.223 54.2162 144.96 53.7965 144.536C53.3787 144.114 53.1185 143.529 53.1185 142.886C53.1185 142.244 53.3787 141.659 53.7965 141.235C54.2162 140.812 54.7934 140.549 55.4292 140.549Z" fill="#E1E1E1"/>
</g>
<g id="Group_4">
<path id="Vector_22" fill-rule="evenodd" clip-rule="evenodd" d="M105.478 55.1269C103.041 55.1269 96.7957 55.4342 96.7957 55.4342C96.7957 55.4342 96.7957 59.83 96.0334 62.413L95.8446 62.4352L95.2564 63.6832L95.392 63.8129C95.2656 63.974 95.1282 64.0962 94.9761 64.1684C98.258 67.0458 105.273 66.2404 108.32 64.011C108.32 64.011 105.02 58.4042 105.478 55.125V55.1269Z" fill="#CCCCCC"/>
<path id="Vector_23" fill-rule="evenodd" clip-rule="evenodd" d="M94.3566 64.053C94.3566 64.053 99.2163 66.0028 103.193 65.438C107.167 64.8733 108.604 63.8438 108.604 63.8438L111.415 69.3098L112.104 128.088H94.1771C94.1771 128.088 92.1541 76.62 92.1541 75.3887C92.1541 74.1573 94.3585 64.053 94.3585 64.053H94.3566Z" fill="#3C3C3C"/>
<path id="Vector_24" fill-rule="evenodd" clip-rule="evenodd" d="M92.4399 73.4176L92.4656 73.2769C92.5572 73.1583 92.7478 73.1158 92.9035 73.0491C92.8266 73.2324 92.7808 73.4398 92.4399 73.4176ZM108.483 88.2547C108.298 88.4751 108.991 88.5213 108.835 88.2769C108.717 88.2695 108.6 88.2621 108.483 88.2547ZM106.889 89.3472C106.856 89.5194 106.968 89.6064 107.224 89.6082C107.257 89.436 107.145 89.349 106.889 89.3472ZM105.399 86.9382C105.395 86.99 105.392 87.0437 105.388 87.0974C105.465 87.103 105.544 87.1067 105.623 87.1122C105.626 87.0604 105.63 87.0067 105.632 86.953C105.553 86.9475 105.474 86.9419 105.397 86.9382H105.399ZM105.1 89.7897C105.276 89.7305 105.478 89.6953 105.472 89.4953C105.166 89.4509 105.159 89.6416 105.1 89.7897ZM103.431 90.2397C102.982 90.4526 103.768 90.5304 103.431 90.2397V90.2397ZM103.061 92.369C103.055 92.4487 103.052 92.5283 103.046 92.6079C103.235 92.6431 103.251 92.5468 103.402 92.5523C103.405 92.4986 103.409 92.4468 103.411 92.3931C103.295 92.3857 103.178 92.3783 103.061 92.3709V92.369ZM103.136 91.1784C103.132 91.2303 103.129 91.284 103.127 91.3377C103.204 91.3432 103.282 91.3469 103.361 91.3525C103.365 91.3006 103.369 91.2469 103.37 91.1932C103.292 91.1877 103.213 91.184 103.136 91.1784ZM101.531 94.2651C101.467 94.4318 101.688 94.4262 101.87 94.4466C101.851 94.3799 101.76 94.3595 101.763 94.2799C101.686 94.2744 101.606 94.2688 101.529 94.2651H101.531ZM101.738 91.0081C101.732 91.0877 101.727 91.1673 101.723 91.2469C101.881 91.2581 102.035 91.2673 102.19 91.2766C102.097 91.1544 102.031 91.0136 101.74 91.0081H101.738ZM101.183 96.076C101.06 96.3463 101.554 96.2371 101.644 96.1853C101.615 96.076 101.355 96.1001 101.183 96.076ZM96.4676 107.493C96.4072 107.656 96.5354 107.708 96.5648 107.819C96.9056 107.826 96.8708 107.46 96.4676 107.493ZM96.6307 106.786C96.4933 106.79 96.5226 106.925 96.4988 107.017C96.6161 107.025 96.7315 107.032 96.8488 107.04C96.814 106.932 96.6509 106.901 96.6307 106.786ZM106.548 72.5769C106.995 72.6806 107.048 72.2992 107.369 72.551C107.666 72.4158 106.553 72.2677 106.548 72.5769ZM105.434 71.627C105.929 71.5845 105.901 71.6048 106.125 71.8307C106.729 71.8529 106.366 71.3437 106.399 71.2104C106.099 71.1993 106.192 71.4937 106.024 71.5845C105.787 71.4882 105.448 71.2623 105.434 71.6252V71.627ZM110.576 79.378C110.572 79.4317 110.568 79.4835 110.566 79.5372C110.643 79.5428 110.722 79.5465 110.801 79.552C110.805 79.5002 110.808 79.4465 110.81 79.3928C110.731 79.3872 110.653 79.3835 110.576 79.378ZM109.621 70.3828C109.617 70.4364 109.614 70.4883 109.612 70.542C109.689 70.5475 109.767 70.5512 109.846 70.5568C109.85 70.5031 109.854 70.4513 109.857 70.3976C109.778 70.392 109.7 70.3883 109.623 70.3828H109.621ZM109.095 74.9748C109.276 75.0452 109.044 75.3618 109.425 75.3155C109.471 75.11 109.403 74.9711 109.095 74.9748ZM108.422 81.8703C108.498 82.0166 108.635 81.8962 108.772 81.8925C108.697 81.7462 108.56 81.8666 108.422 81.8703ZM108.419 72.6991C108.413 72.7788 108.408 72.8584 108.404 72.938C108.593 72.9732 108.609 72.8769 108.76 72.8825C108.763 72.8288 108.767 72.7769 108.771 72.7232C108.653 72.7158 108.538 72.7084 108.421 72.701L108.419 72.6991ZM107.785 77.1245C107.781 77.1764 107.777 77.2301 107.776 77.2838C107.893 77.2912 108.01 77.2986 108.127 77.306C108.133 77.2264 108.138 77.1468 108.142 77.0671C107.953 77.032 107.935 77.1301 107.785 77.1245ZM107.906 73.3842C107.902 73.4361 107.898 73.4898 107.897 73.5435C107.974 73.549 108.052 73.5527 108.129 73.5583C108.133 73.5046 108.137 73.4528 108.14 73.3991C108.063 73.3935 107.985 73.3898 107.908 73.3842H107.906ZM107.706 72.8139C107.521 73.0343 108.214 73.0787 108.056 72.8362C107.941 72.8288 107.823 72.8214 107.706 72.8139ZM107.18 79.241C107.173 79.3465 107.167 79.452 107.16 79.5576C107.237 79.5631 107.316 79.5668 107.394 79.5724C107.402 79.4669 107.407 79.3613 107.415 79.2558C107.336 79.2502 107.257 79.2465 107.18 79.241ZM107.321 77.0172C107.468 76.9912 107.567 76.932 107.57 76.795C107.424 76.8209 107.323 76.8801 107.321 77.0172ZM107.821 69.1533C107.845 69.2421 108.05 69.2218 108.045 69.3273C108.364 69.2773 107.968 68.9681 107.821 69.1533ZM107.686 71.2975C107.942 71.303 107.95 71.1141 107.946 70.916C107.545 70.8345 107.508 71.1678 107.686 71.2975ZM107.264 74.2212C107.261 74.2749 107.257 74.3267 107.255 74.3804C107.334 74.386 107.413 74.3897 107.49 74.3952C107.493 74.3415 107.497 74.2897 107.501 74.236C107.424 74.2304 107.345 74.2267 107.266 74.2212H107.264ZM107.23 74.7767C106.782 74.9896 107.569 75.0674 107.23 74.7767V74.7767ZM106.454 79.5909C106.771 79.9261 106.731 80.126 107.468 80.2945C107.121 79.8983 107.092 79.5076 106.454 79.5909ZM106.993 71.0919C106.99 71.1456 106.986 71.1975 106.984 71.2512C107.061 71.2567 107.142 71.2604 107.219 71.266C107.222 71.2123 107.226 71.1604 107.228 71.1067C107.151 71.1012 107.07 71.0975 106.993 71.0919ZM107.002 69.0977C106.815 69.3181 107.51 69.3644 107.354 69.1199C107.237 69.1125 107.12 69.1051 107.002 69.0977ZM106.255 77.1838C106.299 77.2856 106.394 77.3579 106.594 77.3653C106.715 77.0968 106.431 77.082 106.255 77.1838ZM106.097 75.9765C106.093 76.0302 106.09 76.0821 106.086 76.1358C106.163 76.1413 106.242 76.145 106.321 76.1506C106.324 76.0969 106.328 76.045 106.332 75.9913C106.253 75.9858 106.174 75.9821 106.097 75.9765ZM106.112 75.7377C106.167 75.9062 106.282 75.9173 106.456 75.8395C106.46 75.7877 106.464 75.734 106.467 75.6803C106.28 75.6451 106.262 75.7432 106.112 75.7377ZM106.264 73.3546C106.152 73.6546 106.804 73.6972 106.731 73.3842C106.575 73.375 106.42 73.3639 106.264 73.3546ZM105.789 78.9873C105.907 78.9947 106.024 79.0021 106.141 79.0095C106.123 78.8669 106.284 78.6188 105.927 78.6762C105.831 78.741 105.789 78.8484 105.789 78.9854V78.9873ZM106.238 68.2497C106.172 68.4145 106.394 68.4108 106.577 68.4311C106.561 68.3645 106.465 68.3441 106.471 68.2645C106.394 68.2589 106.315 68.2552 106.238 68.2497ZM105.364 78.3207C105.839 78.4337 106.018 77.8911 105.507 77.9319C105.403 78.017 105.338 78.1355 105.364 78.3207ZM105.601 72.7528C105.938 73.0695 106.009 72.5381 105.601 72.7528V72.7528ZM105.655 71.8789C105.652 71.9326 105.648 71.9844 105.646 72.0381C105.723 72.0437 105.802 72.0492 105.881 72.0529C105.885 72.0011 105.886 71.9474 105.89 71.8937C105.811 71.8881 105.732 71.8844 105.655 71.8789ZM105.342 74.9692C105.542 74.9989 105.654 74.8526 105.694 74.9915C106.114 74.8304 105.294 74.6119 105.342 74.9692ZM105.17 77.6689C104.946 77.6856 105.24 77.7745 105.399 77.7634C105.623 77.7485 105.329 77.6578 105.17 77.6689ZM105.496 68.8366C105.353 68.8552 105.388 69.0422 105.481 69.0755C105.731 69.1644 105.773 68.8015 105.496 68.8366ZM104.745 77.0023C104.802 77.0708 104.858 77.1394 104.847 77.2486C105.023 77.1912 105.225 77.1542 105.218 76.9542C104.976 76.9042 104.906 76.9875 104.745 77.0042V77.0023ZM105.183 70.092C105.26 70.0976 105.338 70.1013 105.415 70.1069C105.557 69.7273 104.803 69.9198 105.183 70.092ZM104.202 81.8314C104.199 81.8832 104.195 81.9369 104.193 81.9906C104.27 81.9962 104.351 81.9999 104.428 82.0054C104.431 81.9536 104.435 81.8999 104.439 81.8462C104.362 81.8407 104.281 81.8351 104.204 81.8314H104.202ZM104.411 71.1586C104.406 71.2382 104.402 71.3178 104.397 71.3974C104.514 71.4049 104.631 71.4123 104.747 71.4197C104.752 71.34 104.756 71.2604 104.761 71.1808C104.646 71.1734 104.529 71.166 104.411 71.1586ZM104.179 69.3088C104.118 69.4717 104.245 69.5236 104.274 69.6347C104.479 69.6736 104.512 69.2033 104.179 69.3088ZM103.763 72.1529C103.759 72.2066 103.755 72.2585 103.752 72.3122C103.829 72.3177 103.907 72.3233 103.986 72.327C103.99 72.2733 103.993 72.2214 103.995 72.1677C103.917 72.1622 103.838 72.1566 103.761 72.1529H103.763ZM104.305 70.9919C104.331 70.7957 104.541 70.7605 104.331 70.5938C103.847 70.5253 103.623 71.0345 104.305 70.9919ZM104.113 68.5071C103.887 68.4608 103.918 68.857 104.215 68.7533C104.219 68.6996 104.223 68.6478 104.224 68.5941C104.122 68.6015 104.114 68.5552 104.113 68.5071ZM104.065 67.3868C104.069 67.5127 104.032 67.6609 104.285 67.6405C104.29 67.5609 104.294 67.4812 104.299 67.4016C104.221 67.3961 104.142 67.3924 104.065 67.3868ZM103.416 68.3811C103.563 68.3552 103.662 68.2941 103.664 68.1571C103.519 68.183 103.418 68.2441 103.416 68.3811ZM103.066 70.192C103.154 70.429 103.235 70.292 103.528 70.3013C103.508 70.1161 103.228 70.0995 103.066 70.192ZM103.041 68.7552C103.031 68.9144 103.02 69.0718 103.011 69.231C103.334 69.1755 103.468 68.9737 103.737 68.8792C103.585 68.6718 103.343 68.7126 103.041 68.7552ZM103.215 69.7236C103.46 69.5773 103.173 69.5643 103.118 69.3977C102.779 69.3903 102.812 69.7569 103.215 69.7236ZM101.914 80.9648C101.91 81.0185 101.906 81.0704 101.904 81.1241C101.981 81.1296 102.06 81.1333 102.139 81.1389C102.143 81.0852 102.146 81.0333 102.148 80.9796C102.069 80.9741 101.991 80.9704 101.914 80.9648ZM102.575 70.5605C102.571 70.6142 102.568 70.6661 102.564 70.7197C102.641 70.7253 102.72 70.729 102.799 70.7346C102.802 70.6809 102.806 70.629 102.808 70.5753C102.729 70.5698 102.65 70.5661 102.573 70.5605H102.575ZM102.595 70.242C102.683 70.4642 103.118 70.2087 102.839 70.0995C102.709 70.1106 102.749 70.2513 102.595 70.242ZM103.367 67.3405C103.25 67.3331 103.132 67.3257 103.017 67.3183C102.921 67.4757 102.63 67.609 102.87 67.7868C103.352 67.9127 103.099 67.4664 103.363 67.4201C103.363 67.3942 103.367 67.3664 103.369 67.3405H103.367ZM102.047 71.4826C102.071 71.3419 101.915 71.3067 101.95 71.1567C101.611 71.1493 101.644 71.5159 102.047 71.4826ZM101.899 68.283C102.159 68.4774 101.84 68.5904 101.864 68.8385C102.315 68.8829 102.544 68.7552 102.59 68.4867C102.247 68.4867 102.242 68.283 101.899 68.283ZM101.267 72.7084C101.215 72.8399 101.349 72.8639 101.49 72.8825C101.472 72.8139 101.54 72.8102 101.611 72.8102C101.598 72.7158 101.402 72.7306 101.265 72.7084H101.267ZM101.503 68.9755C101.316 69.1959 102.011 69.2403 101.853 68.9977C101.736 68.9903 101.62 68.9829 101.503 68.9755ZM101.124 73.0972C101.12 73.1509 101.117 73.2028 101.115 73.2565C101.193 73.262 101.27 73.2657 101.349 73.2713C101.353 73.2195 101.357 73.1658 101.36 73.1121C101.281 73.1065 101.204 73.1028 101.126 73.0972H101.124ZM100.935 70.5327C100.924 70.7512 101.474 70.7568 101.631 70.6568C101.573 70.5883 101.518 70.5198 101.529 70.4105C101.161 70.3179 101.161 70.5124 100.935 70.5309V70.5327ZM100.961 70.1365C100.957 70.1902 100.953 70.242 100.952 70.2957C101.03 70.3013 101.107 70.3068 101.186 70.3105C101.19 70.2568 101.193 70.205 101.197 70.1513C101.12 70.1457 101.041 70.142 100.963 70.1365H100.961ZM101.353 69.5236C101.395 69.7773 100.937 69.7069 101.21 69.9143C101.404 69.9272 101.6 69.9402 101.795 69.9513C101.769 69.7625 101.63 69.6421 101.714 69.3884C101.318 69.3144 101.095 69.1422 101.043 68.8663C100.596 68.9237 100.913 69.518 101.353 69.5236ZM100.16 71.6789C100.653 71.5122 100.748 71.1641 101.358 71.2789C101.408 71.0975 101.358 70.9734 101.267 70.8734C100.776 70.8253 100.756 71.1438 100.312 71.1308C100.363 71.3937 100.209 71.4956 100.16 71.6789ZM100.29 67.7794C100.257 67.9516 100.369 68.0386 100.625 68.0404C100.658 67.8682 100.547 67.7812 100.29 67.7794ZM99.5223 76.1839C99.5186 76.2376 99.515 76.2895 99.5132 76.3432C99.5901 76.3487 99.6689 76.3524 99.7459 76.358C99.7495 76.3043 99.7532 76.2524 99.755 76.1987C99.6762 76.1932 99.5993 76.1895 99.5223 76.1839ZM100.061 67.6849C100.208 67.659 100.307 67.5997 100.31 67.4627C100.063 67.409 100.081 67.5609 100.061 67.6849ZM99.8741 68.7904C99.799 68.9626 100.09 68.9181 100.092 69.044C100.385 69.0311 100.118 68.7367 99.8741 68.7904ZM99.4692 71.4752C99.4655 71.5289 99.4618 71.5808 99.4582 71.6345C99.537 71.64 99.6139 71.6437 99.6927 71.6493C99.6964 71.5974 99.7001 71.5437 99.7037 71.49C99.6249 71.4845 99.548 71.4808 99.4692 71.4752ZM99.7459 67.1072C99.7532 67.2035 99.7697 67.2979 99.9694 67.2813C99.9731 67.2276 99.9768 67.1757 99.9786 67.122C99.8998 67.1165 99.8228 67.1128 99.744 67.1072H99.7459ZM99.1613 67.0683C99.0825 67.0628 99.0056 67.0591 98.9286 67.0535C98.5969 67.2257 99.209 67.4275 99.1613 67.0683ZM98.6336 67.9904C98.6776 68.0904 98.7728 68.1626 98.9744 68.1719C99.0935 67.9034 98.8132 67.8886 98.6336 67.9904ZM97.7192 69.4458C97.842 69.6532 98.1681 69.7421 98.1517 70.0328C98.4375 70.005 98.4302 69.7495 98.5328 69.5791C98.0875 69.7143 98.2341 69.4458 97.7192 69.4458ZM97.5964 67.6831C97.6899 67.8053 97.7558 67.946 98.049 67.9516C98.148 67.7405 97.8273 67.7775 97.8365 67.6183C97.7412 67.6275 97.7155 67.6905 97.5983 67.6831H97.5964ZM97.525 66.9609C97.5158 67.0924 97.5085 67.2257 97.4993 67.3572C97.9281 67.4405 98.0234 67.2646 97.9922 66.9906C97.8365 66.9813 97.6807 66.9702 97.525 66.9609ZM96.5263 69.7662C96.6234 69.9106 96.7682 70.0883 96.9844 69.955C96.9642 69.8124 96.7957 69.7606 96.5263 69.7662ZM96.6124 68.4163C96.5812 68.5885 97.0247 68.4793 97.1915 68.533C97.2153 68.3922 97.0595 68.3571 97.0943 68.2071C96.7242 68.1126 96.8396 68.3978 96.6124 68.4145V68.4163ZM96.4292 69.4421C96.6362 69.4366 96.704 69.3218 96.6839 69.1403C96.3229 69.0792 96.2532 69.3125 96.4292 69.4421ZM95.6119 71.2234C95.72 71.1678 95.8813 71.1549 96.0847 71.1734C96.1415 70.7994 95.5972 70.9568 95.6119 71.2234ZM95.2711 69.207C95.5294 69.4088 95.6577 69.0848 96.0938 69.181C96.1012 69.0755 96.1067 68.97 96.114 68.8644C95.6027 68.7996 95.3169 68.9107 95.2711 69.2088V69.207ZM95.2344 67.9293C95.1941 68.0552 95.337 68.0719 95.337 68.1756C95.4323 68.1663 95.458 68.1034 95.5752 68.1108C95.5789 68.0571 95.5826 68.0053 95.5862 67.9516C95.469 67.9442 95.3517 67.9367 95.2362 67.9293H95.2344ZM94.5747 69.0829C94.8789 69.1255 95.0787 69.0866 95.0585 68.8755C94.8661 68.7181 94.5967 68.87 94.5747 69.0829ZM94.463 67.1628C94.4849 67.3498 94.7635 67.3664 94.9247 67.272C94.9046 67.085 94.6242 67.0683 94.463 67.1628ZM93.9004 70.4753C94.3109 70.5161 94.3017 70.2328 94.6224 70.2031C94.6828 70.0402 94.5564 69.9884 94.5253 69.8773C94.6132 69.7754 94.8349 69.9365 95.1153 69.8365C95.1226 69.731 95.1281 69.6236 95.1355 69.518C94.7745 69.5514 94.8001 69.3588 94.4391 69.3921C94.7561 69.6717 94.1386 69.5995 94.0635 69.7662C94.0397 69.8199 94.2412 69.9643 94.1606 70.092C94.1185 70.1587 93.4606 70.2217 93.9022 70.4735L93.9004 70.4753ZM93.7923 68.4737C93.7355 68.7959 94.0342 68.533 94.2541 68.583C94.2247 68.4719 93.9664 68.4978 93.7923 68.4737ZM93.4844 71.4845C94.2101 71.5752 93.8729 71.2178 94.0983 71.0456C93.7318 70.7216 93.0978 71.2104 93.4844 71.4845Z" fill="#989898"/>
<path id="Vector_25" fill-rule="evenodd" clip-rule="evenodd" d="M106.872 64.614C108.102 64.203 108.604 63.8438 108.604 63.8438L111.415 69.3098L112.104 128.088H107.086C107.03 126.147 106.846 122.172 106.24 117.004C105.368 109.577 107.167 100.612 106.872 95.2808C106.577 89.9499 107.462 74.6739 107.462 72.826C107.462 70.9781 106.872 64.614 106.872 64.614Z" fill="#3C3C3C"/>
<path id="Vector_26" fill-rule="evenodd" clip-rule="evenodd" d="M94.4134 64.0777C94.6095 64.1536 95.3022 64.4129 96.2825 64.6943C96.3009 66.0793 96.354 70.8825 96.277 77.3854C96.1854 85.1437 95.7181 88.8026 96.6637 92.0429C97.5231 94.9852 98.2378 122.961 98.3605 128.09H94.1771C94.1771 128.09 92.1541 76.6225 92.1541 75.3912C92.1541 74.1599 94.2632 64.4888 94.3548 64.0703L94.4153 64.0777H94.4134Z" fill="#3C3C3C"/>
<path id="Vector_27" d="M94.036 66.3325C94.0617 66.3436 103.085 70.5579 109.896 65.4141L110.11 65.7048C103.127 70.9764 93.9132 66.6732 93.8857 66.6602L94.0342 66.3306L94.036 66.3325Z" fill="#3C3C3C"/>
<path id="Vector_28" fill-rule="evenodd" clip-rule="evenodd" d="M151.329 71.1692C151.329 71.1692 154.644 64.1737 155.925 63.7386C157.206 63.3053 162.49 61.35 163.409 60.9519C164.328 60.5538 164.459 60.4205 164.459 60.9519C164.459 61.4833 160.816 63.3035 160.816 63.3035C160.816 63.3035 163.409 62.6758 165.51 62.6758C167.612 62.6758 170.63 61.4815 171.024 62.0129C171.418 62.5443 171.024 64.4015 170.63 64.7996C170.236 65.1977 170.236 65.8847 169.875 65.8847C169.514 65.8847 164.328 68.1159 162.359 68.6473C158.041 69.8101 159.337 69.6046 155.925 73.2912L151.329 71.1692Z" fill="#CCCCCC"/>
<path id="Vector_29" fill-rule="evenodd" clip-rule="evenodd" d="M151.329 71.1704C151.329 71.1704 151.804 70.1687 152.464 68.8984L157.611 71.4704L155.923 73.2924L151.327 71.1704H151.329Z" fill="#999999"/>
<path id="Vector_30" fill-rule="evenodd" clip-rule="evenodd" d="M51.5509 78.4836C51.5509 78.4836 49.0954 76.5523 48.958 75.7246C48.8205 74.897 45.9564 73.3805 45.1373 72.9676C44.3182 72.5546 39.4055 70.2105 39.1324 70.8993C38.8594 71.5881 41.0437 72.8305 41.3167 73.1064C41.5897 73.3823 41.4541 73.5193 41.4541 73.5193C41.4541 73.5193 37.9065 73.9323 37.0874 73.9323H34.4945C34.4945 73.9323 33.2503 71.5751 32.5833 71.1733C31.9163 70.7715 31.6286 71.4492 31.7642 71.8621C31.8998 72.275 32.3103 73.7934 32.3103 73.7934C32.3103 73.7934 30.8095 72.4139 30.5365 72.8287C30.2634 73.2416 30.2268 73.2546 31.4051 74.6266C32.5833 76.0005 33.811 76.6893 33.811 76.6893C33.811 76.6893 34.0841 77.2411 34.6301 77.654C35.1762 78.067 37.5749 78.6169 39.2699 79.0335C40.9649 79.4501 44.2156 78.4817 44.6774 79.0335C45.1392 79.5853 48.2781 82.0665 48.2781 82.0665L51.5527 78.4817L51.5509 78.4836Z" fill="#CCCCCC"/>
<path id="Vector_31" fill-rule="evenodd" clip-rule="evenodd" d="M51.5514 78.4813C51.5514 78.4813 50.6828 77.798 49.9499 77.0703L46.3455 80.5069C47.2928 81.2883 48.275 82.066 48.275 82.066L51.5496 78.4813H51.5514Z" fill="#999999"/>
<path id="Vector_32" fill-rule="evenodd" clip-rule="evenodd" d="M94.0515 47.1222C90.458 46.9223 93.5805 52.7419 94.0515 50.5478C94.3318 49.2405 94.0515 47.1222 94.0515 47.1222Z" fill="#999999"/>
<path id="Vector_33" fill-rule="evenodd" clip-rule="evenodd" d="M106.895 47.1222C110.489 46.9223 107.366 52.7419 106.895 50.5478C106.615 49.2405 106.895 47.1222 106.895 47.1222Z" fill="#999999"/>
<path id="Vector_34" fill-rule="evenodd" clip-rule="evenodd" d="M82.0931 128.086L82.3222 156.718L101.433 155.368C101.433 155.368 103.04 147.791 103.496 150.1C103.952 152.409 105.041 155.031 105.041 155.031L124.104 151.583L125.126 128.088H82.0913L82.0931 128.086Z" fill="#3C3C3C"/>
<path id="Vector_35" fill-rule="evenodd" clip-rule="evenodd" d="M87.6235 132.477H87.8599V132.712H87.6235V132.477ZM104.273 153.291L104.374 153.663C104.48 153.578 104.447 153.176 104.273 153.291ZM105.446 151.769C105.618 151.746 105.697 151.865 105.682 152.121C105.51 152.143 105.431 152.024 105.446 151.769ZM105.997 150.004C105.928 150.176 105.88 150.376 105.682 150.358C105.658 150.047 105.847 150.054 105.997 150.004ZM106.549 148.358C106.787 147.923 106.815 148.715 106.549 148.358V148.358ZM108.678 148.123H108.915C108.937 148.314 108.839 148.325 108.836 148.475H108.678V148.123ZM107.496 148.123H107.654V148.358H107.496V148.123ZM110.65 146.712C110.819 146.656 110.8 146.88 110.808 147.066C110.743 147.043 110.729 146.947 110.65 146.949V146.714V146.712ZM107.418 146.712H107.654V147.182C107.538 147.08 107.405 147.006 107.418 146.712ZM112.464 146.477C112.739 146.371 112.6 146.86 112.543 146.947C112.437 146.91 112.477 146.653 112.464 146.477ZM124.056 142.477C124.221 142.427 124.265 142.559 124.371 142.594C124.357 142.935 123.997 142.877 124.056 142.477ZM123.347 142.594C123.36 142.457 123.49 142.496 123.583 142.477V142.831C123.481 142.788 123.459 142.623 123.347 142.596V142.594ZM123.189 136.713C123.343 136.667 123.305 137.248 123.111 137.065V136.83C123.178 136.852 123.186 136.783 123.189 136.713ZM88.8879 150.36C88.963 150.815 88.5801 150.845 88.8091 151.184C88.6552 151.471 88.5819 150.347 88.8879 150.36ZM88.0212 149.184C87.9479 149.675 87.968 149.649 88.1788 149.889C88.1604 150.497 87.6822 150.1 87.5484 150.124C87.5557 149.823 87.8416 149.936 87.9424 149.773C87.8636 149.53 87.662 149.176 88.0212 149.184ZM85.3403 136.832C84.8071 136.719 85.5987 136.887 85.3403 136.832V136.832ZM95.3546 154.829H95.5122V155.065H95.3546V154.829ZM86.5222 153.3H86.6798V153.535H86.5222V153.3ZM91.096 153.065C91.1546 153.252 91.4808 153.037 91.4112 153.419C91.2059 153.452 91.0722 153.376 91.096 153.065ZM97.9566 152.83C98.0977 152.917 97.9676 153.044 97.9566 153.182C97.8155 153.094 97.9456 152.967 97.9566 152.83ZM88.8879 152.241H89.1243C89.1463 152.432 89.0492 152.443 89.0455 152.593H88.8879V152.241ZM93.3041 151.889H93.4617V152.241H93.2253C93.2033 152.052 93.3004 152.039 93.3041 151.889ZM89.5971 151.772H89.7546V152.008H89.5971V151.772ZM89.0455 151.537C89.2746 151.365 89.2746 152.063 89.0455 151.891V151.537ZM95.4334 151.421H95.7486V151.656H95.4334V151.421ZM93.2253 151.421C93.1905 151.565 93.1245 151.661 92.9889 151.656C93.0237 151.511 93.0897 151.415 93.2253 151.421ZM85.4191 151.421C85.5052 151.448 85.4722 151.654 85.5767 151.656C85.5071 151.974 85.2267 151.558 85.4191 151.421ZM87.5484 151.421C87.5374 151.678 87.3487 151.672 87.1544 151.656C87.0994 151.248 87.4311 151.235 87.5484 151.421ZM90.4656 151.185H90.6232V151.421H90.4656V151.185ZM91.0172 151.185C91.2554 150.75 91.2829 151.543 91.0172 151.185V151.185ZM95.8274 150.715C96.137 151.054 96.3386 151.028 96.4577 151.774C96.0876 151.402 95.7046 151.348 95.8274 150.715ZM87.389 150.715H87.5466V150.95H87.389V150.715ZM85.4173 150.597C85.6463 150.424 85.6463 151.122 85.4173 150.95V150.597ZM93.4598 150.361C93.557 150.411 93.6211 150.511 93.6174 150.715C93.3444 150.817 93.3462 150.534 93.4598 150.361ZM92.2761 150.126H92.4337V150.361H92.2761V150.126ZM92.0397 150.126C92.2028 150.193 92.2065 150.31 92.1185 150.48H91.9609C91.9389 150.289 92.036 150.278 92.0397 150.126ZM89.674 150.126C89.9782 150.034 89.9782 150.689 89.674 150.597V150.126ZM95.2721 150.008V150.361C95.1329 150.334 94.8763 150.48 94.9569 150.126C95.0266 150.036 95.1347 150 95.2721 150.008ZM84.6257 149.773C84.7942 149.717 84.7759 149.941 84.7832 150.124C84.7191 150.102 84.7045 150.006 84.6257 150.006V149.771V149.773ZM94.6399 149.538C94.7224 150.021 94.1727 150.165 94.246 149.656C94.3376 149.558 94.4567 149.5 94.6399 149.538ZM89.1206 149.421C88.8806 149.817 89.412 149.778 89.1206 149.421V149.421ZM88.2539 149.421H88.4115V149.656H88.2539V149.421ZM91.3287 149.304C91.3452 149.504 91.1949 149.608 91.3287 149.656C91.1418 150.065 90.9787 149.232 91.3287 149.304ZM94.0096 149.304C94.0389 149.08 94.1104 149.378 94.0884 149.539C94.0591 149.763 93.9876 149.463 94.0096 149.304ZM85.256 149.069C85.2835 148.928 85.4649 148.975 85.4924 149.069C85.5639 149.325 85.2029 149.341 85.256 149.069ZM93.3774 148.834C93.4397 148.897 93.5056 148.956 93.6138 148.952C93.546 149.125 93.4965 149.325 93.2986 149.306C93.2656 149.06 93.3517 148.995 93.3774 148.836V148.834ZM86.5167 148.834V149.069C86.1319 149.188 86.372 148.443 86.5167 148.834ZM98.1875 148.599H98.3451V148.834H98.1875V148.599ZM87.6217 148.128H87.8581V148.48H87.6217V148.128ZM85.8076 147.775C85.9725 147.725 86.0165 147.854 86.1228 147.893C86.1484 148.101 85.6811 148.102 85.8076 147.775ZM88.646 147.54H88.8036V147.775H88.646V147.54ZM87.4641 148.01C87.268 148.023 87.2204 148.23 87.0701 148.01C87.0335 147.519 87.5521 147.329 87.4641 148.01ZM85.0196 147.656C84.9885 147.428 85.3788 147.484 85.256 147.775H85.0984C85.1131 147.675 85.0673 147.664 85.0196 147.656ZM83.9165 147.538C84.0411 147.549 84.1895 147.521 84.1529 147.773H83.9165V147.538ZM84.9408 146.951C84.906 147.095 84.8401 147.191 84.7045 147.186C84.7393 147.041 84.8052 146.943 84.9408 146.951ZM86.7549 146.716C86.984 146.817 86.8429 146.892 86.8337 147.186C86.6505 147.153 86.6523 146.871 86.7549 146.716ZM85.3366 146.597H85.8094C85.7343 146.916 85.5254 147.036 85.4154 147.303C85.2212 147.138 85.2762 146.897 85.3366 146.597ZM86.2822 146.832C86.1209 147.069 86.1283 146.78 85.967 146.716C85.9817 146.375 86.3426 146.432 86.2822 146.832ZM97.4802 146.243H97.6378V146.479H97.4802V146.243ZM87.1508 146.243H87.3083V146.479H87.1508V146.243ZM86.8356 146.243C87.05 146.347 86.7696 146.766 86.678 146.479C86.6981 146.351 86.8356 146.399 86.8356 146.243ZM83.9183 146.832V146.479C84.0796 146.393 84.2299 146.11 84.3911 146.36C84.4846 146.853 84.0594 146.569 83.9971 146.83H83.9183V146.832ZM88.0981 145.773C87.957 145.788 87.9314 145.629 87.7829 145.656C87.7976 145.316 88.1586 145.373 88.0981 145.773ZM84.9445 145.419C85.1204 145.692 85.2524 145.379 85.4961 145.419C85.5107 145.873 85.3715 146.095 85.1021 146.125C85.1222 145.781 84.9243 145.764 84.9445 145.419ZM89.3607 145.066C89.4944 145.023 89.5091 145.158 89.5183 145.301C89.4505 145.279 89.4431 145.347 89.4395 145.419C89.346 145.401 89.3735 145.205 89.3607 145.066ZM85.6537 145.066C85.8827 144.894 85.8827 145.592 85.6537 145.419V145.066ZM89.7546 144.949H89.9122V145.184H89.7546V144.949ZM87.2314 144.595C87.4476 144.597 87.4183 145.151 87.3102 145.301C87.246 145.238 87.1819 145.179 87.0738 145.184C87.006 144.808 87.1984 144.821 87.2314 144.595ZM86.8374 144.595H86.995V144.831H86.8374V144.595ZM86.2071 144.949C86.4544 145.007 86.4159 144.544 86.601 144.831V145.419C86.4159 145.382 86.306 145.234 86.0495 145.301C86.0018 144.901 85.8442 144.666 85.5767 144.595C85.6628 144.151 86.229 144.507 86.2071 144.949ZM88.4151 143.89C88.2191 144.373 87.8672 144.447 87.9424 145.066C87.7591 145.105 87.64 145.047 87.5484 144.949C87.5319 144.455 87.8471 144.455 87.8636 144.009C88.1201 144.077 88.2301 143.929 88.4151 143.89ZM84.5505 143.772C84.7228 143.751 84.8016 143.868 84.7869 144.125C84.6147 144.147 84.5359 144.029 84.5505 143.772ZM92.9101 143.536H93.0677V143.772H92.9101V143.536ZM84.4717 143.536C84.4369 143.681 84.3709 143.777 84.2353 143.772C84.1987 143.52 84.3471 143.547 84.4717 143.536ZM85.5749 143.42C85.7489 143.355 85.6866 143.644 85.8112 143.655C85.7801 143.947 85.5052 143.662 85.5749 143.42ZM88.2557 143.185H88.4133V143.42H88.2557V143.185ZM83.9183 143.185C84.0136 143.198 84.1052 143.22 84.0759 143.42H83.9183V143.185ZM83.9183 142.596V142.361C84.1107 142.04 84.2702 142.664 83.9183 142.596ZM84.8639 142.125C84.961 142.177 85.0251 142.275 85.0215 142.479C84.7484 142.581 84.7503 142.298 84.8639 142.125ZM86.3628 141.301C86.5607 141.437 86.6267 141.77 86.9144 141.772C86.8686 142.057 86.6175 142.033 86.4416 142.125C86.6047 141.688 86.328 141.818 86.3628 141.301ZM84.6275 141.066C84.7429 141.168 84.8767 141.242 84.8639 141.537C84.6495 141.622 84.7063 141.303 84.5487 141.301C84.5634 141.205 84.6275 141.185 84.6275 141.066ZM83.9183 140.95H84.3123C84.3673 141.385 84.1877 141.47 83.9183 141.42V140.95ZM86.7568 140.126C86.8942 140.231 87.061 140.389 86.9144 140.596C86.7751 140.568 86.7348 140.394 86.7568 140.126ZM85.4173 140.126C85.5877 140.105 85.4521 140.542 85.4961 140.714C85.355 140.729 85.3293 140.57 85.1809 140.598C85.1113 140.22 85.3861 140.353 85.4173 140.128V140.126ZM86.4416 140.007C86.4233 140.215 86.306 140.276 86.1264 140.242C86.0898 139.876 86.3243 139.822 86.4416 140.007ZM88.2557 139.302C88.1952 139.407 88.1714 139.566 88.1769 139.772C87.8049 139.803 87.9937 139.268 88.2557 139.302ZM86.284 138.831C86.4673 139.102 86.1374 139.211 86.2052 139.655H85.89C85.8589 139.139 85.9872 138.859 86.284 138.831ZM85.0215 138.713C85.1479 138.68 85.1571 138.824 85.2578 138.831C85.2432 138.926 85.1791 138.948 85.1791 139.067H85.0215V138.713ZM86.2034 138.126C86.2254 138.433 86.1741 138.631 85.967 138.596C85.8241 138.394 85.9908 138.133 86.2034 138.126ZM84.3105 137.891C84.4937 137.924 84.4919 138.206 84.3893 138.361C84.206 138.328 84.2079 138.046 84.3105 137.891ZM87.6217 137.537C87.6364 137.95 87.356 137.924 87.3065 138.243C87.1416 138.293 87.0976 138.163 86.9913 138.126C86.8851 138.207 87.0298 138.439 86.9125 138.713H86.5974C86.6542 138.354 86.4618 138.367 86.5186 138.007C86.7751 138.343 86.744 137.719 86.9125 137.654C86.9675 137.633 87.0976 137.844 87.2277 137.772C87.2955 137.733 87.4018 137.08 87.6217 137.537ZM85.65 137.302C85.9725 137.267 85.6921 137.548 85.7288 137.772C85.6207 137.735 85.6628 137.478 85.65 137.302ZM88.646 137.185C88.69 137.919 88.3583 137.557 88.1733 137.774C87.8764 137.387 88.4005 136.782 88.646 137.185ZM86.2803 136.48C86.3298 136.228 86.7659 136.371 86.8319 136.48C86.7788 136.908 86.3738 136.671 86.2803 136.48ZM90.6177 136.245C90.6287 136.615 90.4162 136.648 90.2238 136.715C90.3245 136.513 90.3868 136.252 90.6177 136.245ZM84.6238 136.009C84.5725 136.167 84.4552 136.23 84.3086 136.245C84.2298 135.891 84.4846 136.035 84.6238 136.009ZM88.0945 135.893C88.34 135.839 88.3455 136.145 88.3308 136.482H88.0157C87.9827 136.198 88.1604 136.226 88.0945 135.893ZM88.4096 135.539H88.5672V135.774H88.4096V135.539ZM86.2803 135.186C86.1979 135.869 86.6212 135.235 86.2803 135.186V135.186ZM86.9107 134.597C87.0445 134.554 87.0591 134.689 87.0683 134.832C87.0005 134.81 86.9932 134.878 86.9895 134.948C86.896 134.93 86.9235 134.734 86.9107 134.595V134.597ZM89.1188 134.362H89.2764V134.597H89.1188V134.362ZM88.0945 133.538C88.4261 133.356 88.1073 134.147 88.3308 134.126C88.1018 134.513 87.9699 133.765 88.0945 133.538ZM86.2016 133.538C86.5332 133.693 86.2016 133.925 86.2016 134.243C86.3738 134.263 86.4526 134.147 86.4379 133.889C86.7476 134.002 86.4984 134.574 86.4379 134.83C86.2529 134.556 85.9688 134.432 85.7288 134.241C85.7031 133.969 85.7416 133.789 85.8076 133.652C85.9908 133.688 86.1466 133.904 86.2016 133.536V133.538ZM85.8864 133.184H86.1228V133.538C85.9505 133.56 85.8717 133.441 85.8864 133.184ZM88.5672 132.595C88.6955 132.562 88.7028 132.706 88.8036 132.714C88.8348 132.941 88.4445 132.886 88.5672 132.595Z" fill="#989898"/>
<path id="Vector_36" fill-rule="evenodd" clip-rule="evenodd" d="M82.0931 128.086L82.1206 131.582C84.4552 131.676 91.0776 131.935 94.3558 131.934C98.378 131.934 98.378 130.637 98.378 130.637C98.378 130.637 105.986 129.19 107.11 130.562C108.233 131.934 117.184 133.019 125.033 132.476L125.126 128.086H82.0913H82.0931Z" fill="#3C3C3C"/>
<path id="Vector_37" fill-rule="evenodd" clip-rule="evenodd" d="M96.794 55.4324C96.794 55.4324 96.794 58.832 96.2754 61.4094C99.8725 60.4966 104.005 57.7025 105.504 56.6285C105.428 56.099 105.412 55.5898 105.476 55.125C103.039 55.125 96.7921 55.4324 96.7921 55.4324H96.794Z" fill="#999999"/>
<path id="Vector_38" fill-rule="evenodd" clip-rule="evenodd" d="M93.5942 47.4266C93.5942 47.4266 93.5942 54.0462 95.423 55.7386C97.2518 57.431 99.2308 58.6623 100.755 58.355C102.278 58.0476 105.934 55.7386 106.392 54.661C106.848 53.5833 107.458 45.5787 107.458 45.5787C107.458 45.5787 107.611 40.3441 105.784 39.422C103.955 38.4981 97.8766 37.4 95.7364 39.422C93.5961 41.444 93.5961 47.4266 93.5961 47.4266H93.5942Z" fill="#CCCCCC"/>
<path id="Vector_39" fill-rule="evenodd" clip-rule="evenodd" d="M99.0777 35.5793C99.0777 35.5793 95.7261 35.2719 95.2699 37.118C94.8136 38.9659 92.9225 37.5068 92.3435 40.1602C91.7663 42.8136 92.6788 42.9673 92.6788 43.7376C92.6788 44.5079 92.3435 44.9004 92.3435 46.0095C92.3435 47.1187 92.8052 47.4297 92.8052 47.4297L93.5987 47.1335C93.5987 47.1335 94.4453 48.3463 94.7806 47.1187C95.116 45.8929 94.5076 44.1986 94.8118 43.7376C95.1159 43.2765 96.1971 42.4155 96.646 41.6137C97.0968 40.812 97.0125 40.0121 98.3154 40.812C99.6183 41.6137 100.296 41.736 101.363 40.6583C102.429 39.5807 104.251 39.7029 104.41 40.6583C104.569 41.6138 105.035 40.912 105.902 41.6137C106.77 42.3155 105.033 43.3543 105.902 44.0468C106.77 44.7393 106.77 45.1633 106.77 45.6633C106.77 46.1632 107.082 47.1187 107.082 47.1187L108.15 47.439C108.15 47.439 108.37 45.7373 109.13 45.1226C109.893 44.506 109.66 41.9304 109.13 40.9675C108.601 40.0047 108.601 39.7751 108.601 39.3511C108.601 38.927 108.601 37.2735 107.685 36.6569C106.768 36.0403 106.389 36.9624 104.712 36.0385C103.038 35.1145 100.884 34.2905 99.0758 35.5774L99.0777 35.5793Z" fill="#3C3C3C"/>
<path id="Vector_40" fill-rule="evenodd" clip-rule="evenodd" d="M108.597 38.9751L108.591 38.8547C108.575 38.8714 108.558 38.8843 108.546 38.9121C108.575 38.9214 108.582 38.951 108.597 38.9751ZM106.911 39.662C106.961 39.5083 106.9 39.4491 106.852 39.3787C106.926 39.2584 107.027 39.2232 107.153 39.2621C107.12 39.5139 106.787 39.899 106.827 39.6398C106.854 39.6472 106.882 39.6546 106.909 39.662H106.911ZM100.967 37.1531C100.908 36.9624 101.185 36.8253 100.967 37.1531V37.1531ZM108.247 38.3622C108.214 38.34 108.201 38.3751 108.188 38.4122C108.143 38.3881 108.185 38.29 108.197 38.2141C108.247 38.2511 108.234 38.3418 108.289 38.3733C108.262 38.4418 108.238 38.3955 108.247 38.3622ZM104.443 36.0439C104.465 36.0699 104.424 36.4161 104.309 36.5402C104.238 36.4624 104.382 36.0958 104.443 36.0439ZM100.465 38.0159C100.527 38.0826 100.441 38.1307 100.413 38.2029C100.351 38.1363 100.437 38.0881 100.465 38.0159ZM102.581 38.4659C102.35 38.7177 102.803 38.6159 102.581 38.4659V38.4659ZM102.806 38.4622C102.942 38.3177 103.034 38.6122 102.99 38.7788C102.916 38.6825 102.907 38.5325 102.806 38.4622ZM103.84 38.614C103.84 38.614 103.855 38.5529 103.856 38.5529C104.071 38.5566 103.55 38.8973 103.84 38.614ZM98.9107 36.6531C99.0078 36.6494 98.9657 36.7642 98.9437 36.8624C98.9125 36.842 98.9199 36.7883 98.8777 36.7772C98.8887 36.7365 98.8997 36.6939 98.9107 36.6531ZM107.672 39.0047C107.734 39.0714 107.648 39.1195 107.622 39.1917C107.56 39.1251 107.646 39.0769 107.672 39.0047ZM106.88 38.7862C106.992 38.9843 106.721 38.9751 106.671 39.0621C106.561 38.8714 106.816 38.8307 106.88 38.7862ZM101.3 37.2457C101.289 37.2864 101.278 37.329 101.267 37.3697C101.047 37.3753 101.28 37.0179 101.3 37.2457ZM101.683 37.1512C101.725 37.1623 101.767 37.1734 101.808 37.1864C101.786 37.2697 101.764 37.353 101.74 37.4345C101.694 37.3642 101.634 37.3049 101.681 37.1512H101.683ZM106.713 38.4066C106.851 38.414 106.819 38.6029 106.73 38.677C106.66 38.6418 106.664 38.5436 106.713 38.4066ZM104.923 37.9122C105.066 37.8845 104.96 38.0715 104.939 38.1844C104.87 38.1493 104.873 38.0511 104.923 37.9122ZM100.758 36.7624C100.785 36.7698 100.813 36.7772 100.84 36.7864C100.824 36.9235 100.749 36.8883 100.681 36.8753C100.703 36.8272 100.739 36.8253 100.756 36.7624H100.758ZM105.955 38.0641C105.9 38.1974 105.821 38.2659 105.722 38.2659C105.744 38.2159 105.722 38.2029 105.696 38.1918C105.707 38.1511 105.718 38.1085 105.729 38.0678C105.823 38.1215 105.85 37.9789 105.955 38.0622V38.0641ZM103.114 37.4808C103.059 37.466 103.003 37.4493 102.948 37.4345C102.979 37.1864 103.211 37.2494 103.114 37.4808ZM105.139 37.7734C105.244 37.8104 105.35 37.8437 105.297 38.0178C105.198 38.103 105.038 37.9993 105.139 37.7734ZM103.889 37.429C103.983 37.4271 103.988 37.503 104.04 37.5364C103.983 37.7141 103.801 37.6308 103.889 37.429ZM103.765 37.3938C103.796 37.4142 103.789 37.4678 103.831 37.479C103.809 37.5271 103.772 37.529 103.756 37.5919C103.725 37.5715 103.732 37.5178 103.69 37.5067C103.712 37.4586 103.748 37.4567 103.765 37.3938ZM98.5589 35.9569C98.601 35.968 98.6413 35.9791 98.6835 35.9921C98.6725 36.0328 98.6615 36.0754 98.6505 36.1162C98.6083 36.105 98.568 36.0939 98.5259 36.081C98.5369 36.0384 98.5479 35.9977 98.5589 35.9569ZM106.338 38.3048C106.297 38.2955 106.284 38.3714 106.262 38.4177C106.099 38.3696 106.05 38.2215 106.114 37.9752C106.228 37.8993 106.354 38.1196 106.338 38.3048ZM99.6675 35.9958C99.8141 35.9384 99.7133 36.3069 99.618 36.1828C99.6345 36.1217 99.651 36.0588 99.6675 35.9958ZM100.135 35.9236C100.267 35.9477 100.263 36.1939 100.175 36.268C100.104 36.2013 100.109 36.0717 100.135 35.9236ZM104.082 36.8809C104.034 37.0383 103.888 36.9846 103.856 36.8846C103.904 36.7272 104.051 36.7809 104.082 36.8809ZM102.665 36.4902C102.7 36.4198 102.79 36.4717 102.79 36.5254C102.79 36.6698 102.598 36.6272 102.665 36.4902ZM101.392 36.0717C101.496 36.1069 101.428 36.3309 101.35 36.3939C101.245 36.3587 101.315 36.1347 101.392 36.0717ZM100.642 35.8643C100.659 35.9458 100.652 36.0458 100.6 36.1865C100.461 36.181 100.483 36.0328 100.325 36.0439C100.388 35.8532 100.525 35.8903 100.642 35.8643ZM107.338 37.5789C107.366 37.5864 107.393 37.5938 107.421 37.6012C107.41 37.6419 107.399 37.6845 107.388 37.7252C107.36 37.7178 107.333 37.7104 107.303 37.703C107.314 37.6623 107.325 37.6197 107.336 37.5789H107.338ZM105.172 36.9809C105.249 37.0401 105.234 37.1031 105.163 37.179C105.135 37.1716 105.108 37.1642 105.081 37.1568C105.095 37.0531 105.148 37.0605 105.172 36.9827V36.9809ZM100.8 35.7736C100.989 35.7625 100.93 36.305 100.723 36.2198C100.844 35.9606 100.778 36.0162 100.8 35.7736ZM106.356 37.2419C106.473 37.2605 106.332 37.6382 106.213 37.603C106.25 37.4475 106.288 37.3012 106.356 37.2419ZM103.915 36.5013C103.847 36.6753 103.75 36.7605 103.624 36.755C103.681 36.5494 103.778 36.4643 103.915 36.5013ZM103.375 36.3513C103.417 36.3624 103.457 36.3735 103.499 36.3865C103.391 36.6068 103.554 36.592 103.481 36.7827C103.369 36.705 103.327 36.568 103.373 36.3532L103.375 36.3513ZM106.922 37.4641C106.829 37.466 106.823 37.3919 106.772 37.3568C106.829 37.179 107.01 37.2623 106.922 37.4641ZM106.598 37.1753C106.625 37.1827 106.653 37.1901 106.68 37.1975C106.669 37.2382 106.658 37.2808 106.647 37.3216C106.62 37.3142 106.592 37.3068 106.563 37.2994C106.574 37.2586 106.585 37.216 106.596 37.1753H106.598ZM106.074 36.9642C106.202 37.0123 106.31 37.0772 106.257 37.2827C106.176 37.3382 106.132 37.3253 106.09 37.2364C106.01 37.4179 106.072 37.4753 106.032 37.6215C105.777 37.6215 106.006 37.1994 105.74 37.2068C105.87 36.8272 106.033 37.3419 106.074 36.9642ZM103.701 36.3087C103.728 36.3161 103.756 36.3235 103.785 36.3309C103.774 36.3717 103.763 36.4143 103.752 36.455C103.725 36.4476 103.697 36.4402 103.67 36.4328C103.681 36.3921 103.692 36.3495 103.703 36.3087H103.701ZM105.059 36.7513C104.912 36.892 105.011 37.1086 104.89 37.3716C104.732 37.3882 104.637 37.5901 104.448 37.516C104.743 37.4012 104.54 37.242 104.542 37.0068C104.619 36.942 104.718 36.9698 104.751 37.0642C104.764 36.9901 104.789 36.9568 104.826 36.9512C104.899 36.792 104.773 36.8068 104.751 36.7309C104.862 36.3921 105.015 36.5643 105.059 36.7494V36.7513ZM105.418 36.5828C105.515 36.5791 105.473 36.6939 105.451 36.792C105.42 36.7716 105.427 36.7179 105.385 36.7068C105.396 36.6661 105.407 36.6235 105.418 36.5828ZM106.959 36.6753C107.03 36.6753 107.016 36.7531 107.067 36.7716C107.045 36.8198 107.008 36.8216 106.992 36.8846C106.964 36.8772 106.937 36.8698 106.909 36.8624C106.926 36.8013 106.942 36.7383 106.959 36.6753Z" fill="#989898"/>
<path id="Vector_41" d="M107.382 40.131C107.382 40.131 110.411 38.7367 109.451 36.1259L109.787 36C110.862 38.9293 107.544 40.4569 107.535 40.4606L107.381 40.1328L107.382 40.131Z" fill="#3C3C3C"/>
<path id="Vector_42" d="M107.509 38.1094C107.52 38.1131 111.168 39.1463 111.582 40.2276L111.247 40.3591C110.899 39.4481 107.421 38.463 107.412 38.4593L107.509 38.1094Z" fill="#3C3C3C"/>
<path id="Vector_43" fill-rule="evenodd" clip-rule="evenodd" d="M96.0393 62.3906C96.0393 62.3906 94.205 62.8221 91.92 63.1294C89.6349 63.4368 80.7952 64.607 79.0453 66.4087C77.2953 68.2103 67.0886 88.6819 67.0886 88.6819L52.6911 75.5205L45.7627 82.9863C45.7627 82.9863 59.0149 100.534 62.0622 104.691C65.1096 108.848 67.9865 109.442 69.9839 107.77C71.9812 106.098 78.972 99.6121 80.9528 96.9958C82.0944 108.181 81.1819 120.021 80.1154 130.642H95.0278C97.4961 130.642 96.5139 130.134 96.239 126.77C95.7736 121.06 94.9783 110.431 94.9783 104.637C94.9783 96.4569 93.3786 84.3195 94.1775 78.161C94.9123 72.5116 93.6003 67.6011 96.0393 62.3906Z" fill="#989898"/>
<path id="Vector_44" fill-rule="evenodd" clip-rule="evenodd" d="M47.0711 81.5781L45.7627 82.9872C45.7627 82.9872 59.0149 100.535 62.0622 104.692C65.1096 108.849 67.9865 109.443 69.9839 107.771C70.376 107.444 70.9587 106.931 71.6587 106.299C65.3808 107.775 50.5179 86.6294 47.0711 81.58V81.5781Z" fill="#989898"/>
<path id="Vector_45" fill-rule="evenodd" clip-rule="evenodd" d="M95.1178 62.5859L94.9034 62.6285C94.9346 62.723 94.9987 62.797 95.1142 62.8359C95.0995 62.7618 95.1325 62.6582 95.1178 62.5859ZM86.7564 63.9228L86.4834 63.9728C86.3698 64.1339 86.1627 64.2339 85.8622 64.2691C85.93 64.5283 85.7834 64.6394 85.7449 64.8264H86.3295C86.6153 64.6394 86.1554 64.6783 86.2122 64.4283C86.5457 64.445 86.8316 64.1191 86.7546 63.9228H86.7564ZM84.6803 64.3339C84.5392 64.3654 84.3962 64.395 84.257 64.4283C84.268 64.4505 84.2936 64.4765 84.3413 64.5079C84.574 64.5431 84.6913 64.4339 84.6803 64.3339ZM80.3026 65.6226L80.2421 65.6504V65.7819H80.4767V65.6226H80.3026ZM94.526 68.7556L94.5406 68.5482C94.4966 68.5278 94.4527 68.5093 94.4123 68.4889C94.4435 68.5834 94.4692 68.6815 94.5278 68.7574L94.526 68.7556ZM94.7642 66.5818C94.7807 66.4781 94.799 66.3744 94.8173 66.2688C94.7733 66.2559 94.7202 66.2503 94.6451 66.2596V66.5781L94.7642 66.5818ZM77.9003 82.6539C78.0725 82.8854 77.3762 82.8854 77.5484 82.6539H77.9003ZM79.4212 83.8482C79.4432 84.0223 79.3259 84.1019 79.0712 84.0871C79.0492 83.913 79.1665 83.8334 79.4212 83.8482ZM81.0612 81.5411V81.7003H80.8267V81.5411H81.0612ZM81.1785 84.4056C81.0062 84.3352 80.8083 84.2871 80.8267 84.0871C81.1363 84.063 81.1308 84.2537 81.1785 84.4056ZM81.9994 126.349V126.508H81.7649V126.349H81.9994ZM82.8185 84.9611C82.4649 85.2295 83.2528 85.2018 82.8185 84.9611V84.9611ZM83.0531 87.1108V87.3497C82.8625 87.3719 82.8533 87.2738 82.7031 87.27V87.1108H83.0531ZM83.0531 85.9165V86.0757H82.8185V85.9165H83.0531ZM84.4586 89.0995C84.5135 89.2698 84.29 89.2513 84.1086 89.2587C84.1305 89.1939 84.224 89.1791 84.224 89.0995H84.4586ZM84.4586 85.8369V86.0757H83.9913C84.0921 85.9591 84.1672 85.8239 84.4586 85.8369ZM84.6913 90.9307C84.7957 91.2085 84.3101 91.0677 84.224 91.0103C84.2606 90.903 84.519 90.9437 84.6913 90.9307ZM88.6732 102.631C88.7226 102.798 88.5925 102.842 88.5559 102.95C88.2169 102.935 88.2737 102.572 88.6732 102.631ZM88.5559 101.915C88.6933 101.928 88.6548 102.061 88.6732 102.153H88.3213C88.3635 102.05 88.5284 102.028 88.5559 101.915ZM90.0786 121.653C90.1244 121.664 90.2857 121.822 90.1959 121.892C89.9943 122.049 89.637 121.54 90.0786 121.653ZM92.0687 128.021C91.9825 128.161 91.8561 128.032 91.7168 128.021C91.803 127.878 91.9294 128.01 92.0687 128.021ZM92.0687 119.664C91.9514 119.864 91.5501 119.601 91.5996 119.425C91.8378 119.45 91.8286 119.64 92.0687 119.664ZM92.7705 116.402C92.4406 116.413 92.4333 116.207 92.4187 116.004C92.6239 116.076 92.8255 116.152 92.7705 116.402ZM93.355 120.301C93.9084 120.677 92.7064 120.266 93.2378 120.222C93.377 120.211 93.3001 120.262 93.355 120.301ZM94.1741 120.142V120.381H93.9396V120.142H94.1741ZM94.2914 123.007C94.0459 123.04 93.9817 122.953 93.8223 122.927C93.8425 122.695 94.3794 122.734 94.2914 123.007ZM94.4087 101.755C94.4545 101.909 93.8754 101.872 94.0569 101.676H94.2914C94.2694 101.744 94.3372 101.75 94.4087 101.755ZM94.7605 117.833C94.8063 117.844 94.9676 118.002 94.8778 118.072C94.6762 118.229 94.3189 117.72 94.7605 117.833ZM95.2296 118.47C95.2681 118.611 94.5736 118.613 94.7605 118.39C95.0061 118.357 95.0702 118.444 95.2296 118.47ZM80.8248 67.1354C80.3704 67.2113 80.3429 66.8243 80.0057 67.0558C79.718 66.9002 80.8377 66.8262 80.8248 67.1354ZM81.9976 66.2596C81.5065 66.1855 81.534 66.2059 81.2958 66.4188C80.6911 66.4022 81.085 65.917 81.0612 65.7819C81.3617 65.7893 81.2481 66.0781 81.4112 66.18C81.6531 66.1003 82.0049 65.8967 81.9976 66.2596ZM94.2932 63.5543C94.2383 63.8154 94.4069 63.0155 94.2932 63.5543V63.5543ZM76.3757 73.6624V73.8216H76.1411V73.6624H76.3757ZM78.1311 69.3648C77.9461 69.424 78.1586 69.7536 77.7811 69.6832C77.7482 69.4759 77.8251 69.3407 78.1311 69.3648ZM78.3657 76.2899C78.2814 76.4324 78.1531 76.301 78.0157 76.2899C78.1 76.1491 78.2283 76.2788 78.3657 76.2899ZM78.9502 67.1373V67.3761C78.7597 67.3983 78.7505 67.302 78.6002 67.2965V67.1373H78.9502ZM79.3021 71.5941V71.7534H78.9502V71.5145C79.1408 71.4923 79.1518 71.5904 79.3021 71.5941ZM79.4175 67.8538V68.0131H79.1848V67.8538H79.4175ZM79.6521 67.2965C79.8243 67.5279 79.128 67.5279 79.3021 67.2965H79.6521ZM79.7693 73.7439V74.0624H79.5348V73.7439H79.7693ZM79.7693 71.5145C79.6246 71.4793 79.5293 71.4127 79.5348 71.2757C79.6796 71.3108 79.7767 71.3775 79.7693 71.5145ZM80.0039 68.7297V68.8889H79.7693V68.7297H80.0039ZM80.0039 69.287C79.6484 69.5555 80.4364 69.5277 80.0039 69.287V69.287ZM80.4712 74.142C80.134 74.4549 80.1597 74.6586 79.4157 74.7789C79.7858 74.4068 79.8408 74.0179 80.4712 74.142ZM80.8212 71.7534C80.7699 71.8515 80.6709 71.9163 80.4712 71.9126C80.3685 71.6367 80.6526 71.6404 80.8212 71.7534ZM81.0557 70.5591V70.7183H80.8212V70.5591H81.0557ZM81.0557 70.3202C80.9897 70.485 80.8725 70.4887 80.7057 70.3998V70.2406C80.8945 70.2184 80.9073 70.3165 81.0557 70.3202ZM81.0557 67.9316C81.1473 68.2371 80.495 68.2371 80.5884 67.9316H81.0557ZM81.173 73.5828H80.8212C80.8486 73.4421 80.7039 73.1847 81.0557 73.2643C81.1455 73.3347 81.1822 73.4439 81.173 73.5828ZM81.6403 72.9458C81.1602 73.0273 81.0154 72.4737 81.523 72.5477C81.6219 72.6403 81.6787 72.7607 81.6403 72.9458ZM81.7575 67.3743C81.3636 67.1335 81.402 67.6687 81.7575 67.3743V67.3743ZM81.7575 66.4984V66.6577H81.523V66.4984H81.7575ZM81.8748 69.6018C81.6751 69.6184 81.5706 69.4666 81.523 69.6018C81.1144 69.4129 81.9463 69.25 81.8748 69.6018ZM81.8748 72.307C82.0965 72.3366 81.7997 72.4089 81.6403 72.3866C81.4185 72.357 81.7154 72.2848 81.8748 72.307ZM82.3421 71.67C82.2798 71.7349 82.2193 71.7997 82.2248 71.9089C82.0526 71.8385 81.8547 71.7904 81.8748 71.5904C82.1185 71.5571 82.1845 71.6441 82.3421 71.67ZM82.5766 76.525V76.6843H82.3421V76.525H82.5766ZM83.0439 65.8596V66.0985H82.6939V65.8596H83.0439ZM83.6285 66.8947V67.0539H83.3939V66.8947H83.6285ZM83.1612 65.7004C83.1484 65.5023 82.9413 65.4541 83.1612 65.3023C83.6486 65.2653 83.8392 65.7893 83.1612 65.7004ZM84.4494 64.9838C84.3468 65.2153 84.2735 65.0727 83.9821 65.0634C84.0151 64.8783 84.2936 64.8801 84.4494 64.9838ZM84.9167 75.8084V75.9677H84.6821V75.8084H84.9167ZM84.9167 65.3819V65.5411H84.6821V65.3819H84.9167ZM84.9167 65.0634C84.814 65.2782 84.3981 64.9968 84.6821 64.9042C84.8104 64.9246 84.7609 65.0616 84.9167 65.0634ZM85.3858 66.3373C85.3711 66.1948 85.5287 66.1688 85.503 66.0189C85.842 66.0337 85.7852 66.3966 85.3858 66.3373ZM86.0876 67.6113C86.1316 67.7464 85.996 67.7612 85.853 67.7705C85.875 67.702 85.8072 67.6946 85.7358 67.6909C85.7541 67.5983 85.9483 67.6242 86.0876 67.6113ZM86.2049 68.0094V68.1686H85.9703V68.0094H86.2049ZM86.5567 65.4634C86.5549 65.6819 86.0033 65.6522 85.853 65.543C85.9153 65.4782 85.9758 65.4134 85.9703 65.3041C86.3441 65.2356 86.3331 65.43 86.5567 65.4634ZM86.5567 65.0653V65.2245H86.3221V65.0653H86.5567ZM87.2585 66.6577C86.7766 66.4596 86.7033 66.1059 86.0876 66.18C86.0509 65.9948 86.1059 65.8744 86.2049 65.7819C86.6978 65.7652 86.6978 66.0837 87.1412 66.1003C87.0734 66.3596 87.2219 66.4707 87.2585 66.6577ZM87.6103 71.1942V71.3534H87.3758V71.1942H87.6103ZM87.7276 63.7932C87.7918 63.9691 87.5041 63.9062 87.4931 64.0321C87.2017 63.9987 87.4857 63.7228 87.7276 63.7932ZM87.9622 66.4984V66.6577H87.7276V66.4984H87.9622ZM89.8349 64.5876C89.6993 64.7875 89.3677 64.8542 89.3658 65.1449C89.0818 65.0986 89.1056 64.8449 89.014 64.6672C89.4501 64.832 89.32 64.5524 89.8331 64.5876H89.8349ZM91.0059 64.9857C90.8996 65.1245 90.7438 65.293 90.5367 65.1449C90.5642 65.0042 90.7383 64.9634 91.0059 64.9857ZM91.0059 63.6321C91.026 63.8043 90.5899 63.6691 90.4195 63.7117C90.4048 63.5692 90.5624 63.5432 90.5367 63.3933C90.9124 63.3229 90.7786 63.5988 91.0059 63.6321ZM91.1231 64.6672C90.9179 64.6487 90.8556 64.5302 90.8886 64.3487C91.2532 64.3117 91.3064 64.5487 91.1231 64.6672ZM91.8249 66.4984C91.7205 66.4373 91.5611 66.4133 91.3558 66.4188C91.3229 66.0429 91.8561 66.2337 91.8249 66.4984ZM92.2941 64.5079C92.0247 64.6931 91.9166 64.3598 91.475 64.4283V64.1098C91.9899 64.0784 92.2684 64.208 92.2941 64.5079ZM92.4113 63.234C92.4443 63.3618 92.2996 63.371 92.2941 63.4729C92.1988 63.4581 92.1768 63.3933 92.0595 63.3933V63.234H92.4113ZM92.9977 64.4283C92.6917 64.4505 92.4938 64.3987 92.5286 64.1895C92.7302 64.045 92.9886 64.2135 92.9977 64.4283ZM93.5823 65.8615C93.17 65.8763 93.1974 65.593 92.8804 65.543C92.831 65.3763 92.9611 65.3319 92.9977 65.2245C92.9171 65.1171 92.6862 65.2634 92.4113 65.1449V64.8264C92.7687 64.8838 92.7558 64.6894 93.1132 64.7468C92.7797 65.006 93.4008 64.9745 93.465 65.1449C93.4851 65.1986 93.2744 65.3319 93.3477 65.4634C93.3862 65.5319 94.0385 65.6393 93.5823 65.8615ZM93.8168 63.871C93.8516 64.195 93.5713 63.9136 93.3477 63.9506C93.3844 63.8432 93.6409 63.8839 93.8168 63.871ZM93.9341 66.8947C93.2048 66.9391 93.5639 66.604 93.3477 66.417C93.7325 66.117 94.3354 66.6447 93.9341 66.8947ZM94.6359 64.5061C94.8851 64.5561 94.7459 64.9968 94.6359 65.0634C94.2108 65.0097 94.4453 64.6005 94.6359 64.5061Z" fill="#989898"/>
<path id="Vector_46" fill-rule="evenodd" clip-rule="evenodd" d="M107.11 61.6641C107.11 61.6641 112.634 62.3621 115.986 62.3621C119.337 62.3621 123.754 63.8397 125.278 66.4098C126.803 68.9799 140.969 85.4501 140.969 85.4501L150.109 68.8262C150.109 68.8262 158.181 73.5775 158.639 73.5775C159.024 73.5775 151.478 90.4236 145.768 99.4837C142.998 103.881 143.265 103.242 139.256 101.946C133.183 99.9836 124.67 90.531 124.67 90.531C124.67 90.531 124.366 104.539 124.366 109.157C124.366 113.775 126.117 130.552 126.117 130.552H111.249C108.621 130.552 109.314 130.921 108.916 127.841C108.255 122.718 106.994 111.669 107.685 106.561C108.601 99.7873 107.767 86.2426 108.601 79.3157C109.435 72.3887 109.569 66.3691 107.108 61.6641H107.11Z" fill="#989898"/>
<path id="Vector_47" fill-rule="evenodd" clip-rule="evenodd" d="M157.518 73.0547C158.125 73.3769 158.546 73.5806 158.64 73.5806C159.024 73.5806 151.479 90.4267 145.769 99.4867C142.998 103.884 143.266 103.246 139.256 101.949C138.712 101.774 138.148 101.536 137.57 101.251C140.105 100.975 143.275 99.7663 146.058 96.1186C150.412 90.4119 155.361 78.5207 157.518 73.0547Z" fill="#989898"/>
<path id="Vector_48" fill-rule="evenodd" clip-rule="evenodd" d="M114.593 62.33C114.753 62.3374 114.908 62.3429 115.062 62.3466C115.024 62.4855 114.892 62.5596 114.593 62.5207V62.3281V62.33ZM117.336 62.4355L117.404 62.4429C117.41 62.58 117.313 62.6466 117.17 62.6799C117.179 62.567 117.159 62.4337 117.336 62.4355ZM120.565 63.1447L120.589 63.1521L120.565 63.1577V63.1447ZM121.128 63.3484C121.214 63.3817 121.3 63.4169 121.386 63.4502V63.4761C121.216 63.5502 121.126 63.441 121.128 63.3465V63.3484ZM125.835 67.2275L125.945 67.3757C125.916 67.3812 125.881 67.3831 125.835 67.3757V67.2257V67.2275ZM108.466 65.3056L108.427 65.1556C108.522 65.1593 108.607 65.1704 108.619 65.2296C108.548 65.2333 108.48 65.2407 108.502 65.3093H108.466V65.3056ZM108.312 64.726C108.279 64.6093 108.244 64.4927 108.209 64.376C108.29 64.4853 108.381 64.589 108.502 64.6704C108.449 64.6834 108.385 64.7038 108.312 64.726ZM126.887 82.659C126.715 82.8905 127.411 82.8905 127.239 82.659H126.887ZM125.366 83.8533C125.344 84.0274 125.461 84.107 125.716 84.0922C125.738 83.9182 125.621 83.8385 125.366 83.8533ZM123.726 81.5462V81.7055H123.961V81.5462H123.726ZM123.609 84.4107C123.781 84.3403 123.979 84.2922 123.961 84.0922C123.651 84.0681 123.656 84.2589 123.609 84.4107ZM122.788 126.354V126.513H123.022V126.354H122.788ZM121.969 84.9662C121.534 85.2069 122.322 85.2347 121.969 84.9662V84.9662ZM121.734 87.1159V87.3548C121.925 87.377 121.936 87.2789 122.084 87.2752V87.1159H121.734ZM121.734 85.9216V86.0809H121.969V85.9216H121.734ZM120.329 89.1046C120.274 89.2749 120.497 89.2564 120.679 89.2638C120.657 89.199 120.563 89.1842 120.563 89.1046H120.329ZM120.329 85.842V86.0809H120.796C120.695 85.9642 120.62 85.829 120.329 85.842ZM120.096 90.9358C119.992 91.2136 120.477 91.0729 120.563 91.0155C120.527 90.9081 120.268 90.9488 120.096 90.9358ZM116.114 102.636C116.065 102.803 116.195 102.847 116.231 102.955C116.57 102.94 116.514 102.577 116.114 102.636ZM116.231 101.92C116.094 101.933 116.132 102.066 116.114 102.159H116.466C116.424 102.055 116.261 102.033 116.231 101.92ZM114.709 121.658C114.663 121.669 114.502 121.827 114.591 121.897C114.793 122.054 115.15 121.545 114.709 121.658ZM112.719 128.026C112.805 128.167 112.931 128.037 113.07 128.026C112.984 127.883 112.858 128.015 112.719 128.026ZM112.719 119.669C112.836 119.869 113.237 119.607 113.188 119.431C112.949 119.455 112.959 119.645 112.719 119.669ZM112.017 116.407C112.347 116.418 112.354 116.212 112.369 116.009C112.163 116.081 111.962 116.157 112.017 116.407ZM111.43 120.306C110.877 120.682 112.079 120.271 111.548 120.227C111.408 120.216 111.485 120.268 111.43 120.306ZM110.611 120.147V120.386H110.846V120.147H110.611ZM110.494 123.012C110.74 123.045 110.804 122.958 110.963 122.932C110.941 122.701 110.406 122.739 110.494 123.012ZM110.377 101.76C110.331 101.914 110.91 101.877 110.729 101.681H110.494C110.516 101.749 110.448 101.755 110.377 101.76ZM110.025 117.838C109.979 117.849 109.818 118.007 109.908 118.077C110.109 118.234 110.467 117.725 110.025 117.838ZM109.556 118.475C109.519 118.616 110.212 118.618 110.025 118.396C109.779 118.362 109.715 118.449 109.556 118.475ZM123.961 67.1405C124.415 67.2164 124.443 66.8294 124.78 67.0609C125.067 66.9054 123.948 66.8313 123.961 67.1405ZM122.788 66.2647C123.279 66.1906 123.251 66.211 123.49 66.4239C124.094 66.4073 123.7 65.9221 123.724 65.787C123.424 65.7944 123.535 66.0832 123.374 66.1851C123.132 66.1055 122.781 65.9018 122.788 66.2647ZM110.492 63.5595C110.379 63.0206 110.547 63.8205 110.492 63.5595V63.5595ZM128.41 73.6675V73.8268H128.644V73.6675H128.41ZM126.654 69.3699C126.841 69.4291 126.627 69.7587 127.004 69.6884C127.037 69.481 126.96 69.3458 126.654 69.3699ZM126.42 76.295C126.504 76.4376 126.632 76.3061 126.77 76.295C126.685 76.1543 126.557 76.2839 126.42 76.295ZM125.482 71.5992V71.7585H125.833V71.5196C125.645 71.4974 125.632 71.5955 125.482 71.5992ZM125.366 67.859V68.0182H125.599V67.859H125.366ZM125.132 67.3016C124.959 67.5331 125.656 67.5331 125.482 67.3016H125.132ZM125.014 73.749V74.0675H125.249V73.749H125.014ZM125.014 71.5196C125.159 71.4844 125.254 71.4178 125.249 71.2808C125.104 71.3159 125.007 71.3826 125.014 71.5196ZM124.78 68.7348V68.894H125.014V68.7348H124.78ZM124.78 69.2921C124.347 69.5328 125.135 69.5606 124.78 69.2921V69.2921ZM124.312 74.1471C124.65 74.46 124.624 74.6637 125.368 74.7841C124.998 74.4119 124.943 74.023 124.312 74.1471ZM124.312 65.6314V65.7907H124.547V65.6314H124.312ZM123.962 71.7603C124.014 71.8585 124.113 71.9233 124.312 71.9196C124.415 71.6437 124.131 71.6474 123.962 71.7603ZM123.728 70.566V70.7253H123.962V70.566H123.728ZM123.728 70.3272C123.794 70.492 123.911 70.4957 124.078 70.4068V70.2476C123.889 70.2253 123.878 70.3235 123.728 70.3272ZM123.728 67.9386C123.636 68.2441 124.289 68.2441 124.195 67.9386H123.728ZM123.611 73.5898H123.962C123.935 73.449 124.08 73.1917 123.728 73.2713C123.638 73.3416 123.601 73.4509 123.611 73.5898ZM123.143 72.9528C123.623 73.0343 123.768 72.4806 123.261 72.5547C123.162 72.6473 123.105 72.7676 123.143 72.9528ZM123.026 67.3812C123.382 67.6756 123.42 67.1405 123.026 67.3812V67.3812ZM123.026 66.5054V66.6646H123.261V66.5054H123.026ZM122.909 69.6087C123.109 69.6254 123.211 69.4736 123.261 69.6087C123.669 69.4199 122.837 69.2569 122.909 69.6087ZM122.909 72.314C122.687 72.3436 122.984 72.4158 123.143 72.3936C123.365 72.364 123.068 72.2918 122.909 72.314ZM122.442 71.677C122.504 71.7418 122.564 71.8066 122.559 71.9159C122.731 71.8455 122.929 71.7974 122.909 71.5974C122.665 71.5641 122.599 71.6511 122.442 71.677ZM122.442 64.7519H122.674C122.792 64.3649 122.051 64.6056 122.442 64.7519ZM122.207 76.532V76.6912H122.442V76.532H122.207ZM121.74 65.8666V66.1055H122.09V65.8666H121.74ZM121.39 64.0353C121.338 64.202 121.469 64.2464 121.505 64.3538C121.712 64.3797 121.714 63.9076 121.39 64.0353ZM121.155 66.8998V67.059H121.39V66.8998H121.155ZM121.622 65.7055C121.635 65.5074 121.842 65.4592 121.622 65.3074C121.135 65.2704 120.944 65.7944 121.622 65.7055ZM120.334 64.9889C120.437 65.2204 120.51 65.0778 120.801 65.0685C120.769 64.8834 120.49 64.8852 120.334 64.9889ZM120.217 63.5558V64.0335C120.534 63.9576 120.657 63.7465 120.919 63.6354C120.754 63.4391 120.516 63.4947 120.217 63.5558ZM120.452 64.5112C120.686 64.3483 120.398 64.3557 120.334 64.1927C119.995 64.2075 120.052 64.5705 120.452 64.5112ZM119.867 75.8136V75.9728H120.102V75.8136H119.867ZM119.867 65.387V65.5463H120.102V65.387H119.867ZM119.867 65.0685C119.97 65.2833 120.386 65.0019 120.102 64.9093C119.973 64.9297 120.023 65.0667 119.867 65.0685ZM119.398 66.3425C119.413 66.1999 119.255 66.174 119.281 66.024C118.942 66.0388 118.998 66.4017 119.398 66.3425ZM119.046 63.1595C119.317 63.3354 119.006 63.4687 119.046 63.7168C119.499 63.7317 119.719 63.5909 119.75 63.3187C119.407 63.3391 119.391 63.1391 119.046 63.1595ZM118.694 67.6164C118.65 67.7516 118.786 67.7664 118.929 67.7756C118.907 67.7071 118.975 67.6997 119.046 67.696C119.028 67.6034 118.833 67.6294 118.694 67.6164ZM118.694 63.8761C118.522 64.1075 119.218 64.1075 119.046 63.8761H118.694ZM118.577 68.0145V68.1737H118.811V68.0145H118.577ZM118.225 65.4685C118.227 65.687 118.778 65.6574 118.929 65.5481C118.866 65.4833 118.806 65.4185 118.811 65.3093C118.438 65.2407 118.449 65.4352 118.225 65.4685ZM118.225 65.0704V65.2296H118.46V65.0704H118.225ZM118.577 64.4334C118.634 64.6834 118.174 64.6445 118.46 64.8315H119.044C119.008 64.6445 118.859 64.5334 118.927 64.2742C118.527 64.226 118.293 64.0668 118.223 63.7965C117.782 63.8835 118.135 64.4557 118.575 64.4334H118.577ZM117.523 66.6628C118.005 66.4647 118.078 66.111 118.694 66.1851C118.731 65.9999 118.676 65.8796 118.577 65.787C118.084 65.7703 118.084 66.0888 117.641 66.1055C117.708 66.3647 117.56 66.4758 117.523 66.6628ZM117.406 62.7633C117.384 62.9373 117.501 63.0169 117.758 63.0021C117.78 62.8281 117.663 62.7484 117.406 62.7633ZM117.171 71.1993V71.3585H117.406V71.1993H117.171ZM117.054 63.7983C116.99 63.9742 117.278 63.9113 117.289 64.0372C117.58 64.0039 117.296 63.728 117.054 63.7983ZM116.82 66.5036V66.6628H117.054V66.5036H116.82ZM115.766 63.0817C115.817 63.1799 115.916 63.2447 116.118 63.241C116.22 62.9651 115.938 62.9669 115.766 63.0817ZM114.947 64.5945C115.082 64.7945 115.414 64.8612 115.416 65.1519C115.7 65.1056 115.676 64.8519 115.768 64.6741C115.332 64.8389 115.462 64.5593 114.949 64.5945H114.947ZM114.712 62.8429C114.813 62.9595 114.888 63.0947 115.181 63.0817C115.268 62.8651 114.949 62.9206 114.947 62.7633C114.852 62.7781 114.83 62.8429 114.712 62.8429ZM113.776 64.9908C113.882 65.1296 114.038 65.2981 114.245 65.15C114.218 65.0093 114.043 64.9686 113.776 64.9908ZM113.776 63.6372C113.756 63.8094 114.192 63.6743 114.36 63.7168C114.375 63.5743 114.218 63.5484 114.243 63.3984C113.868 63.328 114.001 63.6039 113.774 63.6372H113.776ZM113.659 64.6723C113.864 64.6538 113.926 64.5353 113.893 64.3538C113.529 64.3168 113.475 64.5538 113.659 64.6723ZM112.957 66.5036C113.061 66.4425 113.221 66.4184 113.424 66.4239C113.457 66.0481 112.924 66.2388 112.957 66.5036ZM112.488 64.5131C112.757 64.6982 112.865 64.3649 113.307 64.4334V64.115C112.792 64.0835 112.513 64.2131 112.488 64.5131ZM112.37 63.2391C112.337 63.3669 112.48 63.3762 112.488 63.478C112.583 63.4632 112.605 63.3984 112.722 63.3984V63.2391H112.37ZM111.784 64.4334C112.09 64.4557 112.288 64.4038 112.253 64.1946C112.052 64.0501 111.793 64.2186 111.784 64.4334ZM111.55 62.5244C111.582 62.7096 111.863 62.7077 112.019 62.604C111.986 62.4189 111.705 62.4207 111.55 62.5244ZM111.198 65.8666C111.61 65.8814 111.582 65.5981 111.9 65.5481C111.949 65.3815 111.819 65.337 111.782 65.2296C111.863 65.1222 112.094 65.2685 112.369 65.15V64.8315C112.009 64.8889 112.024 64.6945 111.667 64.7519C112 65.0111 111.379 64.9797 111.315 65.15C111.295 65.2037 111.506 65.337 111.432 65.4685C111.394 65.537 110.741 65.6444 111.198 65.8666ZM110.963 63.8761C110.928 64.2001 111.209 63.9187 111.432 63.9557C111.396 63.8483 111.139 63.8891 110.963 63.8761ZM110.846 66.8998C111.575 66.9442 111.216 66.6091 111.432 66.4221C111.047 66.1221 110.445 66.6498 110.846 66.8998ZM110.144 64.5112C109.893 64.5612 110.034 65.0019 110.144 65.0685C110.569 65.0148 110.335 64.6056 110.144 64.5112ZM109.909 68.8885C110.278 68.8996 110.311 68.6848 110.379 68.4904C110.177 68.5922 109.919 68.6552 109.909 68.8885ZM109.675 62.8392C109.833 62.7873 109.893 62.6688 109.909 62.5207C109.558 62.4411 109.702 62.6985 109.675 62.8392ZM109.558 66.3406C109.505 66.5887 109.809 66.5961 110.142 66.5795V66.261C109.86 66.2277 109.887 66.4073 109.558 66.3406ZM109.206 66.6591V66.8183H109.44V66.6591H109.206ZM108.854 64.5094C108.903 64.8538 109.534 64.426 108.854 64.5094V64.5094Z" fill="#989898"/>
<path id="Vector_49" d="M160.054 64.0154C160.054 64.0154 158.575 64.6376 158.575 64.932H158.265C158.265 64.432 159.933 63.7284 159.937 63.7266L160.054 64.0154Z" fill="#3C3C3C"/>
<path id="Vector_50" d="M163.974 63.7344C163.974 63.7344 166.088 64.8583 166.189 66.1156L165.88 66.1396C165.792 65.0527 163.835 64.014 163.829 64.0103L163.974 63.7344Z" fill="#3C3C3C"/>
<path id="Vector_51" d="M165.729 63.9875L171.137 62.4062L171.223 62.7062L165.816 64.2875L165.729 63.9875Z" fill="#3C3C3C"/>
<path id="Vector_52" d="M166.265 64.6422L171.029 63.6016L171.095 63.9071L166.331 64.9477L166.265 64.6422Z" fill="#3C3C3C"/>
<path id="Vector_53" d="M166.926 65.3054L170.604 64.6406L170.657 64.9499L166.981 65.6127L166.926 65.3054Z" fill="#3C3C3C"/>
<path id="Vector_54" d="M34.9084 74.2656L35.5553 75.5729C36.0995 75.6729 39.3264 76.2506 40.9646 76.2506V76.5765C39.1523 76.5765 35.4307 75.8802 35.4197 75.8784L35.3409 75.8636L34.6226 74.4119L34.9102 74.2675L34.9084 74.2656Z" fill="#3C3C3C"/>
<path id="Vector_55" d="M35.4893 74.6016C35.4893 74.6016 37.7359 75.22 40.4442 75.22V75.5459C37.6937 75.5459 35.4124 74.9182 35.405 74.9163L35.4875 74.6016H35.4893Z" fill="#3C3C3C"/>
<path id="Vector_56" d="M36.446 74.1797C36.4551 74.1797 39.77 74.7241 40.897 74.1927L41.0326 74.4871C39.8176 75.0592 36.4038 74.5019 36.3928 74.5L36.446 74.1797Z" fill="#3C3C3C"/>
<path id="Vector_57" d="M80.8776 92.041C80.8776 92.0151 80.6192 82.9791 80.9252 79.8906L81.2825 79.9258C80.9802 82.994 81.2367 92.0059 81.2367 92.0318L80.8776 92.041Z" fill="#3C3C3C"/>
<path id="Vector_58" d="M67.9935 89.1894C68.0063 89.206 72.2796 94.7572 73.051 97.4069L72.7065 97.5087C71.9552 94.9257 67.7223 89.4264 67.7095 89.4097L67.9935 89.1875V89.1894Z" fill="#3C3C3C"/>
<path id="Vector_59" d="M124.491 89.1425C124.491 89.1203 124.491 81.3212 123.132 77.505L123.469 77.3828C124.85 81.262 124.85 89.1203 124.85 89.1425H124.491Z" fill="#3C3C3C"/>
<path id="Vector_60" d="M140.652 86.1827C140.643 86.1957 137.026 90.6118 136.577 93.18L136.223 93.1171C136.689 90.4526 140.365 85.9661 140.374 85.9531L140.652 86.1809V86.1827Z" fill="#3C3C3C"/>
<path id="Vector_61" d="M123.463 97.5384C123.444 97.5791 116.765 111.77 114.315 111.803L114.312 111.44C116.536 111.411 123.12 97.4235 123.138 97.3828L123.463 97.5384Z" fill="#3C3C3C"/>
<path id="Vector_62" d="M85.0307 85.9394C85.0362 85.9727 86.9767 97.3972 90.6489 104.45L90.3319 104.619C86.6322 97.5121 84.6825 86.0338 84.677 86.0005L85.0307 85.9375V85.9394Z" fill="#3C3C3C"/>
<path id="Vector_63" fill-rule="evenodd" clip-rule="evenodd" d="M100.528 49.0781C100.528 49.0781 99.4583 51.1186 99.9933 51.8926C100.528 52.6647 101.791 51.8926 101.791 51.8926C101.791 51.8926 99.8431 52.237 100.528 49.0781Z" fill="#999999"/>
<path id="Vector_64" d="M98.8135 54.0671C98.8135 54.0671 100.406 52.6506 101.925 54.3578L101.657 54.6004C100.375 53.158 99.0462 54.343 99.0425 54.3449L98.8135 54.0671Z" fill="#999999"/>
<path id="Vector_65" d="M98.9158 45.2779C98.9158 45.2779 97.5763 45.2167 96.891 46.1889L96.3962 45.8333C97.274 44.589 98.936 44.665 98.9415 44.665L98.9177 45.2779H98.9158Z" fill="#3C3C3C"/>
<path id="Vector_66" d="M103.39 44.6651C103.39 44.6651 105.143 44.5855 106.182 45.8113L105.72 46.2112C104.874 45.2113 103.415 45.278 103.41 45.278L103.388 44.6651H103.39Z" fill="#3C3C3C"/>
<path id="Vector_67" d="M100.816 44.7891C100.816 44.7891 101.067 44.7891 101.067 45.4908H100.708C100.708 45.152 100.818 45.152 100.818 45.152V44.7891H100.816Z" fill="#3C3C3C"/>
<path id="Vector_68" d="M102.304 44.6648C102.304 44.6648 101.971 45.037 101.971 45.4888H101.612C101.612 44.8982 102.031 44.4297 102.031 44.4297L102.304 44.6648Z" fill="#3C3C3C"/>
<path id="Vector_69" fill-rule="evenodd" clip-rule="evenodd" d="M96.6418 47.335C96.6418 47.335 98.0125 46.6591 99.079 47.2739C100.145 47.8904 98.1225 48.4108 97.5361 48.3441C97.012 48.283 96.6418 48.1238 96.6418 47.335Z" fill="white"/>
<path id="Vector_70" fill-rule="evenodd" clip-rule="evenodd" d="M96.8892 47.7146C96.8892 47.7146 97.1384 48.1627 97.7853 47.9127C98.4321 47.6646 98.1664 47.0183 98.1664 47.0183C98.1664 47.0183 96.9369 46.8313 96.6418 47.335L96.8892 47.7146Z" fill="#3C3C3C"/>
<path id="Vector_71" fill-rule="evenodd" clip-rule="evenodd" d="M102.873 47.335C102.873 47.335 104.243 46.6591 105.31 47.2739C106.376 47.8904 104.45 48.4645 103.767 48.3441C103.246 48.2515 102.873 48.1238 102.873 47.335Z" fill="white"/>
<path id="Vector_72" fill-rule="evenodd" clip-rule="evenodd" d="M102.873 47.3354C102.873 47.3354 103.369 48.1612 104.016 47.9131C104.663 47.6649 104.397 47.0187 104.397 47.0187C104.397 47.0187 103.924 46.8706 103.015 47.2743L102.874 47.3354H102.873Z" fill="#3C3C3C"/>
<path id="Vector_73" d="M116.071 132.344C116.085 132.364 121.476 139.567 123.135 139.602L123.127 139.965C121.293 139.926 115.8 132.584 115.785 132.562L116.073 132.344H116.071Z" fill="#989898"/>
<path id="Vector_74" d="M90.8103 132.7C90.7993 132.721 87.2792 139.944 84.679 139.964L84.6753 139.601C87.0538 139.583 90.4786 132.559 90.4878 132.539L90.8103 132.7Z" fill="#989898"/>
<path id="Vector_75" d="M102.307 133.629C102.307 133.666 102.08 146.286 103.683 147.007L103.537 147.338C101.712 146.518 101.948 133.662 101.948 133.625L102.307 133.629Z" fill="#989898"/>
<path id="Vector_76" d="M110.373 120.37C110.393 120.371 117.348 121.288 122.339 119.914L122.433 120.264C117.37 121.66 110.35 120.734 110.329 120.731L110.373 120.37Z" fill="#3C3C3C"/>
<path id="Vector_77" d="M83.4256 119.906C83.4402 119.906 88.6242 120.619 92.1168 119.908L92.1865 120.264C88.6352 120.986 83.3926 120.267 83.3779 120.265L83.4237 119.906H83.4256Z" fill="#3C3C3C"/>
<path id="Vector_78" d="M105.713 25.8695C105.568 25.8695 105.44 25.8084 105.332 25.6881C105.222 25.5659 105.13 25.414 105.057 25.2344C104.985 25.053 104.93 24.853 104.89 24.6308C104.855 24.4123 104.833 24.2068 104.833 24.0198C104.833 23.705 104.883 23.4513 104.978 23.2587C105.077 23.0699 105.264 22.8866 105.548 22.7199C105.605 22.694 105.707 22.6347 105.859 22.5385C106.012 22.4459 106.191 22.3348 106.393 22.2107C106.598 22.0848 106.816 21.9496 107.058 21.8034C107.294 21.6571 107.525 21.5145 107.74 21.3756C107.959 21.2331 108.157 21.1071 108.341 20.9942C108.524 20.8757 108.663 20.7868 108.762 20.7257C108.945 20.5998 109.169 20.4406 109.424 20.2498C109.678 20.0573 109.922 19.8462 110.155 19.6147C110.384 19.387 110.582 19.1407 110.745 18.8833C110.908 18.626 110.988 18.3649 110.988 18.0982C110.988 17.9668 110.963 17.8409 110.921 17.7205C110.875 17.5946 110.814 17.4891 110.745 17.3891C110.671 17.2928 110.589 17.215 110.494 17.1539C110.402 17.0965 110.31 17.0687 110.222 17.0687C109.746 17.0687 109.264 17.1187 108.777 17.2187C108.289 17.3187 107.809 17.4613 107.327 17.6427C106.847 17.8205 106.373 18.0353 105.911 18.2853C105.443 18.5315 104.989 18.8037 104.547 19.0963V19.0852C104.516 19.1203 104.456 19.1666 104.373 19.224C104.289 19.2851 104.197 19.3425 104.091 19.3981C103.989 19.4518 103.882 19.5055 103.776 19.5481C103.67 19.5944 103.574 19.6166 103.494 19.6166C103.413 19.6166 103.323 19.6018 103.219 19.5703C103.113 19.5388 103.006 19.4925 102.907 19.4314C102.808 19.3666 102.72 19.2888 102.649 19.1889C102.576 19.0926 102.539 18.9778 102.539 18.8463C102.539 18.7148 102.596 18.5704 102.709 18.4241C102.827 18.2779 102.972 18.1316 103.151 17.9816C103.331 17.8316 103.529 17.6816 103.752 17.5354C103.972 17.3891 104.19 17.2576 104.41 17.1354C104.626 17.0113 104.83 16.9039 105.022 16.8114C105.209 16.7151 105.361 16.6429 105.471 16.5966C106.266 16.2818 107.036 16.0207 107.789 15.8152C108.542 15.6115 109.308 15.5078 110.091 15.5078C110.415 15.5078 110.741 15.5856 111.073 15.743C111.404 15.9004 111.705 16.1077 111.974 16.3707C112.244 16.6318 112.462 16.9317 112.632 17.2743C112.803 17.6168 112.887 17.9705 112.887 18.3427C112.887 18.6426 112.815 18.9352 112.678 19.224C112.541 19.5166 112.359 19.7962 112.134 20.0665C111.91 20.3387 111.657 20.6017 111.373 20.8516C111.091 21.1016 110.802 21.3405 110.503 21.5701C110.206 21.7941 109.916 22.0052 109.634 22.1941C109.352 22.3866 109.097 22.5625 108.877 22.7162C108.661 22.8625 108.436 23.0088 108.196 23.1588C107.952 23.3087 107.727 23.4513 107.518 23.5865C107.305 23.7217 107.122 23.855 106.963 23.9827C106.803 24.1142 106.704 24.229 106.662 24.3364C106.627 24.4753 106.605 24.6012 106.594 24.7178C106.583 24.8326 106.576 24.94 106.57 25.0363C106.563 25.1252 106.559 25.2215 106.563 25.3178C106.567 25.414 106.545 25.5066 106.503 25.5899C106.457 25.6751 106.376 25.7436 106.259 25.7936C106.138 25.8473 105.962 25.8714 105.718 25.8714L105.713 25.8695ZM106.581 28.9766C106.581 29.2154 106.532 29.4413 106.433 29.658C106.334 29.8728 106.2 30.0616 106.034 30.2227C105.867 30.3838 105.676 30.5116 105.462 30.6079C105.242 30.7079 105.017 30.7542 104.784 30.7542C104.604 30.7542 104.434 30.7227 104.274 30.6579C104.115 30.5894 103.978 30.4968 103.86 30.3801C103.743 30.2616 103.651 30.1227 103.585 29.9617C103.521 29.8006 103.49 29.6302 103.49 29.4469C103.49 29.2117 103.543 28.9821 103.65 28.7618C103.756 28.5433 103.897 28.3507 104.069 28.1841C104.24 28.0156 104.437 27.8804 104.659 27.7804C104.879 27.6804 105.104 27.6267 105.33 27.6267C105.509 27.6267 105.676 27.6619 105.828 27.7341C105.98 27.8027 106.11 27.8989 106.224 28.0156C106.341 28.1341 106.429 28.2767 106.49 28.4433C106.554 28.6118 106.581 28.7896 106.581 28.9747V28.9766Z" fill="#989898"/>
<path id="Vector_79" d="M132.487 33.5694C132.487 33.8213 132.364 34.2027 132.12 34.7138C131.937 35.1044 131.572 36.034 131.026 37.506C130.484 38.9744 130.152 39.8854 130.033 40.2335C129.914 40.5816 129.804 41.0093 129.71 41.5148C129.633 41.9055 129.366 42.0999 128.91 42.0999C128.32 42.0999 128.023 41.8074 128.023 41.2167C128.023 40.626 128.387 39.4095 129.117 37.6486C129.848 35.8914 130.409 34.6878 130.801 34.0342C131.191 33.3824 131.568 33.0547 131.933 33.0547C132.298 33.0547 132.485 33.2232 132.485 33.5694H132.487ZM129.525 44.7774C129.525 45.1921 129.368 45.5532 129.051 45.855C128.737 46.1605 128.378 46.3105 127.971 46.3105C127.66 46.3105 127.398 46.2031 127.182 45.9846C126.962 45.7624 126.855 45.4977 126.855 45.1847C126.855 44.77 127.02 44.4052 127.348 44.0886C127.68 43.7738 128.043 43.6145 128.442 43.6145C128.754 43.6145 129.009 43.7275 129.216 43.9497C129.419 44.1719 129.523 44.4478 129.523 44.7774H129.525Z" fill="#989898"/>
<path id="Vector_80" d="M80.2081 43.0303C80.0982 43.1266 79.9626 43.1637 79.8013 43.1433C79.6401 43.1229 79.4715 43.0674 79.2992 42.9803C79.1288 42.8896 78.9566 42.7748 78.7843 42.6322C78.6176 42.4897 78.4673 42.3471 78.3482 42.2064C78.1448 41.9675 78.0202 41.7435 77.9671 41.5342C77.9194 41.325 77.9451 41.0639 78.0513 40.751C78.0788 40.6954 78.1173 40.5806 78.1704 40.4084C78.2254 40.2381 78.2914 40.0344 78.3629 39.8085C78.438 39.5789 78.5168 39.3308 78.6047 39.0623C78.689 38.7957 78.7715 38.5364 78.8448 38.2883C78.9181 38.0365 78.9877 37.8106 79.0537 37.6032C79.1178 37.3921 79.1636 37.2347 79.2003 37.1236C79.2589 36.907 79.3249 36.6385 79.3945 36.3274C79.4641 36.0145 79.5118 35.6942 79.5393 35.3627C79.5668 35.0387 79.5576 34.7202 79.5155 34.4184C79.4733 34.1166 79.367 33.8648 79.193 33.6611C79.1087 33.5611 79.0079 33.4815 78.8979 33.4185C78.7825 33.3537 78.667 33.313 78.5498 33.2833C78.4307 33.2593 78.3189 33.2537 78.2071 33.2704C78.1008 33.287 78.0129 33.3259 77.9451 33.3852C77.5841 33.7 77.2506 34.0536 76.9445 34.4517C76.6385 34.848 76.3673 35.2739 76.12 35.7275C75.8707 36.1793 75.649 36.6533 75.4603 37.1477C75.266 37.6421 75.0938 38.1476 74.949 38.6605L74.9417 38.6531C74.9417 38.7012 74.9252 38.7753 74.8995 38.8734C74.8739 38.9753 74.8409 39.079 74.7988 39.1919C74.7548 39.2993 74.709 39.4104 74.6577 39.5122C74.6082 39.6178 74.5496 39.6955 74.4872 39.7492C74.4286 39.8011 74.3498 39.8492 74.249 39.8955C74.1482 39.9418 74.0383 39.9751 73.9229 39.9955C73.8056 40.0122 73.6883 40.0103 73.571 39.9807C73.4519 39.9566 73.3511 39.8937 73.2668 39.7937C73.1789 39.69 73.1331 39.5474 73.1239 39.3623C73.1184 39.1752 73.1331 38.9679 73.1734 38.7346C73.2137 38.5012 73.2668 38.2587 73.342 37.9995C73.4134 37.7439 73.4941 37.4995 73.582 37.2625C73.6645 37.0255 73.7506 36.8089 73.8367 36.6126C73.9174 36.4163 73.9852 36.2626 74.0383 36.1552C74.4396 35.3924 74.8556 34.6887 75.2917 34.0351C75.7315 33.3852 76.2464 32.8019 76.8383 32.2872C77.0856 32.0724 77.3825 31.9187 77.7362 31.8187C78.0898 31.7187 78.4508 31.678 78.8246 31.7021C79.1966 31.7224 79.5558 31.8057 79.9058 31.9539C80.2558 32.102 80.5471 32.3149 80.7872 32.5964C80.9814 32.8241 81.1152 33.0926 81.1976 33.4019C81.2819 33.7148 81.3241 34.0444 81.3277 34.3999C81.3332 34.7517 81.3112 35.1202 81.2581 35.496C81.205 35.8719 81.139 36.2441 81.062 36.6126C80.9814 36.9792 80.899 37.3292 80.8055 37.6588C80.7157 37.992 80.6351 38.292 80.5673 38.5531C80.4976 38.8068 80.4207 39.066 80.3364 39.3382C80.2484 39.6122 80.1696 39.8696 80.0982 40.1103C80.0249 40.3529 79.9699 40.5751 79.9333 40.7769C79.8984 40.9824 79.8966 41.1343 79.9333 41.2435C79.9956 41.3731 80.0615 41.4805 80.1293 41.5768C80.1953 41.6712 80.2594 41.7564 80.3162 41.8342C80.3675 41.9064 80.428 41.9823 80.4922 42.0527C80.5563 42.123 80.6003 42.2082 80.6223 42.2989C80.6424 42.3934 80.6241 42.4989 80.5691 42.6137C80.5123 42.7341 80.395 42.8692 80.21 43.0285L80.2081 43.0303ZM82.8707 44.8135C83.0246 44.9949 83.1327 45.1986 83.1987 45.4282C83.261 45.656 83.2829 45.8874 83.2591 46.1189C83.2371 46.3503 83.1748 46.5725 83.0741 46.7892C82.9733 47.0095 82.8303 47.1928 82.6544 47.3465C82.517 47.465 82.3686 47.552 82.2055 47.6094C82.0406 47.6631 81.8775 47.6835 81.7126 47.6705C81.5476 47.6576 81.3882 47.6131 81.2343 47.5354C81.0822 47.4557 80.9484 47.3465 80.8293 47.2076C80.6772 47.028 80.5709 46.8206 80.5086 46.5836C80.4482 46.3485 80.4317 46.1096 80.4537 45.867C80.4738 45.6282 80.5361 45.3949 80.6406 45.1727C80.7432 44.9523 80.8788 44.7635 81.051 44.6135C81.1885 44.495 81.3369 44.4117 81.4982 44.3672C81.6576 44.3191 81.8188 44.3061 81.9801 44.3209C82.145 44.3339 82.3044 44.3839 82.4584 44.4709C82.6141 44.5561 82.7515 44.6727 82.8707 44.8135Z" fill="#989898"/>
</g>
</g>
</g>
</g>
<defs>
<clipPath id="clip0_3352_17499">
<rect width="190" height="160" fill="white"/>
</clipPath>
</defs>
</svg>
