<svg width="1240" height="60" viewBox="0 0 1240 60" fill="none" xmlns="http://www.w3.org/2000/svg">
<g opacity="0.1">
<rect width="1240" height="60" fill="white" style="mix-blend-mode:screen"/>
</g>
<g clip-path="url(#clip0_2385_5026)">
<path d="M106.994 58.7645L105.493 59.6383C104.341 60.3071 102.9 60.1721 101.885 59.3007L92.2622 51.1077L104.25 49.2496L107.896 54.0126C109.068 55.562 108.653 57.7977 106.994 58.7645ZM75.9991 33.0413L72.5142 35.0805C70.2552 36.406 69.4791 39.3471 70.8055 41.651L75.61 50.0538C76.9247 52.36 79.8268 53.1605 82.097 51.8311L85.5851 49.8036L75.9991 33.0413ZM118.362 41.2102L99.7632 8.68028C99.204 7.70132 97.8561 7.58982 97.1624 8.46287L79.0606 31.263L88.6422 48.0197L117.248 43.5907C118.344 43.4212 118.922 42.1862 118.362 41.2102ZM111.995 11.8522C111.735 11.9218 111.456 11.9247 111.178 11.8479C110.333 11.6152 109.829 10.733 110.052 9.87849L111.217 5.40356C111.438 4.54748 112.306 4.04315 113.148 4.27745C113.993 4.51013 114.497 5.39234 114.275 6.24685L113.11 10.7218C112.96 11.2957 112.521 11.7112 111.995 11.8522ZM117.068 22.0709C116.394 22.2515 115.655 21.9594 115.287 21.3155C114.848 20.5461 115.103 19.5664 115.857 19.1256L119.806 16.8241C120.565 16.3839 121.529 16.6498 121.97 17.4206C122.409 18.19 122.154 19.1697 121.4 19.6105L117.451 21.912C117.326 21.9842 117.199 22.0359 117.068 22.0709ZM127.717 32.8355C127.457 32.9052 127.178 32.9081 126.9 32.8313L122.48 31.6115C121.635 31.3789 121.131 30.4967 121.354 29.6421C121.576 28.7858 122.443 28.2817 123.285 28.516L127.705 29.7358C128.55 29.9684 129.054 30.8506 128.831 31.7052C128.683 32.2788 128.243 32.6945 127.717 32.8355Z" fill="#3E594D" fill-opacity="0.1"/>
</g>
<g clip-path="url(#clip1_2385_5026)">
<g clip-path="url(#clip2_2385_5026)">
<path d="M1208.15 1.34327L1209.36 0.648251C1210.29 0.116316 1211.44 0.218148 1212.25 0.902749L1219.93 7.33977L1210.32 8.84697L1207.42 5.09833C1206.48 3.8788 1206.82 2.11217 1208.15 1.34327ZM1232.9 21.5505L1235.7 19.9287C1237.51 18.8746 1238.15 16.5497 1237.09 14.7349L1233.27 8.11622C1232.22 6.2997 1229.9 5.6773 1228.08 6.73461L1225.28 8.34716L1232.9 21.5505ZM1198.99 15.2419L1213.78 40.8651C1214.22 41.6362 1215.3 41.7198 1215.86 41.0281L1230.44 22.9648L1222.82 9.76593L1199.89 13.3586C1199.01 13.4961 1198.54 14.4732 1198.99 15.2419ZM1203.99 38.4015C1204.2 38.3456 1204.42 38.3424 1204.65 38.4022C1205.32 38.5831 1205.72 39.278 1205.54 39.9534L1204.59 43.4907C1204.41 44.1674 1203.72 44.5685 1203.04 44.3863C1202.37 44.2054 1201.96 43.5105 1202.15 42.835L1203.09 39.2978C1203.22 38.8441 1203.57 38.5146 1203.99 38.4015ZM1199.96 30.3498C1200.5 30.205 1201.09 30.4332 1201.39 30.9403C1201.73 31.5464 1201.53 32.3208 1200.92 32.6714L1197.75 34.5018C1197.14 34.852 1196.37 34.6452 1196.02 34.0381C1195.67 33.432 1195.88 32.6576 1196.48 32.307L1199.65 30.4766C1199.75 30.4191 1199.86 30.378 1199.96 30.3498ZM1191.47 21.8858C1191.67 21.8299 1191.9 21.8267 1192.12 21.8864L1195.66 22.8347C1196.33 23.0156 1196.73 23.7105 1196.55 24.386C1196.37 25.0629 1195.68 25.4638 1195 25.2816L1191.46 24.3333C1190.79 24.1524 1190.39 23.4575 1190.57 22.782C1190.69 22.3286 1191.04 21.9989 1191.47 21.8858Z" fill="#3E594D" fill-opacity="0.1"/>
</g>
</g>
<defs>
<clipPath id="clip0_2385_5026">
<rect width="59" height="60" fill="white" transform="translate(63 13.1572) rotate(-15)"/>
</clipPath>
<clipPath id="clip1_2385_5026">
<rect x="1185" width="55" height="55" rx="10" fill="white"/>
</clipPath>
<clipPath id="clip2_2385_5026">
<rect width="47.3218" height="47.3218" fill="white" transform="translate(1243.25 37.2061) rotate(165)"/>
</clipPath>
</defs>
</svg>
