<svg width="32" height="32" viewBox="0 0 32 32" fill="none" xmlns="http://www.w3.org/2000/svg">
    <g clip-path="url(#clip0_3760_19958)">
        <path d="M22.2421 0.460938C22.3141 0.460938 22.3861 0.460938 22.4622 0.460938C22.6389 2.64346 21.8059 4.27423 20.7934 5.45518C19.8 6.62798 18.4397 7.76545 16.2395 7.59286C16.0927 5.44159 16.9271 3.93177 17.9382 2.75353C18.8759 1.65548 20.595 0.678374 22.2421 0.460938Z" fill="white"/>
        <path d="M28.9027 23.1796C28.9027 23.2014 28.9027 23.2204 28.9027 23.2408C28.2843 25.1135 27.4024 26.7184 26.326 28.2079C25.3435 29.56 24.1394 31.3797 21.9895 31.3797C20.1318 31.3797 18.8979 30.1852 16.9939 30.1526C14.9799 30.1199 13.8724 31.1514 12.0309 31.411C11.8203 31.411 11.6097 31.411 11.4031 31.411C10.0509 31.2153 8.95966 30.1444 8.16466 29.1795C5.82042 26.3284 4.0089 22.6456 3.67188 17.9326C3.67188 17.4706 3.67188 17.0099 3.67188 16.5478C3.81457 13.1748 5.4535 10.4324 7.63194 9.10334C8.78163 8.39667 10.3621 7.79464 12.122 8.06372C12.8762 8.18059 13.6468 8.4388 14.3222 8.69429C14.9623 8.94026 15.7627 9.37649 16.521 9.35339C17.0347 9.33844 17.5457 9.07072 18.0635 8.88183C19.5801 8.33416 21.0668 7.70631 23.0264 8.00121C25.3816 8.35726 27.0531 9.40367 28.0859 11.0181C26.0937 12.2861 24.5186 14.1968 24.7877 17.4597C25.0269 20.4236 26.75 22.1577 28.9027 23.1796Z" fill="white"/>
    </g>
    <defs>
        <clipPath id="clip0_3760_19958">
            <rect width="30.948" height="30.948" fill="white" transform="translate(0.8125 0.460938)"/>
        </clipPath>
    </defs>
</svg>

