<?xml version="1.0" encoding="iso-8859-1"?>
<!-- Generator: Adobe Illustrator 19.0.0, SVG Export Plug-In . SVG Version: 6.00 Build 0)  -->
<svg version="1.1" id="Capa_1" xmlns="http://www.w3.org/2000/svg" xmlns:xlink="http://www.w3.org/1999/xlink" x="0px" y="0px"
	 viewBox="0 0 512 512" style="enable-background:new 0 0 512 512;" xml:space="preserve">
<path style="fill:#576574;" d="M255.424,75.642c-31.792,0-57.563,25.771-57.563,57.563v22.779c3.847-3.566,9.32-5.504,14.663-4.791
	v-2.868c0-2.28,1.947-4.081,4.204-3.91c22.256,1.599,44.905-5.473,62.03-16.661c1.599-1.045,3.716-0.785,5.015,0.611
	c14.641,15.738,14.553,15.129,14.553,17.183v5.633c5.856-0.878,11.051,0.932,14.66,4.288v-22.264
	C312.987,101.413,287.216,75.642,255.424,75.642z"/>
<path style="fill:#3E4B5A;" d="M213.311,133.205c0-29.17,21.701-53.256,49.838-57.032c-2.528-0.339-5.104-0.531-7.725-0.531
	c-31.792,0-57.563,25.771-57.563,57.563v22.779c3.847-3.566,9.32-5.504,14.663-4.791v-2.868c0-0.885,0.296-1.697,0.788-2.35
	L213.311,133.205L213.311,133.205z"/>
<g>
	<path style="fill:#F2BB88;" d="M297.564,148.894v31.533c0,0.342-0.018,0.679-0.026,1.02c11.159,1.69,19.898-6.373,19.898-16.275
		C317.436,155.249,308.689,147.226,297.564,148.894z"/>
	<path style="fill:#F2BB88;" d="M213.287,180.426v-31.521c-9.715-1.297-19.873,6.158-19.873,16.265
		c0,9.889,8.72,17.966,19.898,16.275C213.303,181.106,213.287,180.767,213.287,180.426z"/>
</g>
<g>
	<path style="fill:#E3A76F;" d="M311.524,152.567c-3.566-2.958-8.472-4.496-13.96-3.674v31.533c0,0.342-0.018,0.679-0.026,1.02
		c5.504,0.833,10.417-0.709,13.986-3.672V152.567z"/>
	<path style="fill:#E3A76F;" d="M213.287,177.777c-3.668-3.045-5.912-7.591-5.912-12.605c0-4.879,2.371-9.136,5.912-12.093v-4.172
		c-9.715-1.297-19.873,6.159-19.873,16.266c0,9.889,8.72,17.966,19.897,16.275c-0.008-0.34-0.025-0.679-0.025-1.02L213.287,177.777
		L213.287,177.777z"/>
</g>
<path style="fill:#F2BB88;" d="M231.881,215.128v22.591l24.053,29.69l24.053-29.69v-23.228
	C264.963,224.854,245.524,223.845,231.881,215.128z"/>
<path style="fill:#E3A76F;" d="M247.285,221.156c-5.734-1.064-10.907-3.155-15.404-6.028v22.591l15.404,19.014V221.156z"/>
<path style="fill:#E4EAF8;" d="M343.618,260.837l-63.631-24.643l-24.053,29.69l-24.053-29.69l-63.564,24.643
	c0,0-15.814,6.513-21.512,23.645c26.433,30.728,65.579,50.221,109.195,50.221c43.59,0,82.716-19.469,109.148-50.164
	C359.465,267.365,343.618,260.837,343.618,260.837z"/>
<path style="fill:#D8DCE5;" d="M178.218,256.998l-1.886,0.731c-8.55,3.315-8.554,3.213-11.166,4.73
	c-0.021,0.012-0.042,0.025-0.063,0.037c-8.447,4.935-15.185,12.633-18.297,21.985c4.156,4.832,8.628,9.385,13.382,13.629v-7.701
	C160.186,272.002,171.263,261.672,178.218,256.998z"/>
<path style="fill:#F2D1A5;" d="M283.774,126.841c-1.299-1.396-3.416-1.656-5.015-0.611c-17.125,11.187-39.775,18.259-62.03,16.66
	c-2.257-0.171-4.205,1.63-4.205,3.91v34.389c0,22.102,17.318,42.289,43.513,42.289c23.318,0,42.289-18.971,42.289-42.289v-37.165
	C298.326,141.969,298.415,142.578,283.774,126.841z"/>
<path style="fill:#F2BB88;" d="M227.928,181.189v-38.21c-3.726,0.198-7.468,0.179-11.2-0.089c-2.257-0.171-4.205,1.63-4.205,3.91
	v34.389c0,26.508,23.876,46.216,50.603,41.682C243.174,219.487,227.928,202.09,227.928,181.189z"/>
<g>
	<path style="fill:#D8DCE5;" d="M284.976,281.14l17.986-36.047l-22.976-8.898l-24.053,29.69l23.451,16.655
		C281.283,283.887,283.936,283.223,284.976,281.14z"/>
	<path style="fill:#D8DCE5;" d="M226.925,281.14l-17.986-36.047l22.976-8.898l24.053,29.69l-23.451,16.655
		C230.618,283.887,227.965,283.223,226.925,281.14z"/>
</g>
<path style="fill:#EE5253;" d="M255.965,265.905v-0.021l-0.014,0.01l-0.014-0.01v0.021l-17.056,12.114l8.062,12.134
	c6.502,0,11.515,0,18.017,0l8.062-12.134L255.965,265.905z"/>
<path style="fill:#D83941;" d="M264.486,271.956l-8.521-6.052v-0.02l-0.014,0.01l-0.015-0.01v0.02l-17.056,12.114l8.062,12.134
	c6.273,0,11.145,0,17.071,0l-6.62-9.963c-0.804-1.21-0.502-2.839,0.683-3.68L264.486,271.956z"/>
<path style="fill:#FF6B6B;" d="M241.014,333.917c4.928,0.512,9.925,0.785,14.986,0.785c5.027,0,9.993-0.271,14.889-0.776
	l-5.929-43.774c-6.503,0-11.515,0-18.017,0L241.014,333.917z"/>
<path style="fill:#EE5253;" d="M241.014,333.917c4.928,0.512,9.925,0.785,14.986,0.785c0.663,0,1.322-0.019,1.983-0.028l6.03-44.522
	c-5.952,0-10.774,0-17.071,0L241.014,333.917z"/>
<path style="fill:#FF6B6B;" d="M246.819,0.212C146.97,4.815,66.133,86.201,62.155,186.077
	c-2.87,72.049,33.587,135.779,89.628,171.543c9.324,5.95,17.154,13.961,22.739,23.507l74.095,126.639
	c3.303,5.645,11.463,5.645,14.766,0l73.679-125.93c5.782-9.883,13.832-18.242,23.473-24.42c53.8-34.48,89.468-94.768,89.468-163.412
	C450.003,83.814,358.138-4.92,246.819,0.212z M256,329.551c-76.695,0-138.87-62.174-138.87-138.87S179.304,51.811,256,51.811
	s138.87,62.174,138.87,138.87S332.696,329.551,256,329.551z"/>
<path style="fill:#EE5253;" d="M195.256,381.126c-5.585-9.546-13.416-17.557-22.739-23.507
	c-56.041-35.764-92.498-99.494-89.628-171.543C86.851,86.605,167.054,5.485,266.344,0.282c-6.431-0.338-12.943-0.374-19.525-0.07
	C146.97,4.815,66.134,86.201,62.155,186.077c-2.87,72.049,33.587,135.779,89.628,171.543c9.324,5.95,17.154,13.961,22.739,23.507
	l74.095,126.639c3.303,5.645,11.462,5.645,14.766,0l2.984-5.1L195.256,381.126z"/>
<g>
</g>
<g>
</g>
<g>
</g>
<g>
</g>
<g>
</g>
<g>
</g>
<g>
</g>
<g>
</g>
<g>
</g>
<g>
</g>
<g>
</g>
<g>
</g>
<g>
</g>
<g>
</g>
<g>
</g>
</svg>
