<svg width="1440" height="127" viewBox="0 0 1440 127" fill="none" xmlns="http://www.w3.org/2000/svg">
<g opacity="0.7">
<path style="mix-blend-mode:screen" opacity="0.1" d="M1293.16 -183H147.842L-0.714355 74L147.842 331H1293.16L1441.71 74L1293.16 -183Z" fill="white"/>
<path style="mix-blend-mode:screen" opacity="0.1" d="M1170.88 -183H270.116L121.845 74L270.116 331H1170.88L1319.16 74L1170.88 -183Z" fill="white"/>
<path style="mix-blend-mode:screen" opacity="0.1" d="M1048.32 -183H392.675L244.119 74L392.675 331H1048.32L1196.88 74L1048.32 -183Z" fill="white"/>
<path opacity="0.5" d="M1048.32 -183C1073.75 -140.452 1098.89 -97.9044 1124.03 -55.3567L1198.6 72.8578L1199.17 74L1198.6 75.1422L1161.46 139.392L1124.03 203.357L1086.32 267.321L1048.32 331L1084.61 266.179L1121.17 201.643L1158.03 137.393L1194.88 73.1433V75.1422L1121.17 -53.6433C1096.61 -96.7622 1072.32 -139.596 1048.32 -183Z" fill="white"/>
<path opacity="0.5" d="M1170.88 -183C1196.31 -140.452 1221.45 -97.9044 1246.59 -55.3567L1321.15 72.8578L1321.73 74L1321.15 75.1422L1284.02 139.392L1246.59 203.357L1208.88 267.321L1170.88 331L1207.17 266.179L1243.73 201.643L1280.59 137.393L1317.44 73.1433V75.1422L1243.73 -53.6433C1219.16 -96.7622 1194.88 -139.596 1170.88 -183Z" fill="white"/>
<path opacity="0.5" d="M1293.16 -183C1318.58 -140.452 1343.72 -97.9044 1368.86 -55.3567L1443.43 72.8578L1444 74L1443.43 75.1422L1406.29 139.392L1368.86 203.357L1331.15 267.321L1293.16 331L1329.44 266.179L1366.01 201.643L1402.86 137.393L1439.71 73.1433V75.1422L1366.01 -53.6433C1341.44 -96.7622 1317.16 -139.596 1293.16 -183Z" fill="white"/>
<path opacity="0.5" d="M392.675 -183C368.678 -139.881 344.394 -96.7622 319.825 -53.6433L246.118 75.1422V73.1433L282.972 137.393L319.825 201.643L356.393 266.179L392.675 331L354.679 267.321L316.968 203.357L279.544 139.392L242.404 75.1422L241.833 74L242.404 72.8578L316.968 -55.3567C342.109 -97.9044 366.964 -140.738 392.675 -183Z" fill="white"/>
<path opacity="0.5" d="M270.116 -183C246.118 -139.881 221.835 -96.7622 197.266 -53.6433L123.559 75.1422V73.1433L160.412 137.393L197.266 201.643L233.834 266.179L270.116 331L232.119 267.321L194.409 203.357L156.984 139.392L119.845 75.1422L119.273 74L119.845 72.8578L194.409 -55.3567C219.549 -97.9044 244.404 -140.738 270.116 -183Z" fill="white"/>
<path opacity="0.5" d="M147.842 -183C123.845 -139.881 99.5613 -96.7622 74.9923 -53.6433L0.999605 75.1422V73.1433L37.8531 137.393L74.7066 201.643L111.274 266.179L147.557 331L109.56 267.321L71.8497 203.357L34.4249 139.392L-2.42863 75.1422L-3 74L-2.42863 72.8578L72.1354 -55.3567C97.2758 -97.9044 122.131 -140.738 147.842 -183Z" fill="white"/>
</g>
</svg>
