<svg width="21" height="20" viewBox="0 0 21 20" fill="none" xmlns="http://www.w3.org/2000/svg">
<path d="M10.6137 6.66525C8.77747 6.66525 7.27896 8.16376 7.27896 10C7.27896 11.8362 8.77747 13.3348 10.6137 13.3348C12.4499 13.3348 13.9485 11.8362 13.9485 10C13.9485 8.16376 12.4499 6.66525 10.6137 6.66525ZM20.6155 10C20.6155 8.61907 20.628 7.25064 20.5504 5.87221C20.4729 4.27113 20.1076 2.85017 18.9368 1.67938C17.7635 0.506085 16.3451 0.14334 14.744 0.065788C13.3631 -0.0117644 11.9946 0.000744113 10.6162 0.000744113C9.23528 0.000744113 7.86685 -0.0117644 6.48842 0.065788C4.88734 0.14334 3.46638 0.508587 2.29559 1.67938C1.1223 2.85267 0.759551 4.27113 0.681999 5.87221C0.604447 7.25314 0.616955 8.62157 0.616955 10C0.616955 11.3784 0.604447 12.7494 0.681999 14.1278C0.759551 15.7289 1.1248 17.1498 2.29559 18.3206C3.46888 19.4939 4.88734 19.8567 6.48842 19.9342C7.86936 20.0118 9.23778 19.9993 10.6162 19.9993C11.9971 19.9993 13.3656 20.0118 14.744 19.9342C16.3451 19.8567 17.766 19.4914 18.9368 18.3206C20.1101 17.1473 20.4729 15.7289 20.5504 14.1278C20.6305 12.7494 20.6155 11.3809 20.6155 10ZM10.6137 15.131C7.77429 15.131 5.48274 12.8394 5.48274 10C5.48274 7.16058 7.77429 4.86903 10.6137 4.86903C13.4531 4.86903 15.7447 7.16058 15.7447 10C15.7447 12.8394 13.4531 15.131 10.6137 15.131ZM15.9548 5.8572C15.2919 5.8572 14.7565 5.32184 14.7565 4.65889C14.7565 3.99594 15.2919 3.46058 15.9548 3.46058C16.6178 3.46058 17.1531 3.99594 17.1531 4.65889C17.1533 4.81631 17.1225 4.97222 17.0623 5.1177C17.0022 5.26317 16.9139 5.39535 16.8026 5.50666C16.6913 5.61798 16.5591 5.70624 16.4136 5.76639C16.2682 5.82654 16.1122 5.8574 15.9548 5.8572Z" fill="white"/>
</svg>
