<svg width="512" height="512" viewBox="0 0 512 512" fill="none" xmlns="http://www.w3.org/2000/svg">
<g clip-path="url(#clip0_53_4527)">
<path d="M284.444 512H170.666V170.667H284.444V227.556C296.422 212.317 311.624 199.918 328.959 191.248C346.294 182.578 365.333 177.852 384.711 177.408C418.599 177.596 451.03 191.216 474.892 215.28C498.753 239.344 512.098 271.889 511.999 305.778V512H398.222V320C396.021 304.628 388.342 290.568 376.598 280.408C364.854 270.247 349.836 264.671 334.307 264.704C327.357 264.924 320.523 266.545 314.215 269.471C307.907 272.397 302.255 276.567 297.598 281.731C292.941 286.896 289.376 292.947 287.115 299.523C284.855 306.099 283.946 313.064 284.444 320V512ZM113.778 512H0V170.667H113.778V512ZM56.8888 113.778C41.801 113.778 27.3311 107.784 16.6623 97.1154C5.99362 86.4467 0 71.9768 0 56.8889C0 41.801 5.99362 27.3311 16.6623 16.6624C27.3311 5.99363 41.801 0 56.8888 0C71.9767 0 86.4466 5.99363 97.1153 16.6624C107.784 27.3311 113.778 41.801 113.778 56.8889C113.778 71.9768 107.784 86.4467 97.1153 97.1154C86.4466 107.784 71.9767 113.778 56.8888 113.778Z" fill="white"/>
</g>
<defs>
<clipPath id="clip0_53_4527">
<rect width="512" height="512" fill="white"/>
</clipPath>
</defs>
</svg>
