<svg width="512" height="512" viewBox="0 0 512 512" fill="none" xmlns="http://www.w3.org/2000/svg">
<g clip-path="url(#clip0_53_4525)">
<path d="M180.224 500.224C204.8 507.648 229.632 512 256 512C323.895 512 389.01 485.029 437.019 437.019C485.029 389.01 512 323.895 512 256C512 222.382 505.378 189.092 492.513 158.033C479.648 126.974 460.791 98.7525 437.019 74.9807C413.248 51.2089 385.026 32.352 353.967 19.4868C322.908 6.62164 289.618 0 256 0C222.382 0 189.092 6.62164 158.033 19.4868C126.974 32.352 98.7525 51.2089 74.9807 74.9807C26.9714 122.99 0 188.105 0 256C0 364.8 68.352 458.24 164.864 495.104C162.56 475.136 160.256 442.112 164.864 419.328L194.304 292.864C194.304 292.864 186.88 278.016 186.88 254.464C186.88 219.136 208.896 192.768 233.984 192.768C256 192.768 266.24 208.896 266.24 229.632C266.24 251.648 251.648 283.136 244.224 313.344C239.872 338.432 257.536 360.448 283.136 360.448C328.704 360.448 364.032 311.808 364.032 243.2C364.032 181.76 320 139.776 256.768 139.776C184.576 139.776 142.08 193.536 142.08 250.112C142.08 272.128 149.248 294.4 161.024 308.992C163.328 310.528 163.328 312.576 162.56 316.416L155.136 344.32C155.136 348.672 152.32 350.208 147.968 347.136C115.2 332.8 96.256 286.208 96.256 248.576C96.256 167.68 153.6 94.208 264.192 94.208C352.256 94.208 420.864 157.44 420.864 241.408C420.864 329.472 366.336 400.128 288.256 400.128C263.424 400.128 239.104 386.816 230.4 371.2L213.248 431.872C207.36 453.888 191.232 483.328 180.224 500.992V500.224V500.224Z" fill="white"/>
</g>
<defs>
<clipPath id="clip0_53_4525">
<rect width="512" height="512" fill="white"/>
</clipPath>
</defs>
</svg>
