<svg width="66" height="64" viewBox="0 0 66 64" fill="none" xmlns="http://www.w3.org/2000/svg">
<g id="OBJECTS" clip-path="url(#clip0_1459_44312)">
<g id="Group">
<g id="Group_2">
<path id="Vector" d="M17.4867 19.9324C19.503 20.6058 21.6841 19.5152 22.3584 17.4964C23.0326 15.4776 21.9446 13.2951 19.9283 12.6217C17.9119 11.9483 15.7308 13.0389 15.0565 15.0577C14.3823 17.0765 15.4703 19.259 17.4867 19.9324Z" fill="#B57E05"/>
<path id="Vector_2" d="M21.5082 19.0285C23.17 17.6998 23.442 15.2751 22.1159 13.6126C20.7897 11.9502 18.3675 11.6796 16.7057 13.0083C15.0439 14.337 14.7718 16.7617 16.098 18.4242C17.4242 20.0866 19.8464 20.3572 21.5082 19.0285Z" fill="#FFB81D"/>
<path id="Vector_3" opacity="0.67" d="M17.9958 19.2516C17.1418 18.9664 16.4053 18.3371 16.012 17.4495C15.2706 15.7749 16.0284 13.8081 17.7008 13.0643C18.511 12.7035 19.4149 12.6824 20.2398 12.9999C21.067 13.3182 21.7205 13.9408 22.0805 14.7515C22.8219 16.4261 22.0641 18.393 20.3917 19.1367C19.6051 19.4858 18.7531 19.5045 17.9958 19.2516ZM20.017 13.1841C19.2891 12.941 18.5083 12.9783 17.8016 13.2923C17.0516 13.626 16.476 14.2306 16.1819 14.9975C15.8865 15.764 15.9066 16.5991 16.2394 17.3496C16.9259 18.8982 18.744 19.5986 20.2916 18.9103C21.0416 18.5766 21.6161 17.9716 21.9114 17.2051C22.2067 16.4386 22.1866 15.6035 21.8538 14.8531C21.521 14.1026 20.9174 13.5268 20.1514 13.233C20.1074 13.2156 20.0618 13.1991 20.017 13.1841Z" fill="white"/>
<path id="Vector_4" d="M18.2948 17.2921C18.1203 17.1865 17.9701 17.0668 17.8444 16.9329C17.7186 16.799 17.622 16.6683 17.5529 16.5415C17.5136 16.4667 17.5113 16.395 17.544 16.3285C17.5712 16.2746 17.6138 16.2376 17.672 16.2163C17.7302 16.1951 17.7876 16.1998 17.845 16.2282C17.8899 16.251 17.928 16.2861 17.9614 16.3353C18.0434 16.4625 18.1354 16.5798 18.2375 16.6861C18.3397 16.7925 18.4675 16.885 18.6216 16.9614C18.679 16.9898 18.7352 17.0138 18.7902 17.0335C18.8453 17.0532 18.9007 17.0678 18.9566 17.0772C19.0124 17.0867 19.0651 17.0899 19.1163 17.0859C19.1674 17.082 19.2138 17.0726 19.2571 17.0568C19.3004 17.0411 19.3413 17.0167 19.3775 16.9828C19.4137 16.949 19.4449 16.9069 19.4709 16.8565C19.5178 16.7632 19.5226 16.6703 19.4857 16.5766C19.4488 16.4828 19.3675 16.3809 19.2413 16.2718L18.8405 15.9252C18.7615 15.8555 18.697 15.7972 18.6459 15.75C18.5948 15.7027 18.5434 15.6488 18.4883 15.5897C18.4337 15.5294 18.3913 15.4759 18.3622 15.4294C18.3324 15.3814 18.3065 15.3294 18.2845 15.2696C18.2621 15.2109 18.25 15.153 18.2497 15.0951C18.2489 15.0384 18.2569 14.9755 18.2738 14.9089C18.2896 14.842 18.3172 14.7711 18.3539 14.6967C18.3886 14.6282 18.4287 14.5668 18.4764 14.5145C18.524 14.4621 18.5752 14.4188 18.6299 14.3846C18.6846 14.3503 18.7448 14.3232 18.8089 14.3039C18.8731 14.2846 18.9415 14.272 19.0111 14.2677C19.0819 14.2638 19.1543 14.267 19.231 14.2768C19.3077 14.2867 19.3848 14.3032 19.4626 14.3253C19.5405 14.3474 19.6215 14.3757 19.7045 14.41L19.9898 13.8384C20.0181 13.7809 20.0579 13.7443 20.1083 13.7309C20.159 13.7164 20.207 13.7219 20.2553 13.7459C20.3037 13.7699 20.3383 13.8078 20.3591 13.8593C20.3799 13.9109 20.3767 13.9637 20.3487 14.02L20.0602 14.5971C20.1522 14.6554 20.2387 14.7184 20.3185 14.7897C20.3987 14.8598 20.4631 14.922 20.5106 14.9759C20.5582 15.0299 20.603 15.0842 20.6446 15.1401C20.7126 15.2272 20.7239 15.315 20.6806 15.4016C20.6715 15.4209 20.6593 15.4378 20.6439 15.4524C20.6294 15.4685 20.612 15.4811 20.5935 15.4894C20.5747 15.4988 20.5554 15.5055 20.5353 15.5106C20.5152 15.5157 20.494 15.5165 20.4704 15.5126C20.4468 15.5086 20.4244 15.5011 20.402 15.4897C20.3906 15.4846 20.3812 15.4775 20.3717 15.4704C20.3623 15.4633 20.3529 15.4562 20.3415 15.4472C20.3312 15.4385 20.321 15.4298 20.3112 15.42C20.3088 15.4192 20.2896 15.3983 20.2523 15.357C20.2149 15.3156 20.1878 15.2869 20.1713 15.2696C20.1548 15.2522 20.1242 15.2223 20.0801 15.1814C20.0361 15.1404 19.996 15.1073 19.9618 15.0802C19.9273 15.0542 19.8848 15.0242 19.8345 14.9904C19.7842 14.9565 19.7323 14.9273 19.6808 14.901C19.5731 14.8466 19.4724 14.8104 19.3784 14.7895C19.2844 14.7686 19.1959 14.7705 19.1145 14.7945C19.033 14.8185 18.9724 14.8705 18.9326 14.9504C18.8822 15.0504 18.8754 15.1374 18.9104 15.2095C18.9465 15.2819 19.04 15.3827 19.1933 15.5127L19.5882 15.8494C19.8433 16.0672 20.004 16.2731 20.0691 16.4668C20.1342 16.6606 20.1136 16.8637 20.0072 17.0763C19.8803 17.3306 19.6964 17.4884 19.4561 17.5486C19.2157 17.6088 18.9486 17.584 18.6545 17.4713L18.3735 18.0339C18.3456 18.0901 18.3054 18.124 18.2519 18.1389C18.1988 18.1527 18.1469 18.1472 18.0962 18.1224C18.0671 18.1074 18.0423 18.0873 18.0223 18.0609C18.0034 18.035 17.9916 18.0035 17.9881 17.9668C17.9846 17.9302 17.9921 17.892 18.0119 17.8527L18.2928 17.2901L18.2948 17.2921Z" fill="white"/>
</g>
<g id="Group_3">
<path id="Vector_5" d="M41.5856 54.7948L22.6901 54.6963C21.2084 54.6885 20.0162 53.4803 20.0247 51.9984L20.264 11.3502C20.2729 9.86711 21.4808 8.67284 22.9613 8.68024L41.8571 8.77756C43.3388 8.78536 44.5322 9.99392 44.5226 11.4755L44.2816 52.1244C44.2728 53.6075 43.0649 54.8018 41.5844 54.7944L41.5856 54.7948Z" fill="#353148"/>
<path id="Vector_6" d="M41.1775 54.1279L23.1052 54.0339C21.7569 54.0273 20.6715 52.927 20.6787 51.5786L20.9159 11.5769C20.9234 10.2273 22.0234 9.14006 23.3706 9.14625L41.444 9.24064C42.7923 9.24723 43.8777 10.3475 43.8705 11.696L43.6333 51.6976C43.6258 53.0473 42.5258 54.1345 41.1786 54.1283L41.1775 54.1279Z" fill="#423E49"/>
<g id="Group_4">
<path id="Vector_7" d="M42.4479 14.2247L22.3096 14.1201L22.1164 46.7906L42.2548 46.8951L42.4479 14.2247Z" fill="white"/>
<path id="Vector_8" d="M42.4474 14.2256L22.3091 14.1211L22.3001 15.6325L42.4385 15.7371L42.4474 14.2256Z" fill="#1E87D5"/>
</g>
<g id="Group_5">
<path id="Vector_9" d="M23.7109 31.5268L23.7202 30.011C23.7222 29.5693 24.0486 29.2123 24.4491 29.2147L40.1271 29.2968C40.5275 29.2992 40.8493 29.6588 40.8469 30.1017L40.7585 45.0852C40.7565 45.527 40.4301 45.884 40.0297 45.8816L24.3516 45.7995C23.9512 45.797 23.6294 45.4375 23.6318 44.9946L23.6454 42.5902" fill="#ECF1F7"/>
<path id="Vector_10" opacity="0.14" d="M23.7106 31.5079L23.7209 29.7929C23.7224 29.4705 24.0487 29.2119 24.4491 29.2143L40.1272 29.2964C40.5276 29.2989 40.8503 29.5615 40.8476 29.8836L40.8374 31.5238" fill="#3E479B"/>
<path id="Vector_11" d="M37.6562 30.8209C37.6055 30.804 37.5603 30.7745 37.5214 30.7339C37.4593 30.6685 37.4264 30.5827 37.4269 30.491C37.4286 30.3012 37.577 30.1473 37.7603 30.1481C37.9436 30.1489 38.091 30.3045 38.0892 30.4943C38.0875 30.684 37.939 30.8379 37.7557 30.8371C37.7215 30.8375 37.6869 30.8312 37.6551 30.8206L37.6562 30.8209ZM37.82 30.2836C37.8011 30.2773 37.7803 30.2729 37.759 30.2737C37.645 30.2737 37.552 30.3713 37.5508 30.493C37.5507 30.552 37.5715 30.6075 37.6112 30.6497C37.6501 30.6902 37.7012 30.7139 37.7563 30.7139C37.8703 30.7139 37.9632 30.6163 37.9645 30.4946C37.9646 30.3962 37.9037 30.3115 37.82 30.2836Z" fill="white"/>
<path id="Vector_12" d="M38.6667 30.8269C38.616 30.8099 38.5708 30.7804 38.5319 30.7398C38.4698 30.6745 38.4368 30.5886 38.4373 30.4969C38.4378 30.4052 38.4729 30.3197 38.5351 30.2552C38.5989 30.1898 38.6815 30.1544 38.7708 30.154C38.9541 30.1549 39.1014 30.3104 39.0997 30.5002C39.0979 30.69 38.9483 30.8435 38.7662 30.843C38.732 30.8434 38.6986 30.8375 38.6655 30.8265L38.6667 30.8269ZM38.8316 30.2899C38.8128 30.2836 38.7919 30.2793 38.7707 30.28C38.7156 30.28 38.6637 30.3021 38.6251 30.343C38.5849 30.3847 38.5625 30.4402 38.5624 30.4993C38.5623 30.5583 38.5843 30.6143 38.6228 30.656C38.6617 30.6966 38.7128 30.7202 38.7679 30.7202C38.882 30.7202 38.9761 30.623 38.9762 30.501C38.9763 30.4025 38.9154 30.3179 38.8316 30.2899Z" fill="white"/>
<path id="Vector_13" d="M39.6577 30.8317C39.5232 30.7868 39.4266 30.6561 39.4283 30.5017C39.4301 30.3119 39.5785 30.158 39.7618 30.1589C39.8507 30.1597 39.9344 30.1955 39.9961 30.2621C40.0582 30.3274 40.0912 30.4133 40.0907 30.505C40.0902 30.5967 40.0551 30.6822 39.9929 30.7467C39.9291 30.8121 39.8465 30.8475 39.7572 30.8479C39.7218 30.8479 39.6884 30.8419 39.6577 30.8317ZM39.8214 30.2943C39.8014 30.2876 39.7813 30.2849 39.7605 30.2845C39.6464 30.2844 39.5535 30.3821 39.5522 30.5037C39.5509 30.6254 39.6437 30.7246 39.7577 30.7246C39.8128 30.7246 39.8647 30.7026 39.9033 30.6617C39.9435 30.6199 39.9659 30.5644 39.966 30.5054C39.9661 30.4463 39.9453 30.3908 39.9056 30.3487C39.8812 30.3235 39.8533 30.305 39.8214 30.2943Z" fill="white"/>
<g id="Group_6" opacity="0.14">
<path id="Vector_14" d="M32.3823 34.2503L32.3832 34.1259L38.2194 34.1571L38.2185 34.2815L32.3823 34.2503Z" fill="#3E479B"/>
</g>
<g id="Group_7" opacity="0.14">
<path id="Vector_15" d="M32.3626 37.7134L32.3635 37.5889L35.2812 37.6037L35.2803 37.7281L32.3626 37.7134Z" fill="#3E479B"/>
</g>
<g id="Group_8" opacity="0.14">
<path id="Vector_16" d="M32.375 35.3542L32.3763 35.2286L34.5554 35.2409L34.5545 35.3653L32.375 35.3542Z" fill="#3E479B"/>
</g>
<g id="Group_9" opacity="0.14">
<path id="Vector_17" d="M36.0323 35.3738L36.0332 35.2493L38.2126 35.2604L38.2117 35.3849L36.0323 35.3738Z" fill="#3E479B"/>
</g>
<g id="Group_10" opacity="0.14">
<path id="Vector_18" d="M32.3681 36.6167L32.369 36.4923L34.5481 36.5046L34.5471 36.629L32.3681 36.6167Z" fill="#3E479B"/>
</g>
<g id="Group_11" opacity="0.14">
<path id="Vector_19" d="M36.0253 36.6353L36.0262 36.5109L38.2053 36.5231L38.2044 36.6476L36.0253 36.6353Z" fill="#3E479B"/>
</g>
<path id="Vector_20" opacity="0.14" d="M30.9743 33.4265L25.5625 33.3984L25.5318 38.5926L30.9436 38.6207L30.9743 33.4265Z" fill="#3E479B"/>
<g id="Group_12" opacity="0.14">
<path id="Vector_21" d="M32.3311 42.8794L32.332 42.755L38.1674 42.7846L38.1665 42.909L32.3311 42.8794Z" fill="#3E479B"/>
</g>
<g id="Group_13" opacity="0.14">
<path id="Vector_22" d="M32.3243 43.9831L32.3252 43.8587L34.5046 43.8698L34.5037 43.9942L32.3243 43.9831Z" fill="#3E479B"/>
</g>
<g id="Group_14" opacity="0.14">
<path id="Vector_23" d="M35.9819 44.0015L35.9828 43.8771L38.1606 43.889L38.1597 44.0134L35.9819 44.0015Z" fill="#3E479B"/>
</g>
<g id="Group_15" opacity="0.14">
<path id="Vector_24" d="M32.3169 45.2458L32.3178 45.1214L34.4973 45.1325L34.4964 45.2569L32.3169 45.2458Z" fill="#3E479B"/>
</g>
<g id="Group_16" opacity="0.14">
<path id="Vector_25" d="M35.9742 45.2644L35.9751 45.14L38.1533 45.1507L38.1524 45.2751L35.9742 45.2644Z" fill="#3E479B"/>
</g>
<path id="Vector_26" opacity="0.14" d="M30.922 42.0554L25.5103 42.0273L25.4882 45.7624L30.8999 45.7905L30.922 42.0554Z" fill="#3E479B"/>
</g>
<path id="Vector_27" d="M32.0954 51.2421L32.1069 49.4409L32.2312 49.4417L32.2197 51.243L32.0954 51.2421Z" fill="#423E49"/>
<g id="Group_17">
<path id="Vector_28" d="M31.4529 52.7165C30.5481 52.4144 29.896 51.5559 29.9017 50.5496C29.905 49.9429 30.1447 49.3744 30.5758 48.9473C31.0069 48.5202 31.5778 48.2869 32.184 48.2898C33.4351 48.2967 34.4474 49.3214 34.4395 50.5738C34.4362 51.1805 34.1965 51.749 33.7654 52.1761C33.3343 52.6031 32.7634 52.8365 32.1573 52.8336C31.911 52.8328 31.6743 52.7918 31.4525 52.7177L31.4529 52.7165ZM32.8493 48.5238C32.6393 48.4536 32.4159 48.4158 32.1831 48.4142C31.61 48.4105 31.0705 48.6321 30.663 49.0355C30.2556 49.439 30.0289 49.9764 30.026 50.5504C30.0219 51.124 30.2428 51.6639 30.6456 52.0715C31.0484 52.479 31.5851 52.7055 32.1586 52.708C32.7316 52.7117 33.2711 52.4901 33.6786 52.0867C34.0861 51.6832 34.3127 51.1458 34.3156 50.5718C34.3212 49.6206 33.7049 48.8082 32.8497 48.5226L32.8493 48.5238Z" fill="white"/>
<path id="Vector_29" d="M32.8496 52.1184C33.7095 51.7436 34.1037 50.7422 33.7299 49.8817C33.3562 49.0212 32.356 48.6274 31.4961 49.0021C30.6361 49.3769 30.242 50.3783 30.6157 51.2388C30.9895 52.0993 31.9896 52.4931 32.8496 52.1184Z" fill="#353148"/>
<g id="Group_18">
<g id="Group_19">
<path id="Vector_30" opacity="0.89" d="M30.3744 12.7199L30.3568 12.7061C30.2601 12.6266 30.2039 12.5238 30.2001 12.4175C30.1966 12.3258 30.2294 12.2395 30.2951 12.1762C30.3557 12.1163 30.4348 12.0837 30.521 12.0849L34.2603 12.105C34.3453 12.1058 34.4247 12.1389 34.4845 12.1995C34.5442 12.2601 34.5768 12.3393 34.5771 12.4247C34.5762 12.561 34.4887 12.6814 34.3601 12.7251C34.3262 12.7361 34.2916 12.7416 34.2562 12.7416L30.3752 12.7215L30.3744 12.7199ZM34.3196 12.2377C34.3007 12.2314 34.2795 12.2282 34.2587 12.2278L30.5193 12.2077C30.467 12.2073 30.4186 12.2266 30.3827 12.2632C30.3434 12.3026 30.3221 12.3545 30.3256 12.4108C30.3287 12.4762 30.362 12.5412 30.4214 12.5951L34.2579 12.6148C34.2787 12.6152 34.3012 12.6109 34.3216 12.6046C34.3999 12.5782 34.4535 12.5042 34.4536 12.4216C34.4536 12.3704 34.4336 12.3204 34.3971 12.2845C34.3754 12.2629 34.3495 12.2463 34.3212 12.2369L34.3196 12.2377Z" fill="white"/>
<path id="Vector_31" d="M28.4861 12.7566C28.4236 12.7357 28.367 12.701 28.3191 12.6522C28.2397 12.5719 28.1957 12.464 28.1966 12.3514C28.1979 12.2376 28.2425 12.1317 28.3232 12.051C28.4035 11.9715 28.5113 11.9274 28.6238 11.9282C28.8582 11.9291 29.0472 12.1209 29.0462 12.3555C29.0461 12.4697 29.0004 12.5752 28.9197 12.6559C28.8394 12.7354 28.7315 12.7795 28.6191 12.7787C28.5734 12.7779 28.5286 12.7708 28.4861 12.7566ZM28.7161 12.068C28.6866 12.0582 28.6555 12.0531 28.6229 12.0527C28.543 12.0522 28.4671 12.0833 28.4104 12.1392C28.3533 12.1963 28.3218 12.2711 28.3213 12.351C28.3208 12.4309 28.3518 12.5069 28.4076 12.5636C28.4646 12.6207 28.5393 12.6523 28.6192 12.6527C28.699 12.6531 28.775 12.622 28.8317 12.5661C28.8887 12.509 28.9203 12.4342 28.9207 12.3543C28.9221 12.2208 28.8352 12.1078 28.7149 12.0676L28.7161 12.068Z" fill="white"/>
</g>
<path id="Vector_32" d="M32.3243 11.3762C32.2359 11.3466 32.1722 11.2623 32.1723 11.1639C32.1728 11.1037 32.1964 11.0486 32.2382 11.0061C32.2811 10.9639 32.3369 10.9419 32.3959 10.9419C32.4549 10.9419 32.5112 10.966 32.5536 11.0077C32.5957 11.0506 32.6176 11.1065 32.6176 11.1656C32.6175 11.2246 32.5935 11.2809 32.5517 11.3235C32.5088 11.3656 32.4541 11.388 32.3939 11.3876C32.3703 11.3876 32.3468 11.3836 32.3243 11.3762ZM32.4261 11.0715C32.4167 11.0683 32.4057 11.0659 32.395 11.0663C32.3687 11.0667 32.3443 11.0769 32.3254 11.0943C32.3061 11.1128 32.2966 11.1372 32.2958 11.1632C32.295 11.2167 32.339 11.2616 32.3941 11.2616C32.4204 11.2612 32.4448 11.251 32.4637 11.2337C32.4818 11.2148 32.4925 11.1908 32.4921 11.1644C32.4917 11.138 32.4815 11.1136 32.4642 11.0947C32.4536 11.0833 32.4407 11.075 32.4253 11.0699L32.4261 11.0715Z" fill="white"/>
</g>
</g>
<g id="Group_20">
<path id="Vector_33" opacity="0.14" d="M31.262 17.7786L25.1474 17.7468C24.7559 17.7448 24.4366 18.0609 24.4343 18.4528L24.3981 24.5733C24.3958 24.9653 24.7113 25.2846 25.1029 25.2867L31.2174 25.3184C31.6089 25.3204 31.9282 25.0044 31.9305 24.6124L31.9667 18.4919C31.969 18.1 31.6535 17.7806 31.262 17.7786Z" fill="#3E479B"/>
<g id="Group_21">
<path id="Vector_34" d="M37.0348 27.398L34.6619 27.3853C34.1108 27.3824 33.6668 26.9335 33.67 26.3819C33.6733 25.8303 34.1221 25.3855 34.6732 25.3884L37.0461 25.4011C37.5972 25.404 38.0412 25.8529 38.0379 26.4045C38.0347 26.9561 37.5859 27.4009 37.0348 27.398Z" fill="#ECF1F7"/>
</g>
<path id="Vector_35" opacity="0.14" d="M40.081 18.241L33.5971 18.2073C33.4618 18.2066 33.3514 18.3159 33.3506 18.4513L33.3492 18.6866C33.3484 18.8221 33.4575 18.9325 33.5928 18.9332L40.0767 18.9668C40.212 18.9675 40.3224 18.8583 40.3232 18.7228L40.3246 18.4875C40.3254 18.3521 40.2163 18.2417 40.081 18.241Z" fill="#3E479B"/>
<path id="Vector_36" opacity="0.14" d="M29.9713 26.4477L26.191 26.4284C26.0616 26.4272 25.9574 26.3228 25.9587 26.1933C25.96 26.0638 26.0644 25.9595 26.1938 25.9607L29.9741 25.98C30.1035 25.9812 30.2076 26.0856 30.2063 26.2151C30.205 26.3446 30.1007 26.4489 29.9713 26.4477Z" fill="#3E479B"/>
<g id="Group_22" opacity="0.14">
<path id="Vector_37" d="M39.5707 20.2395L33.7349 20.2041L33.734 20.3286L39.5699 20.364L39.5707 20.2395Z" fill="#3E479B"/>
</g>
<g id="Group_23" opacity="0.14">
<path id="Vector_38" d="M36.6303 23.6857L33.7124 23.668L33.7116 23.7925L36.6295 23.8102L36.6303 23.6857Z" fill="#3E479B"/>
</g>
<g id="Group_24" opacity="0.14">
<path id="Vector_39" d="M35.9081 21.3189L33.729 21.3057L33.7282 21.4302L35.9073 21.4434L35.9081 21.3189Z" fill="#3E479B"/>
</g>
<g id="Group_25" opacity="0.14">
<path id="Vector_40" d="M39.5629 21.3404L37.3838 21.3271L37.3829 21.4516L39.5621 21.4649L39.5629 21.3404Z" fill="#3E479B"/>
</g>
<g id="Group_26" opacity="0.14">
<path id="Vector_41" d="M35.8993 22.5845L33.7202 22.5713L33.7194 22.6958L35.8985 22.709L35.8993 22.5845Z" fill="#3E479B"/>
</g>
<g id="Group_27" opacity="0.14">
<path id="Vector_42" d="M39.5566 22.604L37.3774 22.5908L37.3766 22.7153L39.5557 22.7285L39.5566 22.604Z" fill="#3E479B"/>
</g>
</g>
</g>
</g>
<g id="Group_28">
<g id="Group_29">
<g id="Group_30">
<path id="Vector_43" d="M14.5142 35.2144C16.1844 35.6043 17.8552 34.5649 18.246 32.8928C18.6368 31.2207 17.5996 29.5491 15.9294 29.1592C14.2592 28.7692 12.5885 29.8086 12.1977 31.4807C11.8069 33.1528 12.8441 34.8245 14.5142 35.2144Z" fill="#FFB81D"/>
<path id="Vector_44" d="M14.7388 34.9514C16.4 35.378 18.0932 34.3756 18.5206 32.7125C18.948 31.0494 17.9479 29.3553 16.2867 28.9287C14.6255 28.5021 12.9323 29.5045 12.5049 31.1676C12.0775 32.8307 13.0776 34.5248 14.7388 34.9514Z" fill="#FFD98A"/>
<path id="Vector_45" opacity="0.67" d="M14.613 34.5755C14.0055 34.3726 13.4953 33.9646 13.1611 33.4106C12.7881 32.7924 12.6782 32.0652 12.852 31.3644C13.0257 30.6636 13.4609 30.0712 14.0787 29.6973C14.6966 29.3234 15.4232 29.2129 16.1232 29.3863C16.8231 29.5597 17.4147 29.9948 17.7878 30.613C18.1609 31.2313 18.2707 31.9585 18.097 32.6592C17.9232 33.36 17.4881 33.9525 16.8702 34.3264C16.2523 34.7003 15.5257 34.8107 14.8257 34.6373C14.7542 34.62 14.6826 34.5987 14.6142 34.5759L14.613 34.5755ZM16.2558 29.6839C16.1933 29.6631 16.1288 29.6442 16.0636 29.6276C15.4277 29.4704 14.7688 29.5706 14.2083 29.9099C13.6479 30.2492 13.2521 30.7865 13.0946 31.4231C12.937 32.0597 13.0367 32.7192 13.3752 33.2799C13.7138 33.8406 14.2491 34.236 14.8862 34.3937C15.522 34.5509 16.1809 34.4506 16.7414 34.1114C17.3018 33.7721 17.6976 33.2348 17.8551 32.5982C18.0127 31.9616 17.913 31.3021 17.5745 30.7413C17.2705 30.2381 16.8083 29.8671 16.2562 29.6828L16.2558 29.6839Z" fill="white"/>
<path id="Vector_46" d="M14.9919 33.0398C14.8413 32.9724 14.7096 32.8917 14.5956 32.7971C14.4816 32.7026 14.3912 32.6081 14.3233 32.5132C14.2844 32.4569 14.2758 32.4002 14.2947 32.3435C14.3101 32.2975 14.3412 32.2632 14.3853 32.2412C14.4294 32.2191 14.4762 32.2164 14.5257 32.2329C14.5635 32.2455 14.5985 32.2704 14.6295 32.307C14.7085 32.4003 14.7941 32.4854 14.8861 32.5594C14.9789 32.635 15.0897 32.6957 15.2214 32.741C15.271 32.7575 15.3174 32.7717 15.3638 32.7819C15.4102 32.7922 15.4554 32.7981 15.5007 32.8001C15.5459 32.8021 15.5888 32.7993 15.6285 32.7903C15.669 32.7828 15.7048 32.7698 15.7391 32.7537C15.7721 32.7372 15.8024 32.7131 15.8284 32.6824C15.8544 32.6517 15.8745 32.6151 15.8903 32.5718C15.9179 32.4931 15.9128 32.4179 15.874 32.3458C15.8351 32.2738 15.7596 32.2013 15.6484 32.1261L15.2923 31.889C15.2219 31.8406 15.1645 31.8004 15.1189 31.7681C15.0733 31.7358 15.0258 31.6976 14.977 31.6551C14.9271 31.6121 14.8874 31.5739 14.8595 31.5397C14.8305 31.505 14.8045 31.4649 14.7802 31.42C14.7559 31.3751 14.7409 31.3294 14.7351 31.2841C14.7292 31.2389 14.7293 31.1877 14.736 31.1322C14.7428 31.0766 14.7562 31.0168 14.7787 30.9534C14.7984 30.8944 14.8264 30.842 14.8579 30.7948C14.8894 30.7475 14.9276 30.7078 14.9673 30.6751C15.0083 30.6428 15.0531 30.6145 15.1027 30.5917C15.1523 30.5688 15.205 30.5523 15.2609 30.5421C15.3167 30.5319 15.3761 30.5268 15.4375 30.5276C15.4989 30.5284 15.563 30.5327 15.6279 30.5426C15.6928 30.5524 15.76 30.567 15.8296 30.5863L16.0012 30.1001C16.0177 30.0505 16.0469 30.0182 16.085 30.0021C16.1232 29.986 16.1629 29.9848 16.2042 29.9986C16.2455 30.0124 16.2769 30.0399 16.2981 30.0785C16.3205 30.1175 16.3221 30.16 16.3059 30.2084L16.1328 30.6994C16.2122 30.7364 16.2873 30.7785 16.3588 30.8274C16.4303 30.8762 16.4881 30.9191 16.5317 30.9573C16.5754 30.9955 16.6158 31.0353 16.6547 31.0759C16.7176 31.1389 16.7364 31.2082 16.7104 31.2822C16.7053 31.2975 16.6974 31.3133 16.6864 31.3267C16.6765 31.3404 16.6635 31.3519 16.6497 31.3617C16.636 31.3715 16.6218 31.3786 16.6053 31.3849C16.5888 31.3912 16.5722 31.3936 16.5526 31.3936C16.5329 31.3936 16.5144 31.39 16.4948 31.3821C16.4853 31.379 16.4759 31.3758 16.4684 31.3707C16.4606 31.3668 16.4519 31.3613 16.4421 31.3554C16.4322 31.3495 16.424 31.3428 16.4153 31.3372C16.4142 31.3368 16.3957 31.3215 16.3619 31.2931C16.3281 31.2648 16.3037 31.2435 16.288 31.2317C16.2723 31.2199 16.2452 31.199 16.2059 31.1714C16.1666 31.1439 16.1312 31.1202 16.1017 31.1025C16.0722 31.0848 16.0341 31.0655 15.9904 31.043C15.9464 31.0218 15.9028 31.0033 15.8583 30.9871C15.7667 30.9552 15.683 30.9351 15.6051 30.9288C15.5276 30.9213 15.4572 30.9319 15.3942 30.9595C15.3313 30.987 15.288 31.0342 15.2639 31.1023C15.2339 31.1882 15.237 31.2575 15.2727 31.3114C15.3085 31.3654 15.3946 31.4374 15.5302 31.526L15.8808 31.756C16.1064 31.9049 16.2562 32.0534 16.3276 32.2006C16.4002 32.3483 16.404 32.5137 16.3393 32.6955C16.2632 32.9117 16.1321 33.0569 15.9452 33.1297C15.7583 33.2025 15.5424 33.2092 15.2962 33.1493L15.127 33.6284C15.1112 33.6756 15.0809 33.7075 15.04 33.724C14.9991 33.7406 14.957 33.741 14.9145 33.7268C14.8886 33.7181 14.8669 33.7043 14.8496 33.6854C14.8312 33.6661 14.8194 33.6425 14.812 33.6137C14.8045 33.585 14.8085 33.5535 14.8195 33.5204L14.9887 33.0413L14.9919 33.0398Z" fill="white"/>
</g>
<g id="Group_31">
<g id="Group_32">
<path id="Vector_47" d="M27.2136 36.4808C30.4752 34.8499 31.8004 30.882 30.1734 27.6184C28.5464 24.3547 24.5834 23.0312 21.3218 24.6621C18.0601 26.2931 16.7349 30.2609 18.3619 33.5246C19.9889 36.7882 23.9519 38.1118 27.2136 36.4808Z" fill="#B57E05"/>
<path id="Vector_48" d="M22.2318 36.2137C25.786 37.0199 29.3223 34.789 30.1304 31.2307C30.9385 27.6725 28.7123 24.1343 25.1581 23.328C21.6039 22.5218 18.0676 24.7527 17.2595 28.311C16.4514 31.8692 18.6776 35.4074 22.2318 36.2137Z" fill="#FFB81D"/>
<path id="Vector_49" d="M22.8278 35.0343C19.9354 34.5593 17.9701 31.8182 18.4468 28.9225C18.9235 26.0269 21.6633 24.0577 24.5558 24.5327C27.4483 25.0078 29.4136 27.7488 28.9369 30.6445C28.4602 33.5402 25.7203 35.5093 22.8278 35.0343ZM24.4996 24.8737C21.7947 24.4298 19.2324 26.2718 18.7874 28.9785C18.3419 31.6864 20.1803 34.2499 22.884 34.6934C25.5889 35.1373 28.1512 33.2952 28.5963 30.5885C29.0417 27.8807 27.2034 25.3172 24.4996 24.8737Z" fill="#FFD98A"/>
<path id="Vector_50" d="M23.1142 32.1663C22.7969 32.08 22.5107 31.9595 22.2567 31.809C22.002 31.657 21.7941 31.4983 21.631 31.3309C21.5371 31.2313 21.5014 31.1222 21.5239 31.0037C21.5413 30.9084 21.5906 30.8317 21.6716 30.7734C21.7527 30.7152 21.8444 30.6959 21.9454 30.7152C22.0245 30.7298 22.1012 30.7672 22.1747 30.8298C22.3594 30.9913 22.5539 31.1311 22.7599 31.2524C22.9659 31.3737 23.205 31.4588 23.4779 31.5093C23.5801 31.529 23.6785 31.5408 23.7721 31.5471C23.8661 31.5523 23.9585 31.5503 24.0498 31.5401C24.1399 31.5295 24.2237 31.5102 24.3012 31.4823C24.3775 31.4539 24.4472 31.4181 24.5074 31.3752C24.5676 31.3323 24.6192 31.276 24.6617 31.2075C24.7031 31.1386 24.7334 31.0595 24.75 30.9705C24.7813 30.8064 24.748 30.6587 24.6494 30.53C24.5508 30.4012 24.3794 30.2783 24.1352 30.1653L23.3599 29.8052C23.2074 29.732 23.08 29.6697 22.9813 29.6197C22.8827 29.5697 22.7769 29.5094 22.6649 29.4405C22.554 29.372 22.464 29.3078 22.3976 29.2475C22.3312 29.1873 22.2671 29.116 22.2051 29.0349C22.143 28.9538 22.1006 28.8687 22.0739 28.7797C22.0484 28.6912 22.0332 28.5915 22.0286 28.4797C22.024 28.3679 22.0343 28.2466 22.0588 28.1144C22.0814 27.9919 22.1188 27.8797 22.1677 27.7766C22.2177 27.6738 22.278 27.5837 22.3485 27.5061C22.419 27.4286 22.5005 27.3613 22.5914 27.3011C22.6823 27.2408 22.7822 27.1928 22.8893 27.1551C22.9963 27.1173 23.1119 27.089 23.2343 27.0721C23.357 27.054 23.4833 27.0449 23.6147 27.0442C23.746 27.0434 23.8837 27.0513 24.0265 27.0675L24.2166 26.0545C24.2364 25.9522 24.2817 25.8793 24.3529 25.8349C24.4241 25.7904 24.5024 25.7758 24.5886 25.7928C24.6739 25.8082 24.7446 25.8515 24.7996 25.9224C24.855 25.9921 24.8727 26.0767 24.8541 26.1755L24.662 27.1984C24.8307 27.2468 24.9923 27.3087 25.1487 27.3819C25.3052 27.4552 25.4318 27.5237 25.5289 27.5863C25.626 27.649 25.7195 27.7143 25.8084 27.7821C25.9514 27.8876 26.0091 28.0172 25.9807 28.1731C25.9747 28.2065 25.9629 28.238 25.9471 28.2695C25.9314 28.301 25.9109 28.327 25.8861 28.3502C25.8613 28.3734 25.8353 28.3923 25.8062 28.4089C25.7771 28.4254 25.7444 28.4368 25.7063 28.4411C25.6681 28.4455 25.6292 28.4443 25.5894 28.4376C25.5698 28.4336 25.5505 28.4285 25.5332 28.4214C25.5155 28.4155 25.4963 28.4064 25.4766 28.3986C25.4561 28.3891 25.4369 28.3801 25.418 28.3698C25.4145 28.3686 25.3752 28.345 25.2989 28.2985C25.2226 28.252 25.1672 28.2178 25.1342 28.1989C25.1012 28.18 25.0398 28.1477 24.9526 28.1028C24.8649 28.0591 24.7898 28.0248 24.7237 27.9988C24.6589 27.9732 24.579 27.9452 24.4866 27.9157C24.3931 27.8857 24.301 27.8629 24.2086 27.8451C24.0175 27.8089 23.8448 27.7958 23.6891 27.8068C23.5337 27.8166 23.3976 27.8591 23.2826 27.9323C23.1661 28.0063 23.0949 28.1138 23.0684 28.2559C23.0352 28.4339 23.0614 28.5713 23.1498 28.6678C23.2382 28.7642 23.4281 28.8789 23.7241 29.0132L24.4865 29.361C24.9791 29.5859 25.3183 29.8344 25.5061 30.1045C25.6938 30.3747 25.7517 30.6999 25.6802 31.079C25.5952 31.5298 25.3797 31.8569 25.0334 32.0576C24.6871 32.2584 24.261 32.3366 23.7548 32.2936L23.5671 33.2916C23.5485 33.3904 23.5008 33.4625 23.4241 33.5077C23.3474 33.553 23.2651 33.5676 23.1763 33.551C23.1232 33.5411 23.0764 33.5203 23.0347 33.488C22.9931 33.4557 22.9616 33.4124 22.9393 33.3576C22.9169 33.3029 22.913 33.2399 22.9257 33.1706L23.1134 32.1726L23.1142 32.1663Z" fill="white"/>
</g>
<g id="Group_33">
<path id="Vector_51" d="M17.542 28.5904C19.2089 28.6229 20.5875 27.2967 20.6212 25.6282C20.6549 23.9597 19.331 22.5807 17.6641 22.5482C15.9973 22.5156 14.6187 23.8419 14.5849 25.5104C14.5512 27.1789 15.8751 28.5579 17.542 28.5904Z" fill="#B57E05"/>
<path id="Vector_52" d="M19.1133 27.6484C20.4614 26.6655 20.7591 24.7754 19.7781 23.4267C18.7972 22.078 16.9092 21.7814 15.5611 22.7643C14.213 23.7472 13.9153 25.6373 14.8962 26.986C15.8772 28.3347 17.7652 28.6312 19.1133 27.6484Z" fill="#FFB81D"/>
<path id="Vector_53" d="M16.9429 27.6121C15.6203 27.3949 14.7216 26.1403 14.9384 24.8159C15.1563 23.4919 16.4103 22.5913 17.7333 22.8074C19.0559 23.0246 19.9546 24.2791 19.7378 25.6036C19.5198 26.9276 18.2658 27.8281 16.9429 27.6121ZM17.7072 22.9641C16.4704 22.761 15.2974 23.6033 15.0937 24.8415C14.89 26.0797 15.7306 27.2532 16.9674 27.4562C18.2043 27.6592 19.3772 26.8169 19.5809 25.5787C19.7846 24.3405 18.944 23.1671 17.7072 22.9641Z" fill="#FFD98A"/>
<path id="Vector_54" d="M17.0742 26.2999C16.9287 26.2605 16.7978 26.2049 16.6818 26.136C16.5659 26.0671 16.47 25.993 16.3957 25.917C16.3533 25.8713 16.3372 25.8213 16.3471 25.7682C16.355 25.7249 16.3774 25.6891 16.4152 25.6623C16.453 25.6355 16.4939 25.6269 16.5407 25.6359C16.5765 25.6426 16.6115 25.6596 16.6453 25.6879C16.7294 25.762 16.8182 25.8258 16.9126 25.8809C17.0069 25.936 17.1158 25.975 17.2417 25.9987C17.2885 26.0078 17.3337 26.0137 17.3762 26.016C17.4198 26.0188 17.4623 26.0172 17.5032 26.0125C17.5441 26.0078 17.5827 25.9984 17.6181 25.9866C17.6535 25.9748 17.6842 25.9575 17.7129 25.9382C17.7405 25.9185 17.7649 25.8925 17.783 25.8618C17.8027 25.8303 17.8161 25.7941 17.8232 25.7531C17.8379 25.6779 17.8222 25.611 17.7766 25.5512C17.7322 25.4917 17.6536 25.4366 17.5412 25.3846L17.1858 25.2199C17.1158 25.186 17.0584 25.1577 17.0124 25.1344C16.9664 25.1112 16.9192 25.0836 16.8681 25.0521C16.817 25.0206 16.7757 24.9911 16.7455 24.9639C16.7152 24.9367 16.6854 24.9044 16.6575 24.8663C16.6292 24.8292 16.6096 24.7899 16.5982 24.7493C16.5868 24.7088 16.5798 24.6631 16.5771 24.6123C16.5744 24.5615 16.5799 24.5056 16.591 24.445C16.6017 24.3895 16.6178 24.3371 16.6411 24.291C16.6636 24.2434 16.6915 24.2029 16.7242 24.1678C16.7569 24.1328 16.7935 24.1017 16.8356 24.0737C16.8773 24.047 16.923 24.0242 16.9722 24.0064C17.0213 23.9887 17.0741 23.9762 17.1303 23.9687C17.187 23.96 17.2448 23.9557 17.305 23.9561C17.3655 23.9553 17.4285 23.9593 17.4941 23.9668L17.5807 23.5034C17.5898 23.4566 17.6103 23.4227 17.6434 23.4022C17.6764 23.3818 17.7114 23.3751 17.7508 23.383C17.7901 23.3909 17.8219 23.4094 17.8478 23.4417C17.8726 23.4736 17.882 23.5121 17.8733 23.5578L17.7851 24.0259C17.8618 24.0476 17.9361 24.0763 18.0077 24.1094C18.0793 24.1425 18.137 24.1736 18.1822 24.2032C18.2275 24.2327 18.2691 24.2611 18.3096 24.293C18.3748 24.341 18.4019 24.4013 18.3877 24.4713C18.3853 24.4863 18.3802 24.5016 18.3731 24.515C18.3656 24.5296 18.3566 24.541 18.3451 24.5516C18.3337 24.5623 18.3215 24.5713 18.3085 24.5788C18.2956 24.5863 18.2794 24.5914 18.2629 24.5937C18.2452 24.5957 18.2271 24.5949 18.2098 24.5918C18.2012 24.5902 18.1929 24.5874 18.1846 24.5847C18.1764 24.5819 18.1681 24.5792 18.1583 24.5733C18.1489 24.5701 18.1402 24.5646 18.1312 24.5603C18.13 24.5599 18.1111 24.5496 18.0765 24.5276C18.0415 24.5067 18.0168 24.4905 18.0014 24.4815C17.9861 24.4724 17.9582 24.4579 17.9189 24.4382C17.8784 24.4181 17.8442 24.4027 17.8143 24.3901C17.7844 24.3775 17.7479 24.3653 17.7062 24.3527C17.6645 24.3401 17.6212 24.3283 17.5792 24.3208C17.4915 24.3046 17.4124 24.2979 17.3412 24.303C17.27 24.3081 17.2086 24.327 17.1555 24.3604C17.1024 24.3939 17.0701 24.4435 17.0578 24.5077C17.0424 24.5892 17.0541 24.6522 17.0946 24.6959C17.1351 24.7396 17.2224 24.7924 17.3564 24.8542L17.7059 25.0129C17.9312 25.1157 18.0873 25.2296 18.1729 25.354C18.2589 25.4772 18.2851 25.6265 18.2523 25.7993C18.2136 26.0056 18.1151 26.1552 17.9561 26.2465C17.7983 26.3382 17.6028 26.374 17.3707 26.3542L17.285 26.8113C17.2763 26.857 17.255 26.8893 17.2192 26.9101C17.1845 26.9314 17.146 26.9369 17.1051 26.9298C17.0803 26.9255 17.0603 26.9148 17.0398 26.9014C17.021 26.8873 17.0068 26.8668 16.9954 26.842C16.9856 26.8164 16.9833 26.788 16.9896 26.7573L17.0754 26.3002L17.0742 26.2999Z" fill="white"/>
</g>
</g>
</g>
</g>
<g id="Group_34">
<g id="Group_35">
<g id="Group_36">
<g id="Group_37">
<path id="Vector_55" d="M53.3767 44.1322C56.6383 42.5012 57.9635 38.5334 56.3365 35.2697C54.7095 32.0061 50.7465 30.6825 47.4848 32.3135C44.2232 33.9445 42.898 37.9123 44.525 41.1759C46.152 44.4396 50.115 45.7631 53.3767 44.1322Z" fill="#FFB81D"/>
<path id="Vector_56" d="M48.3977 43.6318C51.9077 44.6128 55.5496 42.5593 56.5322 39.0452C57.5148 35.531 55.466 31.8871 51.956 30.9061C48.446 29.9251 44.804 31.9786 43.8215 35.4928C42.8389 39.0069 44.8877 42.6509 48.3977 43.6318Z" fill="#FFD98A"/>
<path id="Vector_57" opacity="0.67" d="M48.4438 42.4485C48.1077 42.3362 47.7778 42.1893 47.459 42.0054C44.8581 40.5119 43.9578 37.1773 45.4517 34.5728C46.9457 31.9683 50.2777 31.0647 52.8785 32.5582C55.4794 34.0517 56.3797 37.3862 54.8858 39.9907C53.5746 42.2756 50.8503 43.2522 48.445 42.4489L48.4438 42.4485ZM47.5823 41.7892C50.064 43.2154 53.2437 42.3515 54.6692 39.8659C56.0946 37.3803 55.235 34.1985 52.7529 32.7735C50.2707 31.3485 47.0914 32.2113 45.666 34.6969C44.2406 37.1825 45.1001 40.3643 47.5823 41.7892ZM48.5578 42.1229C48.2381 42.0162 47.9279 41.8771 47.63 41.7054C46.4518 41.0283 45.6068 39.9309 45.2517 38.615C44.8965 37.2992 45.0725 35.9243 45.7497 34.7445C46.427 33.5647 47.524 32.7181 48.8388 32.3616C50.1541 32.004 51.5282 32.1807 52.7052 32.8574C53.8834 33.5344 54.7284 34.6319 55.0835 35.9477C55.4386 37.2636 55.2627 38.6384 54.5854 39.8182C53.9082 40.998 52.8112 41.8447 51.4963 42.2011C50.5143 42.4678 49.4992 42.4373 48.5578 42.1229ZM51.6984 32.676C50.8031 32.377 49.8375 32.3473 48.9031 32.601C47.6516 32.9405 46.6077 33.7459 45.9644 34.8674C45.3206 35.9901 45.153 37.2968 45.4912 38.5493C45.8295 39.8018 46.6333 40.8461 47.7533 41.4893C48.8744 42.1328 50.1809 42.3001 51.4313 41.9601C52.6828 41.6206 53.7255 40.8149 54.37 39.6938C55.0138 38.571 55.1818 37.2632 54.8431 36.0119C54.5048 34.7594 53.7011 33.7151 52.5811 33.0719C52.2973 32.9089 52.002 32.7761 51.6988 32.6749L51.6984 32.676Z" fill="white"/>
<path id="Vector_58" d="M48.7938 39.312C48.5265 39.119 48.3009 38.9072 48.1159 38.676C47.9308 38.4449 47.7914 38.2224 47.6976 38.0086C47.6454 37.8822 47.6494 37.768 47.7117 37.6641C47.7617 37.581 47.8349 37.5267 47.9317 37.5C48.0285 37.4732 48.1205 37.4882 48.209 37.5414C48.2778 37.5827 48.3355 37.6453 48.3834 37.7296C48.5004 37.9446 48.6328 38.145 48.7833 38.3305C48.9337 38.5159 49.1283 38.6794 49.3657 38.8243C49.4542 38.8775 49.5422 38.924 49.6287 38.9634C49.7156 39.0016 49.8025 39.0319 49.8906 39.0548C49.9787 39.0776 50.0644 39.0879 50.1454 39.0887C50.2265 39.0895 50.3044 39.08 50.3764 39.0608C50.4484 39.0415 50.516 39.0076 50.5798 38.958C50.6436 38.9085 50.6979 38.8439 50.7444 38.7675C50.8315 38.6246 50.8513 38.475 50.8038 38.3187C50.7576 38.1628 50.6385 37.9891 50.4499 37.7962L49.8499 37.1862C49.732 37.0641 49.6353 36.9609 49.5603 36.8794C49.4856 36.7967 49.4078 36.7038 49.3269 36.6006C49.246 36.4974 49.1863 36.4053 49.1435 36.3254C49.1019 36.2458 49.0662 36.1565 49.0371 36.0588C49.0081 35.9612 48.9968 35.8655 49.0036 35.7745C49.0108 35.6824 49.0305 35.584 49.066 35.4777C49.1015 35.3714 49.1528 35.2612 49.2225 35.1466C49.2867 35.0407 49.3595 34.9482 49.4438 34.8687C49.5265 34.79 49.6146 34.7262 49.7079 34.6786C49.8012 34.631 49.9007 34.5959 50.0073 34.5712C50.1139 34.5464 50.2233 34.537 50.3381 34.5386C50.4526 34.5413 50.5698 34.5555 50.6909 34.5815C50.812 34.6076 50.9339 34.643 51.0578 34.6883C51.1817 34.7336 51.3075 34.7888 51.4348 34.8549L51.9682 33.9723C52.0214 33.8838 52.0903 33.8306 52.1721 33.8133C52.2552 33.7964 52.333 33.8106 52.4073 33.8551C52.4816 33.8996 52.5331 33.9654 52.5597 34.0504C52.5864 34.1355 52.5737 34.2205 52.5225 34.3071L51.984 35.1972C52.1247 35.302 52.2544 35.4162 52.3758 35.5394C52.4969 35.6639 52.5919 35.7718 52.6607 35.8643C52.7294 35.9568 52.7939 36.0505 52.8539 36.1454C52.951 36.2947 52.9599 36.4368 52.8783 36.5711C52.861 36.5994 52.8389 36.6262 52.813 36.649C52.787 36.6718 52.7586 36.6899 52.7279 36.7033C52.6976 36.7155 52.6654 36.7257 52.6323 36.7305C52.5989 36.7364 52.5643 36.734 52.5265 36.7253C52.4888 36.7166 52.4534 36.7009 52.4184 36.68C52.4011 36.669 52.385 36.6584 52.372 36.6461C52.3579 36.6335 52.343 36.6194 52.3268 36.6048C52.3111 36.589 52.2954 36.5733 52.2824 36.5571C52.2789 36.556 52.2506 36.519 52.1952 36.4493C52.1402 36.3784 52.1005 36.3284 52.0754 36.2976C52.0503 36.2669 52.0055 36.2165 51.9391 36.1445C51.8727 36.0724 51.8137 36.0133 51.7622 35.9673C51.7111 35.92 51.6463 35.8668 51.5693 35.807C51.4922 35.7471 51.4136 35.692 51.3338 35.6443C51.1679 35.5443 51.0103 35.4706 50.8612 35.4261C50.7122 35.3816 50.571 35.3725 50.4368 35.4012C50.3027 35.4299 50.1976 35.5051 50.1235 35.6287C50.0298 35.7838 50.0072 35.922 50.0547 36.0429C50.1034 36.1642 50.2417 36.339 50.4708 36.5678L51.0633 37.1608C51.4453 37.5444 51.6766 37.896 51.7574 38.2158C51.8381 38.5355 51.7796 38.8599 51.5802 39.1898C51.3427 39.583 51.0274 39.8125 50.6324 39.8801C50.2379 39.9466 49.812 39.8713 49.3527 39.6523L48.8276 40.5219C48.7752 40.6081 48.706 40.6585 48.6182 40.6738C48.5305 40.6892 48.4479 40.6734 48.3705 40.6265C48.3245 40.5994 48.2883 40.5623 48.2597 40.5186C48.231 40.4749 48.2169 40.4229 48.2157 40.3635C48.2146 40.304 48.232 40.2442 48.2678 40.184L48.793 39.3144L48.7938 39.312Z" fill="white"/>
</g>
<g id="Group_38">
<path id="Vector_59" d="M46.7293 34.1141C48.3387 33.6773 49.2906 32.0175 48.8554 30.4069C48.4202 28.7962 46.7628 27.8446 45.1534 28.2814C43.5439 28.7182 42.592 30.378 43.0272 31.9886C43.4624 33.5993 45.1199 34.5509 46.7293 34.1141Z" fill="#FFB81D"/>
<path id="Vector_60" d="M46.6121 33.6786C48.2215 33.2418 49.1734 31.582 48.7382 29.9713C48.303 28.3607 46.6456 27.4091 45.0362 27.8458C43.4268 28.2826 42.4749 29.9424 42.91 31.5531C43.3452 33.1637 45.0027 34.1153 46.6121 33.6786Z" fill="#FFD98A"/>
<path id="Vector_61" opacity="0.67" d="M45.0106 33.1972C44.8526 33.1444 44.6973 33.0755 44.5479 32.9888C43.957 32.6497 43.5328 32.0984 43.3544 31.4389C43.1765 30.7782 43.2648 30.0896 43.6044 29.4968C44.3069 28.2729 45.8716 27.8476 47.0938 28.5498C48.316 29.2521 48.7397 30.818 48.0372 32.0419C47.4218 33.115 46.1407 33.5746 45.0106 33.1972ZM46.4997 28.7269C46.1022 28.5941 45.675 28.5814 45.2599 28.6935C44.7048 28.8442 44.2419 29.2016 43.9567 29.6984C43.671 30.1964 43.5965 30.7767 43.7467 31.3323C43.8968 31.8879 44.2535 32.3509 44.7496 32.6361C45.2469 32.9216 45.8254 32.9954 46.3806 32.8447C46.9357 32.694 47.3986 32.3366 47.6838 31.8398C47.9695 31.3418 48.0439 30.7615 47.8938 30.206C47.7437 29.6504 47.387 29.1873 46.8909 28.9022C46.7655 28.8301 46.6342 28.7718 46.4997 28.7269Z" fill="white"/>
<path id="Vector_62" d="M45.1912 31.6972C45.0686 31.609 44.966 31.5117 44.8808 31.4058C44.7955 31.2999 44.7323 31.1987 44.6891 31.1002C44.6652 31.0424 44.6668 30.9904 44.6959 30.9424C44.7192 30.9042 44.7522 30.8798 44.7959 30.8668C44.8392 30.855 44.8817 30.8613 44.9233 30.8857C44.9552 30.9042 44.9807 30.9338 45.0035 30.9716C45.0573 31.0696 45.1182 31.1622 45.1869 31.2468C45.2557 31.3315 45.3445 31.4071 45.4538 31.4725C45.4943 31.4965 45.5344 31.5178 45.5741 31.5363C45.6138 31.5548 45.6539 31.5682 45.694 31.5776C45.7341 31.5871 45.773 31.5922 45.8108 31.593C45.8486 31.5938 45.8832 31.5883 45.9162 31.5797C45.9493 31.571 45.9808 31.5553 46.0095 31.532C46.0382 31.5088 46.0634 31.4805 46.0847 31.4443C46.1249 31.3789 46.1332 31.3108 46.1124 31.2395C46.0917 31.1683 46.0371 31.0883 45.951 31.0005L45.6771 30.7213C45.6237 30.6654 45.5789 30.6189 45.5443 30.5811C45.5097 30.5433 45.474 30.5012 45.4374 30.4535C45.4009 30.4059 45.373 30.3638 45.3538 30.3271C45.3345 30.2905 45.318 30.2496 45.3055 30.2047C45.293 30.1598 45.2875 30.1173 45.2899 30.0747C45.2935 30.0326 45.3022 29.987 45.3183 29.9385C45.3345 29.8901 45.3582 29.8389 45.3901 29.7866C45.4192 29.7385 45.4531 29.696 45.4913 29.6602C45.5295 29.6244 45.5696 29.5945 45.6121 29.5732C45.6546 29.552 45.7006 29.5358 45.749 29.5244C45.7974 29.513 45.8486 29.5091 45.9009 29.5095C45.9528 29.5111 46.0071 29.5174 46.0621 29.5292C46.1172 29.541 46.1734 29.5572 46.2292 29.5785C46.2851 29.5997 46.3437 29.6246 46.4018 29.6545L46.6453 29.2514C46.6693 29.2108 46.7012 29.186 46.739 29.179C46.7767 29.1719 46.8129 29.1774 46.8467 29.1979C46.8805 29.2184 46.9045 29.2487 46.9167 29.2869C46.9288 29.3251 46.9233 29.3652 46.8996 29.4046L46.6534 29.812C46.7175 29.8597 46.7772 29.9125 46.833 29.9692C46.8888 30.0259 46.9313 30.0755 46.9631 30.1176C46.9949 30.1598 47.024 30.2023 47.0511 30.2468C47.0951 30.3153 47.0997 30.3799 47.0619 30.4421C47.0536 30.4551 47.0442 30.4677 47.0316 30.4779C47.0202 30.4885 47.0068 30.4972 46.9918 30.5027C46.9781 30.5086 46.9635 30.5129 46.9482 30.5157C46.9328 30.5184 46.9175 30.5172 46.9002 30.5141C46.8833 30.5097 46.8671 30.5031 46.8506 30.4936C46.8432 30.4885 46.8357 30.4834 46.8294 30.4786C46.8231 30.4739 46.8164 30.4664 46.8082 30.4597C46.8015 30.4522 46.7944 30.4459 46.7877 30.4385C46.7866 30.4381 46.7724 30.4215 46.7481 30.3885C46.7233 30.3566 46.7049 30.3333 46.6939 30.3192C46.6829 30.305 46.6616 30.2821 46.6318 30.2498C46.6019 30.2176 46.5744 30.19 46.55 30.1687C46.5257 30.1475 46.4974 30.1223 46.462 30.0947C46.4266 30.0671 46.3905 30.0419 46.3543 30.0206C46.278 29.9742 46.2065 29.9411 46.1385 29.921C46.0704 29.9009 46.0051 29.8962 45.9442 29.9099C45.882 29.9233 45.8352 29.9575 45.8005 30.0142C45.7572 30.0851 45.7477 30.1489 45.7688 30.2032C45.7908 30.2591 45.8549 30.3383 45.9586 30.4438L46.2297 30.7155C46.4046 30.8908 46.5107 31.0522 46.5471 31.1983C46.5835 31.3444 46.5574 31.4932 46.4653 31.6436C46.3565 31.8239 46.2125 31.9293 46.0319 31.9596C45.8513 31.9899 45.6571 31.9552 45.4463 31.8559L45.206 32.2535C45.1824 32.2929 45.1497 32.3161 45.1108 32.3228C45.0703 32.3303 45.0333 32.3232 44.9975 32.3007C44.9767 32.2885 44.9602 32.2712 44.9472 32.2511C44.9343 32.231 44.928 32.2066 44.9276 32.1803C44.9276 32.1527 44.9351 32.1263 44.9513 32.0976L45.1916 31.7L45.1912 31.6972Z" fill="white"/>
</g>
</g>
</g>
<g id="Group_39">
<path id="Vector_63" d="M51.8366 51.5894L31.4548 51.1593C30.945 51.1482 30.5279 50.6816 30.5222 50.1151L30.384 37.2157C30.3784 36.6492 30.7857 36.1999 31.2954 36.211L51.6772 36.6411C52.187 36.6523 52.6041 37.1188 52.6098 37.6853L52.748 50.5847C52.7535 51.15 52.3463 51.6005 51.8366 51.5894Z" fill="#1E87D5"/>
<path id="Vector_64" opacity="0.47" d="M51.8366 51.5891L37.4149 51.2164C36.9052 51.2052 45.0583 36.5612 45.5679 36.5711L51.6773 36.6408C52.187 36.652 52.6042 37.1185 52.6099 37.685L52.748 50.5844C52.7536 51.1497 52.3464 51.6003 51.8366 51.5891Z" fill="#039D55"/>
<path id="Vector_65" opacity="0.33" d="M51.4396 50.9428L31.7112 50.5268C31.5014 50.5227 31.3283 50.3299 31.3254 50.0953L31.1896 37.4242C31.1869 37.1909 31.356 37.0045 31.566 37.0097L51.2944 37.4258C51.5042 37.4298 51.6773 37.6227 51.6802 37.8573L51.8159 50.5283C51.8187 50.7616 51.6495 50.9481 51.4396 50.9428Z" fill="#039D55"/>
<path id="Vector_66" d="M36.2368 44.9812L33.2018 44.9424C33.1743 44.942 33.1508 44.9288 33.1508 44.9126L33.1396 44.4364C33.1383 44.4202 33.161 44.4073 33.1898 44.4076L36.2248 44.4464C36.2523 44.4468 36.2757 44.46 36.2757 44.4763L36.287 44.9524C36.2882 44.9686 36.2655 44.9816 36.2368 44.9812Z" fill="white"/>
<path id="Vector_67" d="M38.2273 47.9134L33.1643 47.8103C33.1369 47.8099 33.1138 47.7855 33.1128 47.7556L33.1025 46.8834C33.1028 46.8535 33.1246 46.8293 33.1522 46.831L38.2152 46.9341C38.2426 46.9345 38.2657 46.959 38.2667 46.9888L38.277 47.861C38.2767 47.891 38.2549 47.9151 38.2273 47.9134Z" fill="#3E479B"/>
<path id="Vector_68" d="M41.5476 47.9815L39.0667 47.9305C39.0392 47.93 39.0161 47.9056 39.0151 47.8757L39.0049 47.0036C39.0051 46.9736 39.027 46.9494 39.0545 46.9511L41.5355 47.0021C41.5629 47.0025 41.586 47.027 41.587 47.0569L41.5973 47.929C41.597 47.959 41.5752 47.9831 41.5476 47.9815Z" fill="#3E479B"/>
<path id="Vector_69" d="M40.02 45.0828L36.985 45.044C36.9575 45.0435 36.934 45.0303 36.934 45.0141L36.9228 44.5379C36.9215 44.5218 36.9442 44.5088 36.973 44.5091L40.008 44.548C40.0355 44.5484 40.0589 44.5616 40.0589 44.5778L40.0702 45.054C40.0714 45.0702 40.0487 45.0831 40.02 45.0828Z" fill="white"/>
<path id="Vector_70" d="M43.7095 45.1307L40.6744 45.0918C40.6469 45.0914 40.6235 45.0782 40.6235 45.062L40.6122 44.5858C40.611 44.5696 40.6337 44.5567 40.6624 44.557L43.6975 44.5958C43.7249 44.5962 43.7484 44.6094 43.7484 44.6257L43.7597 45.1019C43.7609 45.118 43.7382 45.131 43.7095 45.1307Z" fill="white"/>
<path id="Vector_71" d="M47.3989 45.1785L44.3639 45.1397C44.3364 45.1393 44.3129 45.126 44.3129 45.1098L44.3017 44.6336C44.3004 44.6175 44.3232 44.6045 44.3519 44.6048L47.3869 44.6437C47.4144 44.6441 47.4378 44.6573 47.4378 44.6735L47.4491 45.1497C47.4503 45.1659 47.4276 45.1788 47.3989 45.1785Z" fill="white"/>
<g id="Group_40">
<path id="Vector_72" d="M47.8637 39.5698C47.8702 39.2122 48.0282 38.8954 48.2759 38.6755C48.0621 38.472 47.7742 38.3441 47.4571 38.3395C46.7827 38.3283 46.2262 38.8664 46.2141 39.543C46.2031 40.2181 46.7406 40.7754 47.4163 40.7877C47.7348 40.7934 48.0252 40.6752 48.2459 40.4786C48.0066 40.2508 47.8573 39.9275 47.8638 39.5711L47.8637 39.5698Z" fill="white"/>
<path id="Vector_73" d="M49.538 38.3797C49.2195 38.374 48.9292 38.4922 48.7084 38.6888C48.4607 38.9087 48.3015 39.2255 48.2962 39.5831C48.2898 39.9407 48.439 40.2628 48.6783 40.4906C48.8921 40.6941 49.18 40.8221 49.4972 40.8267C50.1715 40.8378 50.728 40.2997 50.7402 39.6232C50.7512 38.948 50.2136 38.3908 49.5379 38.3785L49.538 38.3797Z" fill="#FFB81D"/>
</g>
<g id="Group_41">
<path id="Vector_74" d="M36.5098 42.0428L33.711 42.0434C33.4553 42.0429 33.2448 41.8341 33.2452 41.5768L33.2442 40.2032L33.2441 39.8573C33.2446 39.6013 33.4531 39.3906 33.71 39.3911L36.5089 39.3904C36.7646 39.391 36.975 39.5997 36.9747 39.857L36.9757 41.5765C36.9753 41.8325 36.7668 42.0432 36.5098 42.0428Z" fill="#FFD3FF"/>
<path id="Vector_75" d="M33.2436 40.1392L33.2427 40.2637L36.9686 40.2913L36.9695 40.1668L33.2436 40.1392Z" fill="white"/>
<path id="Vector_76" d="M33.2558 41.1743L33.2549 41.2988L36.9808 41.3265L36.9817 41.202L33.2558 41.1743Z" fill="white"/>
<path id="Vector_77" d="M33.9706 39.3865L33.9644 42.0312L34.0887 42.0316L34.0949 39.3868L33.9706 39.3865Z" fill="white"/>
<path id="Vector_78" d="M35.8676 39.3927L35.8877 42.0361L36.0121 42.0352L35.992 39.3918L35.8676 39.3927Z" fill="white"/>
</g>
</g>
</g>
</g>
<defs>
<clipPath id="clip0_1459_44312">
<rect width="52.142" height="49.8945" fill="white" transform="translate(16) rotate(18.4681)"/>
</clipPath>
</defs>
</svg>
