<svg xmlns="http://www.w3.org/2000/svg" version="1.1" xmlns:xlink="http://www.w3.org/1999/xlink" xmlns:svgjs="http://svgjs.com/svgjs" width="512" height="512" x="0" y="0" viewBox="0 0 471.873 471" style="enable-background:new 0 0 512 512" xml:space="preserve" class=""><g><path fill="#0d7ab3" d="M425.477 110.793c3.543-27.75-10.118-54.867-34.524-68.535s-54.668-11.145-76.476 6.375c-24.145-35.7-66.973-53.934-109.442-46.598-42.472 7.34-76.7 38.887-87.465 80.621-26.715-13.074-58.718-8.422-80.605 11.715-21.887 20.14-29.18 51.649-18.367 79.356 10.812 27.71 37.515 45.949 67.261 45.941h331.2c28.62.031 52.441-21.988 54.652-50.527 2.207-28.54-17.934-53.965-46.223-58.34zm0 0" data-original="#26a3b9" class=""></path><path fill="#166ea5" d="m225.68 149.895-55.633 69.773h76.398l55.633-69.773zM425.477 110.793a68.274 68.274 0 0 0-16.438-54.14 68.28 68.28 0 0 0-51.633-23.141 68.239 68.239 0 0 0-18.707 2.633c32.817 9.03 53.922 40.91 49.418 74.648 28.313 4.352 48.485 29.789 46.274 58.348s-26.063 50.586-54.704 50.527h37.36c28.621.031 52.441-21.988 54.652-50.527 2.207-28.54-17.933-53.965-46.222-58.34zM85.86 75.242c-2.231 0-4.422.137-6.598.332a106.108 106.108 0 0 0 40.054 60.262 113.605 113.605 0 0 1-1.746-53.2 71.766 71.766 0 0 0-31.71-7.394zm0 0" data-original="#168aa5" class=""></path><path fill="#fabe02" d="M358.934 252.176h-48.95l-47.87 60.035h41.976l-47.14 59.121 113.1-74.46h-46.757zM272.047 149.895h-76.402l-74.727 93.718h65.52l-73.583 92.278 176.543-116.23h-72.98zm0 0" data-original="#fabe02"></path><g fill="#f59a1d"><path d="m323.293 296.871 35.64-44.695H335.66l-35.633 44.695zM346.777 296.871l-64.109 42.207-25.719 32.254 113.102-74.46zM216.418 219.66l55.629-69.765h-23.27l-55.632 69.765zM266.129 219.66 138.57 303.64l-25.715 32.25 176.543-116.23zm0 0" fill="#f59a1d" data-original="#f59a1d"></path></g><path fill="#bdd9e5" d="M6.996 342.89a7.003 7.003 0 0 1-6.305-3.964 7.001 7.001 0 0 1 .84-7.403l18.176-22.77a7.002 7.002 0 0 1 10.941 8.74l-18.175 22.76a6.985 6.985 0 0 1-5.477 2.638zm0 0" data-original="#bdd9e5"></path><path fill="#0d7ab3" d="M43.395 297.293a7.001 7.001 0 0 1-5.469-11.371l34.18-42.797c2.414-3.023 6.82-3.52 9.84-1.105a7.002 7.002 0 0 1 1.105 9.84l-34.18 42.8a7 7 0 0 1-5.476 2.633zm0 0" data-original="#26a3b9" class=""></path><path fill="#bdd9e5" d="M21.574 402.703a7 7 0 0 1-5.469-11.367L37.925 364a7.002 7.002 0 0 1 10.946 8.734l-21.82 27.332a6.985 6.985 0 0 1-5.477 2.637zm0 0" data-original="#bdd9e5"></path><path fill="#0d7ab3" d="M60.484 353.96a7.002 7.002 0 0 1-5.464-11.37l15.386-19.274a7.006 7.006 0 0 1 10.941 8.75l-15.39 19.278a6.989 6.989 0 0 1-5.473 2.617zm0 0" data-original="#26a3b9" class=""></path><path fill="#bdd9e5" d="M93.29 312.867a7 7 0 0 1-5.465-11.375l29.523-36.98c2.41-3.024 6.816-3.516 9.84-1.106 3.019 2.414 3.515 6.82 1.101 9.84l-29.52 36.98a6.979 6.979 0 0 1-5.48 2.641zM83.898 402.703a6.994 6.994 0 0 1-6.304-3.965 6.991 6.991 0 0 1 .836-7.402l28.953-36.274a7.002 7.002 0 0 1 10.941 8.739l-28.949 36.265a6.985 6.985 0 0 1-5.477 2.637zM146.227 402.703a7 7 0 0 1-5.469-11.367l38.914-48.75a7.002 7.002 0 0 1 10.941 8.738L151.7 400.066a6.995 6.995 0 0 1-5.472 2.637zm0 0" data-original="#bdd9e5"></path><path fill="#0d7ab3" d="M205.387 328.586a6.999 6.999 0 0 1-5.465-11.367l32.8-41.106a6.999 6.999 0 1 1 10.938 8.734l-32.8 41.11a6.976 6.976 0 0 1-5.473 2.629zm0 0" data-original="#26a3b9" class=""></path><path fill="#bdd9e5" d="M208.547 402.703a7 7 0 0 1-5.469-11.367l45.2-56.645a7.003 7.003 0 0 1 10.945 8.735l-45.2 56.64a6.99 6.99 0 0 1-5.476 2.637zm0 0" data-original="#bdd9e5"></path><path fill="#0d7ab3" d="M270.875 402.703a7.003 7.003 0 0 1-6.305-3.965 7.002 7.002 0 0 1 .836-7.398l7.149-8.961a7.001 7.001 0 0 1 10.941 8.734l-7.144 8.957a6.993 6.993 0 0 1-5.477 2.633zm0 0" data-original="#26a3b9" class=""></path><path fill="#bdd9e5" d="M366.98 282.309a6.999 6.999 0 0 1-5.464-11.368l22.214-27.832a7.002 7.002 0 0 1 10.945 8.734l-22.218 27.825a7 7 0 0 1-5.477 2.64zM333.2 402.703a7 7 0 0 1-5.469-11.367l27.152-34a6.998 6.998 0 0 1 9.836-1.106 6.994 6.994 0 0 1 1.105 9.836l-27.148 34a6.997 6.997 0 0 1-5.477 2.637zm0 0" data-original="#bdd9e5"></path><path fill="#0d7ab3" d="M375.293 349.969a6.996 6.996 0 0 1-6.305-3.969 6.994 6.994 0 0 1 .836-7.398l7.516-9.414c2.41-3.024 6.816-3.516 9.84-1.106 3.02 2.414 3.515 6.82 1.101 9.84l-7.511 9.414a6.981 6.981 0 0 1-5.477 2.633zM401.262 317.438a7.002 7.002 0 0 1-5.469-11.372l33.172-41.554a7.003 7.003 0 0 1 10.945 8.734l-33.172 41.559a7.005 7.005 0 0 1-5.476 2.632zm0 0" data-original="#26a3b9" class=""></path></g></svg>