<svg width="26" height="25" viewBox="0 0 26 25" fill="none" xmlns="http://www.w3.org/2000/svg">
<path d="M25.9036 16.1787C25.9036 16.2004 25.9036 16.2194 25.9036 16.2398C25.2853 18.1125 24.4033 19.7174 23.327 21.2069C22.3445 22.5591 21.1404 24.3787 18.9905 24.3787C17.1328 24.3787 15.8988 23.1842 13.9949 23.1516C11.9809 23.119 10.8733 24.1504 9.03193 24.41C8.82128 24.41 8.61064 24.41 8.40408 24.41C7.0519 24.2143 5.96064 23.1434 5.16563 22.1785C2.8214 19.3274 1.00988 15.6446 0.672852 10.9316C0.672852 10.4696 0.672852 10.0089 0.672852 9.54685C0.815544 6.17386 2.45447 3.43144 4.63291 2.10236C5.78261 1.39569 7.3631 0.793666 9.12298 1.06274C9.87721 1.17962 10.6478 1.43782 11.3232 1.69331C11.9632 1.93929 12.7637 2.37552 13.522 2.35241C14.0357 2.33747 14.5467 2.06975 15.0644 1.88085C16.581 1.33318 18.0678 0.705333 20.0274 1.00023C22.3825 1.35628 24.0541 2.4027 25.0869 4.01716C23.0946 5.28509 21.5196 7.19581 21.7887 10.4587C22.0278 13.4227 23.751 15.1567 25.9036 16.1787Z" fill="white"/>
</svg>
