<svg width="32" height="32" viewBox="0 0 32 32" fill="none" xmlns="http://www.w3.org/2000/svg">
<g clip-path="url(#clip0_23_4932)">
<path d="M24.0635 11.0778C20.4683 9.06694 14.6979 5.838 5.74766 0.826527C5.14423 0.42801 4.44996 0.375785 3.8501 0.578821L19.2063 15.935L24.0635 11.0778Z" fill="#32BBFF"/>
<path d="M3.85017 0.579102C3.73774 0.617182 3.62833 0.663121 3.5237 0.71861C2.86128 1.07693 2.37451 1.76643 2.37451 2.63848V29.2321C2.37451 30.1041 2.86122 30.7936 3.5237 31.1519C3.62815 31.2073 3.7375 31.2534 3.8498 31.2917L19.2063 15.9353L3.85017 0.579102Z" fill="#32BBFF"/>
<path d="M19.2061 15.9346L3.84961 31.291C4.44965 31.4956 5.14393 31.4474 5.74754 31.043C14.4274 26.1826 20.1327 22.9919 23.7695 20.964C23.8707 20.9071 23.9699 20.8515 24.0679 20.7964L19.2061 15.9346Z" fill="#32BBFF"/>
<path d="M2.37451 15.9346V29.2314C2.37451 30.1034 2.86122 30.7929 3.5237 31.1512C3.62815 31.2066 3.7375 31.2527 3.8498 31.2911L19.2063 15.9346H2.37451Z" fill="#2C9FD9"/>
<path d="M5.74796 0.826274C5.03138 0.353107 4.18635 0.366586 3.52393 0.718137L18.9735 16.1678L24.0637 11.0775C20.4686 9.06668 14.6982 5.83775 5.74796 0.826274Z" fill="#29CC5E"/>
<path d="M18.9736 15.7021L3.52393 31.1517C4.18641 31.5032 5.03138 31.5235 5.74796 31.0436C14.4278 26.1831 20.1331 22.9925 23.7699 20.9645C23.8711 20.9077 23.9703 20.852 24.0684 20.797L18.9736 15.7021Z" fill="#D93F21"/>
<path d="M30.4755 15.9346C30.4755 15.1977 30.1037 14.4541 29.3668 14.0418C29.3668 14.0418 27.9888 13.2728 23.7646 10.9102L18.7402 15.9346L23.7695 20.9639C27.9473 18.6182 29.3668 17.8273 29.3668 17.8273C30.1037 17.415 30.4755 16.6714 30.4755 15.9346Z" fill="#FFD500"/>
<path d="M29.3668 17.8274C30.1037 17.415 30.4755 16.6714 30.4755 15.9346H18.7402L23.7695 20.964C27.9473 18.6183 29.3668 17.8274 29.3668 17.8274Z" fill="#FFAA00"/>
</g>
<defs>
<clipPath id="clip0_23_4932">
<rect width="30.948" height="30.948" fill="white" transform="translate(0.951172 0.461914)"/>
</clipPath>
</defs>
</svg>
