<svg width="218" height="218" viewBox="0 0 218 218" fill="none" xmlns="http://www.w3.org/2000/svg">
<g clip-path="url(#clip0_23_9651)">
<path d="M202.072 217.807C204.88 213.709 207.107 209.097 208.659 204.284C212.563 192.169 214.935 176.968 213.116 164.278C211.02 149.658 203.702 136.61 193.151 127.346C185.664 120.773 175.888 117.686 166.288 117.851C156.687 118.016 147.266 121.279 138.82 126.273C127.115 133.192 117.044 143.423 104.615 148.612C93.5881 153.218 81.4921 153.518 69.6897 153.295C57.8872 153.072 45.9339 152.395 34.4144 155.21C22.8948 158.025 11.6016 164.918 5.99863 176.281C1.61456 185.172 1.22319 196.291 4.97069 205.526C6.90869 210.302 9.93357 214.516 13.6422 217.807" fill="#F8F8F8"/>
<path d="M19.9615 35.9769C19.9615 35.9769 21.1769 25.7885 22.9533 25.586C24.731 25.3836 27.6805 35.3555 27.6805 35.3555C27.6805 35.3555 36.0572 34.0287 37.5096 35.456C38.9619 36.8821 31.0425 43.3959 31.0425 43.3959C31.0425 43.3959 35.0352 52.7501 33.808 53.8577C32.5797 54.9653 24.7522 48.65 24.7522 48.65C24.7522 48.65 18.3854 56.1283 16.5417 55.3456C14.698 54.563 17.9598 44.1502 17.9598 44.1502C17.9598 44.1502 9.03018 40.4755 9.51939 38.0618C9.89426 36.2129 19.9615 35.9769 19.9615 35.9769Z" fill="#FFC35F"/>
<path d="M102.599 15.5892C102.599 15.5892 105.265 0.140182 107.995 0.00093186C110.727 -0.138318 114.439 15.3752 114.439 15.3752C114.439 15.3752 127.341 14.1464 129.447 16.4634C131.552 18.7804 118.936 27.9773 118.936 27.9773C118.936 27.9773 124.293 42.6476 122.329 44.2219C120.365 45.7975 108.909 35.4053 108.909 35.4053C108.909 35.4053 98.5884 46.2243 95.8347 44.8524C93.0809 43.4805 98.8926 27.8845 98.8926 27.8845C98.8926 27.8845 85.5435 21.421 86.4818 17.7811C87.2009 14.991 102.599 15.5892 102.599 15.5892Z" fill="#FFC35F"/>
<path d="M148.679 22.4802C148.679 22.4802 152.637 10.4222 154.851 10.693C157.065 10.9637 158.232 23.9707 158.232 23.9707C158.232 23.9707 168.759 24.7933 170.182 26.953C171.605 29.114 160.371 34.7433 160.371 34.7433C160.371 34.7433 162.96 47.3003 161.195 48.2931C159.43 49.2846 151.431 39.314 151.431 39.314C151.431 39.314 141.856 46.5718 139.801 45.0813C137.746 43.5908 144.252 31.8564 144.252 31.8564C144.252 31.8564 134.267 24.7817 135.451 21.9838C136.358 19.8384 148.679 22.4802 148.679 22.4802Z" fill="#FFC35F"/>
<path d="M58.9223 23.5781C58.9223 23.5781 61.6926 11.1307 63.9206 11.1436C66.1486 11.1565 68.5664 23.9559 68.5664 23.9559C68.5664 23.9559 79.1145 23.5562 80.7378 25.5405C82.361 27.5248 71.7362 34.4203 71.7362 34.4203C71.7362 34.4203 75.5238 46.6072 73.8652 47.7986C72.2066 48.99 63.2875 39.998 63.2875 39.998C63.2875 39.998 54.4675 48.3221 52.2796 47.0778C50.0917 45.8336 55.4283 33.412 55.4283 33.412C55.4283 33.412 44.8165 27.5312 45.7218 24.6122C46.4149 22.3751 58.9223 23.5781 58.9223 23.5781Z" fill="#FFC35F"/>
<path d="M188.93 35.9807C188.93 35.9807 190.483 25.8476 192.265 25.7161C194.048 25.5846 196.665 35.6673 196.665 35.6673C196.665 35.6673 205.08 34.6745 206.484 36.1573C207.888 37.6401 199.758 43.8341 199.758 43.8341C199.758 43.8341 203.438 53.3405 202.173 54.3991C200.91 55.4576 193.297 48.8355 193.297 48.8355C193.297 48.8355 186.686 56.0572 184.869 55.201C183.053 54.3449 186.659 44.0701 186.659 44.0701C186.659 44.0701 177.857 40.0434 178.426 37.6504C178.862 35.8169 188.93 35.9807 188.93 35.9807Z" fill="#FFC35F"/>
<path d="M138.152 68.8216C135.831 65.8934 133.217 69.6442 133.217 69.6442C132.608 67.0706 131.412 66.5626 131.064 66.9817C130.715 67.4007 131.163 67.7566 131.528 69.0846C131.826 70.1689 132.323 73.0622 132.496 74.1337L131.308 77.9347L135.92 79.0668L136.341 75.5339C136.38 75.2026 136.539 74.9035 136.784 74.7036C138.29 73.4774 140.212 71.4222 138.152 68.8216Z" fill="#F5A5A8"/>
<path d="M137.296 73.2804C137.158 73.2804 137.027 73.2302 136.898 73.1244C136.685 72.9517 136.639 72.7338 136.664 72.5429C136.438 72.628 136.155 72.6358 135.921 72.3831C135.713 72.1561 135.673 71.8983 135.699 71.6829C135.472 71.7848 135.189 71.817 134.963 71.5862C134.658 71.2755 134.696 70.8603 134.802 70.5612C134.556 70.5947 134.191 70.5883 133.971 70.3098C133.817 70.1164 133.752 69.8804 133.784 69.6251C133.848 69.1132 134.296 68.533 135.044 67.9915C135.099 67.9515 135.172 67.9683 135.208 68.0276C135.244 68.0869 135.23 68.1669 135.175 68.2068C134.494 68.6994 134.072 69.2293 134.019 69.6599C133.996 69.8417 134.04 70.0029 134.15 70.1409C134.396 70.4503 134.981 70.2608 134.987 70.2582L135.31 70.1512L135.119 70.4555C135.105 70.4787 134.767 71.0318 135.127 71.398C135.405 71.6816 135.824 71.3116 135.841 71.2961L136.426 70.7714L136.016 71.4663C136.006 71.4818 135.787 71.8712 136.091 72.2C136.392 72.5262 136.801 72.1819 136.817 72.1664L137.478 71.5978L136.986 72.3444C136.964 72.3792 136.77 72.6976 137.041 72.9194C137.315 73.1412 137.619 73.0716 138.528 72.0697C138.574 72.0195 138.648 72.0195 138.694 72.0684C138.74 72.1187 138.74 72.2 138.695 72.2502C138.1 72.9027 137.673 73.2804 137.296 73.2804Z" fill="#EF6B51"/>
<path d="M136.887 72.3972C136.854 72.3972 136.821 72.3817 136.798 72.3521C136.755 72.2979 136.761 72.2167 136.811 72.1703L138.441 70.6347C138.491 70.5882 138.565 70.5947 138.607 70.6475C138.65 70.7017 138.644 70.7829 138.594 70.8293L136.964 72.365C136.942 72.3869 136.915 72.3972 136.887 72.3972Z" fill="#EF6B51"/>
<path d="M135.913 71.524C135.88 71.524 135.848 71.5098 135.825 71.4802C135.781 71.4273 135.786 71.3448 135.835 71.2984L137.927 69.2831C137.976 69.2367 138.05 69.2406 138.093 69.2947C138.136 69.3476 138.132 69.4301 138.082 69.4765L135.991 71.4918C135.969 71.5137 135.94 71.524 135.913 71.524Z" fill="#EF6B51"/>
<path d="M135.019 70.5107C134.986 70.5107 134.953 70.4952 134.929 70.4656C134.887 70.4114 134.892 70.3302 134.941 70.2838L136.97 68.3626C137.019 68.3162 137.094 68.3214 137.136 68.3755C137.178 68.4297 137.174 68.5109 137.124 68.5573L135.095 70.4785C135.074 70.5004 135.046 70.5107 135.019 70.5107Z" fill="#EF6B51"/>
<path d="M77.5564 68.8216C79.8775 65.8934 82.4909 69.6442 82.4909 69.6442C83.1004 67.0706 84.2957 66.5626 84.6447 66.9817C84.9936 67.4007 84.5456 67.7566 84.1802 69.0846C83.882 70.1689 83.3857 73.0622 83.2124 74.1337L84.4006 77.9347L79.7879 79.0668L79.367 75.5339C79.3281 75.2026 79.169 74.9035 78.9238 74.7036C77.4184 73.4774 75.4958 71.4222 77.5564 68.8216Z" fill="#F5A5A8"/>
<path d="M78.4105 73.2798C78.0333 73.2798 77.6066 72.9007 77.0148 72.2483C76.9688 72.198 76.9688 72.1155 77.016 72.0665C77.062 72.0163 77.1374 72.0163 77.1822 72.0678C78.0911 73.0697 78.3952 73.1406 78.6687 72.9175C78.941 72.6957 78.7477 72.3786 78.7241 72.3425L78.2538 71.6153L78.8927 72.1658C78.9104 72.18 79.3206 72.523 79.6188 72.1993C79.9253 71.8667 79.7037 71.4812 79.6943 71.4657L79.2782 70.7617L79.8688 71.2968C79.8864 71.3123 80.3037 71.6823 80.5831 71.3987C80.9427 71.0325 80.6055 70.4793 80.5914 70.4561L80.4028 70.1531L80.7234 70.2601C80.7293 70.2627 81.314 70.4523 81.5604 70.1428C81.67 70.0062 81.7136 69.8437 81.6912 69.6619C81.6382 69.2312 81.2162 68.7013 80.5348 68.2088C80.4806 68.1701 80.4652 68.0902 80.5018 68.0296C80.5372 67.9703 80.6114 67.9535 80.6656 67.9935C81.4142 68.535 81.8622 69.1152 81.9258 69.6271C81.9576 69.8824 81.8928 70.1183 81.7396 70.3117C81.5191 70.5889 81.1537 70.5967 80.9085 70.5632C81.0146 70.8623 81.0511 71.2774 80.747 71.5882C80.5206 71.819 80.2377 71.7867 80.0114 71.6849C80.0373 71.9002 79.9961 72.1581 79.7886 72.385C79.5552 72.6377 79.2723 72.63 79.0459 72.5449C79.0695 72.7357 79.0247 72.9536 78.8125 73.1264C78.6793 73.2295 78.5485 73.2798 78.4105 73.2798Z" fill="#EF6B51"/>
<path d="M78.8213 72.3969C78.7942 72.3969 78.7671 72.3866 78.7447 72.3659L77.1144 70.8303C77.0649 70.7839 77.059 70.7027 77.1026 70.6485C77.145 70.5943 77.2193 70.5879 77.2688 70.6356L78.8991 72.1712C78.9486 72.2176 78.9545 72.2989 78.9109 72.353C78.8873 72.3814 78.8543 72.3969 78.8213 72.3969Z" fill="#EF6B51"/>
<path d="M79.7946 71.5236C79.7675 71.5236 79.7392 71.5133 79.7168 71.4913L77.6255 69.4761C77.5772 69.4284 77.5725 69.3471 77.6149 69.2943C77.6585 69.2414 77.7328 69.2363 77.7811 69.2827L79.8724 71.2979C79.9207 71.3456 79.9254 71.4269 79.883 71.4797C79.8606 71.5094 79.8276 71.5236 79.7946 71.5236Z" fill="#EF6B51"/>
<path d="M80.69 70.5104C80.6629 70.5104 80.6358 70.5001 80.6134 70.4794L78.5846 68.5583C78.5351 68.5119 78.5304 68.4307 78.5728 68.3765C78.6152 68.3223 78.6895 68.3172 78.739 68.3636L80.7678 70.2847C80.8173 70.3312 80.822 70.4124 80.7796 70.4665C80.7548 70.4962 80.723 70.5104 80.69 70.5104Z" fill="#EF6B51"/>
<path d="M79.1221 217.807C79.5075 210.927 89.1551 214.556 89.0773 208.226H97.6733L97.0038 217.807H79.1221Z" fill="#0E0E0E"/>
<path d="M135.747 217.807C135.361 210.927 125.714 214.556 125.791 208.226H117.195L117.865 217.807H135.747Z" fill="#0E0E0E"/>
<path d="M90.1419 135.586L87.5391 209.381H98.5364L109.718 135.761L90.1419 135.586Z" fill="#487BBB"/>
<path d="M104.46 135.725L116.022 209.381H126.89L123.091 135.586L104.46 135.725Z" fill="#487BBB"/>
<path d="M77.6982 77.0655L85.4337 74.9639L90.7491 92.6667L97.6111 105.18C97.6111 105.18 101.539 102.658 107.261 102.891C112.983 103.125 117.039 105.18 117.039 105.18L126.06 92.5545L129.724 75.909L138.1 77.7566C138.1 77.7566 135.569 92.0723 134.063 97.2864C132.555 102.499 120.909 119.492 120.909 119.492L125.314 144.67C112.948 146.281 100.571 146.278 88.1839 144.67L91.6226 120.04C91.6226 120.04 83.4615 100.283 81.9963 96.0203C80.5298 91.759 77.6982 77.0655 77.6982 77.0655Z" fill="#E0E0E0"/>
<path d="M107.031 105.724C111.005 105.881 112.444 103.619 112.447 103.616C110.975 103.265 109.215 102.973 107.261 102.894C105.51 102.823 103.929 103.01 102.576 103.303C102.579 103.312 103.063 105.567 107.031 105.724Z" fill="#0E0E0E"/>
<path d="M112.446 95.6318L111.096 103.331C110.32 104.985 103.974 104.772 103.898 103.064L104.979 96.8748L112.446 95.6318Z" fill="#F5A5A8"/>
<path d="M114.357 91.6496C115.175 91.3028 116.203 91.7411 116.589 92.6024C116.975 93.4637 116.664 94.6215 115.912 95.1167C115.161 95.6118 114.079 95.3719 113.564 94.5958C112.473 96.9243 110.212 98.5412 107.825 98.7075C105.438 98.8725 103.011 97.5819 101.654 95.4274C100.297 93.2742 100.057 90.3344 101.04 87.9504C102.023 85.5664 104.195 83.8181 106.568 83.497C108.598 83.2224 110.725 83.9766 112.22 85.5032C113.717 87.0285 114.468 89.4164 114.357 91.6496Z" fill="#F5A5A8"/>
<path d="M114.357 91.65C114.363 92.0497 114.173 92.5474 114.013 92.9071C113.855 93.2643 113.48 93.5415 113.13 93.4293C112.705 93.29 112.569 92.6815 112.668 92.207C112.768 91.7325 113.023 91.307 113.094 90.8274C113.18 90.2562 112.991 89.6618 112.667 89.2041C112.343 88.7451 111.895 88.4098 111.422 88.1455C110.497 87.6298 109.472 87.3706 108.457 87.1256C107.442 86.8807 106.415 86.6434 105.474 86.1625C104.783 85.8105 104.134 85.3128 103.663 84.6656C103.491 84.4309 103.343 84.1769 103.224 83.9023C102.782 82.8746 102.837 81.5492 103.527 80.7008C103.918 80.2212 104.556 79.9207 105.103 80.1515C105.653 80.3823 105.925 81.0322 106.298 81.5299C106.895 82.3331 107.808 82.7754 108.717 83.0681C109.625 83.3607 110.571 83.5322 111.444 83.9306C112.767 84.534 113.883 85.6609 114.538 87.0547C115.192 88.4485 115.397 90.0112 115.074 91.5378C114.936 91.5314 114.696 91.5211 114.357 91.65Z" fill="#0E0E0E"/>
<path d="M114.81 94.2421C114.731 94.2421 114.646 94.2317 114.557 94.2111L114.606 93.9584C115.065 94.0654 115.309 93.8101 115.378 93.56C115.45 93.2995 115.363 92.9475 114.999 92.7877L115.086 92.5479C115.566 92.758 115.71 93.2544 115.603 93.6348C115.513 93.9597 115.239 94.2421 114.81 94.2421Z" fill="#EF6B51"/>
<path d="M107.529 91.3286C107.513 91.3286 107.498 91.326 107.483 91.3221C107.389 91.2951 107.332 91.188 107.358 91.0849L107.649 89.8897C107.674 89.7865 107.772 89.7246 107.866 89.753C107.96 89.7801 108.017 89.8871 107.991 89.9902L107.7 91.1855C107.678 91.2718 107.607 91.3286 107.529 91.3286Z" fill="#0E0E0E"/>
<path d="M103.398 90.2913C103.384 90.2913 103.37 90.2887 103.354 90.2849C103.26 90.2591 103.202 90.1533 103.226 90.0502L103.486 88.9207C103.51 88.8176 103.607 88.7544 103.701 88.7802C103.795 88.806 103.853 88.9117 103.83 89.0148L103.569 90.1443C103.549 90.2333 103.477 90.2913 103.398 90.2913Z" fill="#0E0E0E"/>
<path d="M104.383 93.5465C104.339 93.5465 104.293 93.5271 104.258 93.4897C104.098 93.3144 104.019 93.1016 104.023 92.8605C104.032 92.2416 104.605 91.6447 104.63 91.6202C104.7 91.5467 104.812 91.5505 104.88 91.6279C104.947 91.7053 104.943 91.8278 104.873 91.9012C104.737 92.0418 104.382 92.4905 104.376 92.867C104.374 93.0024 104.417 93.1171 104.509 93.2164C104.578 93.2925 104.578 93.4149 104.509 93.4897C104.474 93.5271 104.428 93.5465 104.383 93.5465Z" fill="#0E0E0E"/>
<path d="M106.861 95.8983C106.765 95.8983 106.686 95.8132 106.685 95.7075C106.683 95.6005 106.761 95.5141 106.859 95.5115C106.891 95.5115 107.642 95.487 108.124 94.7199C108.179 94.6322 108.289 94.609 108.37 94.6696C108.45 94.7302 108.472 94.8501 108.416 94.9391C107.828 95.8751 106.904 95.897 106.865 95.8983C106.863 95.8983 106.861 95.8983 106.861 95.8983Z" fill="#0E0E0E"/>
<path d="M89.4379 155.736C89.3671 155.736 89.3011 155.69 89.2728 155.614C89.2375 155.515 89.2823 155.403 89.373 155.364C89.4296 155.339 95.0774 152.825 96.1949 145.468C96.2114 145.362 96.3022 145.291 96.3989 145.309C96.4955 145.327 96.5604 145.427 96.5439 145.533C95.9427 149.492 94.0624 152.051 92.5913 153.501C90.9963 155.072 89.5628 155.698 89.5027 155.725C89.4815 155.733 89.4591 155.736 89.4379 155.736Z" fill="#0E0E0E"/>
<path d="M124.127 155.912C124.097 155.912 124.068 155.904 124.04 155.887C123.993 155.859 119.326 152.906 117.52 145.509C117.495 145.406 117.55 145.3 117.645 145.272C117.739 145.245 117.835 145.306 117.861 145.409C119.628 152.65 124.167 155.521 124.213 155.55C124.298 155.602 124.328 155.72 124.28 155.813C124.248 155.876 124.188 155.912 124.127 155.912Z" fill="#0E0E0E"/>
<path d="M107.221 153.505C107.136 153.505 107.061 153.438 107.046 153.344L106.149 147.631C106.133 147.525 106.197 147.426 106.293 147.408C106.388 147.39 106.48 147.461 106.497 147.565L107.394 153.279C107.41 153.384 107.346 153.484 107.25 153.502C107.241 153.505 107.23 153.505 107.221 153.505Z" fill="#0E0E0E"/>
<path d="M98.808 207.351H87.6739C87.5761 207.351 87.4971 207.264 87.4971 207.157C87.4971 207.05 87.5761 206.964 87.6739 206.964H98.808C98.9058 206.964 98.9848 207.05 98.9848 207.157C98.9848 207.264 98.9058 207.351 98.808 207.351Z" fill="#0E0E0E"/>
<path d="M126.717 207.351H115.755C115.657 207.351 115.578 207.264 115.578 207.157C115.578 207.05 115.657 206.964 115.755 206.964H126.717C126.815 206.964 126.894 207.05 126.894 207.157C126.894 207.264 126.815 207.351 126.717 207.351Z" fill="#0E0E0E"/>
<path d="M22.5192 200.495L20.9502 204.649L23.032 206.573L25.662 207.245L28.5371 202.995L22.5192 200.495Z" fill="#F5A5A8"/>
<path d="M20.9504 204.649L17.4033 210.048L22.1823 212.681L22.866 211.673L24.0225 213.696L31.1721 217.635C31.9807 213.059 24.758 210.724 25.6622 207.245L20.9504 204.649Z" fill="#EF6B51"/>
<path d="M55.127 206.757L55.4346 211.239L58.0858 211.934L60.7111 211.239L61.5304 206.028L55.127 206.757Z" fill="#F5A5A8"/>
<path d="M34.4777 146.171L34.7088 178.14L16.6396 200.704L34.783 208.479C34.783 208.479 44.0569 187.184 45.765 181.182C47.4731 175.18 52.4773 146.147 52.4773 146.147L34.4777 146.171Z" fill="#0E0E0E"/>
<path d="M47.8468 148.255L53.6301 180.926L45.8145 208.531H66.2766L64.6251 179.952L64.8785 147.144L47.8468 148.255Z" fill="#0E0E0E"/>
<path d="M65.4263 87.7203C63.1275 85.2744 61.0339 88.8768 61.0339 88.8768C60.3031 86.6063 59.1891 86.2491 58.9038 86.6566C58.6185 87.064 59.0476 87.3464 59.4708 88.5145C59.8162 89.4674 60.4669 92.0345 60.698 92.986L59.894 96.5137L64.1331 97.1468L64.2639 93.9259C64.2757 93.6242 64.3983 93.3406 64.6058 93.1407C65.8789 91.9068 67.468 89.8916 65.4263 87.7203Z" fill="#F5A5A8"/>
<path d="M64.9231 91.8286C64.8135 91.8286 64.7039 91.7925 64.5931 91.7165C64.3926 91.5798 64.3325 91.3928 64.3349 91.22C64.1368 91.3103 63.8846 91.3348 63.6594 91.1285C63.459 90.9454 63.4001 90.7211 63.4048 90.5264C63.2079 90.6321 62.958 90.6772 62.7399 90.4903C62.4452 90.2376 62.4429 89.8662 62.5136 89.5864C62.2931 89.6354 61.9701 89.6509 61.7544 89.4227C61.6 89.2589 61.5246 89.0475 61.5352 88.8115C61.5564 88.3409 61.9218 87.7775 62.5607 87.2231C62.6114 87.1792 62.6857 87.1882 62.7258 87.2437C62.7659 87.2991 62.7576 87.3804 62.7069 87.4242C62.1293 87.9232 61.7874 88.4338 61.7697 88.8231C61.7627 88.9856 61.8122 89.1249 61.9183 89.2357C62.1163 89.4459 62.5277 89.3311 62.6692 89.2693L62.9816 89.1326L62.8154 89.4524C62.8048 89.4743 62.5431 89.9926 62.8861 90.2853C63.1513 90.5122 63.505 90.1383 63.5085 90.1344L64.0555 89.5465L63.6948 90.2878C63.6877 90.302 63.5215 90.663 63.8115 90.9287C64.0956 91.1891 64.4351 90.8526 64.4492 90.8371L65.0528 90.226L64.6308 90.997C64.6131 91.0292 64.4657 91.3232 64.718 91.4934C64.975 91.6675 65.2402 91.5772 65.9841 90.605C66.0253 90.5509 66.0996 90.5431 66.1503 90.5883C66.1998 90.6334 66.2069 90.7146 66.1656 90.7701C65.6516 91.4444 65.2803 91.8286 64.9231 91.8286Z" fill="#EF6B51"/>
<path d="M64.5279 91.0627C64.4984 91.0627 64.469 91.0511 64.4454 91.0253C64.3994 90.975 64.3982 90.8938 64.443 90.8435L65.8058 89.3208C65.8517 89.2705 65.926 89.2692 65.972 89.3182C66.0179 89.3685 66.0191 89.4497 65.9743 89.5L64.6116 91.0227C64.5892 91.0498 64.5586 91.0627 64.5279 91.0627Z" fill="#EF6B51"/>
<path d="M63.5883 90.3574C63.5588 90.3574 63.5294 90.3458 63.507 90.3213C63.4598 90.2723 63.4586 90.191 63.5034 90.1395L65.2481 88.1461C65.2929 88.0945 65.3672 88.0933 65.4143 88.1422C65.4615 88.1912 65.4627 88.2725 65.4179 88.3241L63.6732 90.3174C63.6508 90.3445 63.619 90.3574 63.5883 90.3574Z" fill="#EF6B51"/>
<path d="M62.711 89.5194C62.6815 89.5194 62.652 89.5078 62.6284 89.4833C62.5813 89.433 62.5813 89.3517 62.6261 89.3015L64.3212 87.3984C64.3672 87.3468 64.4415 87.3468 64.4875 87.3958C64.5346 87.4461 64.5346 87.5273 64.4898 87.5776L62.7947 89.4807C62.7723 89.5065 62.7416 89.5194 62.711 89.5194Z" fill="#EF6B51"/>
<path d="M52.6367 116.528L56.2899 109.308L57.2978 94.4561L69.1686 97.4693L64.9638 112.939L58.7843 129.983L52.6367 116.528Z" fill="#2B8C79"/>
<path d="M28.5651 125.652C28.5262 124.668 28.7537 122.331 28.8244 121.309C28.9093 120.057 29.1863 119.775 28.7455 119.595C28.1678 119.361 27.8236 120.439 27.5867 122.276C27.5654 122.437 27.3556 122.449 27.3214 122.29C26.9348 120.495 26.0212 115.969 25.3705 116.122C24.6915 116.283 25.2903 118.658 25.7724 120.898C25.796 121.006 25.7312 121.113 25.631 121.136C25.6298 121.136 25.6298 121.136 25.6286 121.136C25.572 121.149 25.5131 121.122 25.486 121.065C24.3614 118.766 23.4596 116.358 22.8112 116.76C22.2454 117.111 23.3912 119.45 24.3979 121.563C24.4286 121.628 24.4085 121.707 24.352 121.746C24.3508 121.746 24.3508 121.747 24.3496 121.747C24.2954 121.784 24.2235 121.772 24.1834 121.718C22.7888 119.86 21.6442 118.168 21.1161 118.671C20.6528 119.112 21.9082 120.76 23.1943 122.477C23.2651 122.573 23.2757 122.705 23.2203 122.811L23.2191 122.815C23.1778 122.895 23.08 122.909 23.0199 122.846C21.7114 121.471 21.0123 120.814 20.6787 121.23C20.2968 121.707 23.3358 124.924 23.3358 124.924C23.983 126.381 25.4176 127.708 25.4176 127.708L26.4208 130.741L30.2944 128.755L28.5651 125.652Z" fill="#F5A5A8"/>
<path d="M52.6365 116.528L44.5898 116.943L37.9223 120.129L32.3535 153.877C42.594 155.46 60.9024 153.034 67.7361 147.847L52.6365 116.528Z" fill="#2B8C79"/>
<path d="M37.5154 100.283C30.1525 103.108 36.0443 112.136 34.0992 118.102C36.3555 119.091 48.9265 116.374 54.0226 111.663C54.0226 111.663 52.1978 99.7309 45.6458 97.6203C39.3851 95.6024 37.5154 100.283 37.5154 100.283Z" fill="#0E0E0E"/>
<path d="M39.627 111.495L42.0495 118.472C42.9725 119.808 48.4682 118.356 48.2937 116.829L46.4241 111.329L39.627 111.495Z" fill="#F5A5A8"/>
<path d="M37.3684 108.29C36.5939 108.121 35.7451 108.685 35.5247 109.514C35.3043 110.343 35.7451 111.316 36.4819 111.628C37.2187 111.94 38.1429 111.543 38.4895 110.767C39.7874 112.646 42.0212 113.696 44.1608 113.437C46.3004 113.178 48.269 111.62 49.1673 109.48C50.0644 107.34 49.8605 104.694 48.6498 102.747C47.4391 100.8 45.2666 99.6192 43.1164 99.7365C41.2774 99.8371 39.4985 100.869 38.3893 102.475C37.28 104.084 36.9523 106.328 37.3684 108.29Z" fill="#F5A5A8"/>
<path d="M37.1826 110.692C36.8737 110.692 36.645 110.505 36.5354 110.268C36.3845 109.943 36.4422 109.471 36.843 109.199L36.9668 109.418C36.6733 109.617 36.6462 109.938 36.744 110.151C36.8395 110.356 37.0871 110.536 37.4702 110.367L37.5586 110.607C37.4242 110.667 37.2981 110.692 37.1826 110.692Z" fill="#EF6B51"/>
<path d="M46.4525 108.298C46.39 108.298 46.3287 108.261 46.2969 108.197C46.2509 108.102 46.2827 107.985 46.3688 107.935C46.5067 107.854 46.5845 107.779 46.5951 107.719C46.6199 107.58 46.3818 107.267 46.0812 106.871C45.9527 106.702 45.8065 106.51 45.6462 106.287C45.5861 106.203 45.599 106.082 45.6756 106.015C45.7523 105.949 45.8631 105.963 45.9244 106.047C46.0823 106.266 46.2273 106.456 46.3547 106.624C46.7708 107.172 47.0007 107.473 46.9441 107.792C46.9016 108.032 46.7048 108.175 46.5385 108.274C46.5103 108.291 46.4808 108.298 46.4525 108.298Z" fill="#0E0E0E"/>
<path d="M44.4178 110.817C44.1242 110.817 43.5643 110.738 43.0916 110.209C43.0232 110.133 43.0244 110.011 43.0939 109.936C43.1635 109.861 43.2755 109.863 43.3438 109.939C43.8731 110.529 44.5345 110.425 44.5616 110.42C44.6571 110.403 44.7478 110.475 44.7631 110.581C44.7785 110.687 44.7136 110.785 44.617 110.803C44.6087 110.804 44.5345 110.817 44.4178 110.817Z" fill="#0E0E0E"/>
<path d="M49.088 103.075C46.557 103.337 43.8457 102.689 40.8067 101.854C40.5686 104.227 39.3178 107.132 37.368 108.288L35.8662 105.249L39.6267 99.7282L45.4996 99.4639L48.5893 102.146L49.088 103.075Z" fill="#0E0E0E"/>
<path d="M42.4033 106.967C42.3337 106.967 42.2689 106.922 42.2406 106.849C42.1734 106.675 42.1722 106.481 42.2382 106.306C42.3031 106.131 42.428 105.994 42.5872 105.92C42.9161 105.77 43.2968 105.938 43.4359 106.299C43.4737 106.397 43.4312 106.511 43.3416 106.552C43.252 106.593 43.1483 106.547 43.1106 106.449C43.0481 106.285 42.8748 106.208 42.7251 106.278C42.652 106.311 42.5966 106.373 42.5659 106.453C42.5365 106.533 42.5365 106.621 42.5671 106.699C42.6049 106.797 42.5624 106.911 42.4728 106.952C42.4492 106.962 42.4257 106.967 42.4033 106.967Z" fill="#0E0E0E"/>
<path d="M46.5037 105.08C46.4341 105.08 46.3693 105.035 46.341 104.962C46.2019 104.602 46.3575 104.184 46.6876 104.033C47.0176 103.881 47.3984 104.051 47.5363 104.412C47.574 104.51 47.5316 104.624 47.442 104.665C47.3524 104.706 47.2487 104.66 47.211 104.562C47.1485 104.398 46.9752 104.321 46.8255 104.39C46.6758 104.459 46.605 104.648 46.6687 104.812C46.7064 104.91 46.664 105.023 46.5744 105.065C46.5496 105.075 46.5261 105.08 46.5037 105.08Z" fill="#0E0E0E"/>
<path d="M33.9044 123.719L32.1834 128.762L31.3098 125.718L20.7051 131.649C20.7051 131.649 27.4786 143.899 31.0151 144.477C35.0632 145.138 35.1823 142.25 39.6265 132.865L37.9219 120.13L36.3694 120.873C35.2295 121.417 34.3394 122.444 33.9044 123.719Z" fill="#2B8C79"/>
<path d="M34.3496 135.979C34.3001 135.979 34.2541 135.945 34.2376 135.891L32.0732 128.801C32.0532 128.734 32.0862 128.661 32.1475 128.639C32.2088 128.616 32.276 128.653 32.2972 128.72L34.4615 135.81C34.4816 135.877 34.4486 135.951 34.3873 135.973C34.3743 135.978 34.3613 135.979 34.3496 135.979Z" fill="#0E0E0E"/>
<path d="M33.6675 144.264C33.6262 144.264 33.5861 144.241 33.5649 144.199C33.5331 144.137 33.5531 144.058 33.6097 144.023C34.8522 143.251 35.6915 141.347 37.2158 137.891C37.8594 136.433 38.5879 134.779 39.5216 132.806C39.551 132.743 39.6229 132.718 39.6807 132.751C39.7385 132.783 39.7609 132.861 39.7314 132.925C38.7989 134.895 38.0704 136.546 37.428 138.003C35.8837 141.507 35.0326 143.435 33.7264 144.248C33.7076 144.259 33.6875 144.264 33.6675 144.264Z" fill="#0E0E0E"/>
<path d="M58.9301 129.711C58.8877 129.711 58.8464 129.686 58.8252 129.642L55.3594 122.453C55.3288 122.39 55.3512 122.312 55.409 122.279C55.4667 122.245 55.5375 122.27 55.5681 122.333L59.0339 129.522C59.0645 129.585 59.0421 129.663 58.9843 129.696C58.9678 129.705 58.949 129.711 58.9301 129.711Z" fill="#0E0E0E"/>
<path d="M55.4351 211.239L54.4873 217.806H59.838L60.0337 216.569L61.8986 217.806H69.9041C68.7441 213.322 61.3328 214.79 60.7104 211.239H55.4351Z" fill="#EF6B51"/>
<path d="M146.077 217.806C146.463 210.926 156.11 214.555 156.032 208.225H162.661L163.959 217.806H146.077Z" fill="#805034"/>
<path d="M186.066 217.806C183.699 211.418 193.834 210.137 191.265 204.464L197.244 201.335L202.196 209.365L186.066 217.806Z" fill="#805034"/>
<path d="M153.95 143.478C153.95 143.478 151.5 174.539 152.038 179.9C152.578 185.262 154.916 208.476 154.916 208.476H163.843L163.208 179.583L169.804 144.985L153.95 143.478Z" fill="#E0E0E0"/>
<path d="M165.267 146.822C165.267 146.822 171.44 178.391 174.32 182.91C177.2 187.429 190.04 207.15 190.04 207.15L198.236 201.457L184.652 177.497L180.271 143.477L165.267 146.822Z" fill="#E0E0E0"/>
<path d="M192.873 116.336C192.821 115.289 192.361 112.84 192.191 111.765C191.982 110.448 191.664 110.18 192.113 109.942C192.704 109.628 193.169 110.732 193.592 112.651C193.63 112.819 193.853 112.808 193.875 112.636C194.116 110.692 194.658 105.794 195.362 105.884C196.096 105.978 195.686 108.562 195.385 110.987C195.371 111.105 195.449 111.21 195.558 111.225C195.559 111.225 195.559 111.225 195.56 111.225C195.621 111.232 195.68 111.196 195.705 111.134C196.68 108.572 197.408 105.92 198.133 106.273C198.766 106.582 197.773 109.187 196.904 111.539C196.877 111.611 196.906 111.694 196.97 111.727C196.971 111.727 196.971 111.729 196.972 111.729C197.033 111.761 197.108 111.74 197.145 111.678C198.448 109.554 199.501 107.632 200.108 108.106C200.639 108.521 199.465 110.407 198.264 112.371C198.198 112.479 198.199 112.621 198.268 112.728L198.27 112.732C198.321 112.812 198.427 112.817 198.485 112.742C199.741 111.139 200.419 110.363 200.813 110.768C201.263 111.231 198.347 114.98 198.347 114.98C197.797 116.597 196.403 118.164 196.403 118.164L195.626 121.489L191.335 119.822L192.873 116.336Z" fill="#F5A5A8"/>
<path d="M171.986 108.873C165.983 107.707 160.141 110.352 160.141 110.352L150.833 146.156C150.833 146.156 165.649 151.816 183.329 148.688L181.804 113.155C181.804 113.155 177.505 109.946 171.986 108.873Z" fill="#EF6B51"/>
<path d="M148.549 71.3511C151.2 68.7789 153.343 72.8713 153.343 72.8713C154.256 70.4073 155.501 70.0747 155.797 70.5401C156.092 71.0056 155.606 71.2931 155.085 72.558C154.659 73.5907 153.822 76.3874 153.523 77.4253L154.246 81.363L149.538 81.8258L149.543 78.2634C149.543 77.9294 149.421 77.6097 149.202 77.3776C147.855 75.9477 146.195 73.6346 148.549 71.3511Z" fill="#F5A5A8"/>
<path d="M148.942 75.9002C148.543 75.9002 148.148 75.4554 147.603 74.6728C147.564 74.616 147.574 74.5348 147.625 74.4922C147.677 74.4497 147.752 74.46 147.79 74.5167C148.572 75.6398 148.866 75.7532 149.163 75.5714C149.458 75.3909 149.305 75.048 149.286 75.0093L148.907 74.2215L149.475 74.8584C149.49 74.8752 149.857 75.2736 150.192 74.9951C150.532 74.7114 150.361 74.295 150.354 74.2769L150.043 73.5394L150.548 74.1351C150.563 74.1531 150.933 74.5786 151.243 74.3375C151.643 74.0255 151.375 73.4298 151.363 73.404L151.213 73.0765L151.517 73.2274C151.523 73.23 152.079 73.502 152.361 73.23C152.486 73.1101 152.548 72.9553 152.547 72.7722C152.546 72.3377 152.191 71.7524 151.573 71.1657C151.524 71.1193 151.519 71.0381 151.561 70.9839C151.604 70.9298 151.679 70.9246 151.728 70.971C152.406 71.6157 152.78 72.2539 152.782 72.771C152.783 73.0288 152.691 73.2532 152.515 73.4234C152.263 73.6671 151.9 73.6219 151.661 73.5536C151.73 73.8643 151.717 74.2821 151.378 74.5464C151.127 74.7424 150.849 74.6702 150.637 74.5374C150.637 74.754 150.565 75.0041 150.332 75.1988C150.071 75.4154 149.791 75.3677 149.578 75.2517C149.579 75.4438 149.508 75.654 149.276 75.7945C149.164 75.8654 149.053 75.9002 148.942 75.9002Z" fill="#F17679"/>
<path d="M149.391 75.0777C149.359 75.0777 149.326 75.0635 149.302 75.0351L147.87 73.279C147.826 73.2262 147.831 73.1449 147.879 73.0972C147.928 73.0495 148.002 73.0547 148.045 73.1075L149.478 74.8636C149.521 74.9165 149.517 74.9977 149.468 75.0454C149.447 75.0661 149.419 75.0777 149.391 75.0777Z" fill="#F17679"/>
<path d="M150.461 74.3517C150.428 74.3517 150.395 74.3362 150.373 74.3079L148.54 72.0102C148.497 71.9561 148.502 71.8749 148.551 71.8284C148.601 71.782 148.675 71.7872 148.718 71.8413L150.551 74.139C150.593 74.1931 150.588 74.2743 150.539 74.3208C150.515 74.3414 150.488 74.3517 150.461 74.3517Z" fill="#F17679"/>
<path d="M151.468 73.4744C151.435 73.4744 151.403 73.4602 151.38 73.4305L149.597 71.2361C149.554 71.1832 149.558 71.102 149.607 71.0543C149.655 71.0066 149.729 71.0117 149.773 71.0646L151.555 73.2591C151.599 73.3119 151.594 73.3931 151.546 73.4409C151.525 73.4641 151.496 73.4744 151.468 73.4744Z" fill="#F17679"/>
<path d="M177.908 102.852L175.356 109.812C174.017 111.919 167.959 110.273 168.182 108.58L170.361 102.513L177.908 102.852Z" fill="#F5A5A8"/>
<path d="M180.479 99.342C181.342 99.1718 182.274 99.8178 182.504 100.744C182.733 101.669 182.226 102.741 181.402 103.071C180.578 103.401 179.558 102.938 179.188 102.069C177.711 104.127 175.21 105.243 172.837 104.907C170.466 104.572 168.308 102.796 167.351 100.399C166.395 98.0024 166.671 95.0665 168.053 92.9314C169.434 90.7962 171.87 89.5339 174.256 89.7131C176.296 89.8666 178.253 91.0515 179.454 92.8617C180.657 94.672 180.977 97.172 180.479 99.342Z" fill="#F5A5A8"/>
<path d="M180.657 102.001C180.526 102.001 180.382 101.97 180.227 101.898L180.319 101.66C180.75 101.86 181.034 101.662 181.146 101.43C181.263 101.19 181.238 100.825 180.909 100.592L181.038 100.375C181.471 100.682 181.526 101.199 181.356 101.55C181.233 101.804 180.986 102.001 180.657 102.001Z" fill="#F17679"/>
<path d="M170.862 98.9794C170.843 98.9794 170.823 98.9755 170.804 98.969C170.511 98.8582 170.412 98.6673 170.381 98.5281C170.292 98.1439 170.612 97.7506 170.648 97.7081C170.714 97.6294 170.826 97.6242 170.898 97.6964C170.97 97.7687 170.975 97.8911 170.909 97.9698C170.834 98.0601 170.691 98.2908 170.724 98.4353C170.74 98.5036 170.806 98.5616 170.921 98.6054C171.012 98.6403 171.062 98.7511 171.029 98.8517C171.003 98.9291 170.935 98.9794 170.862 98.9794Z" fill="#0E0E0E"/>
<path d="M179.455 92.8616C178.254 91.0514 176.297 89.8665 174.257 89.713C172.741 89.5996 171.205 90.0676 169.932 90.9727C172.468 92.9158 175.425 94.855 178.726 96.7916C179.042 96.9773 179.193 97.3834 179.079 97.7573L178.142 100.865C178.063 101.125 178.181 101.407 178.411 101.514C178.638 101.62 178.899 101.52 179.02 101.284C179.446 100.455 179.932 99.6926 180.48 99.3432C180.977 97.1719 180.657 94.6719 179.455 92.8616Z" fill="#0E0E0E"/>
<path d="M170.395 95.3515C170.365 95.3515 170.336 95.3437 170.309 95.327C170.224 95.2754 170.192 95.1568 170.24 95.0639C170.319 94.9092 170.269 94.712 170.126 94.6256C170.058 94.583 169.977 94.574 169.902 94.5972C169.826 94.6204 169.764 94.6746 169.725 94.7506C169.678 94.8435 169.569 94.877 169.485 94.8254C169.4 94.7738 169.368 94.6552 169.416 94.5624C169.5 94.3974 169.638 94.2774 169.805 94.2246C169.971 94.173 170.147 94.1949 170.298 94.2865C170.61 94.476 170.724 94.9092 170.549 95.2509C170.517 95.3154 170.457 95.3515 170.395 95.3515Z" fill="#0E0E0E"/>
<path d="M174.284 97.7159C174.255 97.7159 174.225 97.7082 174.198 97.6914C174.113 97.6399 174.082 97.5212 174.13 97.4284C174.209 97.2737 174.158 97.0764 174.016 96.99C173.874 96.9036 173.694 96.9591 173.615 97.1151C173.568 97.2079 173.459 97.2414 173.374 97.1899C173.289 97.1383 173.258 97.0197 173.306 96.9268C173.479 96.5852 173.875 96.4614 174.188 96.6522C174.5 96.8418 174.613 97.275 174.439 97.6166C174.407 97.6798 174.347 97.7159 174.284 97.7159Z" fill="#0E0E0E"/>
<path d="M171.012 102.196C170.96 102.196 170.907 102.192 170.854 102.183C170.254 102.089 169.835 101.479 169.921 100.823C169.936 100.717 170.024 100.644 170.122 100.659C170.218 100.675 170.286 100.773 170.271 100.878C170.214 101.323 170.497 101.737 170.905 101.802C171.101 101.833 171.298 101.777 171.457 101.647C171.617 101.517 171.72 101.326 171.747 101.111C171.762 101.005 171.85 100.931 171.948 100.947C172.044 100.962 172.112 101.06 172.098 101.166C172.056 101.484 171.904 101.766 171.67 101.958C171.476 102.114 171.248 102.196 171.012 102.196Z" fill="#0E0E0E"/>
<path d="M175.897 108.339L171.229 110.548L168.812 106.829L166.98 108.66L168.256 113.85L170.918 111.756L172.374 114.815L176.735 110.353L175.897 108.339Z" fill="white"/>
<path d="M162.725 110.053L157.11 95.9167L154.532 79.2725L148.318 80.1221C148.318 80.1221 148.54 95.9025 149.489 98.9931C150.438 102.082 157.43 124.289 157.43 124.289L162.725 110.053Z" fill="#EF6B51"/>
<path d="M180.705 127.559C180.705 127.559 184.225 138.861 188.006 138.586C191.786 138.31 196.743 119.748 196.743 119.748L191.45 117.635L188.258 124.894C188.258 124.894 186.484 116.656 181.804 113.154L180.705 127.559Z" fill="#EF6B51"/>
<path d="M179.718 158.879C179.705 158.879 179.691 158.876 179.678 158.871C174.45 156.804 173.538 149.705 173.529 149.634C173.521 149.563 173.566 149.499 173.631 149.49C173.696 149.479 173.754 149.53 173.763 149.601C173.771 149.67 174.667 156.616 179.758 158.629C179.82 158.653 179.851 158.727 179.829 158.794C179.812 158.846 179.766 158.879 179.718 158.879Z" fill="#0E0E0E"/>
<path d="M152.947 157.441C152.921 157.441 152.896 157.432 152.874 157.413C152.824 157.369 152.815 157.288 152.855 157.231C154.653 154.763 155.595 152.344 156.068 150.749C156.581 149.02 156.668 147.86 156.669 147.848C156.674 147.778 156.733 147.725 156.796 147.73C156.861 147.735 156.909 147.797 156.905 147.869C156.901 147.916 156.531 152.604 153.041 157.394C153.017 157.424 152.983 157.441 152.947 157.441Z" fill="#0E0E0E"/>
<path d="M196.519 202.779C196.48 202.779 196.441 202.757 196.418 202.719L182.266 178.028L182.263 178L178.302 149.369C178.293 149.298 178.336 149.232 178.401 149.222C178.466 149.212 178.526 149.26 178.535 149.33L182.493 177.936L196.619 202.582C196.653 202.643 196.636 202.721 196.581 202.76C196.562 202.774 196.54 202.779 196.519 202.779Z" fill="#0E0E0E"/>
<path d="M189.216 206.014C189.18 206.014 189.143 205.996 189.121 205.96C189.083 205.902 189.095 205.822 189.148 205.779L197.123 199.509C197.176 199.466 197.249 199.481 197.288 199.539C197.325 199.597 197.314 199.677 197.26 199.719L189.286 205.989C189.264 206.006 189.24 206.014 189.216 206.014Z" fill="#0E0E0E"/>
<path d="M154.726 206.71C154.661 206.71 154.61 206.654 154.608 206.583C154.607 206.512 154.659 206.453 154.725 206.453L163.8 206.326H163.801C163.866 206.326 163.918 206.383 163.919 206.454C163.92 206.525 163.868 206.584 163.802 206.584L154.727 206.71C154.726 206.71 154.726 206.71 154.726 206.71Z" fill="#0E0E0E"/>
<path d="M136.729 138.756C136.609 138.756 136.488 138.706 136.396 138.605C136.212 138.404 136.212 138.078 136.396 137.876L143.397 130.218C143.581 130.017 143.879 130.017 144.064 130.218C144.248 130.419 144.248 130.746 144.064 130.948L137.063 138.605C136.971 138.706 136.851 138.756 136.729 138.756Z" fill="#E0E0E0"/>
<path d="M5.99888 161.657C5.87864 161.657 5.75722 161.606 5.66527 161.506C5.48137 161.305 5.48137 160.979 5.66527 160.776L12.6663 153.119C12.8502 152.917 13.1485 152.917 13.3336 153.119C13.5175 153.32 13.5175 153.646 13.3336 153.848L6.33249 161.506C6.24054 161.606 6.11912 161.657 5.99888 161.657Z" fill="#E0E0E0"/>
<path d="M207.236 91.9397C205.596 91.9397 204.262 90.4801 204.262 88.6866C204.262 86.8931 205.596 85.4336 207.236 85.4336C208.876 85.4336 210.21 86.8931 210.21 88.6866C210.21 90.4801 208.877 91.9397 207.236 91.9397ZM207.236 86.4651C206.116 86.4651 205.205 87.4618 205.205 88.6866C205.205 89.9115 206.116 90.9082 207.236 90.9082C208.356 90.9082 209.267 89.9115 209.267 88.6866C209.268 87.4618 208.357 86.4651 207.236 86.4651Z" fill="#E0E0E0"/>
<path d="M10.0884 104.144C8.44869 104.144 7.11426 102.684 7.11426 100.891C7.11426 99.0972 8.44869 97.6377 10.0884 97.6377C11.7282 97.6377 13.0626 99.0972 13.0626 100.891C13.0638 102.686 11.7294 104.144 10.0884 104.144ZM10.0884 98.6692C8.96856 98.6692 8.05732 99.6658 8.05732 100.891C8.05732 102.116 8.96856 103.112 10.0884 103.112C11.2083 103.112 12.1196 102.116 12.1196 100.891C12.1208 99.6658 11.2083 98.6692 10.0884 98.6692Z" fill="#E0E0E0"/>
<path d="M35.8895 80.2535C33.0025 80.2535 30.6543 77.6851 30.6543 74.5275C30.6543 74.2425 30.8653 74.0117 31.1258 74.0117C31.3864 74.0117 31.5974 74.2425 31.5974 74.5275C31.5974 77.1165 33.5236 79.222 35.8895 79.222C36.15 79.222 36.361 79.4528 36.361 79.7377C36.361 80.0227 36.15 80.2535 35.8895 80.2535Z" fill="#E0E0E0"/>
<path d="M176.727 77.191C173.84 77.191 171.49 74.6226 171.49 71.465C171.49 71.18 171.701 70.9492 171.962 70.9492C172.222 70.9492 172.433 71.18 172.433 71.465C172.433 74.054 174.36 76.1595 176.727 76.1595C176.987 76.1595 177.198 76.3903 177.198 76.6752C177.198 76.9602 176.987 77.191 176.727 77.191Z" fill="#E0E0E0"/>
<path d="M78.45 133.813C75.5631 133.813 73.2148 131.245 73.2148 128.087C73.2148 127.802 73.4259 127.571 73.6864 127.571C73.9469 127.571 74.1579 127.802 74.1579 128.087C74.1579 130.676 76.0841 132.782 78.45 132.782C78.7105 132.782 78.9216 133.012 78.9216 133.297C78.9216 133.582 78.7105 133.813 78.45 133.813Z" fill="#E0E0E0"/>
<path d="M195.412 159.8C195.17 159.8 194.965 159.599 194.942 159.33C194.919 159.047 195.111 158.797 195.37 158.771L201.935 158.129L202.522 150.948C202.542 150.699 202.723 150.502 202.95 150.48L209.515 149.838L210.102 142.658C210.122 142.409 210.303 142.212 210.53 142.19L217.488 141.509C217.747 141.483 217.976 141.693 217.999 141.977C218.023 142.261 217.831 142.511 217.571 142.537L211.006 143.179L210.419 150.359C210.399 150.608 210.219 150.804 209.991 150.827L203.426 151.469L202.839 158.65C202.819 158.898 202.639 159.096 202.411 159.118L195.454 159.798C195.44 159.798 195.426 159.8 195.412 159.8Z" fill="#E0E0E0"/>
<path d="M113.183 73.8894C112.942 73.8894 112.736 73.6869 112.714 73.42L112.127 66.2396L105.562 65.5975C105.335 65.5756 105.154 65.3783 105.134 65.1295L104.512 57.5197C104.488 57.2361 104.68 56.9859 104.94 56.9601C105.198 56.9344 105.428 57.1445 105.451 57.4282L106.038 64.6086L112.603 65.2507C112.831 65.2726 113.011 65.4699 113.031 65.7187L113.654 73.3285C113.677 73.6121 113.485 73.8623 113.226 73.8881C113.211 73.8894 113.197 73.8894 113.183 73.8894Z" fill="#E0E0E0"/>
<path d="M215.97 218H0.176825C0.0789817 218 0 217.914 0 217.807C0 217.7 0.0789817 217.613 0.176825 217.613H215.97C216.068 217.613 216.147 217.7 216.147 217.807C216.147 217.914 216.068 218 215.97 218Z" fill="#0E0E0E"/>
</g>
<defs>
<clipPath id="clip0_23_9651">
<rect width="218" height="218" fill="white"/>
</clipPath>
</defs>
</svg>
