<svg width="416" height="543" viewBox="0 0 416 543" fill="none" xmlns="http://www.w3.org/2000/svg">
<mask id="mask0_239_3815" style="mask-type:alpha" maskUnits="userSpaceOnUse" x="0" y="0" width="416" height="543">
<rect width="416" height="543" fill="white"/>
</mask>
<g mask="url(#mask0_239_3815)">
<g opacity="0.19">
<g opacity="0.3">
<path d="M419.691 407.493C416.673 410.072 412.518 410.976 408.553 410.771C404.599 410.559 400.766 409.341 397.014 408.077C388.756 405.308 381.189 402.678 373.31 399.03C370.059 397.524 366.277 395.257 363.209 393.405C362.224 392.815 361.235 392.177 360.554 391.255C359.873 390.333 359.555 389.059 360.039 388.023C360.575 386.862 361.973 386.294 363.259 386.346C364.535 386.396 365.744 386.929 366.918 387.438C376.798 391.696 387.673 394.583 398.299 392.884C401.271 392.413 404.172 391.583 407.128 391.081C410.093 390.581 413.179 390.406 416.069 391.236C418.958 392.065 421.637 394.02 422.772 396.808C424.262 400.478 422.706 404.932 419.689 407.511L419.691 407.493Z" fill="url(#paint0_linear_239_3815)"/>
<path d="M308.359 514.17C308.515 511.085 310.225 508.244 312.463 506.109C314.7 503.983 317.439 502.464 320.17 501.011C326.158 497.818 331.702 494.94 337.983 492.434C340.579 491.398 343.888 490.476 346.572 489.725C347.43 489.489 348.325 489.266 349.208 489.373C350.091 489.479 350.983 489.983 351.316 490.816C351.685 491.747 351.252 492.836 350.545 493.534C349.829 494.231 348.885 494.626 347.97 495.025C340.27 498.341 332.81 502.951 328.088 509.881C326.77 511.816 325.679 513.901 324.379 515.848C323.078 517.795 321.517 519.635 319.506 520.826C317.495 522.017 314.949 522.484 312.769 521.636C309.886 520.514 308.205 517.246 308.361 514.161L308.359 514.17Z" fill="url(#paint1_linear_239_3815)"/>
<path d="M255.012 412.182C257.988 414.484 260.745 397.968 260.079 389.256C259.415 380.535 248.482 381.877 250.238 394.135C251.995 406.394 254.124 411.49 255.021 412.183L255.012 412.182Z" fill="url(#paint2_linear_239_3815)"/>
<path d="M244.447 503.903C253.906 513.6 268.386 518.347 281.625 515.473C292.045 513.22 300.964 506.759 310.184 501.39C323.777 493.474 338.611 487.698 353.983 484.345C368.271 481.22 388.647 486.659 401.217 479.166C409.468 474.256 416.197 466.559 419.075 457.397C422.684 445.927 418.533 431.474 412.523 423.995C400.329 408.817 370.865 407.498 356.12 394.786C344.178 384.487 342.936 369.762 332.042 358.354C322.949 348.833 308.505 344.959 295.771 348.262C283.036 351.565 272.41 361.783 268.226 374.258C265.278 383.063 265.378 392.556 264.006 401.739L263.987 401.897C262.69 410.381 259.086 418.361 253.655 424.998C252.105 426.896 250.583 428.807 249.095 430.74C240.99 441.328 233.954 453.29 232.293 466.514C230.604 479.96 235 494.188 244.459 503.886L244.447 503.903Z" fill="url(#paint3_linear_239_3815)"/>
</g>
<path d="M31.9499 272.752C32.0039 272.373 32.2329 272.177 32.5907 272.058C33.4962 271.765 34.394 271.435 35.295 271.129C35.8251 270.946 36.0971 271.085 36.2817 271.62C37.7005 275.726 39.1207 279.837 40.5481 283.94C40.6712 284.296 40.6512 284.59 40.4231 284.873L36.5993 286.194L31.9527 272.746L31.9499 272.752Z" fill="url(#paint4_linear_239_3815)"/>
<path d="M62.6432 254.978C62.4013 255.46 62.1492 255.942 61.9103 256.433C59.4389 261.513 56.9675 266.594 54.5005 271.673C54.3981 271.884 54.3012 272.068 54.0262 272.046C53.6869 269.868 52.0273 268.598 49.8684 268.881C49.4823 268.932 49.1014 269.069 48.7262 269.193C47.8541 269.485 46.9896 269.798 46.1204 270.084C45.9726 270.135 45.7676 270.133 45.6331 270.068C42.1779 268.401 38.7313 266.717 35.2818 265.04C35.2292 265.014 35.1838 264.981 35.1121 264.943C35.1675 264.821 35.2142 264.703 35.2682 264.592C36.1912 262.702 37.1184 260.811 38.0312 258.919C38.614 257.706 38.2931 256.411 37.2604 255.703C36.7433 255.347 36.2028 255.246 35.6172 255.536C34.845 255.92 34.0495 256.039 33.2219 255.741C32.1608 255.359 31.5026 254.594 31.3117 253.493C31.0947 252.259 31.5049 251.208 32.4938 250.438C34.4631 248.902 36.9216 250.231 37.1963 252.223C37.2673 252.738 37.5839 253.106 38.0632 253.324C39.1913 253.844 40.5158 253.455 41.1716 252.396C41.3502 252.111 41.4864 251.801 41.6358 251.501C42.4734 249.787 43.3067 248.074 44.14 246.361C44.1912 246.256 44.2088 246.138 44.2493 245.987C45.426 246.563 46.5165 247.101 47.6156 247.636C48.4634 248.048 49.314 248.455 50.1545 248.874C50.7364 249.165 50.9807 249.703 50.833 250.289C50.7717 250.534 50.6526 250.682 50.3844 250.75C48.2199 251.313 47.1867 253.095 47.0597 254.642C46.8108 257.681 49.6169 259.96 52.5295 259.071C54.9002 258.344 56.1449 255.696 55.2592 253.273C55.1618 253.005 54.9933 252.757 55.2329 252.465C55.4869 252.159 55.7931 251.975 56.1841 251.966C56.3731 251.964 56.583 252.008 56.7525 252.091C58.6789 253.021 60.6024 253.956 62.5259 254.892C62.5552 254.906 62.5787 254.932 62.6447 254.982L62.6432 254.978Z" fill="url(#paint5_linear_239_3815)"/>
<path d="M41.822 283.729L37.6649 271.697C39.0625 271.068 40.4837 270.747 41.9868 271.254C43.1761 271.655 44.3831 271.812 45.6159 271.537C46.2163 271.403 46.7941 271.189 47.3793 270.996C48.2414 270.718 49.0882 270.381 49.9639 270.157C51.1673 269.853 52.4919 270.66 52.7088 271.752C52.7365 271.888 52.7307 272.027 52.7352 272.166C52.7439 272.431 52.6276 272.573 52.3626 272.665C51.0547 273.116 49.7422 273.555 48.4581 274.062C47.2551 274.536 46.3722 275.43 45.6494 276.477C45.4648 276.745 45.5326 277.096 45.7674 277.297C46.0154 277.508 46.3817 277.499 46.619 277.256C46.7355 277.143 46.8241 277.005 46.9201 276.875C47.5949 275.956 48.4793 275.334 49.5526 274.963C51.3559 274.34 53.1548 273.719 54.9491 273.07C55.3126 272.939 55.6429 272.698 55.9544 272.46C59.1135 270.045 62.2637 267.619 65.417 265.202C66.1739 264.619 67.0679 264.87 67.3011 265.728C67.4134 266.151 67.2616 266.5 66.9976 266.82C65.277 268.893 63.5623 270.969 61.846 273.041C60.6822 274.445 59.5155 275.84 58.3649 277.254C57.7853 277.97 57.0754 278.464 56.2005 278.761C51.5379 280.357 46.8827 281.975 42.2246 283.585L41.8205 283.724L41.822 283.729Z" fill="url(#paint6_linear_239_3815)"/>
<path d="M198.442 154.524C195.781 151.554 194.529 148.259 195.266 144.384C195.815 141.463 197.326 139.129 199.748 137.391C201.498 136.137 203.446 135.465 205.584 135.351C207.749 135.235 209.765 135.733 211.657 136.787C213.533 137.835 214.859 139.427 216.087 141.244C216.464 140.962 216.811 140.702 217.158 140.442C220.056 138.272 223.606 138.776 225.883 141.588C228.74 145.111 231.668 148.591 234.555 152.091C236.834 154.855 239.112 157.618 241.39 160.381C242.525 161.757 243.666 163.128 244.79 164.502C247.157 167.397 246.693 171.192 243.686 173.444C236.284 178.987 228.882 184.53 221.48 190.072C218.997 191.932 215.893 191.86 213.638 189.762C212.834 189.019 212.25 188.036 211.624 187.123C210.038 184.815 208.494 182.487 206.927 180.166C204.838 177.072 202.749 173.977 200.649 170.882C199.082 168.561 197.526 166.241 195.929 163.943C194.128 161.362 194.3 158.279 196.48 156.002C197.012 155.443 197.725 155.051 198.443 154.513L198.442 154.524ZM213.103 143.45C211.285 140.503 208.85 138.672 205.271 139.107C202.189 139.483 200.083 141.25 199.128 144.2C198.115 147.326 199.239 149.931 201.355 152.248L213.109 143.446L213.103 143.45ZM203.555 160.287C204.157 161.077 205.349 161.236 206.127 160.625C206.916 160.005 207.065 158.833 206.458 158.047C205.84 157.26 204.658 157.103 203.88 157.714C203.091 158.334 202.945 159.485 203.555 160.287ZM220.169 147.799C219.569 146.998 218.4 146.832 217.602 147.429C216.805 148.026 216.65 149.203 217.25 150.004C217.836 150.786 219.042 150.963 219.818 150.363C220.617 149.755 220.774 148.595 220.169 147.799Z" fill="url(#paint7_linear_239_3815)"/>
<path d="M300.133 405.063C305.059 405.063 309.986 405.063 314.904 405.063C316.15 405.063 317.346 405.319 318.419 406.004C319.624 406.779 320.449 407.844 320.895 409.197C322.355 413.579 323.865 417.936 325.268 422.334C327.108 428.135 323.717 433.771 317.742 434.827C314.995 435.314 312.453 434.629 310.192 432.962C309.994 432.814 309.804 432.649 309.606 432.492C308.616 431.7 307.683 431.683 306.718 432.475C304.63 434.192 302.229 435.009 299.539 434.86C297.377 434.744 295.446 433.977 293.746 432.624C292.509 431.642 291.741 431.642 290.512 432.624C286.922 435.462 281.889 435.677 278.406 433.144C274.99 430.652 273.662 426.336 275.056 422.095C276.451 417.845 277.87 413.603 279.306 409.37C280.246 406.589 282.408 405.063 285.371 405.055C290.297 405.055 295.223 405.055 300.141 405.055L300.133 405.063Z" fill="url(#paint8_linear_239_3815)"/>
<path d="M278.15 437.962C279.372 438.284 280.486 438.647 281.616 438.862C285.148 439.538 288.449 438.845 291.51 437.013C291.972 436.733 292.294 436.741 292.739 437.013C294.976 438.383 297.435 439.06 300.042 439.076C302.757 439.093 305.315 438.383 307.642 436.955C307.98 436.749 308.228 436.708 308.599 436.931C312.709 439.464 317.024 439.819 321.522 438.086C321.678 438.028 321.827 437.97 322.066 437.88C322.083 438.094 322.116 438.268 322.116 438.441C322.116 443.903 322.132 449.374 322.116 454.837C322.107 457.849 320.267 460.209 317.453 460.861C316.95 460.976 316.422 461.034 315.91 461.042C314.219 461.067 312.527 461.034 310.844 461.059C310.34 461.059 310.2 460.91 310.208 460.415C310.233 457.931 310.225 455.448 310.208 452.964C310.2 449.721 307.518 447.031 304.275 447.023C301.519 447.023 298.771 447.023 296.015 447.023C292.772 447.031 290.082 449.721 290.074 452.956C290.074 455.439 290.058 457.923 290.074 460.407C290.074 460.886 289.959 461.075 289.447 461.059C287.409 461.001 285.362 461.059 283.324 460.919C280.799 460.754 278.497 458.41 278.266 455.901C278.2 455.159 278.159 454.408 278.159 453.657C278.15 448.648 278.159 443.639 278.159 438.639V437.962H278.15Z" fill="url(#paint9_linear_239_3815)"/>
<path d="M294.134 461.043C294.134 458.328 294.118 455.655 294.134 452.981C294.142 451.95 294.992 451.108 296.024 451.1C298.755 451.075 301.495 451.075 304.226 451.1C305.249 451.1 306.107 451.958 306.116 452.981C306.14 455.655 306.116 458.32 306.116 461.043H294.118H294.134Z" fill="url(#paint10_linear_239_3815)"/>
<path d="M241.107 304.354H296.007C295.628 305.688 295.259 306.996 294.889 308.294C292.535 316.464 290.173 324.634 287.837 332.804C287.666 333.399 287.449 333.625 286.791 333.616C274.617 333.589 262.443 333.598 250.26 333.616C249.692 333.616 249.44 333.481 249.277 332.903C246.617 323.597 243.93 314.291 241.252 304.985C241.198 304.795 241.162 304.588 241.107 304.354V304.354ZM287.954 310.422C287.792 310.197 287.621 309.746 287.323 309.62C287.016 309.485 286.529 309.584 286.196 309.746C285.988 309.845 285.862 310.215 285.79 310.495C284.771 314.525 283.77 318.565 282.76 322.596C282.381 324.12 281.994 325.635 281.642 327.168C281.498 327.818 281.813 328.295 282.372 328.422C282.968 328.557 283.418 328.295 283.635 327.673C283.68 327.547 283.707 327.412 283.734 327.276C284.771 323.155 285.808 319.034 286.836 314.913C287.197 313.479 287.539 312.046 287.936 310.431L287.954 310.422ZM250.414 309.485C249.377 309.503 249.034 310.134 249.286 311.144C250.378 315.508 251.46 319.882 252.56 324.247C252.848 325.392 253.128 326.546 253.444 327.682C253.624 328.313 254.12 328.575 254.697 328.431C255.247 328.295 255.527 327.854 255.446 327.231C255.418 327.051 255.373 326.871 255.337 326.699C254.724 324.229 254.111 321.758 253.489 319.287C252.758 316.356 252.028 313.416 251.297 310.486C251.153 309.899 250.865 309.485 250.414 309.485V309.485ZM265.266 327.448C265.013 324.301 264.788 321.469 264.553 318.638C264.337 315.959 264.112 313.29 263.877 310.612C263.814 309.845 263.372 309.44 262.696 309.503C262.065 309.557 261.731 310.008 261.785 310.774C261.83 311.405 261.893 312.046 261.947 312.677C262.353 317.555 262.768 322.425 263.183 327.304C263.246 328.097 263.661 328.512 264.31 328.467C264.95 328.422 265.293 327.953 265.275 327.457L265.266 327.448ZM275.239 311.505C275.302 310.098 275.14 309.701 274.617 309.53C273.842 309.277 273.264 309.8 273.183 310.774C272.931 313.885 272.66 316.987 272.408 320.098C272.209 322.479 272.002 324.86 271.831 327.249C271.777 327.989 272.182 328.458 272.805 328.485C273.427 328.512 273.842 328.088 273.905 327.358C274.058 325.608 274.193 323.859 274.347 322.118C274.662 318.439 274.969 314.769 275.248 311.514L275.239 311.505Z" fill="url(#paint11_linear_239_3815)"/>
<path d="M268.566 295.976C278.801 295.976 289.036 295.976 299.271 295.976C301.571 295.976 303.122 298.113 302.319 300.187C301.823 301.459 300.84 302.108 299.497 302.234C299.362 302.243 299.226 302.234 299.091 302.234C278.738 302.234 258.376 302.234 238.023 302.234C237.176 302.234 236.4 302.054 235.733 301.513C234.705 300.674 234.317 299.285 234.75 298.059C235.201 296.778 236.346 295.967 237.726 295.967C246.022 295.967 254.318 295.967 262.615 295.967C264.598 295.967 266.582 295.967 268.566 295.967V295.976Z" fill="url(#paint12_linear_239_3815)"/>
<path d="M257.015 293.884H256.249C252.966 293.884 249.684 293.875 246.401 293.893C245.932 293.893 245.671 293.749 245.427 293.343C243.507 290.115 241.883 286.76 241.27 283.027C241.054 281.719 241.018 280.339 241.198 279.032C241.505 276.759 243.002 275.885 245.247 276.471C247.393 277.03 249.152 278.292 250.811 279.699C253.119 281.656 255.04 283.965 256.753 286.453C256.88 286.634 257.006 286.859 257.006 287.067C257.024 289.294 257.015 291.53 257.015 293.875V293.884ZM248.015 291.215C248.331 291.134 248.502 291.125 248.629 291.043C250.135 290.069 251.649 289.105 253.119 288.086C253.588 287.761 253.624 287.229 253.273 286.751C252.939 286.291 252.452 286.111 251.956 286.417C250.459 287.355 248.962 288.311 247.528 289.348C247.276 289.528 247.159 290.142 247.249 290.493C247.33 290.8 247.781 291.016 248.006 291.224L248.015 291.215ZM246.942 287.536C247.213 287.49 247.321 287.499 247.384 287.454C248.448 286.769 249.539 286.111 250.558 285.353C250.946 285.065 250.91 284.524 250.612 284.109C250.324 283.703 249.873 283.478 249.422 283.748C248.394 284.361 247.375 285.011 246.419 285.741C246.185 285.921 246.095 286.508 246.203 286.823C246.311 287.139 246.735 287.346 246.933 287.536H246.942Z" fill="url(#paint13_linear_239_3815)"/>
<path d="M289.217 281.358V293.839H275.213V281.358H289.217Z" fill="url(#paint14_linear_239_3815)"/>
<path d="M273.057 293.848H259.143C259.124 293.613 259.106 293.415 259.106 293.216C259.106 289.772 259.106 286.327 259.106 282.891C259.106 281.728 259.539 281.295 260.721 281.295C264.301 281.295 267.881 281.295 271.461 281.295C272.642 281.295 273.057 281.719 273.057 282.909C273.057 286.327 273.057 289.753 273.057 293.171V293.857V293.848ZM261.884 287.797C261.884 290.087 263.778 291.981 266.059 291.99C268.359 292.008 270.306 290.06 270.288 287.77C270.279 285.443 268.368 283.567 266.032 283.594C263.723 283.621 261.866 285.497 261.875 287.797H261.884Z" fill="url(#paint15_linear_239_3815)"/>
<path d="M296.295 293.838H291.372V293.135C291.372 289.149 291.363 285.154 291.39 281.169C291.39 280.79 291.525 280.366 291.723 280.041C292.382 278.986 293.103 277.967 293.851 276.867C294.69 278.112 295.484 279.266 296.259 280.438C296.349 280.573 296.34 280.79 296.34 280.97C296.34 285.1 296.34 289.221 296.34 293.351C296.34 293.505 296.304 293.658 296.286 293.847L296.295 293.838Z" fill="url(#paint16_linear_239_3815)"/>
<path d="M291.841 276.092C291.165 277.084 290.534 278.04 289.876 278.987C289.803 279.095 289.605 279.167 289.47 279.167C285.078 279.176 280.677 279.167 276.124 279.167C276.845 278.094 277.494 277.12 278.162 276.164C278.243 276.056 278.486 276.011 278.648 276.011C282.959 276.011 287.26 276.011 291.571 276.011C291.634 276.011 291.688 276.047 291.841 276.092V276.092Z" fill="url(#paint17_linear_239_3815)"/>
<path d="M289.568 271.24V273.891H281.993V271.24H289.568Z" fill="url(#paint18_linear_239_3815)"/>
<path d="M263.228 279.13V276.966H268.927V279.13H263.228Z" fill="url(#paint19_linear_239_3815)"/>
<path d="M264.003 287.796C263.994 286.624 264.887 285.713 266.051 285.704C267.223 285.704 268.143 286.579 268.179 287.733C268.206 288.896 267.25 289.888 266.087 289.897C264.968 289.897 264.013 288.941 264.003 287.796V287.796Z" fill="url(#paint20_linear_239_3815)"/>
<path d="M359.282 174.924C358.928 174.128 358.322 173.844 357.451 173.857C354.66 173.895 351.862 173.869 349.065 173.869C346.665 173.869 344.866 175.669 344.702 178.056C344.575 179.912 344.304 181.763 344.102 183.619C344.039 184.187 343.975 184.756 343.906 185.362H343.262C332.837 185.362 322.405 185.374 311.98 185.343C310.704 185.343 310.079 186.24 310.275 187.37C311.039 191.67 311.721 195.983 312.441 200.283C312.548 200.927 312.637 201.577 312.795 202.209C313.287 204.185 314.948 205.473 316.981 205.473C325.651 205.473 334.321 205.473 342.997 205.473C343.691 205.473 344.26 205.669 344.575 206.326C345.005 207.223 344.386 208.246 343.363 208.347C343.186 208.366 343.009 208.353 342.839 208.353C335.331 208.353 327.829 208.353 320.321 208.353C317.852 208.353 315.964 210.272 315.983 212.741C315.996 214.876 317.682 216.739 319.81 216.96C321.995 217.193 324.091 215.728 324.483 213.594C324.622 212.849 324.502 212.053 324.502 211.251H333.437C332.957 212.956 333.26 214.478 334.523 215.741C335.445 216.656 336.581 217.035 337.876 216.966C339.896 216.852 342.593 214.756 341.645 211.22C342.182 211.22 342.7 211.22 343.224 211.22C345.27 211.213 347.013 209.868 347.474 207.949C347.941 206.004 347.07 204.053 345.27 203.106C344.96 202.941 344.866 202.771 344.904 202.443C345.15 200.302 345.39 198.168 345.63 196.027C345.87 193.886 346.103 191.746 346.343 189.611C346.583 187.439 346.83 185.267 347.07 183.101C347.246 181.504 347.436 179.9 347.587 178.296C347.682 177.292 348.244 176.73 349.261 176.73C351.989 176.73 354.723 176.705 357.451 176.743C358.322 176.755 358.928 176.471 359.282 175.675V174.911V174.924ZM338.968 195.44C338.968 196.33 338.968 197.227 338.968 198.117C338.968 199.071 338.356 199.746 337.522 199.74C336.701 199.734 336.095 199.064 336.095 198.149C336.095 196.33 336.089 194.512 336.095 192.693C336.095 191.777 336.72 191.114 337.541 191.121C338.362 191.127 338.962 191.796 338.968 192.712C338.968 193.621 338.968 194.53 338.968 195.44ZM327.469 195.452C327.469 194.543 327.469 193.634 327.469 192.725C327.469 191.777 328.101 191.102 328.934 191.121C329.755 191.14 330.342 191.803 330.349 192.731C330.349 194.53 330.349 196.336 330.349 198.136C330.349 199.064 329.755 199.727 328.934 199.746C328.101 199.765 327.476 199.083 327.476 198.136C327.476 197.246 327.476 196.349 327.476 195.459L327.469 195.452ZM321.723 195.383C321.723 196.305 321.723 197.233 321.723 198.155C321.717 199.071 321.104 199.74 320.283 199.74C319.463 199.74 318.85 199.071 318.85 198.155C318.85 196.336 318.844 194.518 318.85 192.699C318.85 191.784 319.469 191.114 320.29 191.114C321.111 191.114 321.717 191.784 321.723 192.699C321.723 193.59 321.723 194.486 321.723 195.377V195.383Z" fill="url(#paint21_linear_239_3815)"/>
<path d="M327.47 182.451C327.47 180.008 327.482 177.595 327.463 175.19C327.463 174.426 326.807 173.87 325.986 173.87C323.062 173.87 320.145 173.87 317.221 173.87C316.312 173.87 315.403 173.857 314.493 173.87C313.748 173.882 313.117 174.463 313.117 175.19C313.098 177.595 313.111 180.008 313.111 182.451H327.476H327.47Z" fill="url(#paint22_linear_239_3815)"/>
<path d="M338.968 182.451C338.968 180.961 338.981 179.509 338.968 178.063C338.962 177.393 338.387 176.768 337.724 176.762C335.287 176.737 332.843 176.749 330.381 176.749V182.451H338.975H338.968Z" fill="url(#paint23_linear_239_3815)"/>
<path d="M163.846 384.146C165.788 375.966 172.91 372.478 179.092 373.592C180.009 373.761 180.918 374.025 181.805 374.327C183.904 375.047 185.983 375.823 188.071 376.575C189.389 377.05 189.58 377.791 188.635 378.796C187.752 379.752 186.844 380.68 185.99 381.655C183.944 383.976 184.336 387.544 187.12 388.852C189.973 390.193 193.016 391.334 196.094 391.95C199.871 392.718 203.217 389.905 204.098 385.962C204.786 382.883 205.588 379.835 206.342 376.77C206.555 375.905 206.768 375.04 206.991 374.098C207.697 374.353 208.355 374.545 208.959 374.834C209.112 374.907 209.191 375.285 209.185 375.525C209.01 379.498 208.808 383.47 208.614 387.445C208.557 388.698 208.492 389.949 208.434 391.255C208.234 391.264 208.052 391.27 207.871 391.276C204.865 391.405 202.364 392.495 200.648 395.07C199.961 396.105 199.687 397.163 200.59 398.242C200.666 398.332 200.655 398.561 200.601 398.685C200.48 398.946 200.303 399.188 200.112 399.495L199.516 399.281C193.316 397.048 187.108 394.812 180.908 392.578C180.543 392.447 180.333 392.308 180.271 391.856C180.081 390.541 179.291 389.673 178.036 389.221C173.543 387.603 169.042 385.981 164.548 384.363L163.85 384.111L163.846 384.146ZM174.565 383.37C173.24 382.892 171.914 382.415 170.596 381.94C169.842 381.668 169.228 381.905 169.01 382.535C168.806 383.125 169.115 383.712 169.837 383.972C172.462 384.926 175.09 385.873 177.721 386.811C178.443 387.072 179.044 386.822 179.262 386.218C179.49 385.583 179.186 385.034 178.416 384.757C177.13 384.293 175.852 383.833 174.565 383.37ZM176.275 381.636C177.276 381.996 178.27 382.372 179.284 382.72C179.972 382.95 180.545 382.68 180.748 382.09C180.963 381.495 180.677 380.943 179.994 380.697C178.01 379.983 176.034 379.244 174.043 378.572C173.717 378.454 173.211 378.514 172.921 378.697C172.195 379.171 172.4 380.195 173.282 380.558C174.268 380.958 175.28 381.286 176.28 381.647L176.275 381.636Z" fill="url(#paint24_linear_239_3815)"/>
<path d="M183.048 372.469C182.823 372.397 182.6 372.343 182.385 372.266C176.947 370.307 171.509 368.349 166.071 366.39C164.833 365.944 164.658 365.558 165.104 364.32C166.565 360.263 168.023 356.214 169.485 352.157L169.73 351.475L172.842 352.596C172.72 352.937 172.584 353.265 172.479 353.604C172.303 354.168 172.546 354.713 173.048 354.939C173.534 355.158 174.134 354.962 174.41 354.443C174.595 354.106 174.715 353.745 174.888 353.341L183.089 356.295C183.003 356.533 182.903 356.811 182.805 357.081C182.558 357.817 182.807 358.472 183.416 358.673C184.009 358.869 184.586 358.538 184.848 357.835C184.939 357.581 185.034 357.319 185.14 357.025L188.204 358.129L183.04 372.466L183.048 372.469Z" fill="url(#paint25_linear_239_3815)"/>
<path d="M214.068 405.894C212.617 409.174 209.193 410.811 205.903 409.76C201.803 408.445 200.055 403.537 202.392 399.912C202.675 399.476 202.924 399.333 203.469 399.538C206.927 400.819 210.396 402.069 213.876 403.287C214.392 403.472 214.533 403.729 214.42 404.218C214.292 404.773 214.188 405.336 214.065 405.902L214.068 405.894Z" fill="url(#paint26_linear_239_3815)"/>
<path d="M166.218 387.323L166.845 387.549C170.275 388.784 173.704 390.019 177.134 391.254C178.134 391.615 178.393 392.165 177.978 393.119C176.497 396.532 172.639 398.03 169.234 396.579C166.192 395.287 164.557 391.487 165.765 388.281C165.88 387.963 166.055 387.676 166.226 387.325L166.218 387.323Z" fill="url(#paint27_linear_239_3815)"/>
<path d="M216.585 401.966L202.208 396.788C202.628 395.72 203.39 394.998 204.319 394.463C206.086 393.44 207.959 393.146 209.91 393.804C211.173 394.232 212.501 394.63 213.621 395.329C215.806 396.708 216.948 398.743 216.71 401.42C216.695 401.585 216.638 401.743 216.585 401.966V401.966Z" fill="url(#paint28_linear_239_3815)"/>
<path d="M170.503 349.332C170.754 348.633 170.976 347.968 171.229 347.315C171.451 346.749 171.983 346.492 172.569 346.632C172.734 346.673 172.887 346.746 173.054 346.806C178.245 348.676 183.445 350.549 188.637 352.42C189.804 352.84 190.005 353.28 189.587 354.465C189.406 354.966 189.226 355.466 189.026 356.021L170.497 349.347L170.503 349.332Z" fill="url(#paint29_linear_239_3815)"/>
<path d="M214.235 369.774L212.77 373.839C212.582 373.789 212.415 373.755 212.264 373.701C210.422 373.038 208.57 372.379 206.731 371.708C205.452 371.248 204.843 370.05 205.259 368.873C205.68 367.679 206.939 367.146 208.241 367.615C210.225 368.33 212.202 369.042 214.235 369.774Z" fill="url(#paint30_linear_239_3815)"/>
<path d="M185.127 373.245C185.411 372.459 185.63 371.775 185.9 371.101C186.14 370.533 186.618 370.302 187.2 370.503C188.471 370.933 189.734 371.388 190.984 371.874C191.73 372.17 192.089 373.017 191.878 373.775C191.654 374.573 190.885 375.112 190.07 374.935C189.388 374.788 188.729 374.524 188.068 374.295C187.104 373.957 186.147 373.603 185.122 373.234L185.127 373.245Z" fill="url(#paint31_linear_239_3815)"/>
<path d="M111.324 197.565C107.445 197.938 104.065 196.433 100.803 194.63C96.4139 192.201 92.572 189.098 89.3843 185.193C82.8486 177.182 85.1871 165.444 93.6112 160.176C101.493 155.243 112.062 157.59 117.018 165.45C117.096 165.576 117.212 165.687 117.307 165.807L119.092 170.092C119.219 170.887 119.377 171.681 119.47 172.484C120.109 177.922 119.47 183.242 117.844 188.444C116.832 191.677 115.556 194.795 112.75 196.978L111.321 197.573L111.324 197.565ZM96.6127 177.115C97.997 180.439 101.837 182.039 105.16 180.668C108.47 179.296 110.077 175.427 108.708 172.11C107.342 168.798 103.47 167.198 100.152 168.567C96.8347 169.936 95.2383 173.8 96.6204 177.119L96.6127 177.115Z" fill="url(#paint32_linear_239_3815)"/>
<path d="M60.8961 152.552C61.0115 152.829 61.1019 153.047 61.1902 153.258C62.7916 157.104 64.3931 160.949 66 164.792C66.4434 165.857 67.1462 166.335 68.1011 166.103C68.5225 165.998 68.9507 165.679 69.2508 165.344C70.5662 163.866 71.8495 162.356 73.1228 160.838C73.3527 160.564 73.57 160.473 73.9266 160.503C75.8803 160.664 77.8327 160.807 79.7882 160.942C81.5469 161.064 82.4151 159.874 81.7397 158.237C80.1558 154.403 78.5525 150.584 76.9578 146.755C76.8606 146.522 76.7633 146.288 76.6502 146.017C76.8575 145.918 77.0082 145.836 77.1712 145.768C80.6689 144.311 84.1665 142.854 87.6642 141.398C88.7396 140.95 89.7076 141.331 90.151 142.395C91.8904 146.572 93.6276 150.743 95.3671 154.919C95.4056 155.012 95.4309 155.103 95.4865 155.252C88.5998 158.12 84.0678 163.092 82.5261 170.439C80.9812 177.794 83.2426 184.111 88.483 189.532L87.8149 189.81C80.9662 192.662 74.1174 195.515 67.2687 198.367C65.938 198.921 65.0687 198.563 64.5168 197.238C59.3165 184.752 54.1139 172.26 48.9136 159.774C48.3752 158.481 48.7388 157.609 50.0368 157.069C53.4422 155.65 56.8476 154.232 60.2529 152.814C60.4485 152.732 60.644 152.651 60.8938 152.547L60.8961 152.552Z" fill="url(#paint33_linear_239_3815)"/>
<path d="M77.4157 157.189C77.184 157.183 76.9939 157.186 76.8102 157.173C75.548 157.081 74.2849 157.002 73.0236 156.896C72.271 156.833 71.6767 157.074 71.1933 157.658C70.3798 158.628 69.5542 159.584 68.7286 160.539C68.605 160.686 68.4692 160.819 68.2958 161L64.2197 151.213L73.3496 147.41L77.4212 157.187L77.4157 157.189Z" fill="url(#paint34_linear_239_3815)"/>
<path d="M99.8963 175.741C99.2594 174.196 99.9697 172.505 101.525 171.863C103.057 171.225 104.779 171.948 105.414 173.488C106.044 175.016 105.324 176.731 103.774 177.37C102.237 178.01 100.53 177.294 99.8963 175.741V175.741Z" fill="url(#paint35_linear_239_3815)"/>
<path d="M115.535 57.1175C115.175 54.7495 115.897 52.7454 117.608 51.1031C119.881 48.9236 123.58 48.726 126.135 50.6287C126.353 50.7895 126.511 50.7165 126.692 50.6177C127.801 49.9987 128.907 49.3762 130.017 48.7514C130.865 48.2765 131.7 47.7843 132.556 47.329C133.237 46.9679 133.969 46.9684 134.712 47.1035C139.799 48.0254 144.888 48.9355 149.976 49.8515C150.244 49.9013 150.516 49.943 150.786 49.9962C151.447 50.122 151.646 50.412 151.521 51.0664C150.79 54.8698 150.059 58.6673 149.326 62.4671C149.173 63.2578 149.022 64.052 148.863 64.8417C148.745 65.4101 148.43 65.6315 147.862 65.5289C142.439 64.5535 137.013 63.5747 131.589 62.5994C130.709 62.4418 130.028 62.005 129.493 61.2909C129.044 60.6896 128.548 60.1214 128.072 59.5389C128.013 59.4677 127.936 59.4084 127.843 59.3248C127.201 60.3196 126.41 61.1213 125.337 61.741C125.25 61.252 125.151 60.8329 125.112 60.4072C125.104 60.2911 125.254 60.1474 125.35 60.0358C125.805 59.4999 126.271 58.9721 126.727 58.4305C126.886 58.2402 126.866 58.0709 126.682 57.862C126.071 57.1641 125.486 56.438 124.9 55.7176C124.057 54.6814 124.034 53.0359 124.839 51.9297C124.909 51.8312 124.981 51.7361 125.053 51.6411C123.822 50.5358 121.388 50.4085 119.576 51.3424C117.774 52.2693 116.599 54.4572 116.832 56.4913C116.963 56.4675 117.093 56.4494 117.22 56.4129C120.147 55.6891 123.138 56.9471 124.603 59.5836C125.106 60.4874 125.135 60.2698 124.218 60.7317C123.477 61.103 122.66 61.2221 121.828 61.1939C121.433 61.1806 121.152 61.3935 121.07 61.7547C121.023 61.9597 121.091 62.2585 121.225 62.41C121.355 62.5546 121.632 62.6182 121.85 62.6315C122.978 62.6847 124.014 62.4256 125.273 61.8104C125.302 61.9122 125.344 62.0104 125.356 62.1089C125.588 64.3416 125.099 66.3437 123.473 67.9779C123.262 68.1886 123.282 68.3881 123.367 68.6448C124.808 72.9937 126.233 77.3485 127.677 81.695C127.808 82.0927 127.794 82.4123 127.605 82.7808C127.247 83.4732 126.934 84.186 126.604 84.8896C126.382 85.3573 126.27 85.3936 125.811 85.1699C125.104 84.8275 124.392 84.4934 123.681 84.1534C123.62 84.0636 123.558 83.9739 123.496 83.8841C123.672 83.4891 123.829 83.0816 124.033 82.6979C124.214 82.3551 124.14 82.1424 123.805 81.9658C123.479 81.7937 123.174 81.5864 122.847 81.4143C122.52 81.248 122.475 81.0198 122.615 80.7054C122.778 80.3443 122.914 79.972 123.075 79.6074C123.199 79.3293 123.129 79.1386 122.867 78.9935C122.51 78.7916 122.162 78.5733 121.804 78.3772C121.536 78.231 121.476 78.0332 121.587 77.7645C121.736 77.3978 121.863 77.0209 122.041 76.6654C122.229 76.2877 122.109 76.0547 121.769 75.8619C121.387 75.6464 121.031 75.3934 120.648 75.1837C120.341 75.0182 120.165 74.7837 120.049 74.4519C119.528 72.9607 118.973 71.478 118.452 69.9867C118.352 69.7 118.2 69.5755 117.909 69.5365C115.121 69.1596 113.275 67.5876 112.438 64.9472C111.605 62.3196 112.274 59.9806 114.22 58.0355C114.601 57.6575 115.103 57.4044 115.549 57.0929C115.691 57.544 115.819 58.0045 115.98 58.453C116.067 58.6981 116.084 58.879 115.919 59.1194C115.257 60.0865 115.392 61.2741 116.218 62.1143C116.969 62.8834 118.235 63.0405 119.164 62.4785C120.229 61.8392 120.67 60.7136 120.293 59.6013C119.938 58.5596 118.869 57.8819 117.754 57.9969C117.61 58.0093 117.464 58.0333 117.291 58.0554L116.898 56.7355L115.542 57.1128L115.535 57.1175ZM142.745 59.5027C142.863 59.2897 142.995 59.1486 143.031 58.9866C143.347 57.419 143.648 55.8458 143.937 54.2762C144.002 53.9268 143.847 53.6571 143.496 53.5376C143.159 53.4237 142.867 53.5171 142.668 53.8113C142.589 53.9321 142.559 54.0892 142.532 54.2348C142.255 55.659 141.982 57.0809 141.711 58.5063C141.688 58.6285 141.628 58.771 141.674 58.8668C141.767 59.0769 141.873 59.3345 142.052 59.4401C142.231 59.5457 142.507 59.4885 142.745 59.5027V59.5027ZM137.368 52.5277C137.256 52.808 137.14 53.0093 137.094 53.2236C136.807 54.6701 136.534 56.1222 136.259 57.5708C136.162 58.0948 136.349 58.4488 136.761 58.5315C137.185 58.6164 137.506 58.3449 137.612 57.8103C137.755 57.0871 137.893 56.3628 138.031 55.6385C138.174 54.885 138.319 54.1351 138.459 53.384C138.52 53.058 138.453 52.7534 138.137 52.6195C137.922 52.5283 137.658 52.5574 137.367 52.5335L137.368 52.5277Z" fill="url(#paint36_linear_239_3815)"/>
<path d="M117.299 59.5686C117.769 59.2464 118.456 59.3741 118.79 59.8458C119.103 60.2864 118.97 60.9816 118.512 61.3061C118.049 61.6294 117.334 61.5055 117.007 61.0442C116.668 60.5656 116.795 59.9146 117.296 59.571L117.299 59.5686Z" fill="url(#paint37_linear_239_3815)"/>
<g opacity="0.3">
<path d="M328.653 61.7464C331.71 61.6762 334.631 63.1596 336.899 65.2124C339.156 67.265 340.852 69.8582 342.476 72.4398C346.057 78.1145 349.295 83.3694 352.222 89.3838C353.43 91.8658 354.583 95.0611 355.514 97.6603C355.814 98.4925 356.094 99.355 356.051 100.237C356.009 101.119 355.579 102.034 354.785 102.417C353.9 102.85 352.789 102.508 352.046 101.851C351.308 101.199 350.846 100.292 350.393 99.4165C346.568 92.0637 341.482 85.0445 334.31 80.8843C332.307 79.7191 330.171 78.8015 328.162 77.6617C326.148 76.5168 324.22 75.1183 322.899 73.2159C321.578 71.3134 320.931 68.842 321.611 66.625C322.508 63.7079 325.605 61.8067 328.663 61.7364L328.653 61.7464Z" fill="url(#paint38_linear_239_3815)"/>
<path d="M447.065 52.2716C445.47 54.0378 443.066 54.9009 440.69 55.086C438.319 55.2661 435.944 54.8389 433.606 54.3767C428.477 53.3672 423.766 52.386 418.795 50.8234C416.741 50.1777 414.317 49.1169 412.348 48.2585C411.721 47.9814 411.078 47.6785 410.603 47.1849C410.128 46.6913 409.841 45.9562 410.047 45.2968C410.28 44.5613 411.069 44.122 411.831 44.0496C412.598 43.9823 413.354 44.2056 414.095 44.4134C420.307 46.183 427.005 47.0637 433.198 45.2256C434.927 44.712 436.594 43.9983 438.318 43.4694C440.043 42.9404 441.871 42.6022 443.652 42.8703C445.432 43.1384 447.18 44.0998 448.068 45.6675C449.243 47.7407 448.655 50.5105 447.06 52.2766L447.065 52.2716Z" fill="url(#paint39_linear_239_3815)"/>
<path d="M429.251 139.137C428.596 136.314 418.908 144.832 415.063 150.357C411.213 155.887 418.392 160.41 423.313 152.236C428.234 144.063 429.444 139.983 429.246 139.132L429.251 139.137Z" fill="url(#paint40_linear_239_3815)"/>
<path d="M480.222 89.523C479.297 79.1275 472.964 69.2428 463.66 64.5121C456.343 60.7828 447.872 60.2975 439.753 59.0126C427.783 57.1198 416.114 53.3448 405.304 47.8612C395.252 42.7694 385.736 29.6005 374.583 27.9526C367.266 26.8664 359.501 28.1852 353.321 32.2534C345.581 37.3433 341.021 47.9933 340.968 55.3856C340.857 70.3845 357.805 85.5194 360.418 100.289C362.533 112.253 356.104 121.648 357.052 133.764C357.845 143.876 364.581 153.222 373.793 157.451C383.004 161.68 394.323 160.755 402.896 155.343C408.943 151.523 413.506 145.807 418.797 140.993L418.885 140.907C423.791 136.474 429.828 133.464 436.303 132.147C438.152 131.768 439.991 131.369 441.821 130.939C451.816 128.565 461.841 124.849 469.272 117.764C476.828 110.558 481.132 99.9234 480.207 89.5279L480.222 89.523Z" fill="url(#paint41_linear_239_3815)"/>
</g>
</g>
</g>
<defs>
<linearGradient id="paint0_linear_239_3815" x1="389.895" y1="408.574" x2="392.353" y2="388.195" gradientUnits="userSpaceOnUse">
<stop stop-color="#04B061"/>
<stop offset="1" stop-color="#22FF98"/>
</linearGradient>
<linearGradient id="paint1_linear_239_3815" x1="327.399" y1="523.597" x2="331.782" y2="487.271" gradientUnits="userSpaceOnUse">
<stop stop-color="#04B061"/>
<stop offset="1" stop-color="#22FF98"/>
</linearGradient>
<linearGradient id="paint2_linear_239_3815" x1="252.844" y1="412.075" x2="256.264" y2="383.728" gradientUnits="userSpaceOnUse">
<stop stop-color="#04B061"/>
<stop offset="1" stop-color="#22FF98"/>
</linearGradient>
<linearGradient id="paint3_linear_239_3815" x1="318.678" y1="522.004" x2="339.312" y2="350.966" gradientUnits="userSpaceOnUse">
<stop stop-color="#04B061"/>
<stop offset="1" stop-color="#22FF98"/>
</linearGradient>
<linearGradient id="paint4_linear_239_3815" x1="33.9182" y1="271.6" x2="38.7089" y2="285.466" gradientUnits="userSpaceOnUse">
<stop stop-color="#04F485"/>
<stop offset="1" stop-color="#0DCB72"/>
</linearGradient>
<linearGradient id="paint5_linear_239_3815" x1="44.0712" y1="246.049" x2="53.1698" y2="272.383" gradientUnits="userSpaceOnUse">
<stop stop-color="#04F485"/>
<stop offset="1" stop-color="#0DCB72"/>
</linearGradient>
<linearGradient id="paint6_linear_239_3815" x1="51.8115" y1="266.764" x2="55.9826" y2="278.836" gradientUnits="userSpaceOnUse">
<stop stop-color="#04F485"/>
<stop offset="1" stop-color="#0DCB72"/>
</linearGradient>
<linearGradient id="paint7_linear_239_3815" x1="199.517" y1="137.561" x2="232.603" y2="181.743" gradientUnits="userSpaceOnUse">
<stop stop-color="#04F485"/>
<stop offset="1" stop-color="#0DCB72"/>
</linearGradient>
<linearGradient id="paint8_linear_239_3815" x1="300.139" y1="405.055" x2="300.139" y2="434.98" gradientUnits="userSpaceOnUse">
<stop stop-color="#04F485"/>
<stop offset="1" stop-color="#0DCB72"/>
</linearGradient>
<linearGradient id="paint9_linear_239_3815" x1="300.137" y1="436.781" x2="300.137" y2="461.06" gradientUnits="userSpaceOnUse">
<stop stop-color="#04F485"/>
<stop offset="1" stop-color="#0DCB72"/>
</linearGradient>
<linearGradient id="paint10_linear_239_3815" x1="300.122" y1="451.081" x2="300.122" y2="461.043" gradientUnits="userSpaceOnUse">
<stop stop-color="#04F485"/>
<stop offset="1" stop-color="#0DCB72"/>
</linearGradient>
<linearGradient id="paint11_linear_239_3815" x1="268.557" y1="304.354" x2="268.557" y2="333.616" gradientUnits="userSpaceOnUse">
<stop stop-color="#04F485"/>
<stop offset="1" stop-color="#0DCB72"/>
</linearGradient>
<linearGradient id="paint12_linear_239_3815" x1="268.554" y1="295.967" x2="268.554" y2="302.238" gradientUnits="userSpaceOnUse">
<stop stop-color="#04F485"/>
<stop offset="1" stop-color="#0DCB72"/>
</linearGradient>
<linearGradient id="paint13_linear_239_3815" x1="249.05" y1="276.294" x2="249.05" y2="293.893" gradientUnits="userSpaceOnUse">
<stop stop-color="#04F485"/>
<stop offset="1" stop-color="#0DCB72"/>
</linearGradient>
<linearGradient id="paint14_linear_239_3815" x1="282.215" y1="281.358" x2="282.215" y2="293.839" gradientUnits="userSpaceOnUse">
<stop stop-color="#04F485"/>
<stop offset="1" stop-color="#0DCB72"/>
</linearGradient>
<linearGradient id="paint15_linear_239_3815" x1="266.082" y1="281.295" x2="266.082" y2="293.857" gradientUnits="userSpaceOnUse">
<stop stop-color="#04F485"/>
<stop offset="1" stop-color="#0DCB72"/>
</linearGradient>
<linearGradient id="paint16_linear_239_3815" x1="293.855" y1="276.867" x2="293.855" y2="293.847" gradientUnits="userSpaceOnUse">
<stop stop-color="#04F485"/>
<stop offset="1" stop-color="#0DCB72"/>
</linearGradient>
<linearGradient id="paint17_linear_239_3815" x1="283.982" y1="276.011" x2="283.982" y2="279.171" gradientUnits="userSpaceOnUse">
<stop stop-color="#04F485"/>
<stop offset="1" stop-color="#0DCB72"/>
</linearGradient>
<linearGradient id="paint18_linear_239_3815" x1="285.781" y1="271.24" x2="285.781" y2="273.891" gradientUnits="userSpaceOnUse">
<stop stop-color="#04F485"/>
<stop offset="1" stop-color="#0DCB72"/>
</linearGradient>
<linearGradient id="paint19_linear_239_3815" x1="266.078" y1="276.966" x2="266.078" y2="279.13" gradientUnits="userSpaceOnUse">
<stop stop-color="#04F485"/>
<stop offset="1" stop-color="#0DCB72"/>
</linearGradient>
<linearGradient id="paint20_linear_239_3815" x1="266.091" y1="285.704" x2="266.091" y2="289.897" gradientUnits="userSpaceOnUse">
<stop stop-color="#04F485"/>
<stop offset="1" stop-color="#0DCB72"/>
</linearGradient>
<linearGradient id="paint21_linear_239_3815" x1="334.761" y1="173.856" x2="334.761" y2="216.984" gradientUnits="userSpaceOnUse">
<stop stop-color="#04F485"/>
<stop offset="1" stop-color="#0DCB72"/>
</linearGradient>
<linearGradient id="paint22_linear_239_3815" x1="320.291" y1="173.864" x2="320.291" y2="182.451" gradientUnits="userSpaceOnUse">
<stop stop-color="#04F485"/>
<stop offset="1" stop-color="#0DCB72"/>
</linearGradient>
<linearGradient id="paint23_linear_239_3815" x1="334.678" y1="176.746" x2="334.678" y2="182.451" gradientUnits="userSpaceOnUse">
<stop stop-color="#04F485"/>
<stop offset="1" stop-color="#0DCB72"/>
</linearGradient>
<linearGradient id="paint24_linear_239_3815" x1="192.826" y1="368.982" x2="183.934" y2="393.668" gradientUnits="userSpaceOnUse">
<stop stop-color="#04F485"/>
<stop offset="1" stop-color="#0DCB72"/>
</linearGradient>
<linearGradient id="paint25_linear_239_3815" x1="178.971" y1="354.803" x2="173.796" y2="369.172" gradientUnits="userSpaceOnUse">
<stop stop-color="#04F485"/>
<stop offset="1" stop-color="#0DCB72"/>
</linearGradient>
<linearGradient id="paint26_linear_239_3815" x1="208.676" y1="401.413" x2="205.695" y2="409.69" gradientUnits="userSpaceOnUse">
<stop stop-color="#04F485"/>
<stop offset="1" stop-color="#0DCB72"/>
</linearGradient>
<linearGradient id="paint27_linear_239_3815" x1="172.302" y1="389.514" x2="169.693" y2="396.757" gradientUnits="userSpaceOnUse">
<stop stop-color="#04F485"/>
<stop offset="1" stop-color="#0DCB72"/>
</linearGradient>
<linearGradient id="paint28_linear_239_3815" x1="211.242" y1="394.253" x2="209.396" y2="399.377" gradientUnits="userSpaceOnUse">
<stop stop-color="#04F485"/>
<stop offset="1" stop-color="#0DCB72"/>
</linearGradient>
<linearGradient id="paint29_linear_239_3815" x1="180.864" y1="349.612" x2="179.758" y2="352.683" gradientUnits="userSpaceOnUse">
<stop stop-color="#04F485"/>
<stop offset="1" stop-color="#0DCB72"/>
</linearGradient>
<linearGradient id="paint30_linear_239_3815" x1="210.118" y1="368.291" x2="208.639" y2="372.399" gradientUnits="userSpaceOnUse">
<stop stop-color="#04F485"/>
<stop offset="1" stop-color="#0DCB72"/>
</linearGradient>
<linearGradient id="paint31_linear_239_3815" x1="189.315" y1="371.245" x2="188.197" y2="374.35" gradientUnits="userSpaceOnUse">
<stop stop-color="#04F485"/>
<stop offset="1" stop-color="#0DCB72"/>
</linearGradient>
<linearGradient id="paint32_linear_239_3815" x1="96.0543" y1="158.91" x2="112.033" y2="197.276" gradientUnits="userSpaceOnUse">
<stop stop-color="#04F485"/>
<stop offset="1" stop-color="#0DCB72"/>
</linearGradient>
<linearGradient id="paint33_linear_239_3815" x1="68.7745" y1="149.265" x2="85.9792" y2="190.575" gradientUnits="userSpaceOnUse">
<stop stop-color="#04F485"/>
<stop offset="1" stop-color="#0DCB72"/>
</linearGradient>
<linearGradient id="paint34_linear_239_3815" x1="68.7847" y1="149.312" x2="72.8608" y2="159.099" gradientUnits="userSpaceOnUse">
<stop stop-color="#04F485"/>
<stop offset="1" stop-color="#0DCB72"/>
</linearGradient>
<linearGradient id="paint35_linear_239_3815" x1="101.512" y1="171.869" x2="103.799" y2="177.36" gradientUnits="userSpaceOnUse">
<stop stop-color="#04F485"/>
<stop offset="1" stop-color="#0DCB72"/>
</linearGradient>
<linearGradient id="paint36_linear_239_3815" x1="123.596" y1="46.8937" x2="142.38" y2="74.2589" gradientUnits="userSpaceOnUse">
<stop stop-color="#04F485"/>
<stop offset="1" stop-color="#0DCB72"/>
</linearGradient>
<linearGradient id="paint37_linear_239_3815" x1="117.298" y1="59.5698" x2="118.497" y2="61.3167" gradientUnits="userSpaceOnUse">
<stop stop-color="#04F485"/>
<stop offset="1" stop-color="#0DCB72"/>
</linearGradient>
<linearGradient id="paint38_linear_239_3815" x1="346.968" y1="75.6098" x2="335.577" y2="86.5792" gradientUnits="userSpaceOnUse">
<stop stop-color="#04B061"/>
<stop offset="1" stop-color="#22FF98"/>
</linearGradient>
<linearGradient id="paint39_linear_239_3815" x1="440.289" y1="37.3722" x2="419.983" y2="56.9257" gradientUnits="userSpaceOnUse">
<stop stop-color="#04B061"/>
<stop offset="1" stop-color="#22FF98"/>
</linearGradient>
<linearGradient id="paint40_linear_239_3815" x1="430.493" y1="140.257" x2="414.648" y2="155.515" gradientUnits="userSpaceOnUse">
<stop stop-color="#04B061"/>
<stop offset="1" stop-color="#22FF98"/>
</linearGradient>
<linearGradient id="paint41_linear_239_3815" x1="444.72" y1="42.5698" x2="349.114" y2="134.635" gradientUnits="userSpaceOnUse">
<stop stop-color="#04B061"/>
<stop offset="1" stop-color="#22FF98"/>
</linearGradient>
</defs>
</svg>
