<svg width="299" height="543" viewBox="0 0 299 543" fill="none" xmlns="http://www.w3.org/2000/svg">
<mask id="mask0_239_3759" style="mask-type:alpha" maskUnits="userSpaceOnUse" x="0" y="0" width="299" height="543">
<rect width="299" height="543" fill="white"/>
</mask>
<g mask="url(#mask0_239_3759)">
<g opacity="0.19">
<path d="M37.6166 586.757C54.9902 590.912 60.5444 561.817 52.0276 546.407C43.5116 530.981 -14.7726 533.029 1.63805 554.736C18.0487 576.443 32.4302 585.509 37.6675 586.76L37.6166 586.757Z" fill="url(#paint0_linear_239_3759)"/>
<path d="M262.523 74.556L262.316 75.3001C259.904 83.973 257.49 92.6542 255.095 101.332C254.952 101.844 254.724 102.057 254.207 102.154C244.306 104.094 234.409 106.054 224.514 108.005C224.288 108.05 224.056 108.083 223.727 108.143L223.914 107.473C226.337 98.7592 228.762 90.0367 231.185 81.3225C231.3 80.9091 231.438 80.6712 231.909 80.5794C241.893 78.6262 251.885 76.6482 261.866 74.6762C262.054 74.6395 262.238 74.6194 262.518 74.5726L262.523 74.556Z" fill="url(#paint1_linear_239_3759)"/>
<path d="M222.194 107.699C221.716 107.272 221.289 106.886 220.862 106.5C213.617 99.9161 206.38 93.3343 199.132 86.7585C198.855 86.5035 198.707 86.3018 198.822 85.8884C201.296 77.0548 203.747 68.206 206.205 59.3678C206.237 59.252 206.288 59.1326 206.349 58.9447C206.551 59.1166 206.721 59.2439 206.869 59.3831C209.415 61.6944 211.959 64.0139 214.518 66.3109C214.853 66.6091 214.942 66.8655 214.812 67.3014C213.962 70.2626 213.153 73.2353 212.328 76.2034L212.109 76.9888C212.953 77.2234 213.745 77.5148 214.561 77.6528C215.71 77.8475 216.423 78.42 216.92 79.4845C217.508 80.7345 218.26 81.9056 219.002 83.2076L221.821 73.0714C221.989 73.1716 222.1 73.2203 222.177 73.2952C224.618 75.5058 227.052 77.7059 229.477 79.939C229.648 80.0934 229.773 80.4756 229.714 80.6906C227.269 89.577 224.79 98.4626 222.32 107.342C222.293 107.441 222.249 107.536 222.186 107.697L222.194 107.699Z" fill="url(#paint2_linear_239_3759)"/>
<path d="M262.042 73.0505C258.198 73.8074 254.466 74.5423 250.724 75.2831C244.372 76.5363 238.02 77.7895 231.672 79.0616C231.142 79.1726 230.808 79.0618 230.42 78.6956C228.145 76.5934 225.845 74.5197 223.558 72.4318C223.415 72.3031 223.283 72.1685 223.064 71.9649C224.251 71.6984 225.355 71.4442 226.457 71.1983C235.251 69.2347 244.053 67.2733 252.843 65.2909C253.271 65.1959 253.56 65.2764 253.869 65.576C256.438 67.9295 259.021 70.2688 261.602 72.6163C261.73 72.7321 261.837 72.8598 262.04 73.0588L262.042 73.0505Z" fill="url(#paint3_linear_239_3759)"/>
<path d="M207.52 57.8714C208.521 57.6686 209.448 57.4723 210.382 57.2865C219.58 55.4709 228.778 53.6553 237.981 51.8232C238.425 51.7328 238.729 51.7907 239.077 52.1101C241.508 54.3538 243.965 56.569 246.483 58.8545C246.275 58.9303 246.125 58.9867 245.972 59.0243C236.208 61.2082 226.451 63.4026 216.683 65.5676C216.444 65.6259 216.074 65.612 215.92 65.4622C213.133 62.9594 210.37 60.4363 207.525 57.8549L207.52 57.8714Z" fill="url(#paint4_linear_239_3759)"/>
<path d="M3.65759 69.2897C-3.61753 69.2897 -10.8927 69.2691 -18.1678 69.3104C-19.2897 69.3104 -20.1982 68.567 -20.15 67.3075C-20.0743 65.4491 -20.1294 63.5839 -20.1294 61.7187C-20.1294 59.1032 -19.2552 56.8112 -17.5277 54.8565C-16.0341 53.1633 -14.4923 51.4977 -12.9713 49.8252C-12.0903 48.8616 -11.0028 48.3936 -9.68816 48.3936C-0.534046 48.4004 8.62008 48.4004 17.7811 48.3936C19.1783 48.3936 20.3208 48.9029 21.1949 49.9835C22.6059 51.7317 24.0307 53.4662 25.4003 55.2419C26.8044 57.059 27.4858 59.1445 27.4858 61.4502C27.4858 63.4669 27.4858 65.4904 27.4858 67.5071C27.4858 68.6152 26.8113 69.2828 25.6894 69.2828C18.3455 69.2828 11.0015 69.2828 3.6507 69.2828L3.65759 69.2897ZM-2.58511 67.6103C-2.58511 67.3763 -2.58511 67.1905 -2.58511 67.0046C-2.58511 64.9536 -2.58511 62.9025 -2.58511 60.8514C-2.58511 60.521 -2.56447 60.1907 -2.52317 59.8672C-2.26163 57.6578 -1.56646 55.5723 -0.754288 53.5212C-0.300024 52.3787 0.195528 51.2568 0.697972 50.073C-0.361979 50.073 -1.38752 50.0661 -2.40618 50.0867C-2.52318 50.0867 -2.66771 50.2381 -2.73654 50.3552C-4.49165 53.2528 -5.60666 56.3776 -5.81315 59.7639C-5.96457 62.2968 -5.90263 64.8365 -5.93016 67.3763C-5.93016 67.4589 -5.89574 67.5346 -5.87509 67.6172H-2.58511V67.6103ZM7.51883 50.073C8.15204 51.6285 8.79214 53.1083 9.36341 54.6156C10.3339 57.1691 10.9327 59.7846 10.795 62.5515C10.7193 64.0588 10.7813 65.573 10.7813 67.0872C10.7813 67.2524 10.795 67.4245 10.8019 67.5897H14.1263C14.1263 66.4747 14.1263 65.4009 14.1263 64.3272C14.1263 62.2624 14.1883 60.1907 13.8304 58.1396C13.3486 55.3727 12.4056 52.7848 10.9465 50.3827C10.8639 50.245 10.6711 50.0936 10.5266 50.0936C9.53548 50.0661 8.54437 50.0798 7.52572 50.0798L7.51883 50.073Z" fill="url(#paint5_linear_239_3759)"/>
<path d="M-15.9517 71.8154H24.1475V72.366C24.1475 77.7071 24.1475 83.0482 24.1475 88.3961C24.1475 91.3626 21.9794 93.5238 19.0061 93.5238C16.0121 93.5238 13.0249 93.5238 9.94831 93.5238C9.94831 93.3242 9.94831 93.1383 9.94831 92.9594C9.94831 90.1237 9.96207 87.288 9.94831 84.4523C9.92766 81.6716 8.15878 79.3521 5.59838 78.6982C1.81972 77.7346 -1.71114 80.4878 -1.74556 84.4454C-1.76621 87.2673 -1.74556 90.0824 -1.74556 92.9043C-1.74556 93.0902 -1.74556 93.2829 -1.74556 93.5031C-1.95204 93.51 -2.12412 93.5306 -2.2893 93.5306C-5.14566 93.5306 -7.99514 93.5306 -10.8515 93.5306C-13.7492 93.5306 -15.9448 91.3488 -15.9448 88.458C-15.9448 83.0826 -15.9448 77.7071 -15.9448 72.3247V71.8223L-15.9517 71.8154Z" fill="url(#paint6_linear_239_3759)"/>
<path d="M44.1364 206.8C39.2221 204.964 34.3048 203.137 29.3935 201.294C26.086 200.05 24.2666 197.038 24.6963 193.598C24.8447 192.429 25.3221 191.392 25.9861 190.433C26.4728 189.733 26.9357 189.023 27.4274 188.334C28.2727 187.155 28.6826 185.841 28.7369 184.393C29.0638 175.081 29.3986 165.771 29.7334 156.461C29.7762 155.262 29.3658 154.649 28.2389 154.219C26.8404 153.697 25.442 153.175 24.0436 152.653C22.574 152.104 21.8425 150.615 22.3332 149.205C22.8563 147.708 24.3803 146.954 25.8874 147.498C28.4324 148.422 30.9686 149.369 33.4959 150.34C34.7334 150.811 35.3566 151.818 35.318 153.199C35.2444 155.71 35.1471 158.213 35.0656 160.721C35.0153 162.206 35.3368 162.695 36.7273 163.214C50.1113 168.212 63.4953 173.211 76.8872 178.212C77.3455 178.383 77.8195 178.56 78.196 178.854C79.4746 179.818 79.6062 181.514 78.5252 182.866C76.1848 185.782 73.8256 188.7 71.4773 191.613C69.1349 194.511 66.7954 197.4 64.4609 200.301C63.3444 201.675 62.3794 201.945 60.6965 201.316C51.8634 198.018 43.0382 194.722 34.2051 191.423C32.775 190.889 32.2106 191.074 31.3437 192.335C30.992 192.843 30.6274 193.337 30.2886 193.859C29.8 194.612 30.0322 195.509 30.8175 195.938C31.0951 196.086 31.4032 196.201 31.6956 196.311C41.5242 199.981 51.3528 203.652 61.1814 207.322C61.6002 207.479 62.0268 207.638 62.3944 207.883C63.4654 208.607 63.8118 210.042 63.2567 211.239C62.6987 212.444 61.4222 213.066 60.1345 212.729C59.8462 212.657 59.5618 212.551 59.2853 212.448C54.2287 210.56 49.1801 208.674 44.1236 206.786L44.1364 206.8Z" fill="url(#paint7_linear_239_3759)"/>
<path d="M25.7417 202.829C28.5831 203.971 29.9585 207.159 28.8024 209.941C27.6051 212.834 24.5201 214.103 21.5602 212.917C18.8185 211.821 17.5644 208.598 18.746 205.699C19.8115 203.063 23.0425 201.74 25.7417 202.829Z" fill="url(#paint8_linear_239_3759)"/>
<path d="M59.5526 221.253C58.5318 224.059 55.4077 225.53 52.6335 224.521C49.733 223.465 48.2422 220.369 49.2798 217.543C50.3498 214.629 53.468 213.174 56.336 214.245C59.1566 215.298 60.5803 218.405 59.5477 221.242L59.5526 221.253Z" fill="url(#paint9_linear_239_3759)"/>
<path d="M157.171 38.918C159.695 41.2165 162.152 43.4535 164.608 45.6906C166.587 47.4925 167.053 50.1551 165.667 52.4107C165.23 53.1168 164.575 53.768 163.873 54.2121C158.396 57.6402 152.885 61.0162 147.38 64.3973C145.218 65.7211 142.726 65.4765 140.854 63.7718C133.096 56.7075 125.332 49.638 117.573 42.5737C115.724 40.8895 115.23 38.416 116.327 36.1837C119.193 30.3483 122.059 24.5128 124.959 18.6973C126.559 15.4824 130.652 14.782 133.322 17.2029C135.683 19.3529 138.039 21.4978 140.4 23.6478L140.799 24.0113C140.957 23.838 141.09 23.6926 141.227 23.5417C142.759 21.8592 144.291 20.1767 145.823 18.4942C149.489 14.4909 155.66 13.8227 160.158 16.9467C165.728 20.8123 166.637 28.5103 162.118 33.4955C160.627 35.1333 159.131 36.7767 157.639 38.4145L157.181 38.9176L157.171 38.918ZM154.459 36.4185C155.737 35.0155 156.979 33.6623 158.205 32.3044C158.831 31.6062 159.468 30.9182 160.015 30.159C162.189 27.1496 161.479 22.566 158.516 20.2975C155.329 17.8564 151.091 18.209 148.397 21.1446C146.885 22.7941 145.384 24.4538 143.882 26.1027C143.77 26.2257 143.68 26.3585 143.569 26.4921L154.464 36.4129L154.459 36.4185ZM151.82 47.0306C152.521 46.2378 152.536 45.2498 151.998 44.5651C151.403 43.8185 150.458 43.6025 149.634 44.1001C146.499 46.0195 143.368 47.944 140.25 49.8894C139.198 50.5473 139.177 52.0615 140.159 52.8232C140.841 53.3514 141.598 53.3557 142.451 52.8245C145.222 51.1144 147.987 49.3991 150.758 47.689C151.158 47.4407 151.565 47.1867 151.809 47.0311L151.82 47.0306ZM135.899 29.9469C135.021 29.1269 133.604 29.3501 133.032 30.4753C131.395 33.7186 129.786 36.9875 128.193 40.2504C127.755 41.1497 128.177 42.1883 129.074 42.6372C129.938 43.066 131.005 42.7186 131.471 41.8342C131.878 41.0597 132.257 40.2703 132.642 39.486C133.833 37.0834 135.034 34.6803 136.218 32.2725C136.653 31.4002 136.518 30.5314 135.899 29.9469V29.9469Z" fill="url(#paint10_linear_239_3759)"/>
<path d="M47.6096 429.285L48.7771 428.322C49.462 428.898 50.1667 429.45 50.8149 430.063C50.9943 430.231 51.0143 430.572 51.126 430.822C51.99 432.784 52.8694 434.742 53.7164 436.715C54.0021 437.381 54.2242 438.07 54.4534 438.762C54.5228 438.966 54.523 439.186 54.5655 439.452C51.8126 439.498 49.4498 440.421 47.4901 442.306C45.529 444.197 44.5095 446.517 44.433 449.334L43.7767 449.203C39.2252 448.297 34.6792 447.363 30.1263 446.501C28.6275 446.217 27.5488 445.518 26.9097 444.122C26.5153 443.266 25.984 442.507 25.0608 442.132C24.7969 442.021 24.5117 441.942 24.2295 441.886C20.9693 441.2 17.7161 440.516 14.4545 439.838C13.5456 439.649 13.2969 439.277 13.4697 438.372C14.3994 433.444 18.092 430.115 22.8923 429.919C23.6472 429.885 24.4205 429.944 25.1699 430.086C28.4922 430.718 31.8131 431.394 35.1297 432.054C35.9271 432.213 36.1349 432.569 36.0354 433.364C35.9429 434.123 35.5877 434.544 34.8485 434.793C33.7398 435.167 32.7441 435.783 31.9038 436.613C30.9917 437.51 30.5115 438.596 30.4138 439.86C30.2953 441.45 31.2052 442.703 32.7972 443.034C35.8965 443.68 39.0042 444.284 42.112 444.888C42.74 445.013 43.2958 444.838 43.7611 444.38C45.0892 443.089 46.4243 441.8 47.7524 440.509C48.1344 440.138 48.3048 439.687 48.3029 439.144C48.2879 436.639 48.3012 434.14 48.2947 431.63C48.2959 431.403 48.2421 431.157 48.1756 430.939C48.0001 430.383 47.8077 429.838 47.6167 429.287L47.6096 429.285Z" fill="url(#paint11_linear_239_3759)"/>
<path d="M40.5495 439.655L36.9718 438.943L39.3346 427.074L38.6783 426.943C36.0603 426.422 33.4464 425.843 30.813 425.399C28.8682 425.071 27.6604 423.547 28.5261 421.188C28.6898 421.213 28.8704 421.227 29.0398 421.261C32.7868 422.007 36.5269 422.751 40.274 423.497C42.2781 423.896 43.3802 425.509 42.9826 427.506C42.2129 431.41 41.4276 435.318 40.6508 439.22C40.6227 439.362 40.5819 439.493 40.5425 439.654L40.5495 439.655Z" fill="url(#paint12_linear_239_3759)"/>
<path d="M46.7934 423.951L46.123 423.817C43.8226 423.359 41.5291 422.866 39.2188 422.457C37.6452 422.181 36.431 421.462 35.7087 420.005C35.6762 419.947 35.6281 419.894 35.5349 419.773L35.2902 420.744L28.8545 419.462C28.8685 419.319 28.867 419.179 28.8937 419.045C29.2449 417.281 29.5961 415.516 29.9486 413.745C30.106 412.955 30.4935 412.335 31.2424 411.963C31.4949 411.837 31.6811 411.823 31.9043 412.066C32.9085 413.139 34.1493 413.613 35.6224 413.51C35.7861 413.499 36.043 413.682 36.1363 413.84C36.9843 415.366 37.8154 416.903 38.6155 418.449C38.8332 418.866 39.117 419.062 39.57 419.145C41.1408 419.436 42.7144 419.749 44.2768 420.082C46.0509 420.457 47.2053 422.213 46.7722 423.946L46.7934 423.951Z" fill="url(#paint13_linear_239_3759)"/>
<path d="M48.2092 450.672C46.2263 450.278 45.8872 449.77 46.2833 447.78C46.952 444.421 49.8394 441.709 53.2665 441.225C56.664 440.742 60.0408 442.463 61.6606 445.493C61.8628 445.878 61.9591 446.242 61.6447 446.605C61.367 446.931 61.0185 446.986 60.612 446.854C56.6881 445.559 52.4363 446.907 50.0108 450.283C49.6261 450.815 49.2876 451.004 48.6947 450.776C48.5451 450.717 48.3772 450.713 48.2149 450.681L48.2092 450.672Z" fill="url(#paint14_linear_239_3759)"/>
<path d="M57.3967 447.967C58.18 448.086 58.9886 448.115 59.7423 448.346C60.5384 448.585 61.2906 448.713 62.1087 448.362C62.3889 449.313 62.3757 450.228 62.1803 451.135C61.6633 453.585 59.657 455.519 57.2036 455.977C54.6979 456.439 52.1697 455.356 50.7793 453.238C50.5306 452.866 50.4979 452.588 50.7487 452.175C51.4588 451.004 52.3257 450.002 53.4906 449.273C53.65 449.173 53.8277 449.091 54.0181 448.982C53.8911 450.578 54.2743 451.417 55.268 451.769C56.2406 452.117 57.2252 451.814 57.7819 451.008C58.3907 450.124 58.2558 449.18 57.401 447.983L57.3967 447.967Z" fill="url(#paint15_linear_239_3759)"/>
<path d="M14.0171 441.445L18.0253 442.243C18.2356 443.914 18.7513 444.567 19.9198 444.741C20.9246 444.889 21.7256 444.366 22.2453 443.193C22.9086 443.325 23.5973 443.404 24.2465 443.606C25.1231 443.884 25.3454 444.757 25.7157 445.476C25.7638 445.566 25.6342 445.775 25.5553 445.914C24.1336 448.264 21.3605 449.48 18.6379 448.748C15.7191 447.969 13.8697 445.466 13.9334 442.566C13.943 442.223 13.9808 441.886 14.0157 441.452L14.0171 441.445Z" fill="url(#paint16_linear_239_3759)"/>
<path d="M40.0303 408.174L35.5776 407.287L34.6968 411.712C33.345 411.722 31.7167 410.319 31.1833 408.724C30.5622 406.869 31.2108 404.789 32.7747 403.604C34.3991 402.372 36.5637 402.334 38.2185 403.492C39.7307 404.556 40.5128 406.524 40.0232 408.172L40.0303 408.174Z" fill="url(#paint17_linear_239_3759)"/>
<path d="M24.952 423.036C24.6626 424.49 24.393 425.881 24.1092 427.27C24.0094 427.771 23.6089 428.051 23.0995 427.957C20.655 427.485 18.2064 426.997 15.7676 426.497C15.3301 426.41 15.0038 426.096 15.0867 425.643C15.3408 424.182 15.6527 422.725 15.9477 421.243L24.9591 423.037L24.952 423.036Z" fill="url(#paint18_linear_239_3759)"/>
<path d="M54.5181 425.98C54.3579 426.785 54.1978 427.589 54.0391 428.386C53.9267 428.951 53.6757 429.106 53.1055 429.022C51.7592 428.82 50.6791 428.238 50.1333 426.927C49.6567 425.783 49.7898 424.672 50.5509 423.686C51.3528 422.643 52.4362 422.25 53.7303 422.419C55.0738 422.599 55.1643 422.734 54.9016 424.054C54.7737 424.696 54.6459 425.338 54.5181 425.98V425.98Z" fill="url(#paint19_linear_239_3759)"/>
<path d="M31.77 427.262C33.1389 427.534 34.515 427.808 35.884 428.081C36.7237 428.248 37.156 428.804 37.0141 429.516C36.8723 430.229 36.2531 430.575 35.4134 430.408C32.6542 429.859 29.888 429.308 27.1288 428.759C26.2891 428.592 25.8582 428.029 26.0001 427.316C26.1406 426.611 26.7597 426.265 27.5995 426.432C28.9896 426.708 30.3798 426.985 31.77 427.262V427.262Z" fill="url(#paint20_linear_239_3759)"/>
<path d="M25.2866 421.357L16.2752 419.563C16.3848 419.013 16.4563 418.47 16.6096 417.957C16.7419 417.514 17.1411 417.351 17.5715 417.437C20.0159 417.909 22.4575 418.395 24.8963 418.895C25.4397 419.003 25.6659 419.415 25.5647 419.96C25.4833 420.406 25.3877 420.849 25.2866 421.357V421.357Z" fill="url(#paint21_linear_239_3759)"/>
<path d="M35.7903 441.891L36.237 439.647C36.7522 439.749 37.2461 439.848 37.7401 439.946C38.6151 440.12 39.493 440.28 40.3581 440.467C41.6566 440.762 42.3321 441.902 41.924 443.105L35.7917 441.884L35.7903 441.891Z" fill="url(#paint22_linear_239_3759)"/>
<path d="M12.4529 435.778C11.9236 435.599 11.7737 435.247 11.8523 434.815C12.0503 433.71 12.2638 432.601 12.5112 431.505C12.6334 430.965 12.9959 430.765 13.528 430.857C14.1447 430.965 14.7558 431.101 15.4827 431.246C14.0968 432.569 13.1075 434.038 12.4459 435.777L12.4529 435.778Z" fill="url(#paint23_linear_239_3759)"/>
<path d="M46.3922 418.449L47.2997 413.89C47.9799 413.974 48.4318 414.358 48.6468 414.936C49.04 415.983 48.7827 416.981 48.1725 417.872C47.7793 418.446 47.0979 418.626 46.3908 418.456L46.3922 418.449Z" fill="url(#paint24_linear_239_3759)"/>
<path d="M46.5816 425.089C47.3367 425.24 47.8397 425.956 47.6992 426.698C47.5517 427.439 46.824 427.925 46.069 427.775C45.3069 427.623 44.8335 426.906 44.9909 426.152C45.1525 425.414 45.8378 424.956 46.5802 425.096L46.5816 425.089Z" fill="url(#paint25_linear_239_3759)"/>
<path d="M39.4745 409.787C39.1371 411.187 37.8256 412.063 36.4256 411.836L36.9341 409.281L39.4745 409.787Z" fill="url(#paint26_linear_239_3759)"/>
<path d="M49.0854 419.367L49.9184 418.351C50.4017 419.13 50.868 419.883 51.3188 420.64C51.4517 420.857 51.425 421.028 51.15 421.157C50.7536 421.342 50.3912 421.578 49.9286 421.838C50.327 420.758 49.3726 420.209 49.0854 419.367Z" fill="url(#paint27_linear_239_3759)"/>
<path d="M55.7593 428.369L56.5938 424.178C57.2151 424.668 57.4103 425.272 57.2995 425.976C57.1466 426.966 57.005 427.972 55.7593 428.369Z" fill="url(#paint28_linear_239_3759)"/>
<path d="M-8.26072 302.186C-7.85216 301.09 -7.06395 300.658 -5.90144 300.604C-2.26201 300.425 1.3726 300.169 5.00802 299.927C6.33432 299.843 7.11069 298.921 6.94797 297.657C6.82234 296.677 6.17189 296.164 5.03356 296.198C4.06697 296.227 3.10994 296.307 2.14535 296.368C-0.101107 296.51 -2.34757 296.652 -4.59403 296.794C-5.83149 296.872 -6.72644 296.119 -6.78635 294.97C-6.84385 293.859 -6.04877 293.031 -4.84345 292.949C-4.13905 292.904 -3.441 292.86 -2.66679 292.811C-2.75504 291.415 -2.83967 290.076 -2.92431 288.737C-3.00653 287.436 -2.28167 286.607 -0.993442 286.525C10.4102 285.804 21.8139 285.083 33.2175 284.363L33.7886 284.327L33.8356 285.069C34.0562 288.559 34.2764 292.043 34.497 295.533C34.5933 297.057 35.4025 297.764 36.9319 297.667C41.685 297.366 46.4317 297.066 51.1848 296.766C53.958 296.591 56.6056 298.258 57.422 300.691C57.5873 301.191 57.6916 301.732 57.7313 302.258C57.9938 306.109 58.2309 309.962 58.468 313.814C58.5499 315.109 57.8183 315.932 56.5237 316.014C55.4766 316.08 54.4295 316.146 53.5347 316.203C53.0556 317.291 52.7474 318.361 52.1538 319.253C50.4782 321.773 48.046 322.908 45.0396 322.519C42.0911 322.138 40.0913 320.436 39.0176 317.662C38.8952 317.338 38.8241 317.12 38.3799 317.148C32.1113 317.563 25.8411 317.953 19.5713 318.35C19.5078 318.354 19.4452 318.37 19.3698 318.388C18.467 322.147 16.2288 324.537 12.2507 324.699C8.46326 324.856 6.05778 322.784 4.76583 319.279C3.54107 319.356 2.32265 319.433 1.10423 319.51C-0.183996 319.592 -1.00754 318.86 -1.08976 317.559C-1.20609 315.719 -1.32241 313.879 -1.44515 311.937L-2.97452 312.034C-3.7043 312.08 -4.43689 312.081 -5.15672 312.184C-6.31835 312.353 -7.15911 311.954 -7.70244 310.918L-7.76742 309.89C-7.35887 308.794 -6.57105 308.355 -5.40814 308.307C-2.98673 308.212 -0.577684 308.021 1.84012 307.868C4.98136 307.67 8.12934 307.477 11.2702 307.272C12.4569 307.197 13.2733 306.305 13.2047 305.219C13.1365 304.141 12.2154 303.377 11.0267 303.42C10.8554 303.431 10.684 303.442 10.5127 303.453C5.12498 303.793 -0.264322 304.108 -5.64921 304.493C-6.81012 304.573 -7.64606 304.25 -8.18899 303.22L-8.25397 302.192L-8.26072 302.186ZM11.7535 313.81C9.79978 313.947 8.291 315.679 8.43792 317.601C8.58404 319.509 10.289 320.981 12.2123 320.866C14.1033 320.747 15.6189 319.02 15.4918 317.11C15.3711 315.2 13.6438 313.678 11.7472 313.811L11.7535 313.81ZM46.2519 318.715C48.1493 318.595 49.6513 316.856 49.5242 314.946C49.3904 313.031 47.6636 311.515 45.7741 311.66C43.8461 311.801 42.3536 313.488 42.468 315.399C42.5836 317.328 44.3104 318.844 46.2582 318.714L46.2519 318.715Z" fill="url(#paint29_linear_239_3759)"/>
<path d="M38.2779 293.664L37.6987 284.5C43.0491 285.181 46.1121 288.785 48.8058 292.998L38.2779 293.664Z" fill="url(#paint30_linear_239_3759)"/>
<path d="M95.0231 507.068C95.3493 506.141 95.6022 505.189 96.0035 504.299C98.2451 499.293 100.541 494.318 102.773 489.314C103.413 487.888 104.411 487.099 105.945 486.837C115.956 485.079 125.955 483.303 135.96 481.507C137.254 481.277 138.35 481.536 139.405 482.335C144.482 486.169 149.584 489.979 154.695 493.778C155.044 494.032 155.495 494.198 155.922 494.28C160.392 495.134 164.866 495.957 169.343 496.8C174.185 497.706 177.005 500.708 178.021 505.549C178.778 509.144 177.049 510.517 174.322 510.804C172.945 510.949 171.589 511.269 170.418 511.477C169.92 513.036 169.618 514.54 168.974 515.887C166.126 521.898 157.801 523.376 153.077 518.71C152.148 517.79 151.458 516.61 150.722 515.507C150.494 515.163 150.323 515.026 149.913 515.099C141.353 516.629 132.789 518.139 124.229 519.669C124.152 519.683 124.081 519.725 124.229 519.669C123.714 521.25 123.403 522.756 122.768 524.102C119.965 530.036 111.695 531.544 106.982 526.994C106.058 526.103 105.355 524.965 104.642 523.878C104.333 523.41 104.119 523.142 103.533 523.325C103.077 523.465 102.588 523.473 102.119 523.596C100.183 524.078 98.6521 523.58 97.6292 521.798L95.0119 507.06L95.0231 507.068ZM123.882 499.151L145.716 495.274C145.627 495.161 145.596 495.097 145.538 495.049C142.563 492.824 139.604 490.587 136.603 488.387C136.355 488.205 135.9 488.187 135.576 488.244C131.425 488.962 127.287 489.696 123.141 490.443C122.884 490.488 122.641 490.561 122.367 490.619L123.881 499.141L123.882 499.151ZM117.375 500.306L115.853 491.737C113.361 492.179 110.923 492.602 108.493 493.063C108.274 493.102 108.055 493.417 107.952 493.663C106.662 496.457 105.402 499.256 104.133 502.056C104.048 502.239 103.985 502.437 103.885 502.702L117.375 500.306V500.306ZM160.528 514.911C162.545 514.552 163.896 512.655 163.574 510.621C163.252 508.586 161.288 507.199 159.231 507.554C157.205 507.914 155.855 509.821 156.195 511.842C156.53 513.894 158.482 515.274 160.537 514.909L160.528 514.911ZM114.406 523.101C116.442 522.739 117.795 520.851 117.455 518.83C117.104 516.742 115.215 515.39 113.149 515.747C111.074 516.106 109.745 518.019 110.123 520.093C110.496 522.138 112.38 523.461 114.416 523.099L114.406 523.101Z" fill="url(#paint31_linear_239_3759)"/>
<g opacity="0.3">
<path d="M148.096 392.018C144.211 395.338 138.862 396.503 133.758 396.239C128.667 395.965 123.733 394.398 118.902 392.771C108.272 389.205 98.5298 385.82 88.3877 381.123C84.2021 379.185 79.3334 376.266 75.3836 373.883C74.1154 373.123 72.8426 372.301 71.9658 371.115C71.0891 369.928 70.6799 368.288 71.3022 366.954C71.9925 365.459 73.7926 364.728 75.448 364.795C77.0914 364.859 78.6478 365.545 80.1591 366.201C92.8777 371.682 106.878 375.399 120.558 373.212C124.383 372.605 128.117 371.537 131.923 370.891C135.74 370.246 139.713 370.021 143.433 371.089C147.153 372.158 150.601 374.675 152.062 378.263C153.981 382.988 151.978 388.722 148.093 392.042L148.096 392.018Z" fill="url(#paint32_linear_239_3759)"/>
<path d="M4.77234 529.35C4.97219 525.379 7.17387 521.722 10.0552 518.972C12.9351 516.235 16.4613 514.28 19.9773 512.409C27.6852 508.299 34.8221 504.594 42.9089 501.367C46.2509 500.034 50.5099 498.847 53.9655 497.88C55.0706 497.576 56.2222 497.29 57.3591 497.427C58.4959 497.564 59.644 498.213 60.0732 499.285C60.5478 500.483 59.9901 501.886 59.0804 502.784C58.1587 503.681 56.9439 504.19 55.7649 504.704C45.8524 508.973 36.2491 514.906 30.1705 523.828C28.4737 526.319 27.0693 529.004 25.395 531.51C23.7206 534.016 21.7108 536.385 19.1218 537.918C16.5328 539.452 13.255 540.052 10.4485 538.961C6.73741 537.517 4.57394 533.309 4.77379 529.338L4.77234 529.35Z" fill="url(#paint33_linear_239_3759)"/>
<path d="M-77.5059 516.133C-65.3286 528.617 -46.6881 534.728 -29.6444 531.028C-16.2304 528.128 -4.74891 519.81 7.12138 512.899C24.6203 502.707 43.7173 495.272 63.5065 490.955C81.9004 486.932 108.131 493.934 124.314 484.288C134.935 477.967 143.597 468.058 147.303 456.264C151.949 441.498 146.606 422.892 138.868 413.263C123.171 393.723 85.2392 392.026 66.2574 375.66C50.8832 362.402 49.2848 343.446 35.2606 328.76C23.5537 316.503 4.95984 311.515 -11.4341 315.767C-27.828 320.02 -41.5077 333.173 -46.8935 349.234C-50.6891 360.568 -50.5607 372.789 -52.3268 384.611L-52.3514 384.815C-54.0212 395.737 -58.6601 406.011 -65.6523 414.555C-67.6468 416.998 -69.6069 419.458 -71.522 421.947C-81.9567 435.577 -91.0143 450.976 -93.153 468C-95.3263 485.311 -89.6683 503.627 -77.491 516.111L-77.5059 516.133Z" fill="url(#paint34_linear_239_3759)"/>
</g>
</g>
</g>
<defs>
<linearGradient id="paint0_linear_239_3759" x1="54.8081" y1="587.789" x2="-9.79782" y2="552.799" gradientUnits="userSpaceOnUse">
<stop stop-color="#CFFFE9"/>
<stop offset="0.328125" stop-color="#A3F0CC" stop-opacity="0.67"/>
<stop offset="0.796875" stop-color="#AEFCD8" stop-opacity="0.15"/>
<stop offset="1" stop-color="white"/>
</linearGradient>
<linearGradient id="paint1_linear_239_3759" x1="248.86" y1="70.7569" x2="237.406" y2="111.947" gradientUnits="userSpaceOnUse">
<stop stop-color="#04F485"/>
<stop offset="1" stop-color="#0DCB72"/>
</linearGradient>
<linearGradient id="paint2_linear_239_3759" x1="219.992" y1="62.7383" x2="208.545" y2="103.903" gradientUnits="userSpaceOnUse">
<stop stop-color="#04F485"/>
<stop offset="1" stop-color="#0DCB72"/>
</linearGradient>
<linearGradient id="paint3_linear_239_3759" x1="245.196" y1="63.004" x2="240.033" y2="81.5715" gradientUnits="userSpaceOnUse">
<stop stop-color="#04F485"/>
<stop offset="1" stop-color="#0DCB72"/>
</linearGradient>
<linearGradient id="paint4_linear_239_3759" x1="229.522" y1="49.298" x2="224.361" y2="67.8573" gradientUnits="userSpaceOnUse">
<stop stop-color="#04F485"/>
<stop offset="1" stop-color="#0DCB72"/>
</linearGradient>
<linearGradient id="paint5_linear_239_3759" x1="3.66698" y1="48.3936" x2="3.66698" y2="69.3104" gradientUnits="userSpaceOnUse">
<stop stop-color="#04F485"/>
<stop offset="1" stop-color="#0DCB72"/>
</linearGradient>
<linearGradient id="paint6_linear_239_3759" x1="4.09793" y1="71.8154" x2="4.09793" y2="93.5306" gradientUnits="userSpaceOnUse">
<stop stop-color="#04F485"/>
<stop offset="1" stop-color="#0DCB72"/>
</linearGradient>
<linearGradient id="paint7_linear_239_3759" x1="53.5907" y1="157.824" x2="36.3808" y2="203.907" gradientUnits="userSpaceOnUse">
<stop stop-color="#04F485"/>
<stop offset="1" stop-color="#0DCB72"/>
</linearGradient>
<linearGradient id="paint8_linear_239_3759" x1="25.6519" y1="202.793" x2="21.8325" y2="213.02" gradientUnits="userSpaceOnUse">
<stop stop-color="#04F485"/>
<stop offset="1" stop-color="#0DCB72"/>
</linearGradient>
<linearGradient id="paint9_linear_239_3759" x1="56.34" y1="214.246" x2="52.5189" y2="224.478" gradientUnits="userSpaceOnUse">
<stop stop-color="#04F485"/>
<stop offset="1" stop-color="#0DCB72"/>
</linearGradient>
<linearGradient id="paint10_linear_239_3759" x1="161.328" y1="17.8745" x2="129.199" y2="53.1598" gradientUnits="userSpaceOnUse">
<stop stop-color="#04F485"/>
<stop offset="1" stop-color="#0DCB72"/>
</linearGradient>
<linearGradient id="paint11_linear_239_3759" x1="36.6076" y1="425.899" x2="32.4158" y2="446.957" gradientUnits="userSpaceOnUse">
<stop stop-color="#04F485"/>
<stop offset="1" stop-color="#0DCB72"/>
</linearGradient>
<linearGradient id="paint12_linear_239_3759" x1="36.0604" y1="422.658" x2="32.9771" y2="438.148" gradientUnits="userSpaceOnUse">
<stop stop-color="#04F485"/>
<stop offset="1" stop-color="#0DCB72"/>
</linearGradient>
<linearGradient id="paint13_linear_239_3759" x1="39.4475" y1="413.44" x2="37.7118" y2="422.159" gradientUnits="userSpaceOnUse">
<stop stop-color="#04F485"/>
<stop offset="1" stop-color="#0DCB72"/>
</linearGradient>
<linearGradient id="paint14_linear_239_3759" x1="55.2254" y1="441.148" x2="53.1281" y2="451.684" gradientUnits="userSpaceOnUse">
<stop stop-color="#04F485"/>
<stop offset="1" stop-color="#0DCB72"/>
</linearGradient>
<linearGradient id="paint15_linear_239_3759" x1="57.2702" y1="447.399" x2="55.5375" y2="456.104" gradientUnits="userSpaceOnUse">
<stop stop-color="#04F485"/>
<stop offset="1" stop-color="#0DCB72"/>
</linearGradient>
<linearGradient id="paint16_linear_239_3759" x1="20.0407" y1="442.644" x2="18.8159" y2="448.797" gradientUnits="userSpaceOnUse">
<stop stop-color="#04F485"/>
<stop offset="1" stop-color="#0DCB72"/>
</linearGradient>
<linearGradient id="paint17_linear_239_3759" x1="36.4433" y1="402.734" x2="34.6493" y2="411.746" gradientUnits="userSpaceOnUse">
<stop stop-color="#04F485"/>
<stop offset="1" stop-color="#0DCB72"/>
</linearGradient>
<linearGradient id="paint18_linear_239_3759" x1="20.4502" y1="422.14" x2="19.4353" y2="427.238" gradientUnits="userSpaceOnUse">
<stop stop-color="#04F485"/>
<stop offset="1" stop-color="#0DCB72"/>
</linearGradient>
<linearGradient id="paint19_linear_239_3759" x1="52.8688" y1="422.226" x2="51.575" y2="428.725" gradientUnits="userSpaceOnUse">
<stop stop-color="#04F485"/>
<stop offset="1" stop-color="#0DCB72"/>
</linearGradient>
<linearGradient id="paint20_linear_239_3759" x1="31.7382" y1="427.256" x2="31.2746" y2="429.584" gradientUnits="userSpaceOnUse">
<stop stop-color="#04F485"/>
<stop offset="1" stop-color="#0DCB72"/>
</linearGradient>
<linearGradient id="paint21_linear_239_3759" x1="21.235" y1="418.155" x2="20.7764" y2="420.459" gradientUnits="userSpaceOnUse">
<stop stop-color="#04F485"/>
<stop offset="1" stop-color="#0DCB72"/>
</linearGradient>
<linearGradient id="paint22_linear_239_3759" x1="39.3141" y1="440.253" x2="38.8662" y2="442.503" gradientUnits="userSpaceOnUse">
<stop stop-color="#04F485"/>
<stop offset="1" stop-color="#0DCB72"/>
</linearGradient>
<linearGradient id="paint23_linear_239_3759" x1="14.0703" y1="430.958" x2="13.0858" y2="435.904" gradientUnits="userSpaceOnUse">
<stop stop-color="#04F485"/>
<stop offset="1" stop-color="#0DCB72"/>
</linearGradient>
<linearGradient id="paint24_linear_239_3759" x1="48.2619" y1="414.076" x2="47.3516" y2="418.649" gradientUnits="userSpaceOnUse">
<stop stop-color="#04F485"/>
<stop offset="1" stop-color="#0DCB72"/>
</linearGradient>
<linearGradient id="paint25_linear_239_3759" x1="46.6098" y1="425.095" x2="46.076" y2="427.776" gradientUnits="userSpaceOnUse">
<stop stop-color="#04F485"/>
<stop offset="1" stop-color="#0DCB72"/>
</linearGradient>
<linearGradient id="paint26_linear_239_3759" x1="38.2043" y1="409.534" x2="37.6958" y2="412.089" gradientUnits="userSpaceOnUse">
<stop stop-color="#04F485"/>
<stop offset="1" stop-color="#0DCB72"/>
</linearGradient>
<linearGradient id="paint27_linear_239_3759" x1="50.5689" y1="418.481" x2="49.9016" y2="421.833" gradientUnits="userSpaceOnUse">
<stop stop-color="#04F485"/>
<stop offset="1" stop-color="#0DCB72"/>
</linearGradient>
<linearGradient id="paint28_linear_239_3759" x1="57.1141" y1="424.281" x2="56.2797" y2="428.473" gradientUnits="userSpaceOnUse">
<stop stop-color="#04F485"/>
<stop offset="1" stop-color="#0DCB72"/>
</linearGradient>
<linearGradient id="paint29_linear_239_3759" x1="23.651" y1="284.967" x2="26.1104" y2="323.877" gradientUnits="userSpaceOnUse">
<stop stop-color="#04F485"/>
<stop offset="1" stop-color="#0DCB72"/>
</linearGradient>
<linearGradient id="paint30_linear_239_3759" x1="42.9627" y1="284.167" x2="43.5419" y2="293.331" gradientUnits="userSpaceOnUse">
<stop stop-color="#04F485"/>
<stop offset="1" stop-color="#0DCB72"/>
</linearGradient>
<linearGradient id="paint31_linear_239_3759" x1="132.233" y1="482.168" x2="139.872" y2="525.184" gradientUnits="userSpaceOnUse">
<stop stop-color="#04F485"/>
<stop offset="1" stop-color="#0DCB72"/>
</linearGradient>
<linearGradient id="paint32_linear_239_3759" x1="109.738" y1="393.41" x2="112.903" y2="367.175" gradientUnits="userSpaceOnUse">
<stop stop-color="#04B061"/>
<stop offset="1" stop-color="#22FF98"/>
</linearGradient>
<linearGradient id="paint33_linear_239_3759" x1="29.2834" y1="541.486" x2="34.9251" y2="494.721" gradientUnits="userSpaceOnUse">
<stop stop-color="#04B061"/>
<stop offset="1" stop-color="#22FF98"/>
</linearGradient>
<linearGradient id="paint34_linear_239_3759" x1="18.0562" y1="539.436" x2="44.6192" y2="319.248" gradientUnits="userSpaceOnUse">
<stop stop-color="#04B061"/>
<stop offset="1" stop-color="#22FF98"/>
</linearGradient>
</defs>
</svg>
