<svg width="175" height="175" viewBox="0 0 175 175" fill="none" xmlns="http://www.w3.org/2000/svg">
<g id="Messenger-pana 1">
<g id="freepik--background-complete--inject-65">
<path id="Vector" d="M139.129 162.289C129.976 158.663 125.776 148.902 123.918 139.676C123.606 138.136 123.057 136.564 123.466 135.052C123.876 133.54 125.353 132.221 126.872 132.539C128.135 132.805 128.944 134.006 129.836 134.947C131.03 136.202 132.554 137.094 134.232 137.52C135.324 137.796 136.602 137.817 137.435 137.061C138.583 136.011 138.306 134.163 137.935 132.644L135.867 124.16C135.496 122.645 135.125 121.094 135.254 119.537C135.384 117.979 136.112 116.387 137.463 115.648C138.814 114.91 140.795 115.298 141.453 116.726C141.729 117.314 141.754 117.986 141.946 118.606C142.139 119.225 142.597 119.855 143.238 119.89C143.878 119.925 144.393 119.348 144.743 118.795C145.947 116.891 146.542 114.661 147.07 112.46C147.599 110.258 148.089 108.015 149.114 106.006C150.14 103.997 151.795 102.201 153.941 101.561C156.086 100.92 158.725 101.715 159.782 103.72C160.839 105.726 160.108 108.204 159.159 110.258C157.751 113.307 155.91 116.136 153.692 118.658C153.297 119.11 152.863 119.6 152.814 120.209C152.723 121.297 153.923 122.078 155.001 122.172C156.223 122.281 157.427 121.871 158.645 121.731C159.863 121.591 161.27 121.808 161.984 122.82C162.974 124.22 162.061 126.162 161.035 127.531C158.982 130.273 156.47 132.641 153.612 134.531C152.593 135.203 151.512 135.843 150.784 136.841C150.056 137.838 149.849 139.336 150.647 140.278C151.445 141.219 152.926 141.23 154.046 140.736C155.166 140.243 156.062 139.357 157.08 138.671C158.981 137.387 161.711 136.89 163.478 138.377C164.637 139.357 165.109 140.988 164.997 142.511C164.885 144.033 164.276 145.461 163.597 146.812C161.168 151.548 157.633 155.748 153.188 158.548C148.743 161.348 144.361 162.895 139.129 162.279" fill="#F5F5F5"/>
<path id="Vector_2" d="M140.13 155.99C140.467 150.643 141.111 145.32 142.058 140.047C142.291 138.647 142.532 137.262 142.779 135.893C143.017 134.531 143.255 133.18 143.57 131.871C144.176 129.362 144.922 126.888 145.803 124.462C146.626 122.141 147.494 119.968 148.32 117.941C149.146 115.915 149.958 114.042 150.77 112.366C152.034 109.713 153.509 107.167 155.18 104.75C155.768 103.896 156.247 103.245 156.58 102.811C156.741 102.605 156.867 102.441 156.958 102.317C156.998 102.258 157.045 102.204 157.098 102.156C157.064 102.22 157.026 102.281 156.982 102.338L156.632 102.846C156.317 103.294 155.852 103.952 155.278 104.813C153.651 107.25 152.207 109.805 150.959 112.457C150.164 114.133 149.366 116.006 148.547 118.032C147.728 120.059 146.874 122.232 146.059 124.556C145.188 126.978 144.451 129.446 143.85 131.948C143.539 133.25 143.304 134.591 143.066 135.956C142.828 137.321 142.59 138.707 142.349 140.107C141.402 145.368 140.752 150.679 140.403 156.014" fill="#E0E0E0"/>
<path id="Vector_3" d="M143.648 131.843C143.523 131.65 143.421 131.443 143.343 131.227C143.165 130.828 142.923 130.24 142.643 129.509C142.069 128.046 141.345 126.009 140.543 123.741C139.742 121.473 139.003 119.45 138.412 118.001C138.114 117.276 137.869 116.692 137.694 116.289C137.59 116.086 137.51 115.871 137.456 115.649C137.594 115.832 137.711 116.031 137.806 116.24C138.013 116.629 138.286 117.203 138.608 117.92C139.252 119.355 140.036 121.382 140.827 123.643C141.618 125.904 142.297 127.895 142.832 129.435L143.452 131.185C143.539 131.397 143.605 131.618 143.648 131.843Z" fill="#E0E0E0"/>
<path id="Vector_4" d="M162.32 123.547C162.076 123.665 161.822 123.758 161.56 123.827C161.07 123.988 160.36 124.222 159.488 124.527C157.738 125.143 155.369 126.081 152.789 127.232C150.21 128.384 147.921 129.528 146.29 130.403C145.471 130.837 144.816 131.205 144.365 131.453C144.137 131.598 143.897 131.722 143.647 131.824C143.851 131.649 144.072 131.493 144.305 131.359C144.743 131.075 145.383 130.68 146.192 130.225C147.802 129.301 150.084 128.125 152.67 126.966C154.875 125.972 157.13 125.093 159.425 124.331C160.304 124.04 161.028 123.837 161.525 123.708C161.784 123.628 162.05 123.574 162.32 123.547Z" fill="#E0E0E0"/>
<path id="Vector_5" d="M140.283 155.574C140.212 155.513 140.149 155.444 140.094 155.368L139.594 154.741C139.16 154.192 138.544 153.383 137.816 152.379C136.342 150.363 134.396 147.514 132.289 144.346C130.182 141.179 128.261 138.312 126.833 136.268L125.132 133.853C124.946 133.591 124.782 133.374 124.673 133.195C124.565 133.017 124.519 132.961 124.53 132.954C124.54 132.947 124.6 133.017 124.719 133.16L125.219 133.787C125.653 134.333 126.269 135.141 126.997 136.149C128.471 138.165 130.417 141.011 132.527 144.182C134.638 147.353 136.552 150.216 137.98 152.256L139.681 154.671L140.14 155.333C140.241 155.483 140.294 155.567 140.283 155.574Z" fill="#E0E0E0"/>
<path id="Vector_6" d="M164.265 141.047C164.195 141.113 164.116 141.17 164.031 141.215L163.331 141.645L160.765 143.206C158.595 144.526 155.624 146.381 152.344 148.435C149.065 150.49 146.069 152.32 143.874 153.594C142.779 154.231 141.883 154.735 141.26 155.075L140.539 155.46C140.457 155.51 140.369 155.549 140.276 155.575C140.347 155.509 140.426 155.453 140.511 155.407L141.211 154.977L143.776 153.416C145.946 152.096 148.918 150.241 152.201 148.187C155.484 146.132 158.473 144.305 160.667 143.031C161.763 142.394 162.655 141.887 163.282 141.547L164.003 141.166C164.084 141.114 164.173 141.074 164.265 141.047Z" fill="#E0E0E0"/>
<path id="Vector_7" d="M21.3862 55.6987L16.7109 79.7734L52.4296 86.71L57.1049 62.6353L21.3862 55.6987Z" fill="#EBEBEB"/>
<path id="Vector_8" d="M57.1618 62.9464C57.0392 63.045 56.9066 63.1307 56.7663 63.2019L55.6043 63.8809L51.2888 66.3309L36.9633 74.3039L36.8478 74.3669L36.7603 74.2654L36.5468 74.0169L25.8158 61.3259L22.5923 57.4584L21.7278 56.4084C21.6202 56.2903 21.5252 56.1613 21.4443 56.0234C21.5647 56.1307 21.6759 56.2478 21.7768 56.3734L22.6903 57.3954L25.9943 61.1964L36.7988 73.8174L37.0123 74.0659L36.8058 74.0274L51.1768 66.1419L55.5413 63.7899L56.7348 63.1669C56.8699 63.0801 57.0128 63.0062 57.1618 62.9464Z" fill="#E0E0E0"/>
<path id="Vector_9" d="M16.7684 80.0865C16.7089 80.013 20.0374 77.2375 24.1989 73.881C28.3604 70.5245 31.7799 67.861 31.8359 67.931C31.8919 68.001 28.5669 70.78 24.4054 74.1365C20.2439 77.493 16.8244 80.1495 16.7684 80.0865Z" fill="#E0E0E0"/>
<path id="Vector_10" d="M43.7681 69.9339C43.8486 69.8919 45.8681 73.6859 48.2726 78.4004C50.6771 83.1149 52.5671 86.9789 52.4726 87.0209C52.3781 87.0629 50.3726 83.2724 47.9646 78.5509C45.5566 73.8294 43.6876 69.9759 43.7681 69.9339Z" fill="#E0E0E0"/>
<path id="Vector_11" d="M71.5014 50.8702L48.923 53.2327L47.0645 37.5457L69.643 35.1797L71.5014 50.8702Z" fill="#F5F5F5"/>
<path id="Vector_12" d="M69.7374 35.3477C69.6843 35.4313 69.6221 35.5088 69.5519 35.5787L68.9918 36.2122L66.8918 38.5187L59.9094 46.0857L59.8533 46.1487L59.7799 46.0997L59.6049 45.9877C56.1679 43.7197 53.0529 41.6722 50.7779 40.1742L48.1144 38.3892L47.4144 37.8957C47.3281 37.843 47.2472 37.7821 47.1729 37.7137C47.2647 37.7544 47.3526 37.8036 47.4354 37.8607L48.1739 38.3227C48.8319 38.7392 49.7489 39.3272 50.8724 40.0482L59.7309 45.8092L59.9059 45.9212H59.7763C62.5203 42.9882 64.9949 40.3212 66.8043 38.3997L68.9464 36.1422C69.1914 35.8902 69.3873 35.6872 69.5378 35.5367C69.5993 35.4686 69.666 35.4054 69.7374 35.3477Z" fill="#E0E0E0"/>
<path id="Vector_13" d="M49.0178 53.4166C48.9688 53.3851 50.4178 51.0541 52.2413 48.2156C54.0648 45.3771 55.5873 43.1021 55.6363 43.1371C55.6853 43.1721 54.2363 45.4961 52.4128 48.3381C50.5893 51.1801 49.0633 53.4481 49.0178 53.4166Z" fill="#E0E0E0"/>
<path id="Vector_14" d="M63.1189 42.1529C63.1609 42.1144 65.0894 44.0709 67.4309 46.5279C69.7724 48.9849 71.6309 51.0114 71.5959 51.0499C71.5609 51.0884 69.6254 49.1319 67.2839 46.6749C64.9424 44.2179 63.0769 42.1949 63.1189 42.1529Z" fill="#E0E0E0"/>
<path id="Vector_15" d="M40.2148 31.8551L27.7373 23.2136L33.6313 14.4531L46.1088 23.0911L40.2148 31.8551Z" fill="#F5F5F5"/>
<path id="Vector_16" d="M46.0781 23.2242C46.0144 23.2442 45.9486 23.2571 45.8821 23.2627L45.3221 23.3397L43.2571 23.5952L36.4181 24.3862H36.3621V24.3337C36.3621 24.2882 36.3376 24.2427 36.3236 24.1972L34.3636 17.4107C34.1256 16.5497 33.9296 15.8497 33.7931 15.3457L33.6426 14.7857C33.6215 14.7209 33.6074 14.654 33.6006 14.5862C33.6294 14.647 33.6529 14.7102 33.6706 14.7752C33.7126 14.9152 33.7721 15.1007 33.8421 15.3317C33.9926 15.8287 34.1921 16.5252 34.4581 17.3792C34.9691 19.1292 35.6691 21.5197 36.4391 24.1622L36.4776 24.2952L36.4076 24.2462L43.2466 23.4937L45.3186 23.2837L45.8821 23.2347C45.9471 23.2265 46.0126 23.223 46.0781 23.2242Z" fill="#E0E0E0"/>
<path id="Vector_17" d="M27.7061 23.3449C27.7061 23.3099 29.4561 22.7569 31.6051 22.1164C33.7541 21.4759 35.5321 20.9824 35.5426 21.0174C35.5531 21.0524 33.7926 21.6089 31.6401 22.2494C29.4876 22.8899 27.7166 23.3834 27.7061 23.3449Z" fill="#E0E0E0"/>
<path id="Vector_18" d="M39.7633 23.7969C39.8018 23.7969 39.9243 25.6274 40.0433 27.8919C40.1623 30.1564 40.2218 31.9974 40.1833 32.0009C40.1448 32.0044 40.0188 30.1704 39.9033 27.9059C39.7878 25.6414 39.7248 23.7969 39.7633 23.7969Z" fill="#E0E0E0"/>
<path id="Vector_19" d="M140.511 43.3517C140.517 41.2112 140.028 39.0984 139.083 37.1777C138.138 35.257 136.763 33.5802 135.064 32.2778C133.365 30.9754 131.389 30.0826 129.289 29.6687C127.189 29.2549 125.021 29.3312 122.956 29.8918C120.89 30.4524 118.981 31.482 117.378 32.9007C115.775 34.3193 114.522 36.0887 113.714 38.0711C112.907 40.0535 112.568 42.1955 112.723 44.3303C112.879 46.4652 113.525 48.5353 114.611 50.3797L114.65 50.4322C115.182 51.3317 115.85 51.9757 116.526 52.9207L124.6 63.6202C124.835 63.9298 125.138 64.1809 125.486 64.3537C125.834 64.5266 126.217 64.6166 126.606 64.6166C126.995 64.6166 127.378 64.5266 127.726 64.3537C128.074 64.1809 128.377 63.9298 128.611 63.6202L136.556 53.0957C137.279 52.2414 137.953 51.3475 138.576 50.4182L138.6 50.3972C139.856 48.2619 140.516 45.8288 140.511 43.3517ZM126.599 49.4102C125.388 49.4102 124.203 49.0509 123.196 48.3779C122.189 47.7049 121.404 46.7483 120.94 45.6291C120.477 44.5099 120.355 43.2784 120.592 42.0902C120.828 40.9021 121.411 39.8107 122.268 38.9541C123.125 38.0975 124.216 37.5142 125.404 37.2779C126.592 37.0415 127.824 37.1628 128.943 37.6264C130.062 38.09 131.019 38.875 131.692 39.8823C132.365 40.8896 132.724 42.0738 132.724 43.2852C132.724 44.9096 132.079 46.4675 130.93 47.6162C129.781 48.7649 128.223 49.4102 126.599 49.4102Z" fill="#F5F5F5"/>
<path id="Vector_20" d="M151.151 67.2291C151.159 66.0717 150.899 64.9283 150.391 63.8882C149.883 62.8481 149.142 61.9395 148.225 61.2335C147.308 60.5275 146.24 60.0432 145.104 59.8185C143.969 59.5939 142.797 59.6348 141.68 59.9383C140.563 60.2418 139.532 60.7995 138.666 61.5678C137.8 62.3362 137.124 63.2943 136.691 64.3674C136.257 65.4404 136.077 66.5993 136.166 67.7533C136.254 68.9073 136.608 70.0252 137.2 71.0196L137.221 71.0476C137.508 71.5306 137.869 71.8806 138.233 72.3881L142.59 78.1596C142.716 78.327 142.879 78.4628 143.067 78.5564C143.254 78.6499 143.461 78.6986 143.67 78.6986C143.88 78.6986 144.086 78.6499 144.274 78.5564C144.461 78.4628 144.624 78.327 144.75 78.1596L149.034 72.4826C149.425 72.0228 149.789 71.5414 150.126 71.0406V71.0196C150.801 69.8706 151.155 68.5616 151.151 67.2291ZM143.647 70.4946C142.995 70.4939 142.357 70.2997 141.815 69.9367C141.272 69.5736 140.85 69.0579 140.601 68.4547C140.351 67.8516 140.286 67.1881 140.414 66.5481C140.542 65.9081 140.857 65.3203 141.318 64.859C141.78 64.3978 142.368 64.0838 143.008 63.9568C143.648 63.8297 144.312 63.8953 144.915 64.1452C145.518 64.3951 146.033 64.8181 146.395 65.3608C146.758 65.9035 146.951 66.5415 146.951 67.1941C146.951 67.6278 146.866 68.0573 146.7 68.4579C146.534 68.8586 146.29 69.2226 145.983 69.5291C145.677 69.8357 145.312 70.0787 144.912 70.2444C144.511 70.41 144.081 70.4951 143.647 70.4946Z" fill="#EBEBEB"/>
</g>
<g id="freepik--Table--inject-65">
<path id="Vector_21" d="M164.98 162.318C164.98 162.37 130.287 162.409 87.5035 162.409C44.7195 162.409 10.0205 162.37 10.0205 162.318C10.0205 162.265 44.7055 162.227 87.5035 162.227C130.301 162.227 164.98 162.269 164.98 162.318Z" fill="#263238"/>
</g>
<g id="freepik--Character--inject-65">
<path id="Vector_22" d="M66.2725 41.6315L68.5755 74.2515C68.7579 76.8186 69.9066 79.221 71.7902 80.9746C73.6737 82.7283 76.152 83.7027 78.7255 83.7015C80.1185 83.7018 81.4967 83.4158 82.7747 82.8615C84.0526 82.3072 85.2031 81.4962 86.1547 80.4789C87.1064 79.4616 87.8389 78.2597 88.3069 76.9477C88.775 75.6356 88.9685 74.2414 88.8755 72.8515C88.6725 69.747 88.487 67.206 88.487 67.206C88.487 67.206 96.3865 65.9775 96.4845 58.0815C96.5405 53.5315 95.753 43.1715 95.0845 35.244C94.8635 32.659 93.6803 30.251 91.769 28.4965C89.8577 26.7421 87.3574 25.7689 84.763 25.7695H79.9785C78.0271 25.8833 76.1184 26.3875 74.3654 27.2522C72.6124 28.1168 71.0506 29.3244 69.7726 30.8034C68.4946 32.2824 67.5264 34.0028 66.9252 35.8628C66.324 37.7227 66.102 39.6843 66.2725 41.6315Z" fill="#FFBE9D"/>
<path id="Vector_23" d="M88.4937 67.1057C88.4937 67.1057 83.5027 67.5117 78.2002 64.1797C78.2002 64.1797 80.6327 69.8637 88.5112 69.1532L88.4937 67.1057Z" fill="#C49385"/>
<path id="Vector_24" d="M92.6168 44.8031C92.6197 45.0973 92.5075 45.3809 92.3041 45.5935C92.1007 45.806 91.8223 45.9306 91.5283 45.9406C91.385 45.9521 91.2408 45.9347 91.1043 45.8896C90.9678 45.8445 90.8417 45.7725 90.7334 45.6779C90.6252 45.5834 90.5369 45.4681 90.4738 45.3389C90.4108 45.2097 90.3742 45.0692 90.3663 44.9256C90.3633 44.6317 90.4749 44.3482 90.6775 44.1352C90.88 43.9222 91.1576 43.7965 91.4513 43.7846C91.595 43.7732 91.7396 43.7907 91.8766 43.836C92.0135 43.8813 92.14 43.9535 92.2486 44.0484C92.3572 44.1433 92.4457 44.2589 92.5089 44.3886C92.5722 44.5182 92.6088 44.6591 92.6168 44.8031Z" fill="#263238"/>
<path id="Vector_25" d="M93.7087 43.1792C93.5687 43.3262 92.7147 42.6962 91.5037 42.6997C90.2927 42.7032 89.4037 43.3087 89.2672 43.1617C89.2042 43.0952 89.3477 42.8117 89.7327 42.5457C90.258 42.1826 90.8827 41.9906 91.5212 41.9962C92.1501 41.9936 92.7633 42.1923 93.2712 42.5632C93.6527 42.8502 93.7787 43.1162 93.7087 43.1792Z" fill="#263238"/>
<path id="Vector_26" d="M80.7759 44.8029C80.7789 45.097 80.6666 45.3807 80.4633 45.5932C80.2599 45.8058 79.9814 45.9303 79.6874 45.9404C79.5441 45.9518 79.4 45.9344 79.2635 45.8893C79.127 45.8442 79.0009 45.7722 78.8926 45.6777C78.7843 45.5831 78.6961 45.4678 78.633 45.3386C78.57 45.2094 78.5334 45.0689 78.5254 44.9254C78.5225 44.6309 78.6346 44.3469 78.8379 44.1338C79.0412 43.9207 79.3196 43.7953 79.6139 43.7844C79.7574 43.7734 79.9017 43.7913 80.0382 43.8368C80.1747 43.8823 80.3008 43.9546 80.409 44.0494C80.5172 44.1443 80.6054 44.2598 80.6684 44.3892C80.7314 44.5185 80.768 44.6592 80.7759 44.8029Z" fill="#263238"/>
<path id="Vector_27" d="M81.7837 43.4015C81.6437 43.5485 80.7862 42.915 79.5752 42.9185C78.3642 42.922 77.4752 43.531 77.3387 43.3805C77.2757 43.314 77.4157 43.0515 77.8042 42.768C78.3306 42.4067 78.9543 42.2138 79.5927 42.215C80.2209 42.2172 80.8326 42.4154 81.3427 42.782C81.7242 43.0725 81.8502 43.3385 81.7837 43.4015Z" fill="#263238"/>
<path id="Vector_28" d="M86.1871 52.402C86.1871 52.332 86.9361 52.2025 88.1576 52.052C88.4656 52.017 88.7596 51.9575 88.8121 51.744C88.8388 51.4244 88.7668 51.1043 88.6056 50.827C88.3162 50.078 88.0106 49.2917 87.6886 48.468C86.4181 45.108 85.4941 42.3465 85.6306 42.2975C85.7671 42.2485 86.9081 44.9295 88.1821 48.286C88.4877 49.1167 88.7806 49.9089 89.0606 50.6625C89.1761 51.0125 89.3791 51.4115 89.2181 51.877C89.1741 51.9864 89.1054 52.084 89.0173 52.1624C88.9293 52.2407 88.8243 52.2976 88.7106 52.3285C88.5398 52.3772 88.3631 52.4019 88.1856 52.402C86.9536 52.465 86.1906 52.472 86.1871 52.402Z" fill="#263238"/>
<path id="Vector_29" d="M82.6167 53.2423C82.8127 53.2423 82.8162 54.5478 83.9432 55.4823C85.0702 56.4168 86.4702 56.2733 86.4807 56.4553C86.5017 56.5393 86.1692 56.7108 85.5777 56.7283C84.8059 56.7391 84.0549 56.4777 83.4567 55.9898C82.8825 55.5208 82.5134 54.8467 82.4277 54.1103C82.3787 53.5503 82.5257 53.2353 82.6167 53.2423Z" fill="#263238"/>
<path id="Vector_30" d="M82.0958 38.6498C81.9768 38.9998 80.7658 38.8248 79.3413 38.9998C77.9168 39.1748 76.7653 39.5598 76.5763 39.2623C76.4923 39.1223 76.6918 38.8108 77.1573 38.4923C77.7763 38.1012 78.476 37.8561 79.2037 37.7755C79.9313 37.6948 80.6678 37.7808 81.3573 38.0268C81.8998 38.2368 82.1483 38.5028 82.0958 38.6498Z" fill="#263238"/>
<path id="Vector_31" d="M93.2642 39.6679C93.0507 39.9444 92.2142 39.6679 91.2097 39.6434C90.2052 39.6189 89.3547 39.8289 89.1587 39.5419C89.0712 39.4019 89.2042 39.1254 89.5787 38.8629C90.0781 38.55 90.6594 38.393 91.2484 38.4117C91.8375 38.4304 92.4076 38.624 92.8862 38.9679C93.2397 39.2479 93.3587 39.5524 93.2642 39.6679Z" fill="#263238"/>
<path id="Vector_32" d="M68.9496 47.5574C68.8131 47.4979 63.5246 45.9544 63.6996 51.3514C63.8746 56.7484 69.2541 55.4639 69.2611 55.3064C69.2681 55.1489 68.9496 47.5574 68.9496 47.5574Z" fill="#FFBE9D"/>
<path id="Vector_33" d="M67.5287 53.3154C67.5042 53.3154 67.4377 53.3854 67.2802 53.4624C67.0603 53.5641 66.8098 53.5779 66.5802 53.5009C66.0027 53.3084 65.4952 52.4193 65.4357 51.4463C65.4087 50.9841 65.484 50.5217 65.6562 50.0918C65.7031 49.9199 65.7915 49.762 65.9135 49.6321C66.0355 49.5021 66.1875 49.404 66.3562 49.3463C66.4635 49.3145 66.5786 49.3212 66.6816 49.3653C66.7845 49.4094 66.8687 49.4881 66.9197 49.5878C66.9967 49.7348 66.9652 49.8433 66.9932 49.8538C67.0212 49.8643 67.1087 49.7594 67.0562 49.5354C67.0215 49.4032 66.9424 49.2871 66.8322 49.2063C66.7571 49.1522 66.672 49.1136 66.5819 49.0925C66.4918 49.0715 66.3984 49.0686 66.3072 49.0838C66.0872 49.1352 65.8839 49.2419 65.7167 49.3938C65.5495 49.5457 65.4238 49.7378 65.3517 49.9519C65.1388 50.4274 65.0439 50.9473 65.0752 51.4673C65.1452 52.5558 65.7332 53.5673 66.5207 53.7563C66.6673 53.794 66.8205 53.7981 66.969 53.7684C67.1174 53.7387 67.2573 53.676 67.3782 53.5848C67.5217 53.4483 67.5497 53.3259 67.5287 53.3154Z" fill="#C49385"/>
<path id="Vector_34" d="M65.9328 47.3752C66.7553 47.1757 68.1798 47.9352 68.5298 48.7052C68.8798 49.4752 68.9568 50.3502 69.3068 51.1237C69.6568 51.8972 70.4478 52.5902 71.2738 52.3942C71.5529 52.3069 71.8039 52.1472 72.0012 51.9314C72.1986 51.7156 72.3353 51.4514 72.3973 51.1657C72.5164 50.589 72.5223 49.9947 72.4148 49.4157C72.0963 46.8957 71.5678 44.3967 71.4663 41.8557C71.3648 39.3147 71.7253 36.6792 73.0588 34.5057C74.3923 32.3322 76.8388 30.7502 79.3588 30.9567C81.0353 31.0897 82.5753 31.9647 84.2413 32.1992C85.234 32.3305 86.2435 32.2339 87.1932 31.9167C88.1429 31.5995 89.0078 31.0701 89.7223 30.3687C89.9043 30.1902 90.7443 29.6337 90.7443 29.6337C90.7443 29.5042 90.6218 28.3772 90.1773 27.9642C86.8698 24.9087 80.9128 24.0547 76.5448 25.1642C72.1768 26.2737 68.0818 29.3642 66.2023 33.4382C64.3228 37.5122 64.8828 43.2382 65.9188 47.3682" fill="#263238"/>
<path id="Vector_35" d="M95.158 34.0424C95.158 34.0424 74.445 27.3924 65.485 45.2984C65.485 45.2984 64.1445 40.8149 64.1445 38.4104C64.1445 36.8039 65.1035 27.2419 74.9455 24.2319C74.9455 24.2319 89.768 18.5759 95.158 34.0424Z" fill="#00C652"/>
<path id="Vector_36" d="M77.3494 34.4913C77.7174 35.0846 78.2181 35.5844 78.8122 35.9511C79.4063 36.3179 80.0775 36.5417 80.7728 36.6048C81.4681 36.6679 82.1686 36.5686 82.819 36.3148C83.4695 36.0611 84.052 35.6597 84.5209 35.1423C84.7268 35.6572 85.0888 36.0948 85.556 36.3937C86.0232 36.6925 86.5722 36.8376 87.1261 36.8087C87.6799 36.7798 88.2108 36.5782 88.6443 36.2323C89.0778 35.8863 89.3922 35.4134 89.5434 34.8798C90.1049 35.5057 90.7918 36.0065 91.5594 36.3498C92.3469 36.6403 93.3444 36.5283 93.8589 35.8703C94.3734 35.2123 94.2334 34.1728 93.7154 33.4938C93.1496 32.8518 92.4256 32.3691 91.6154 32.0938C89.1598 31.0139 86.4615 30.6057 83.7964 30.9108C81.1539 31.2608 78.5954 32.5488 76.9434 34.6418" fill="#263238"/>
<g id="Group" opacity="0.4">
<path id="Vector_37" d="M95.1574 34.0424C93.4342 32.2266 91.0716 31.1532 88.5704 31.0499C82.4594 30.7804 71.0249 34.2174 65.4704 45.2984C65.4704 45.2984 64.1299 40.8149 64.1299 38.4104C64.1299 36.8039 65.0889 27.2419 74.9309 24.2319C74.9449 24.2319 89.7674 18.5759 95.1574 34.0424Z" fill="black"/>
</g>
<path id="Vector_38" d="M66.3496 43.2009C69.4191 38.5004 73.6541 34.6154 78.4176 31.6509C83.1811 28.6864 91.0526 25.7359 96.4776 24.3009C98.1086 23.8669 99.8061 23.4889 101.469 23.7759C103.131 24.0629 104.755 25.1759 105.165 26.8034C105.683 28.8509 102.05 32.0079 100.345 33.2469C98.6406 34.4859 95.1581 36.3094 95.1581 36.3094C95.1581 36.3094 95.2071 32.5154 89.1311 31.7349C80.8711 30.6534 66.3496 43.2009 66.3496 43.2009Z" fill="#00C652"/>
<path id="Vector_39" d="M83.3383 27.7209C83.3383 27.7209 86.3203 26.0689 89.3198 25.6839C88.8189 25.2946 88.2723 24.9679 87.6923 24.7109C86.0642 24.98 84.4901 25.5095 83.0303 26.2789L83.3383 27.7209Z" fill="#E0E0E0"/>
<path id="Vector_40" d="M100.149 74.0138L93.579 72.5648L90.905 71.8963L88.679 68.4453C88.679 68.4453 87.629 74.6158 83.6425 77.9373C83.1027 78.3789 82.47 78.6927 81.7917 78.8551C81.1135 79.0176 80.4073 79.0245 79.726 78.8753C78.8265 78.6863 77.7695 78.4553 76.9855 78.2453C76.8175 78.1998 76.6355 78.1403 76.4395 78.0703C73.5574 77.0001 71.1562 74.9293 69.674 72.2358C68.792 70.6678 68.0465 69.0578 68.302 68.4453L65.1835 74.9028L46.8085 83.3658L36.375 108.853L56.5945 114.831L57.2245 135.831L53.4165 162.305L110.617 162.343L108.587 103.442" fill="#00C652"/>
<path id="Vector_41" d="M85.3614 96.8159C85.2449 96.8252 85.1278 96.8252 85.0114 96.8159L83.9929 96.7914L80.3564 96.6619H80.2864V96.6024C80.2269 95.0239 80.1534 93.1549 80.0729 91.1564C79.9784 88.2759 79.8944 85.6719 79.8279 83.7574C79.8069 82.8264 79.7894 82.0669 79.7754 81.5139C79.7754 81.2654 79.7754 81.0624 79.7754 80.9049C79.7663 80.834 79.7663 80.7623 79.7754 80.6914C79.7915 80.7602 79.7997 80.8307 79.7999 80.9014C79.7999 81.0624 79.8244 81.2514 79.8384 81.5104C79.8664 82.0634 79.9049 82.8229 79.9504 83.7504C80.0274 85.6649 80.1324 88.2689 80.2479 91.1459C80.3179 93.1479 80.3809 95.0169 80.4369 96.5954L80.3599 96.5219L83.9964 96.7144L85.0114 96.7809C85.129 96.7798 85.2463 96.7915 85.3614 96.8159Z" fill="#263238"/>
<path id="Vector_42" d="M82.2493 88.3055C82.3295 88.2493 82.4243 88.2177 82.5223 88.2145C82.7495 88.1997 82.9762 88.251 83.1749 88.3621C83.3737 88.4733 83.536 88.6396 83.6423 88.841C83.7421 89.0375 83.7776 89.2603 83.7438 89.478C83.7064 89.7248 83.5983 89.9554 83.4324 90.1418C83.2665 90.3282 83.05 90.4624 82.8093 90.528C82.5656 90.5791 82.3125 90.5621 82.0778 90.4787C81.8432 90.3954 81.6361 90.2489 81.4793 90.0555C81.3521 89.8997 81.2632 89.7164 81.2194 89.5201C81.1757 89.3239 81.1784 89.1201 81.2273 88.925C81.2816 88.6596 81.4131 88.4161 81.6053 88.225C81.7383 88.0955 81.8363 88.0535 81.8398 88.064C81.8433 88.0745 81.7698 88.1375 81.6578 88.274C81.5026 88.4657 81.398 88.6931 81.3533 88.9355C81.3177 89.1101 81.3219 89.2903 81.3655 89.463C81.4091 89.6357 81.4911 89.7964 81.6053 89.933C81.7452 90.0981 81.9267 90.2228 82.131 90.2942C82.3353 90.3655 82.555 90.381 82.7673 90.339C82.9738 90.2808 83.1596 90.165 83.3027 90.005C83.4459 89.8451 83.5406 89.6478 83.5758 89.436C83.6048 89.2625 83.5852 89.0842 83.5191 88.9211C83.453 88.758 83.343 88.6164 83.2013 88.512C83.0092 88.3587 82.7715 88.2738 82.5258 88.2705C82.3438 88.2845 82.2493 88.3195 82.2493 88.3055Z" fill="#263238"/>
<path id="Vector_43" d="M81.6299 80.911C81.7108 80.84 81.8104 80.7938 81.9169 80.778C82.2074 80.7166 82.5104 80.7613 82.7709 80.904C82.9557 80.9982 83.1135 81.1379 83.2294 81.31C83.3639 81.5115 83.4313 81.7504 83.4219 81.9925C83.4109 82.2685 83.3168 82.5348 83.1519 82.7565C82.987 82.9782 82.7591 83.145 82.4979 83.235C82.2308 83.3033 81.9495 83.2913 81.6892 83.2004C81.4289 83.1094 81.2013 82.9437 81.0349 82.724C80.8872 82.5344 80.7983 82.3056 80.7794 82.066C80.7684 81.8595 80.8019 81.653 80.8774 81.4605C80.986 81.1865 81.1783 80.9538 81.4269 80.7955C81.5134 80.7307 81.6166 80.6919 81.7244 80.6835C81.7244 80.6835 81.6229 80.736 81.4689 80.855C81.2524 81.0216 81.0893 81.2479 80.9999 81.506C80.9296 81.6908 80.9082 81.8907 80.9376 82.0862C80.9671 82.2818 81.0463 82.4665 81.1679 82.6225C81.3157 82.8111 81.515 82.9529 81.7418 83.0305C81.9685 83.1082 82.2129 83.1184 82.4454 83.06C82.6707 82.98 82.8676 82.8355 83.0113 82.6444C83.1551 82.4533 83.2395 82.2242 83.2539 81.9855C83.2631 81.7893 83.2172 81.5945 83.1213 81.4231C83.0254 81.2517 82.8834 81.1107 82.7114 81.016C82.4761 80.8773 82.2023 80.8184 81.9309 80.848C81.7384 80.8725 81.6369 80.925 81.6299 80.911Z" fill="#263238"/>
<path id="Vector_44" d="M79.7686 109.161C79.7686 109.161 79.7966 109.143 79.8561 109.122L80.1186 109.021C80.3531 108.94 80.6856 108.793 81.1091 108.597C82.2917 108.001 83.3773 107.229 84.3291 106.308C85.7282 104.931 86.9647 103.397 88.0146 101.737C89.3274 99.7201 90.5263 97.6308 91.6056 95.4794C93.5464 91.5581 95.2493 87.5235 96.705 83.3974C97.2755 81.8154 97.7201 80.5309 98.0316 79.6454L98.3816 78.6234C98.4201 78.5184 98.4551 78.4309 98.4796 78.3609C98.4895 78.3306 98.5024 78.3013 98.5181 78.2734C98.5155 78.3058 98.5084 78.3376 98.4971 78.3679C98.4761 78.4379 98.4481 78.5254 98.4166 78.6374C98.3361 78.8859 98.2276 79.2289 98.0911 79.6874C97.8006 80.5799 97.3735 81.8714 96.8135 83.4569C95.3955 87.5942 93.7096 91.6347 91.7666 95.5529C90.6846 97.7104 89.4786 99.8034 88.1546 101.821C87.0924 103.49 85.8378 105.028 84.4166 106.403C83.4496 107.322 82.3441 108.084 81.1406 108.66C80.8112 108.812 80.4735 108.944 80.1291 109.056L79.8596 109.14C79.8305 109.152 79.7998 109.159 79.7686 109.161Z" fill="#263238"/>
<path id="Vector_45" d="M91.8188 102.172C91.9693 102.172 95.4518 101.934 95.4518 101.934C95.4518 101.934 94.0133 104.475 92.5153 105.434H89.4668L91.8188 102.172Z" fill="#FAFAFA"/>
<path id="Vector_46" d="M79.1592 116.854C79.2188 116.797 79.2845 116.747 79.3552 116.704L79.9432 116.298C80.4507 115.948 81.1822 115.423 82.0607 114.747C83.8107 113.407 86.1417 111.405 88.6337 109.116C89.8797 107.971 91.0837 106.893 92.1127 105.857C93.036 104.949 93.8934 103.976 94.6782 102.945C95.2048 102.25 95.6731 101.513 96.0782 100.74C96.2322 100.471 96.3267 100.25 96.4002 100.103C96.4334 100.026 96.4745 99.952 96.5227 99.8828C96.5002 99.9633 96.471 100.042 96.4352 100.117C96.3722 100.268 96.2847 100.495 96.1412 100.772C95.7567 101.562 95.3009 102.315 94.7797 103.022C94.0054 104.07 93.1524 105.058 92.2282 105.976C91.1957 107.026 89.9987 108.108 88.7527 109.249C86.2607 111.538 83.9262 113.533 82.1377 114.849C81.2452 115.51 80.4997 116.014 79.9817 116.354C79.7192 116.522 79.5127 116.644 79.3727 116.732C79.3064 116.781 79.2347 116.822 79.1592 116.854Z" fill="#263238"/>
<path id="Vector_47" d="M69.3447 155.753C69.3447 155.753 69.3447 155.721 69.3867 155.669C69.4287 155.616 69.4742 155.532 69.5302 155.438C69.6597 155.238 69.8557 154.944 70.1182 154.573C70.6432 153.838 71.4552 152.802 72.5262 151.584C74.6822 149.166 77.7027 145.865 81.0277 142.211L89.5992 132.87L92.2067 130.07L92.9067 129.31L93.0957 129.118L93.1657 129.055C93.1657 129.055 93.1482 129.083 93.1097 129.128L92.9347 129.335L92.2347 130.119L89.6692 132.971L81.1642 142.323L72.6242 151.661C71.5427 152.865 70.7167 153.884 70.1742 154.605C69.9047 154.955 69.6982 155.252 69.5617 155.448L69.4042 155.669C69.3867 155.698 69.3668 155.726 69.3447 155.753Z" fill="#263238"/>
<path id="Vector_48" d="M99.6934 73.8514C99.9944 74.3029 106.756 75.0554 108.412 76.7074C110.067 78.3594 126.612 90.9874 126.612 90.9874L114.82 106.856L107.211 105.18L99.6934 73.8514Z" fill="#00C652"/>
<path id="Vector_49" opacity="0.4" d="M124.606 89.4492L111.387 106.102L114.82 106.858L126.598 90.9717L124.606 89.4492Z" fill="black"/>
<path id="Vector_50" d="M103.296 90.373C103.236 90.1923 103.191 90.0074 103.159 89.82C103.121 89.6415 103.075 89.421 103.044 89.162C103.012 88.903 102.96 88.609 102.942 88.28C102.925 87.951 102.89 87.58 102.89 87.2055C102.89 86.831 102.89 86.4075 102.921 85.9735C102.989 85.0296 103.135 84.0931 103.359 83.1735C103.597 82.2584 103.912 81.3651 104.3 80.503C104.486 80.111 104.65 79.733 104.85 79.397C105.049 79.061 105.221 78.7495 105.399 78.473C105.578 78.1965 105.749 77.9585 105.903 77.745C106.03 77.5619 106.167 77.3855 106.313 77.2165C106.427 77.0645 106.555 76.9228 106.694 76.793C106.599 76.9568 106.49 77.1125 106.369 77.2585C106.26 77.4055 106.127 77.584 105.987 77.8045C105.847 78.025 105.669 78.2595 105.508 78.543C105.347 78.8265 105.158 79.1275 104.983 79.4705C104.808 79.8135 104.633 80.1705 104.454 80.5695C104.086 81.4281 103.784 82.3139 103.551 83.219C103.333 84.1269 103.185 85.05 103.107 85.9805C103.082 86.411 103.051 86.8205 103.061 87.202C103.072 87.5835 103.061 87.9405 103.089 88.252C103.117 88.5635 103.138 88.8715 103.163 89.1305C103.187 89.3895 103.219 89.61 103.247 89.7885C103.282 89.9813 103.298 90.177 103.296 90.373Z" fill="#263238"/>
<path id="Vector_51" d="M108.588 103.418C108.045 102.367 107.558 101.289 107.128 100.188C106.64 99.1114 106.208 98.011 105.833 96.8906C106.375 97.9408 106.863 99.0179 107.296 100.118C107.784 101.194 108.216 102.296 108.588 103.418Z" fill="#263238"/>
<path id="Vector_52" d="M56.5947 91.8895C56.5667 91.8895 56.2832 91.382 55.7477 90.5945C55.0489 89.5688 54.2493 88.6155 53.3607 87.749C52.4676 86.8891 51.4922 86.1189 50.4487 85.4495C49.6437 84.9385 49.1152 84.6725 49.1292 84.6445C49.2633 84.6815 49.3926 84.7344 49.5142 84.802C49.8567 84.9648 50.1908 85.1447 50.5152 85.341C51.5918 85.9826 52.5902 86.7473 53.4902 87.6195C54.3872 88.4944 55.181 89.4691 55.8562 90.5245C56.1117 90.9305 56.3042 91.2665 56.4232 91.508C56.4958 91.6277 56.5534 91.7558 56.5947 91.8895Z" fill="#263238"/>
<path id="Vector_53" opacity="0.4" d="M36.375 108.84L37.1905 106.855L59.5555 112.945L58.67 115.434L36.375 108.84Z" fill="black"/>
<path id="Vector_54" d="M96.0821 100.996H104.598V104.496L93.7021 104.426C93.7021 104.426 95.3856 102.4 96.0821 100.996Z" fill="#FAFAFA"/>
<g id="Group_2" opacity="0.2">
<path id="Vector_55" d="M65.709 75.673C66.017 78.403 66.353 81.2205 67.704 83.6145C69.055 86.0085 71.6975 87.895 74.417 87.4925C76.23 87.223 77.7665 86.012 79.002 84.654C80.2375 83.296 81.2735 81.7595 82.621 80.517C83.4359 81.3946 84.3469 82.1777 85.337 82.8515C86.3372 83.529 87.5381 83.8462 88.7425 83.751C89.929 83.6075 90.5835 83.135 90.958 82.001C89.691 82.393 88.9945 82.3335 87.731 82.092C86.3358 81.8245 85.0259 81.2242 83.9125 80.342C83.1705 79.7575 82.901 78.879 81.9595 78.942C81.088 78.991 80.4055 79.6805 79.8315 80.342C78.9048 81.4028 77.8884 82.3818 76.7935 83.268C75.7435 84.0975 74.7285 84.668 73.3915 84.6295C71.19 84.5805 69.3875 82.8515 68.173 81.014C67.052 79.3198 66.2237 77.4492 65.723 75.4805" fill="black"/>
</g>
<path id="Vector_56" d="M91.483 72.2656C91.5031 72.3293 91.516 72.3951 91.5215 72.4616C91.5215 72.5911 91.5635 72.7801 91.588 73.0251C91.6405 73.5151 91.693 74.2256 91.714 75.1251C91.7614 77.4259 91.5417 79.7244 91.0595 81.9746V82.0306V82.0866H91.007C89.7628 82.3783 88.4643 82.3433 87.2375 81.9851C86.2344 81.717 85.2865 81.2739 84.4375 80.6761C83.8629 80.2856 83.3478 79.814 82.908 79.2761C82.7898 79.1309 82.6799 78.979 82.579 78.8211C82.5398 78.7673 82.5059 78.7099 82.4775 78.6496C83.0485 79.3963 83.7336 80.0483 84.5075 80.5816C85.3521 81.152 86.2869 81.5757 87.2725 81.8346C88.4729 82.1737 89.7394 82.2038 90.9545 81.9221L90.888 81.9886V81.9326C91.3647 79.6939 91.5994 77.4105 91.588 75.1216C91.588 74.2431 91.5495 73.5326 91.5215 73.0391C91.5215 72.8116 91.497 72.6261 91.4865 72.4756C91.4752 72.4062 91.4741 72.3354 91.483 72.2656Z" fill="#263238"/>
<path id="Vector_57" d="M80.8496 79.1718C80.8218 79.2465 80.7841 79.3171 80.7376 79.3818C80.6204 79.5759 80.4918 79.7629 80.3526 79.9418C79.8299 80.594 79.2539 81.2016 78.6306 81.7583C78.2421 82.1083 77.8046 82.4968 77.3321 82.8958C77.0941 83.0953 76.8561 83.3053 76.5901 83.5153C76.3161 83.722 76.0272 83.908 75.7256 84.0718C75.0777 84.4291 74.3625 84.6472 73.6256 84.7123C72.8215 84.7805 72.0158 84.6023 71.3156 84.2013C70.6339 83.7952 70.0227 83.281 69.5061 82.6788C69.0162 82.1333 68.5604 81.5582 68.1411 80.9568C67.4343 79.9363 66.8371 78.8441 66.3596 77.6983C66.0396 76.9279 65.7775 76.1347 65.5756 75.3253C65.5021 75.0383 65.4566 74.8143 65.4286 74.6603C65.4091 74.5835 65.3974 74.5049 65.3936 74.4258C65.4256 74.4987 65.4491 74.575 65.4636 74.6533C65.5056 74.8038 65.5616 75.0243 65.6421 75.3078C65.8717 76.105 66.1511 76.887 66.4786 77.6493C66.9689 78.7775 67.5729 79.8529 68.2811 80.8588C68.6985 81.4519 69.152 82.0188 69.6391 82.5563C70.1389 83.1427 70.7298 83.6449 71.3891 84.0438C72.0589 84.4262 72.8288 84.597 73.5976 84.5338C74.3133 84.4722 75.0088 84.2649 75.6416 83.9248C75.9386 83.7674 76.2229 83.5872 76.4921 83.3858C76.7476 83.1898 76.9926 82.9763 77.2306 82.7803C77.7066 82.3848 78.1476 82.0138 78.5396 81.6638C79.1651 81.1243 79.75 80.5393 80.2896 79.9138C80.4751 79.6898 80.6116 79.5043 80.7026 79.3783C80.7455 79.3053 80.7947 79.2362 80.8496 79.1718Z" fill="#263238"/>
<path id="Vector_58" d="M73.3105 119.388L76.009 115.454C76.009 115.454 77.864 109.007 77.612 108.104C77.36 107.201 76.541 103.841 76.7335 103.799C76.926 103.757 78.9455 103.008 80.041 105.703C80.7235 107.383 80.9475 109.595 81.021 111.023C81.0291 111.199 81.0752 111.372 81.1564 111.529C81.2376 111.685 81.3518 111.823 81.4912 111.931C81.6306 112.04 81.7919 112.117 81.9639 112.157C82.1359 112.197 82.3145 112.199 82.4875 112.164C84.353 111.779 87.4575 111.194 88.196 111.373C89.267 111.628 90.226 112.993 90.317 113.452C90.408 113.91 89.673 114.943 89.673 114.943C89.673 114.943 90.583 115.408 90.863 116.112C90.9015 116.206 90.9331 116.301 90.9611 116.392C91.0465 116.674 91.0569 116.973 90.9912 117.26C90.9255 117.548 90.786 117.813 90.5865 118.03L90.2995 118.345C90.2995 118.345 91.437 118.656 91.577 119.307C91.6529 119.783 91.6399 120.268 91.5385 120.739L90.471 121.841C90.7686 122.119 90.9635 122.489 91.024 122.891C91.08 123.493 89.4805 124.991 89.4805 124.991L82.617 127.441L79.894 128.141L73.3105 119.388Z" fill="#FFBE9D"/>
<path id="Vector_59" d="M89.6938 114.947C88.9095 115.158 88.1152 115.33 87.3138 115.462C86.5264 115.654 85.7297 115.806 84.9268 115.917C85.1417 115.812 85.3685 115.733 85.6023 115.682C86.0258 115.563 86.6173 115.416 87.2788 115.283C87.9403 115.15 88.5388 115.052 88.9798 114.996C89.2145 114.948 89.4546 114.931 89.6938 114.947Z" fill="#C49385"/>
<path id="Vector_60" d="M90.3203 118.344C89.7369 118.617 89.1286 118.834 88.5038 118.991C87.8973 119.209 87.2715 119.368 86.6348 119.467C87.2181 119.194 87.8264 118.977 88.4513 118.82C89.0577 118.602 89.6836 118.443 90.3203 118.344Z" fill="#C49385"/>
<path id="Vector_61" d="M90.7303 121.691C90.1155 122.06 89.4703 122.375 88.8018 122.633C88.1577 122.948 87.488 123.208 86.7998 123.41C87.4146 123.042 88.0598 122.727 88.7283 122.468C89.3724 122.153 90.0421 121.893 90.7303 121.691Z" fill="#C49385"/>
<path id="Vector_62" d="M57.4977 143.697L82.7397 126.764L76.3697 115.214L53.3327 127.061L55.9472 114.615L40.3127 109.988L36.3997 131.303C35.7977 140.781 43.3997 148.432 52.5627 145.944C54.3191 145.469 55.9861 144.71 57.4977 143.697Z" fill="#FFBE9D"/>
<path id="Vector_63" d="M49.9968 133.763C49.9513 133.662 49.9218 133.554 49.9093 133.444C49.8574 133.15 49.8281 132.851 49.8218 132.552C49.8087 131.556 50.0318 130.571 50.4728 129.678C50.92 128.788 51.5741 128.017 52.3803 127.431C52.6206 127.253 52.8759 127.096 53.1433 126.962C53.2393 126.906 53.3431 126.865 53.4513 126.84C53.4513 126.871 53.0418 127.071 52.4573 127.54C51.692 128.138 51.0698 128.899 50.6362 129.768C50.2027 130.637 49.9687 131.591 49.9513 132.562C49.9338 133.297 50.0493 133.759 49.9968 133.763Z" fill="#C49385"/>
<path id="Vector_64" d="M114.82 106.858C114.978 106.641 132.796 117.498 132.796 117.498L138.508 143.521L146.73 146.538C146.73 146.538 149.295 117.579 147.342 113.071C145.389 108.563 125.59 92.3438 125.59 92.3438L114.82 106.858Z" fill="#FFBE9D"/>
<path id="Vector_65" d="M136.688 115.5C136.291 116.097 135.763 116.595 135.145 116.956C134.558 117.369 133.886 117.644 133.178 117.761C133.817 117.474 134.441 117.154 135.047 116.802C135.618 116.399 136.166 115.964 136.688 115.5Z" fill="#C49385"/>
<path id="Vector_66" d="M93.3906 106.912L94.7871 131.888L123.263 129.963L122.402 111.371L118.255 105.789L93.3906 106.912Z" fill="#263238"/>
<path id="Vector_67" d="M86.9189 132.447C87.0029 132.926 89.4214 155.547 89.4214 155.547L131.803 152.603L138.974 151.641L135.667 130.578L130.602 129.363L86.9189 132.447Z" fill="#00C652"/>
<path id="Vector_68" opacity="0.4" d="M130.602 129.359L86.9189 132.446C87.0029 132.926 89.4214 155.546 89.4214 155.546L133.546 152.477L130.602 129.359Z" fill="black"/>
<path id="Vector_69" d="M118.993 130.25L94.7871 131.888L93.3906 106.912L118.255 105.789L118.993 130.25Z" fill="#455A64"/>
<path id="Vector_70" d="M102.417 106.506L102.928 114.203L104.223 113.461L104.94 114.203L105.833 113.461L107.212 114.203V106.289L102.417 106.506Z" fill="#263238"/>
<path id="Vector_71" d="M112.535 130.777L110.88 112.031L127.06 116.49L128.621 129.43L112.535 130.777Z" fill="#00C652"/>
<path id="Vector_72" d="M127.05 116.494C127.021 116.542 126.987 116.586 126.948 116.627L126.637 116.994L125.447 118.352L121.313 122.99L121.25 123.06L121.184 122.993L119 120.683L113.235 114.593L111.503 112.731L111.037 112.22C110.98 112.164 110.929 112.1 110.887 112.031C110.951 112.08 111.01 112.134 111.065 112.192L111.555 112.682L113.326 114.502L119.129 120.557L121.327 122.871H121.198L125.398 118.275L126.626 116.952L126.959 116.602C126.985 116.563 127.016 116.527 127.05 116.494Z" fill="#263238"/>
<path id="Vector_73" d="M117.988 119.965C118.034 119.99 116.879 122.202 115.412 124.907C113.946 127.613 112.721 129.786 112.675 129.762C112.63 129.737 113.785 127.525 115.251 124.82C116.718 122.114 117.95 119.941 117.988 119.965Z" fill="#263238"/>
<path id="Vector_74" d="M128.243 129.427C128.201 129.452 127.081 127.66 125.741 125.427C124.4 123.194 123.347 121.356 123.392 121.328C123.438 121.3 124.554 123.096 125.895 125.332C127.235 127.569 128.289 129.403 128.243 129.427Z" fill="#263238"/>
<path id="Vector_75" d="M121.226 130.044L120.169 118.105L130.473 120.947L131.467 129.186L121.226 130.044Z" fill="#00C652"/>
<path id="Vector_76" opacity="0.4" d="M121.226 130.044L120.169 118.105L130.473 120.947L131.467 129.186L121.226 130.044Z" fill="white"/>
<path id="Vector_77" d="M130.472 120.947C130.399 121.065 130.313 121.174 130.217 121.273C130.024 121.5 129.772 121.791 129.468 122.144L126.843 125.105L126.78 125.179L126.713 125.109L125.313 123.639C123.875 122.13 122.58 120.755 121.649 119.754L120.557 118.56C120.416 118.42 120.287 118.268 120.172 118.105C120.327 118.229 120.472 118.365 120.606 118.511L121.743 119.663C122.699 120.643 124.008 122.004 125.446 123.513L126.846 124.986H126.699L129.37 122.067L130.161 121.231C130.256 121.127 130.36 121.032 130.472 120.947Z" fill="#263238"/>
<path id="Vector_78" d="M124.698 123.16C124.74 123.185 124.019 124.599 123.084 126.31C122.548 127.366 121.957 128.393 121.313 129.387C121.795 128.309 122.332 127.258 122.923 126.237C123.46 125.18 124.052 124.153 124.698 123.16Z" fill="#263238"/>
<path id="Vector_79" d="M131.228 129.186C130.637 128.376 130.094 127.531 129.604 126.656C129.061 125.812 128.571 124.934 128.138 124.027C129.268 125.685 130.3 127.408 131.228 129.186Z" fill="#263238"/>
<path id="Vector_80" d="M127.792 120.445V121.404L129.297 121.579L129.377 120.848L127.792 120.445Z" fill="white"/>
<path id="Vector_81" d="M122.479 115.574V116.974L125.321 117.443L125.478 116.372L122.479 115.574Z" fill="white"/>
<path id="Vector_82" d="M111.387 137.756L111.247 130.777L105.588 131.159L106.193 138.25L111.387 137.756Z" fill="#00C652"/>
<path id="Vector_83" d="M129.843 141.423L120.341 142.324L121.138 150.728L130.64 149.827L129.843 141.423Z" fill="#FAFAFA"/>
<path id="Vector_84" d="M130.626 149.837C130.615 149.784 130.607 149.73 130.602 149.676C130.602 149.56 130.57 149.41 130.549 149.221C130.507 148.815 130.444 148.237 130.367 147.513C130.217 146.036 130.017 143.95 129.751 141.44L129.835 141.51L120.34 142.424C120.319 142.445 120.494 142.238 120.42 142.326V142.389V142.462V142.602L120.448 142.889L120.501 143.456C120.539 143.831 120.574 144.202 120.609 144.573C120.676 145.311 120.746 146.032 120.812 146.739C120.942 148.139 121.068 149.487 121.18 150.722L121.092 150.652L127.949 150.043L129.895 149.879L130.416 149.84C130.478 149.836 130.54 149.836 130.602 149.84C130.548 149.853 130.493 149.861 130.437 149.865L129.933 149.924L128.008 150.127L121.11 150.827H121.029V150.747C120.907 149.508 120.777 148.171 120.641 146.764C120.576 146.064 120.507 145.342 120.434 144.597C120.399 144.226 120.364 143.855 120.329 143.477C120.312 143.292 120.294 143.103 120.273 142.914L120.249 142.627V142.487V142.413V142.35C120.175 142.438 120.347 142.228 120.333 142.249L129.832 141.363H129.909V141.44C130.133 143.971 130.318 146.078 130.451 147.569C130.511 148.286 130.556 148.857 130.591 149.263C130.591 149.448 130.616 149.595 130.623 149.707C130.627 149.75 130.628 149.794 130.626 149.837Z" fill="#263238"/>
<path id="Vector_85" d="M129.087 143.444C129.087 143.496 127.431 143.71 125.377 143.927C124.14 144.09 122.896 144.19 121.649 144.228C121.649 144.179 123.305 143.962 125.359 143.745C127.414 143.528 129.083 143.395 129.087 143.444Z" fill="#263238"/>
<path id="Vector_86" d="M129.031 144.875C128.701 144.994 128.359 145.079 128.012 145.13C127.375 145.256 126.49 145.403 125.506 145.519C124.523 145.634 123.623 145.697 122.976 145.718C122.626 145.75 122.275 145.75 121.926 145.718C122.272 145.65 122.623 145.61 122.976 145.599C123.62 145.54 124.509 145.459 125.489 145.344C126.469 145.228 127.354 145.102 127.995 144.994C128.337 144.929 128.683 144.889 129.031 144.875Z" fill="#263238"/>
<path id="Vector_87" d="M129.433 147.996C129.101 148.114 128.759 148.2 128.411 148.252C127.774 148.378 126.888 148.525 125.905 148.64C124.921 148.756 124.025 148.819 123.374 148.84C123.025 148.873 122.673 148.873 122.324 148.84C122.67 148.771 123.022 148.731 123.374 148.721C124.018 148.665 124.911 148.581 125.891 148.465C126.871 148.35 127.756 148.224 128.397 148.115C128.739 148.05 129.085 148.01 129.433 147.996Z" fill="#263238"/>
<path id="Vector_88" d="M128.954 146.395C127.811 146.653 126.656 146.849 125.492 146.983C124.333 147.179 123.165 147.315 121.992 147.389C123.135 147.134 124.291 146.938 125.454 146.801C126.613 146.606 127.781 146.47 128.954 146.395Z" fill="#263238"/>
<path id="Vector_89" d="M137.343 159.412C137.343 159.412 145.166 154.236 145.768 151.59C146.37 148.944 146.73 146.536 146.73 146.536L138.372 143.074L139.202 146.084C139.202 146.084 136.206 147.866 135.898 150.025C135.695 151.464 131.82 153.928 131.82 153.928C131.498 153.538 131.088 153.231 130.624 153.031C130.159 152.831 129.654 152.743 129.15 152.776L125.895 153.007L128.096 157.967L137.343 159.412Z" fill="#FFBE9D"/>
<path id="Vector_90" d="M140.399 152.316C140.285 152.386 140.161 152.437 140.031 152.467C139.786 152.547 139.422 152.628 138.981 152.768C138.483 152.945 138.023 153.213 137.623 153.559C137.119 153.988 136.556 154.342 135.95 154.609C134.83 155.086 133.585 155.19 132.401 154.906C132.193 154.866 131.993 154.792 131.81 154.686C131.734 154.643 131.673 154.579 131.635 154.502C131.596 154.425 131.581 154.338 131.593 154.252C131.598 154.199 131.617 154.148 131.648 154.104C131.679 154.06 131.72 154.024 131.768 154C131.838 153.975 131.876 154 131.876 154C131.876 154 131.838 154 131.785 154.038C131.748 154.065 131.718 154.1 131.697 154.14C131.676 154.18 131.664 154.224 131.662 154.269C131.656 154.342 131.672 154.414 131.708 154.477C131.745 154.539 131.8 154.589 131.866 154.619C132.044 154.707 132.236 154.767 132.433 154.798C133.591 155.034 134.793 154.912 135.88 154.448C136.472 154.184 137.024 153.838 137.518 153.419C137.937 153.071 138.42 152.807 138.939 152.642C139.387 152.516 139.751 152.456 139.989 152.393C140.123 152.357 140.26 152.331 140.399 152.316Z" fill="#C49385"/>
<path id="Vector_91" d="M134.981 156.331C134.981 156.359 134.578 156.128 133.913 155.851C133.046 155.497 132.133 155.269 131.201 155.176C130.928 155.148 130.658 155.141 130.399 155.134H130.35L130.322 155.092C129.917 154.458 129.429 153.881 128.87 153.377C128.446 152.995 128.17 152.799 128.17 152.778C128.17 152.757 128.254 152.806 128.387 152.89C128.576 153.012 128.758 153.144 128.933 153.286C129.53 153.772 130.046 154.35 130.462 154.997L130.389 154.955C130.655 154.955 130.928 154.955 131.208 154.997C132.158 155.089 133.087 155.339 133.955 155.736C134.217 155.855 134.471 155.99 134.715 156.142C134.813 156.191 134.903 156.254 134.981 156.331Z" fill="#C49385"/>
<path id="Vector_92" d="M137.095 154.91C137.095 154.959 136.566 155.159 135.95 155.509C135.334 155.859 134.883 156.226 134.848 156.184C135.425 155.511 136.22 155.06 137.095 154.91Z" fill="#C49385"/>
<path id="Vector_93" d="M141.333 145.603C141.333 145.659 140.787 145.603 140.164 145.76C139.541 145.918 139.114 146.24 139.065 146.194C139.355 145.9 139.719 145.69 140.118 145.586C140.517 145.482 140.937 145.487 141.333 145.603Z" fill="#C49385"/>
</g>
<g id="freepik--Plant--inject-65">
<path id="Vector_94" d="M27.2201 142.616C28.2491 143.841 29.9886 143.249 30.7411 142.378C31.4936 141.506 31.7386 140.323 31.9591 139.193C32.4561 136.61 32.9531 133.904 32.1831 131.388C31.9844 130.622 31.5788 129.926 31.0106 129.375C30.723 129.105 30.3696 128.916 29.9856 128.825C29.6017 128.735 29.2008 128.747 28.8231 128.861C27.9481 129.176 27.4686 130.103 27.1431 130.961C26.1781 133.528 25.7979 136.278 26.0301 139.011C26.1386 140.285 26.4081 141.604 27.2201 142.591" fill="#00C652"/>
<g id="Group_3" opacity="0.2">
<path id="Vector_95" d="M27.2201 142.616C28.2491 143.841 29.9886 143.249 30.7411 142.378C31.4936 141.506 31.7386 140.323 31.9591 139.193C32.4561 136.61 32.9531 133.904 32.1831 131.388C31.9844 130.622 31.5788 129.926 31.0106 129.375C30.723 129.105 30.3696 128.916 29.9856 128.825C29.6017 128.735 29.2008 128.747 28.8231 128.861C27.9481 129.176 27.4686 130.103 27.1431 130.961C26.1781 133.528 25.7979 136.278 26.0301 139.011C26.1386 140.285 26.4081 141.604 27.2201 142.591" fill="black"/>
</g>
<path id="Vector_96" d="M31.2337 148.927C32.6617 148.021 34.4152 147.762 36.0987 147.877C37.0052 147.947 37.9572 148.129 38.6257 148.745C39.2942 149.361 39.5112 150.53 38.8672 151.167C38.4447 151.512 37.9146 151.698 37.3692 151.692C36.0672 151.794 34.6042 151.692 33.6382 152.571C33.0852 153.068 32.7562 153.845 32.0667 154.128C31.7198 154.241 31.3455 154.239 31.0002 154.121C30.6549 154.003 30.3573 153.776 30.1522 153.474C29.755 152.851 29.6133 152.099 29.7567 151.374C29.799 150.88 29.9542 150.403 30.2103 149.979C30.4664 149.554 30.8166 149.195 31.2337 148.927Z" fill="#00C652"/>
<path id="Vector_97" d="M24.8746 144.714C25.7636 143.447 25.7986 141.711 25.2246 140.273C24.6506 138.834 23.5376 137.672 22.2986 136.748C20.832 135.662 19.1676 134.873 17.3986 134.424C16.7117 134.217 15.9885 134.16 15.2776 134.256C14.9286 134.314 14.5986 134.455 14.3154 134.667C14.0322 134.879 13.804 135.156 13.6501 135.474C13.2476 136.447 13.8146 137.536 14.4026 138.411C15.4371 139.954 16.5897 141.414 17.8501 142.779C18.8686 143.874 20.0201 144.942 21.4586 145.351C22.8971 145.761 24.3356 145.565 24.9901 144.536" fill="#00C652"/>
<path id="Vector_98" d="M28.9167 162.325C28.9469 162.126 28.9563 161.924 28.9447 161.723C28.9447 161.289 28.9447 160.743 28.9447 160.092C28.9538 159.286 29.0052 158.481 29.0987 157.681C29.2248 156.705 29.4296 155.742 29.7112 154.8C29.9838 153.86 30.3892 152.963 30.9152 152.137C31.3433 151.464 31.916 150.894 32.5917 150.471C33.0496 150.189 33.5494 149.982 34.0722 149.858C34.2707 149.83 34.4663 149.784 34.6567 149.722C34.4551 149.712 34.2531 149.726 34.0547 149.764C33.5081 149.856 32.982 150.045 32.5007 150.32C31.7873 150.74 31.1802 151.318 30.7262 152.011C30.1783 152.851 29.7561 153.767 29.4732 154.73C29.1888 155.686 28.9874 156.665 28.8712 157.656C28.7895 158.464 28.7556 159.276 28.7697 160.089C28.7697 160.789 28.8117 161.342 28.8362 161.727C28.8401 161.929 28.8671 162.129 28.9167 162.325Z" fill="#263238"/>
<path id="Vector_99" d="M28.9172 161.068C28.9264 160.976 28.9264 160.883 28.9172 160.791C28.9172 160.585 28.8752 160.322 28.8472 160.004C28.7842 159.321 28.6967 158.331 28.6232 157.106C28.4657 154.656 28.3747 151.268 28.4482 147.526C28.5217 143.785 28.7702 140.4 29.0537 137.964C29.1167 137.352 29.1832 136.802 29.2532 136.319C29.3232 135.836 29.3722 135.42 29.4282 135.084C29.4842 134.748 29.5122 134.506 29.5437 134.3C29.5621 134.209 29.5703 134.116 29.5682 134.023C29.5313 134.109 29.5065 134.2 29.4947 134.293C29.4527 134.496 29.4002 134.751 29.3337 135.066C29.2672 135.381 29.1937 135.819 29.1167 136.302C29.0397 136.785 28.9557 137.331 28.8787 137.943C28.4821 141.122 28.2566 144.32 28.2032 147.523C28.1297 151.271 28.2452 154.67 28.4482 157.12C28.5427 158.345 28.6582 159.335 28.7527 160.014C28.7982 160.333 28.8402 160.592 28.8682 160.798C28.8752 160.889 28.8916 160.98 28.9172 161.068Z" fill="#263238"/>
<path id="Vector_100" d="M28.3501 154.542C28.3468 154.266 28.3211 153.991 28.2731 153.719C28.1926 153.194 28.0526 152.438 27.8216 151.514C27.5426 150.436 27.2037 149.374 26.8066 148.333C26.3282 147.054 25.7598 145.811 25.1056 144.612C23.9564 142.401 22.4146 140.417 20.5556 138.757C20.2316 138.475 19.8915 138.212 19.5371 137.969C19.3831 137.861 19.2466 137.752 19.1066 137.668L18.7216 137.448C18.4871 137.304 18.2427 137.176 17.9901 137.066C17.9551 137.122 19.0401 137.633 20.4401 138.89C22.2419 140.569 23.7439 142.543 24.8816 144.728C25.5336 145.913 26.1077 147.14 26.6001 148.399C27.0621 149.561 27.3981 150.636 27.6501 151.549C27.9021 152.463 28.0666 153.208 28.1751 153.726C28.211 154.003 28.2695 154.275 28.3501 154.542Z" fill="#263238"/>
</g>
</g>
</svg>
