<svg width="36" height="35" viewBox="0 0 36 35" fill="none" xmlns="http://www.w3.org/2000/svg">
<path d="M32.982 2.1875H30.7881V7.65625H32.982V2.1875Z" fill="#949494"/>
<path d="M20.8764 4.375H7.75195V12.0312H23.1092V6.78891L22.5882 7.30844C22.4364 7.46513 22.2548 7.59012 22.0541 7.6761C21.8533 7.76209 21.6374 7.80735 21.4189 7.80924C21.2005 7.81113 20.9838 7.76962 20.7816 7.68713C20.5794 7.60464 20.3956 7.48282 20.2412 7.32877C20.0867 7.17473 19.9645 6.99155 19.8818 6.78992C19.799 6.5883 19.7574 6.37226 19.7593 6.15442C19.7612 5.93658 19.8066 5.7213 19.8928 5.52113C19.979 5.32097 20.1044 5.13994 20.2615 4.98859L20.8764 4.375ZM12.1397 8.75H11.0428C10.8973 8.75 10.7578 8.69238 10.655 8.58982C10.5521 8.48727 10.4943 8.34817 10.4943 8.20312C10.4943 8.05808 10.5521 7.91899 10.655 7.81643C10.7578 7.71387 10.8973 7.65625 11.0428 7.65625H12.1397C12.2852 7.65625 12.4247 7.71387 12.5276 7.81643C12.6304 7.91899 12.6882 8.05808 12.6882 8.20312C12.6882 8.34817 12.6304 8.48727 12.5276 8.58982C12.4247 8.69238 12.2852 8.75 12.1397 8.75ZM15.4306 7.65625C15.8183 7.65552 16.1937 7.79161 16.4904 8.04043C16.7871 8.28925 16.9859 8.63473 17.0515 9.01568C17.1172 9.39664 17.0456 9.78849 16.8493 10.1218C16.653 10.4552 16.3447 10.7085 15.9791 10.8369V11.4844H14.8821V10.8369C14.5624 10.7242 14.2854 10.5157 14.0891 10.2401C13.8927 9.96441 13.7866 9.63499 13.7852 9.29688H14.8821C14.8821 9.40504 14.9143 9.51077 14.9746 9.6007C15.0348 9.69064 15.1205 9.76073 15.2207 9.80212C15.3209 9.84351 15.4312 9.85434 15.5376 9.83324C15.644 9.81214 15.7417 9.76006 15.8184 9.68357C15.8951 9.60709 15.9474 9.50965 15.9685 9.40357C15.9897 9.29748 15.9788 9.18752 15.9373 9.0876C15.8958 8.98767 15.8255 8.90226 15.7353 8.84216C15.6451 8.78207 15.5391 8.75 15.4306 8.75C15.0429 8.75073 14.6675 8.61464 14.3708 8.36582C14.0741 8.117 13.8753 7.77152 13.8096 7.39057C13.7439 7.00961 13.8156 6.61776 14.0119 6.28443C14.2082 5.9511 14.5165 5.69779 14.8821 5.56938V4.92188H15.9791V5.56938C16.2988 5.68208 16.5758 5.89052 16.7721 6.16618C16.9685 6.44184 17.0746 6.77126 17.076 7.10938H15.9791C15.9791 7.00121 15.9469 6.89548 15.8866 6.80555C15.8264 6.71561 15.7407 6.64552 15.6405 6.60413C15.5403 6.56274 15.43 6.55191 15.3236 6.57301C15.2172 6.59411 15.1195 6.64619 15.0428 6.72268C14.9661 6.79916 14.9138 6.8966 14.8927 7.00269C14.8715 7.10877 14.8824 7.21873 14.9239 7.31866C14.9654 7.41858 15.0357 7.50399 15.1259 7.56409C15.2161 7.62418 15.3221 7.65625 15.4306 7.65625ZM19.8184 7.65625C19.9638 7.65625 20.1034 7.71387 20.2062 7.81643C20.3091 7.91899 20.3669 8.05808 20.3669 8.20312C20.3669 8.34817 20.3091 8.48727 20.2062 8.58982C20.1034 8.69238 19.9638 8.75 19.8184 8.75H18.7214C18.576 8.75 18.4365 8.69238 18.3336 8.58982C18.2307 8.48727 18.173 8.34817 18.173 8.20312C18.173 8.05808 18.2307 7.91899 18.3336 7.81643C18.4365 7.71387 18.576 7.65625 18.7214 7.65625H19.8184Z" fill="#949494"/>
<path d="M28.2189 4.89398L27.6156 5.09469C26.8271 5.35499 25.9754 5.35499 25.1869 5.09469L24.9039 5.00063L24.2063 5.69516V7.26961L24.5759 7.41945C25.1281 7.64205 25.7244 7.73409 26.3182 7.68835C26.912 7.64262 27.4871 7.46036 27.9984 7.15586L28.8601 6.6407C28.9443 6.58996 29.0408 6.56293 29.1392 6.5625L29.691 6.55867V3.07234L28.0319 2.24492C27.9556 2.20743 27.8717 2.18779 27.7867 2.1875H19.7483C19.6237 2.18744 19.5028 2.22968 19.4055 2.30727L18.1846 3.28125H21.9734L22.393 2.86289C22.4965 2.76327 22.635 2.70815 22.7788 2.7094C22.9226 2.71064 23.0602 2.76816 23.1619 2.86955C23.2636 2.97095 23.3212 3.10811 23.3225 3.2515C23.3237 3.39489 23.2685 3.53303 23.1686 3.63617L21.0372 5.76188C20.9344 5.86443 20.8766 6.0035 20.8766 6.14852C20.8766 6.29353 20.9344 6.4326 21.0372 6.53516C21.14 6.63768 21.2795 6.69527 21.425 6.69527C21.5704 6.69527 21.7099 6.63768 21.8127 6.53516L23.27 5.08211L24.367 3.98836C24.439 3.91654 24.5296 3.86612 24.6287 3.84274C24.7278 3.81937 24.8314 3.82396 24.9281 3.85602L25.5314 4.05727C26.0944 4.24319 26.7026 4.24319 27.2657 4.05727L27.869 3.85602C28.0072 3.81018 28.158 3.82096 28.2882 3.88599C28.4184 3.95101 28.5174 4.06495 28.5633 4.20273C28.6093 4.34052 28.5985 4.49087 28.5333 4.62071C28.4681 4.75055 28.3538 4.84925 28.2156 4.89508L28.2189 4.89398Z" fill="#949494"/>
<path d="M5.55859 31.9723L6.68461 32.7177C6.77441 32.7795 6.88099 32.8125 6.99011 32.8123H15.135C15.2283 32.8138 15.3203 32.7898 15.401 32.7428L22.7588 28.5106C22.8424 28.4617 22.9117 28.3919 22.9598 28.3081C23.0079 28.2242 23.0332 28.1292 23.033 28.0326C23.0326 27.9387 23.007 27.8465 22.959 27.7657C22.9232 27.7026 22.8751 27.6472 22.8176 27.6029C22.76 27.5586 22.6941 27.5262 22.6238 27.5076C22.5554 27.489 22.484 27.4843 22.4137 27.4937C22.3434 27.5031 22.2758 27.5264 22.2147 27.5623L17.6146 30.2064C17.3164 30.4744 16.9295 30.6233 16.5281 30.6248H13.2372C13.0918 30.6248 12.9523 30.5672 12.8494 30.4646C12.7465 30.3621 12.6888 30.223 12.6888 30.0779C12.6888 29.9329 12.7465 29.7938 12.8494 29.6912C12.9523 29.5887 13.0918 29.531 13.2372 29.531H16.5281C16.6736 29.531 16.8131 29.4734 16.9159 29.3709C17.0188 29.2683 17.0766 29.1292 17.0766 28.9842C17.0766 28.8391 17.0188 28.7 16.9159 28.5975C16.8131 28.4949 16.6736 28.4373 16.5281 28.4373H12.1403C12.0322 28.4374 11.9265 28.4056 11.8364 28.346L11.588 28.1819C10.7777 27.6412 9.8247 27.3525 8.84972 27.3525C7.87474 27.3525 6.92171 27.6412 6.11146 28.1819L5.86245 28.346C5.7724 28.4056 5.66669 28.4374 5.55859 28.4373V31.9723Z" fill="#949494"/>
<path d="M4.46147 27.3438H2.26758V32.8125H4.46147V27.3438Z" fill="#949494"/>
<path d="M8.84961 16.4062V25.1562H22.013V16.4062H17.0767V19.1406C17.0767 19.2857 17.0189 19.4248 16.9161 19.5273C16.8132 19.6299 16.6737 19.6875 16.5282 19.6875H14.3344C14.1889 19.6875 14.0494 19.6299 13.9465 19.5273C13.8437 19.4248 13.7859 19.2857 13.7859 19.1406V16.4062H8.84961ZM12.1405 24.6094H9.94656C9.80109 24.6094 9.66159 24.5518 9.55873 24.4492C9.45587 24.3466 9.39808 24.2075 9.39808 24.0625C9.39808 23.9175 9.45587 23.7784 9.55873 23.6758C9.66159 23.5732 9.80109 23.5156 9.94656 23.5156H12.1405C12.2859 23.5156 12.4254 23.5732 12.5283 23.6758C12.6311 23.7784 12.6889 23.9175 12.6889 24.0625C12.6889 24.2075 12.6311 24.3466 12.5283 24.4492C12.4254 24.5518 12.2859 24.6094 12.1405 24.6094ZM12.1405 22.9688H9.94656C9.80109 22.9688 9.66159 22.9111 9.55873 22.8086C9.45587 22.706 9.39808 22.5669 9.39808 22.4219C9.39808 22.2768 9.45587 22.1377 9.55873 22.0352C9.66159 21.9326 9.80109 21.875 9.94656 21.875H12.1405C12.2859 21.875 12.4254 21.9326 12.5283 22.0352C12.6311 22.1377 12.6889 22.2768 12.6889 22.4219C12.6889 22.5669 12.6311 22.706 12.5283 22.8086C12.4254 22.9111 12.2859 22.9688 12.1405 22.9688ZM14.3344 24.6094H13.7859C13.6404 24.6094 13.5009 24.5518 13.398 24.4492C13.2952 24.3466 13.2374 24.2075 13.2374 24.0625C13.2374 23.9175 13.2952 23.7784 13.398 23.6758C13.5009 23.5732 13.6404 23.5156 13.7859 23.5156H14.3344C14.4798 23.5156 14.6193 23.5732 14.7222 23.6758C14.825 23.7784 14.8828 23.9175 14.8828 24.0625C14.8828 24.2075 14.825 24.3466 14.7222 24.4492C14.6193 24.5518 14.4798 24.6094 14.3344 24.6094ZM14.3344 21.875C14.4798 21.875 14.6193 21.9326 14.7222 22.0352C14.825 22.1377 14.8828 22.2768 14.8828 22.4219C14.8828 22.5669 14.825 22.706 14.7222 22.8086C14.6193 22.9111 14.4798 22.9688 14.3344 22.9688H13.7859C13.6404 22.9688 13.5009 22.9111 13.398 22.8086C13.2952 22.706 13.2374 22.5669 13.2374 22.4219C13.2374 22.2768 13.2952 22.1377 13.398 22.0352C13.5009 21.9326 13.6404 21.875 13.7859 21.875H14.3344Z" fill="#949494"/>
<path d="M15.9798 16.4062H14.8828V18.5938H15.9798V16.4062Z" fill="#949494"/>
</svg>
