<svg width="18" height="16" viewBox="0 0 18 16" fill="none" xmlns="http://www.w3.org/2000/svg">
<path d="M9.00008 0.5C13.5834 0.5 17.3334 3.48333 17.3334 7.16667C17.3334 10.85 13.5834 13.8333 9.00008 13.8333C7.96675 13.8333 6.97508 13.6833 6.05841 13.4167C3.62508 15.5 0.666748 15.5 0.666748 15.5C2.60841 13.5583 2.91675 12.25 2.95841 11.75C1.54175 10.5583 0.666748 8.94167 0.666748 7.16667C0.666748 3.48333 4.41675 0.5 9.00008 0.5ZM13.1667 8V6.33333H11.5001V8H13.1667ZM9.83341 8V6.33333H8.16675V8H9.83341ZM6.50008 8V6.33333H4.83341V8H6.50008Z" fill="#414141"/>
</svg>
