<svg width="36" height="35" viewBox="0 0 36 35" fill="none" xmlns="http://www.w3.org/2000/svg">
<path d="M9.94523 9.84375C8.42654 9.84375 6.94196 10.2928 5.67922 11.1341C4.41647 11.9753 3.43228 13.1711 2.85111 14.5701C2.26993 15.9691 2.11787 17.5085 2.41415 18.9937C2.71043 20.4788 3.44175 21.843 4.51562 22.9138C5.5895 23.9845 6.9577 24.7137 8.44721 25.0091C9.93672 25.3046 11.4806 25.1529 12.8837 24.5735C14.2868 23.994 15.486 23.0126 16.3298 21.7536C17.1735 20.4945 17.6239 19.0143 17.6239 17.5C17.6217 15.4701 16.812 13.524 15.3724 12.0886C13.9329 10.6533 11.9811 9.84592 9.94523 9.84375ZM6.06698 21.367L5.29144 22.1402C4.05897 20.9086 3.36681 19.2398 3.36681 17.5C3.36681 15.7602 4.05897 14.0914 5.29144 12.8598L6.06698 13.633C5.03989 14.6594 4.46307 16.0501 4.46307 17.5C4.46307 18.9499 5.03989 20.3406 6.06698 21.367ZM9.94523 16.9531C10.4785 16.9525 10.9937 17.1459 11.3941 17.4971C11.7945 17.8483 12.0526 18.3332 12.1199 18.8606C12.1873 19.3881 12.0592 19.922 11.7598 20.362C11.4604 20.802 11.0102 21.1179 10.4937 21.2505V22.4219H9.39676V21.2505C8.92719 21.1296 8.51102 20.857 8.21332 20.4752C7.91562 20.0935 7.75316 19.6242 7.75134 19.1406H8.84829C8.84829 19.3569 8.91262 19.5684 9.03316 19.7483C9.15369 19.9281 9.32501 20.0683 9.52545 20.1511C9.72589 20.2339 9.94645 20.2556 10.1592 20.2134C10.372 20.1712 10.5675 20.067 10.7209 19.914C10.8743 19.7611 10.9788 19.5662 11.0211 19.354C11.0634 19.1418 11.0417 18.9219 10.9587 18.7221C10.8757 18.5222 10.7351 18.3514 10.5547 18.2312C10.3743 18.111 10.1622 18.0469 9.94523 18.0469C9.41194 18.0475 8.89674 17.8541 8.49634 17.5029C8.09593 17.1517 7.83784 16.6668 7.77052 16.1394C7.7032 15.6119 7.83126 15.078 8.13069 14.638C8.43011 14.198 8.8803 13.8821 9.39676 13.7495V12.5781H10.4937V13.7495C10.9633 13.8704 11.3794 14.143 11.6771 14.5248C11.9749 14.9065 12.1373 15.3758 12.1391 15.8594H11.0422C11.0422 15.6431 10.9778 15.4316 10.8573 15.2517C10.7368 15.0719 10.5655 14.9317 10.365 14.8489C10.1646 14.7661 9.94402 14.7444 9.73123 14.7866C9.51844 14.8288 9.32299 14.933 9.16958 15.086C9.01616 15.2389 8.91169 15.4338 8.86936 15.646C8.82704 15.8582 8.84876 16.0781 8.93179 16.2779C9.01481 16.4778 9.15541 16.6486 9.3358 16.7688C9.51619 16.889 9.72828 16.9531 9.94523 16.9531ZM14.599 22.1402L13.8235 21.367C14.8506 20.3406 15.4274 18.9499 15.4274 17.5C15.4274 16.0501 14.8506 14.6594 13.8235 13.633L14.599 12.8598C15.8315 14.0914 16.5237 15.7602 16.5237 17.5C16.5237 19.2398 15.8315 20.9086 14.599 22.1402Z" fill="#039D55"/>
<path d="M29.811 3.28125L30.0852 2.1875H19.4229L19.6971 3.28125H29.811Z" fill="#039D55"/>
<path d="M21.4629 15.1257V16.6876C21.462 17.0469 21.5326 17.4028 21.6705 17.7347C21.8084 18.0666 22.0109 18.368 22.2664 18.6214L24.7537 21.1014L27.2416 18.6214C27.4969 18.3679 27.6993 18.0665 27.8371 17.7346C27.975 17.4027 28.0455 17.0468 28.0446 16.6876V15.1257L24.7537 13.7197L21.4629 15.1257ZM27.3354 16.2457L25.1415 18.4332C25.0387 18.5358 24.8992 18.5934 24.7537 18.5934C24.6083 18.5934 24.4688 18.5358 24.366 18.4332L23.269 17.3395L24.0446 16.5662L24.7537 17.2733L26.5599 15.4725L27.3354 16.2457Z" fill="#039D55"/>
<path d="M32.4331 2.1875H31.2155L30.7712 3.95937C30.7418 4.07794 30.6735 4.18328 30.577 4.2586C30.4806 4.33393 30.3617 4.37491 30.2392 4.375H19.2697C19.1472 4.37491 19.0283 4.33393 18.9319 4.2586C18.8354 4.18328 18.7671 4.07794 18.7377 3.95937L18.2934 2.1875H17.0758C16.9304 2.1875 16.7908 2.24512 16.688 2.34768C16.5851 2.45024 16.5273 2.58933 16.5273 2.73438V11.7305C17.9408 13.3219 18.7212 15.3742 18.7212 17.5C18.7212 19.6258 17.9408 21.6781 16.5273 23.2695V32.2656C16.5273 32.4107 16.5851 32.5498 16.688 32.6523C16.7908 32.7549 16.9304 32.8125 17.0758 32.8125H32.4331C32.5786 32.8125 32.7181 32.7549 32.8209 32.6523C32.9238 32.5498 32.9816 32.4107 32.9816 32.2656V2.73438C32.9816 2.58933 32.9238 2.45024 32.8209 2.34768C32.7181 2.24512 32.5786 2.1875 32.4331 2.1875ZM29.1422 16.6879C29.1435 17.1908 29.0448 17.689 28.8519 18.1536C28.6589 18.6183 28.3754 19.0402 28.0179 19.3949L25.1422 22.2616C25.0394 22.3642 24.8999 22.4218 24.7545 22.4218C24.609 22.4218 24.4695 22.3642 24.3667 22.2616L21.491 19.3949C21.1335 19.0402 20.8501 18.6183 20.6571 18.1536C20.4641 17.689 20.3654 17.1908 20.3667 16.6879V14.7656C20.3667 14.6586 20.3982 14.554 20.4573 14.4646C20.5163 14.3753 20.6004 14.3052 20.699 14.263L24.5384 12.6224C24.6067 12.5935 24.6802 12.5785 24.7545 12.5785C24.8287 12.5785 24.9022 12.5935 24.9706 12.6224L28.8099 14.263C28.9085 14.3052 28.9926 14.3753 29.0517 14.4646C29.1107 14.554 29.1422 14.6586 29.1422 14.7656V16.6879Z" fill="#039D55"/>
<path d="M6.10627 5.46875H13.7849V3.28125H6.10627V1.64062L2.81543 4.375L6.10627 7.10938V5.46875Z" fill="#039D55"/>
<path d="M10.4941 29.5312H2.81543V31.7188H10.4941V33.3594L13.7849 30.625L10.4941 27.8906V29.5312Z" fill="#039D55"/>
</svg>
